%FSLAX25Y25*%
%MOIN*%
G70*
G01*
G75*
%ADD10C,0.01181*%
%ADD11C,0.03937*%
%ADD12C,0.01575*%
%ADD13C,0.00787*%
%ADD14C,0.02756*%
%ADD15C,0.02953*%
%ADD16C,0.01000*%
%ADD17C,0.01969*%
%ADD18C,0.03937*%
%ADD19C,0.01575*%
%ADD20C,0.11811*%
%ADD21C,0.15748*%
%ADD22C,0.06299*%
%ADD23C,0.04724*%
%ADD24C,0.05906*%
%ADD25R,0.05906X0.05906*%
%ADD26C,0.07874*%
%ADD27R,0.11024X0.14173*%
%ADD28C,0.02756*%
%ADD29R,0.06693X0.04921*%
%ADD30R,0.04803X0.03583*%
%ADD31R,0.03583X0.04803*%
%ADD32R,0.06575X0.06496*%
%ADD33R,0.06496X0.06575*%
%ADD34R,0.13386X0.06890*%
%ADD35R,0.06890X0.13386*%
%ADD36R,0.04921X0.06693*%
%ADD37R,0.07874X0.02362*%
%ADD38O,0.07874X0.02362*%
%ADD39R,0.07874X0.21654*%
%ADD40R,0.02756X0.09843*%
%ADD41R,0.02559X0.13780*%
%ADD42R,0.04331X0.14921*%
%ADD43R,0.10630X0.11811*%
%ADD44R,0.03937X0.01181*%
%ADD45O,0.03937X0.01181*%
%ADD46R,0.06299X0.06299*%
%ADD47R,0.04331X0.06299*%
%ADD48O,0.02362X0.07874*%
%ADD49R,0.02362X0.07874*%
%ADD50R,0.06299X0.12598*%
%ADD51R,0.33465X0.41732*%
%ADD52R,0.13386X0.03937*%
%ADD53C,0.02362*%
D13*
X82677Y216536D02*
G03*
X82677Y216536I-13780J0D01*
G01*
X181102D02*
G03*
X181102Y216536I-13780J0D01*
G01*
X279528D02*
G03*
X279528Y216536I-13780J0D01*
G01*
X377953D02*
G03*
X377953Y216536I-13780J0D01*
G01*
X476378D02*
G03*
X476378Y216536I-13780J0D01*
G01*
X574803D02*
G03*
X574803Y216536I-13780J0D01*
G01*
X673228D02*
G03*
X673228Y216536I-13780J0D01*
G01*
X771654D02*
G03*
X771654Y216536I-13780J0D01*
G01*
X736221Y393701D02*
G03*
X736221Y393701I-13780J0D01*
G01*
X62992Y242914D02*
X74803D01*
X93307Y190158D02*
Y207677D01*
X81102Y190158D02*
X93307D01*
Y225394D02*
Y242914D01*
X82677D02*
X93307D01*
X44488D02*
X55118D01*
X44488Y225295D02*
Y242914D01*
Y190158D02*
X56693D01*
X44488D02*
Y207874D01*
X161417Y242914D02*
X173228D01*
X191732Y190158D02*
Y207677D01*
X179528Y190158D02*
X191732D01*
Y225394D02*
Y242914D01*
X181102D02*
X191732D01*
X142913D02*
X153543D01*
X142913Y225295D02*
Y242914D01*
Y190158D02*
X155118D01*
X142913D02*
Y207874D01*
X259843Y242914D02*
X271654D01*
X290158Y190158D02*
Y207677D01*
X277953Y190158D02*
X290158D01*
Y225394D02*
Y242914D01*
X279528D02*
X290158D01*
X241339D02*
X251969D01*
X241339Y225295D02*
Y242914D01*
Y190158D02*
X253543D01*
X241339D02*
Y207874D01*
X358268Y242914D02*
X370079D01*
X388583Y190158D02*
Y207677D01*
X376378Y190158D02*
X388583D01*
Y225394D02*
Y242914D01*
X377953D02*
X388583D01*
X339764D02*
X350394D01*
X339764Y225295D02*
Y242914D01*
Y190158D02*
X351969D01*
X339764D02*
Y207874D01*
X456693Y242914D02*
X468504D01*
X487008Y190158D02*
Y207677D01*
X474803Y190158D02*
X487008D01*
Y225394D02*
Y242914D01*
X476378D02*
X487008D01*
X438189D02*
X448819D01*
X438189Y225295D02*
Y242914D01*
Y190158D02*
X450394D01*
X438189D02*
Y207874D01*
X555118Y242914D02*
X566929D01*
X585433Y190158D02*
Y207677D01*
X573228Y190158D02*
X585433D01*
Y225394D02*
Y242914D01*
X574803D02*
X585433D01*
X536614D02*
X547244D01*
X536614Y225295D02*
Y242914D01*
Y190158D02*
X548819D01*
X536614D02*
Y207874D01*
X653543Y242914D02*
X665354D01*
X683858Y190158D02*
Y207677D01*
X671654Y190158D02*
X683858D01*
Y225394D02*
Y242914D01*
X673228D02*
X683858D01*
X635039D02*
X645669D01*
X635039Y225295D02*
Y242914D01*
Y190158D02*
X647244D01*
X635039D02*
Y207874D01*
X751969Y242914D02*
X763780D01*
X782283Y190158D02*
Y207677D01*
X770079Y190158D02*
X782283D01*
Y225394D02*
Y242914D01*
X771654D02*
X782283D01*
X733465D02*
X744095D01*
X733465Y225295D02*
Y242914D01*
Y190158D02*
X745669D01*
X733465D02*
Y207874D01*
X716536Y420079D02*
X728346D01*
X746850Y367323D02*
Y384843D01*
X734646Y367323D02*
X746850D01*
Y402559D02*
Y420079D01*
X736221D02*
X746850D01*
X698032D02*
X708662D01*
X698032Y402461D02*
Y420079D01*
Y367323D02*
X710236D01*
X698032D02*
Y385040D01*
D16*
X756201Y168110D02*
X757874Y169784D01*
X756201Y168110D02*
X759547D01*
X757874Y169784D02*
X759547Y168110D01*
X757874Y167421D02*
Y171260D01*
X756201Y170473D02*
X759547D01*
X255906Y363681D02*
X257579Y365354D01*
X254232D02*
X257579D01*
X254232D02*
X255906Y363681D01*
Y362205D02*
Y366043D01*
X254232Y362992D02*
X257579D01*
X629429Y59055D02*
X631102Y57382D01*
Y60729D01*
X629429Y59055D02*
X631102Y60729D01*
X627953Y59055D02*
X631791D01*
X628740Y57382D02*
Y60729D01*
X629429Y118110D02*
X631102Y116437D01*
Y119784D01*
X629429Y118110D02*
X631102Y119784D01*
X627953Y118110D02*
X631791D01*
X628740Y116437D02*
Y119784D01*
X657776Y168110D02*
X659449Y169784D01*
X657776Y168110D02*
X661122D01*
X659449Y169784D02*
X661122Y168110D01*
X659449Y167421D02*
Y171260D01*
X657776Y170473D02*
X661122D01*
X196851Y363681D02*
X198524Y365354D01*
X195177D02*
X198524D01*
X195177D02*
X196851Y363681D01*
Y362205D02*
Y366043D01*
X195177Y362992D02*
X198524D01*
X570374Y59055D02*
X572047Y57382D01*
Y60729D01*
X570374Y59055D02*
X572047Y60729D01*
X568898Y59055D02*
X572736D01*
X569685Y57382D02*
Y60729D01*
X570374Y118110D02*
X572047Y116437D01*
Y119784D01*
X570374Y118110D02*
X572047Y119784D01*
X568898Y118110D02*
X572736D01*
X569685Y116437D02*
Y119784D01*
X559350Y168110D02*
X561024Y169784D01*
X559350Y168110D02*
X562697D01*
X561024Y169784D02*
X562697Y168110D01*
X561024Y167421D02*
Y171260D01*
X559350Y170473D02*
X562697D01*
X137795Y363681D02*
X139469Y365354D01*
X136122D02*
X139469D01*
X136122D02*
X137795Y363681D01*
Y362205D02*
Y366043D01*
X136122Y362992D02*
X139469D01*
X511319Y59055D02*
X512992Y57382D01*
Y60729D01*
X511319Y59055D02*
X512992Y60729D01*
X509843Y59055D02*
X513681D01*
X510630Y57382D02*
Y60729D01*
X511319Y118110D02*
X512992Y116437D01*
Y119784D01*
X511319Y118110D02*
X512992Y119784D01*
X509843Y118110D02*
X513681D01*
X510630Y116437D02*
Y119784D01*
X460925Y168110D02*
X462599Y169784D01*
X460925Y168110D02*
X464272D01*
X462599Y169784D02*
X464272Y168110D01*
X462599Y167421D02*
Y171260D01*
X460925Y170473D02*
X464272D01*
X78740Y363681D02*
X80414Y365354D01*
X77067D02*
X80414D01*
X77067D02*
X78740Y363681D01*
Y362205D02*
Y366043D01*
X77067Y362992D02*
X80414D01*
X452264Y59055D02*
X453937Y57382D01*
Y60729D01*
X452264Y59055D02*
X453937Y60729D01*
X450787Y59055D02*
X454626D01*
X451575Y57382D02*
Y60729D01*
X452264Y118110D02*
X453937Y116437D01*
Y119784D01*
X452264Y118110D02*
X453937Y119784D01*
X450787Y118110D02*
X454626D01*
X451575Y116437D02*
Y119784D01*
X362500Y168110D02*
X364173Y169784D01*
X362500Y168110D02*
X365846D01*
X364173Y169784D02*
X365846Y168110D01*
X364173Y167421D02*
Y171260D01*
X362500Y170473D02*
X365846D01*
X255414Y423229D02*
X257087Y421555D01*
Y424902D01*
X255414Y423229D02*
X257087Y424902D01*
X253937Y423229D02*
X257776D01*
X254725Y421555D02*
Y424902D01*
X373524Y59055D02*
X375197Y57382D01*
Y60729D01*
X373524Y59055D02*
X375197Y60729D01*
X372047Y59055D02*
X375886D01*
X372835Y57382D02*
Y60729D01*
X373524Y118110D02*
X375197Y116437D01*
Y119784D01*
X373524Y118110D02*
X375197Y119784D01*
X372047Y118110D02*
X375886D01*
X372835Y116437D02*
Y119784D01*
X264075Y168110D02*
X265748Y169784D01*
X264075Y168110D02*
X267421D01*
X265748Y169784D02*
X267421Y168110D01*
X265748Y167421D02*
Y171260D01*
X264075Y170473D02*
X267421D01*
X196358Y423229D02*
X198032Y421555D01*
Y424902D01*
X196358Y423229D02*
X198032Y424902D01*
X194882Y423229D02*
X198721D01*
X195669Y421555D02*
Y424902D01*
X314469Y59055D02*
X316142Y57382D01*
Y60729D01*
X314469Y59055D02*
X316142Y60729D01*
X312992Y59055D02*
X316831D01*
X313780Y57382D02*
Y60729D01*
X314469Y118110D02*
X316142Y116437D01*
Y119784D01*
X314469Y118110D02*
X316142Y119784D01*
X312992Y118110D02*
X316831D01*
X313780Y116437D02*
Y119784D01*
X165650Y168110D02*
X167323Y169784D01*
X165650Y168110D02*
X168996D01*
X167323Y169784D02*
X168996Y168110D01*
X167323Y167421D02*
Y171260D01*
X165650Y170473D02*
X168996D01*
X137303Y423229D02*
X138976Y421555D01*
Y424902D01*
X137303Y423229D02*
X138976Y424902D01*
X135827Y423229D02*
X139665D01*
X136614Y421555D02*
Y424902D01*
X255414Y59055D02*
X257087Y57382D01*
Y60729D01*
X255414Y59055D02*
X257087Y60729D01*
X253937Y59055D02*
X257776D01*
X254725Y57382D02*
Y60729D01*
X255414Y118110D02*
X257087Y116437D01*
Y119784D01*
X255414Y118110D02*
X257087Y119784D01*
X253937Y118110D02*
X257776D01*
X254725Y116437D02*
Y119784D01*
X67225Y168110D02*
X68898Y169784D01*
X67225Y168110D02*
X70571D01*
X68898Y169784D02*
X70571Y168110D01*
X68898Y167421D02*
Y171260D01*
X67225Y170473D02*
X70571D01*
X78248Y423229D02*
X79921Y421555D01*
Y424902D01*
X78248Y423229D02*
X79921Y424902D01*
X76772Y423229D02*
X80610D01*
X77559Y421555D02*
Y424902D01*
X196358Y59055D02*
X198032Y57382D01*
Y60729D01*
X196358Y59055D02*
X198032Y60729D01*
X194882Y59055D02*
X198721D01*
X195669Y57382D02*
Y60729D01*
X196358Y118110D02*
X198032Y116437D01*
Y119784D01*
X196358Y118110D02*
X198032Y119784D01*
X194882Y118110D02*
X198721D01*
X195669Y116437D02*
Y119784D01*
X633858Y490158D02*
X653543Y482283D01*
X633858Y332677D02*
X653543Y340551D01*
Y482283D01*
X633858Y487106D02*
Y488976D01*
X358733Y87948D02*
X357734Y88948D01*
X355734D01*
X354735Y87948D01*
Y86949D01*
X355734Y85949D01*
X357734D01*
X358733Y84949D01*
Y83950D01*
X357734Y82950D01*
X355734D01*
X354735Y83950D01*
X360733Y82950D02*
X362732D01*
X361733D01*
Y88948D01*
X360733Y87948D01*
X369730Y82950D02*
X365731D01*
X369730Y86949D01*
Y87948D01*
X368730Y88948D01*
X366731D01*
X365731Y87948D01*
X299733D02*
X298734Y88948D01*
X296734D01*
X295735Y87948D01*
Y86949D01*
X296734Y85949D01*
X298734D01*
X299733Y84949D01*
Y83950D01*
X298734Y82950D01*
X296734D01*
X295735Y83950D01*
X301733Y82950D02*
X303732D01*
X302732D01*
Y88948D01*
X301733Y87948D01*
X306731Y82950D02*
X308731D01*
X307731D01*
Y88948D01*
X306731Y87948D01*
X240633D02*
X239634Y88948D01*
X237634D01*
X236635Y87948D01*
Y86949D01*
X237634Y85949D01*
X239634D01*
X240633Y84949D01*
Y83950D01*
X239634Y82950D01*
X237634D01*
X236635Y83950D01*
X242633Y82950D02*
X244632D01*
X243633D01*
Y88948D01*
X242633Y87948D01*
X247631D02*
X248631Y88948D01*
X250630D01*
X251630Y87948D01*
Y83950D01*
X250630Y82950D01*
X248631D01*
X247631Y83950D01*
Y87948D01*
X181426Y86888D02*
X180427Y87888D01*
X178427D01*
X177428Y86888D01*
Y85888D01*
X178427Y84889D01*
X180427D01*
X181426Y83889D01*
Y82889D01*
X180427Y81890D01*
X178427D01*
X177428Y82889D01*
X183426D02*
X184425Y81890D01*
X186425D01*
X187424Y82889D01*
Y86888D01*
X186425Y87888D01*
X184425D01*
X183426Y86888D01*
Y85888D01*
X184425Y84889D01*
X187424D01*
X614633Y87948D02*
X613634Y88948D01*
X611634D01*
X610635Y87948D01*
Y86949D01*
X611634Y85949D01*
X613634D01*
X614633Y84949D01*
Y83950D01*
X613634Y82950D01*
X611634D01*
X610635Y83950D01*
X619632Y82950D02*
Y88948D01*
X616633Y85949D01*
X620632D01*
X555633Y87948D02*
X554634Y88948D01*
X552634D01*
X551635Y87948D01*
Y86949D01*
X552634Y85949D01*
X554634D01*
X555633Y84949D01*
Y83950D01*
X554634Y82950D01*
X552634D01*
X551635Y83950D01*
X557633Y87948D02*
X558633Y88948D01*
X560632D01*
X561631Y87948D01*
Y86949D01*
X560632Y85949D01*
X559632D01*
X560632D01*
X561631Y84949D01*
Y83950D01*
X560632Y82950D01*
X558633D01*
X557633Y83950D01*
X496533Y87948D02*
X495534Y88948D01*
X493534D01*
X492535Y87948D01*
Y86949D01*
X493534Y85949D01*
X495534D01*
X496533Y84949D01*
Y83950D01*
X495534Y82950D01*
X493534D01*
X492535Y83950D01*
X502531Y82950D02*
X498533D01*
X502531Y86949D01*
Y87948D01*
X501532Y88948D01*
X499533D01*
X498533Y87948D01*
X437433D02*
X436434Y88948D01*
X434434D01*
X433435Y87948D01*
Y86949D01*
X434434Y85949D01*
X436434D01*
X437433Y84949D01*
Y83950D01*
X436434Y82950D01*
X434434D01*
X433435Y83950D01*
X439433Y82950D02*
X441432D01*
X440433D01*
Y88948D01*
X439433Y87948D01*
X614633Y146948D02*
X613634Y147948D01*
X611634D01*
X610635Y146948D01*
Y145949D01*
X611634Y144949D01*
X613634D01*
X614633Y143949D01*
Y142949D01*
X613634Y141950D01*
X611634D01*
X610635Y142949D01*
X616633Y146948D02*
X617632Y147948D01*
X619632D01*
X620632Y146948D01*
Y145949D01*
X619632Y144949D01*
X620632Y143949D01*
Y142949D01*
X619632Y141950D01*
X617632D01*
X616633Y142949D01*
Y143949D01*
X617632Y144949D01*
X616633Y145949D01*
Y146948D01*
X617632Y144949D02*
X619632D01*
X555633Y146948D02*
X554634Y147948D01*
X552634D01*
X551635Y146948D01*
Y145949D01*
X552634Y144949D01*
X554634D01*
X555633Y143949D01*
Y142949D01*
X554634Y141950D01*
X552634D01*
X551635Y142949D01*
X557633Y147948D02*
X561631D01*
Y146948D01*
X557633Y142949D01*
Y141950D01*
X496333Y146731D02*
X495334Y147730D01*
X493334D01*
X492335Y146731D01*
Y145731D01*
X493334Y144731D01*
X495334D01*
X496333Y143732D01*
Y142732D01*
X495334Y141732D01*
X493334D01*
X492335Y142732D01*
X502331Y147730D02*
X500332Y146731D01*
X498333Y144731D01*
Y142732D01*
X499333Y141732D01*
X501332D01*
X502331Y142732D01*
Y143732D01*
X501332Y144731D01*
X498333D01*
X437433Y146948D02*
X436434Y147948D01*
X434434D01*
X433435Y146948D01*
Y145949D01*
X434434Y144949D01*
X436434D01*
X437433Y143949D01*
Y142949D01*
X436434Y141950D01*
X434434D01*
X433435Y142949D01*
X443432Y147948D02*
X439433D01*
Y144949D01*
X441432Y145949D01*
X442432D01*
X443432Y144949D01*
Y142949D01*
X442432Y141950D01*
X440433D01*
X439433Y142949D01*
X358584Y146731D02*
X357584Y147730D01*
X355585D01*
X354585Y146731D01*
Y145731D01*
X355585Y144731D01*
X357584D01*
X358584Y143732D01*
Y142732D01*
X357584Y141732D01*
X355585D01*
X354585Y142732D01*
X363582Y141732D02*
Y147730D01*
X360583Y144731D01*
X364582D01*
X299733Y146948D02*
X298734Y147948D01*
X296734D01*
X295735Y146948D01*
Y145949D01*
X296734Y144949D01*
X298734D01*
X299733Y143949D01*
Y142949D01*
X298734Y141950D01*
X296734D01*
X295735Y142949D01*
X301733Y146948D02*
X302732Y147948D01*
X304732D01*
X305732Y146948D01*
Y145949D01*
X304732Y144949D01*
X303732D01*
X304732D01*
X305732Y143949D01*
Y142949D01*
X304732Y141950D01*
X302732D01*
X301733Y142949D01*
X240633Y146948D02*
X239634Y147948D01*
X237634D01*
X236635Y146948D01*
Y145949D01*
X237634Y144949D01*
X239634D01*
X240633Y143949D01*
Y142949D01*
X239634Y141950D01*
X237634D01*
X236635Y142949D01*
X246632Y141950D02*
X242633D01*
X246632Y145949D01*
Y146948D01*
X245632Y147948D01*
X243633D01*
X242633Y146948D01*
X181351Y144762D02*
X180352Y145762D01*
X178352D01*
X177353Y144762D01*
Y143763D01*
X178352Y142763D01*
X180352D01*
X181351Y141763D01*
Y140763D01*
X180352Y139764D01*
X178352D01*
X177353Y140763D01*
X183351Y139764D02*
X185350D01*
X184351D01*
Y145762D01*
X183351Y144762D01*
X240433Y392400D02*
X239434Y393400D01*
X237434D01*
X236435Y392400D01*
Y391400D01*
X237434Y390401D01*
X239434D01*
X240433Y389401D01*
Y388401D01*
X239434Y387402D01*
X237434D01*
X236435Y388401D01*
X242433Y387402D02*
X244432D01*
X243432D01*
Y393400D01*
X242433Y392400D01*
X251430Y387402D02*
X247431D01*
X251430Y391400D01*
Y392400D01*
X250430Y393400D01*
X248431D01*
X247431Y392400D01*
X181433D02*
X180434Y393400D01*
X178434D01*
X177435Y392400D01*
Y391400D01*
X178434Y390401D01*
X180434D01*
X181433Y389401D01*
Y388401D01*
X180434Y387402D01*
X178434D01*
X177435Y388401D01*
X183433Y387402D02*
X185432D01*
X184432D01*
Y393400D01*
X183433Y392400D01*
X188431Y387402D02*
X190430D01*
X189431D01*
Y393400D01*
X188431Y392400D01*
X122109D02*
X121109Y393400D01*
X119110D01*
X118110Y392400D01*
Y391400D01*
X119110Y390401D01*
X121109D01*
X122109Y389401D01*
Y388401D01*
X121109Y387402D01*
X119110D01*
X118110Y388401D01*
X124108Y387402D02*
X126108D01*
X125108D01*
Y393400D01*
X124108Y392400D01*
X129107D02*
X130106Y393400D01*
X132106D01*
X133105Y392400D01*
Y388401D01*
X132106Y387402D01*
X130106D01*
X129107Y388401D01*
Y392400D01*
X63321Y390825D02*
X62321Y391825D01*
X60322D01*
X59322Y390825D01*
Y389826D01*
X60322Y388826D01*
X62321D01*
X63321Y387826D01*
Y386826D01*
X62321Y385827D01*
X60322D01*
X59322Y386826D01*
X65320D02*
X66320Y385827D01*
X68319D01*
X69319Y386826D01*
Y390825D01*
X68319Y391825D01*
X66320D01*
X65320Y390825D01*
Y389826D01*
X66320Y388826D01*
X69319D01*
X240633Y452148D02*
X239634Y453148D01*
X237634D01*
X236635Y452148D01*
Y451149D01*
X237634Y450149D01*
X239634D01*
X240633Y449149D01*
Y448149D01*
X239634Y447150D01*
X237634D01*
X236635Y448149D01*
X242633Y452148D02*
X243633Y453148D01*
X245632D01*
X246632Y452148D01*
Y451149D01*
X245632Y450149D01*
X246632Y449149D01*
Y448149D01*
X245632Y447150D01*
X243633D01*
X242633Y448149D01*
Y449149D01*
X243633Y450149D01*
X242633Y451149D01*
Y452148D01*
X243633Y450149D02*
X245632D01*
X181533Y452148D02*
X180534Y453148D01*
X178534D01*
X177535Y452148D01*
Y451149D01*
X178534Y450149D01*
X180534D01*
X181533Y449149D01*
Y448149D01*
X180534Y447150D01*
X178534D01*
X177535Y448149D01*
X183533Y453148D02*
X187531D01*
Y452148D01*
X183533Y448149D01*
Y447150D01*
X122533Y452148D02*
X121534Y453148D01*
X119534D01*
X118535Y452148D01*
Y451149D01*
X119534Y450149D01*
X121534D01*
X122533Y449149D01*
Y448149D01*
X121534Y447150D01*
X119534D01*
X118535Y448149D01*
X128532Y453148D02*
X126532Y452148D01*
X124533Y450149D01*
Y448149D01*
X125532Y447150D01*
X127532D01*
X128532Y448149D01*
Y449149D01*
X127532Y450149D01*
X124533D01*
X63054Y450274D02*
X62054Y451274D01*
X60055D01*
X59055Y450274D01*
Y449274D01*
X60055Y448275D01*
X62054D01*
X63054Y447275D01*
Y446275D01*
X62054Y445276D01*
X60055D01*
X59055Y446275D01*
X69052Y451274D02*
X65053D01*
Y448275D01*
X67053Y449274D01*
X68052D01*
X69052Y448275D01*
Y446275D01*
X68052Y445276D01*
X66053D01*
X65053Y446275D01*
X60322Y401274D02*
Y395276D01*
X63321D01*
X64320Y396275D01*
Y400274D01*
X63321Y401274D01*
X60322D01*
X66320Y395276D02*
X68319D01*
X67320D01*
Y401274D01*
X66320Y400274D01*
X60298Y238857D02*
X59298Y239856D01*
X57299D01*
X56299Y238857D01*
Y234858D01*
X57299Y233858D01*
X59298D01*
X60298Y234858D01*
X63297Y233858D02*
X65296D01*
X66296Y234858D01*
Y236857D01*
X65296Y237857D01*
X63297D01*
X62297Y236857D01*
Y234858D01*
X63297Y233858D01*
X72294Y239856D02*
Y233858D01*
X69295D01*
X68295Y234858D01*
Y236857D01*
X69295Y237857D01*
X72294D01*
X74294Y232859D02*
X78292D01*
X80291Y233858D02*
X82291D01*
X81291D01*
Y239856D01*
X80291Y238857D01*
X158723D02*
X157723Y239856D01*
X155724D01*
X154725Y238857D01*
Y234858D01*
X155724Y233858D01*
X157723D01*
X158723Y234858D01*
X161722Y233858D02*
X163722D01*
X164721Y234858D01*
Y236857D01*
X163722Y237857D01*
X161722D01*
X160722Y236857D01*
Y234858D01*
X161722Y233858D01*
X170719Y239856D02*
Y233858D01*
X167720D01*
X166721Y234858D01*
Y236857D01*
X167720Y237857D01*
X170719D01*
X172719Y232859D02*
X176717D01*
X182715Y233858D02*
X178717D01*
X182715Y237857D01*
Y238857D01*
X181716Y239856D01*
X179716D01*
X178717Y238857D01*
X257148D02*
X256149Y239856D01*
X254149D01*
X253150Y238857D01*
Y234858D01*
X254149Y233858D01*
X256149D01*
X257148Y234858D01*
X260147Y233858D02*
X262147D01*
X263146Y234858D01*
Y236857D01*
X262147Y237857D01*
X260147D01*
X259148Y236857D01*
Y234858D01*
X260147Y233858D01*
X269145Y239856D02*
Y233858D01*
X266145D01*
X265146Y234858D01*
Y236857D01*
X266145Y237857D01*
X269145D01*
X271144Y232859D02*
X275143D01*
X277142Y238857D02*
X278142Y239856D01*
X280141D01*
X281141Y238857D01*
Y237857D01*
X280141Y236857D01*
X279141D01*
X280141D01*
X281141Y235858D01*
Y234858D01*
X280141Y233858D01*
X278142D01*
X277142Y234858D01*
X355574Y238857D02*
X354574Y239856D01*
X352574D01*
X351575Y238857D01*
Y234858D01*
X352574Y233858D01*
X354574D01*
X355574Y234858D01*
X358573Y233858D02*
X360572D01*
X361572Y234858D01*
Y236857D01*
X360572Y237857D01*
X358573D01*
X357573Y236857D01*
Y234858D01*
X358573Y233858D01*
X367570Y239856D02*
Y233858D01*
X364571D01*
X363571Y234858D01*
Y236857D01*
X364571Y237857D01*
X367570D01*
X369569Y232859D02*
X373568D01*
X378566Y233858D02*
Y239856D01*
X375567Y236857D01*
X379566D01*
X453999Y238857D02*
X452999Y239856D01*
X451000D01*
X450000Y238857D01*
Y234858D01*
X451000Y233858D01*
X452999D01*
X453999Y234858D01*
X456998Y233858D02*
X458997D01*
X459997Y234858D01*
Y236857D01*
X458997Y237857D01*
X456998D01*
X455998Y236857D01*
Y234858D01*
X456998Y233858D01*
X465995Y239856D02*
Y233858D01*
X462996D01*
X461996Y234858D01*
Y236857D01*
X462996Y237857D01*
X465995D01*
X467994Y232859D02*
X471993D01*
X477991Y239856D02*
X473992D01*
Y236857D01*
X475992Y237857D01*
X476991D01*
X477991Y236857D01*
Y234858D01*
X476991Y233858D01*
X474992D01*
X473992Y234858D01*
X552424Y238857D02*
X551424Y239856D01*
X549425D01*
X548425Y238857D01*
Y234858D01*
X549425Y233858D01*
X551424D01*
X552424Y234858D01*
X555423Y233858D02*
X557422D01*
X558422Y234858D01*
Y236857D01*
X557422Y237857D01*
X555423D01*
X554423Y236857D01*
Y234858D01*
X555423Y233858D01*
X564420Y239856D02*
Y233858D01*
X561421D01*
X560421Y234858D01*
Y236857D01*
X561421Y237857D01*
X564420D01*
X566419Y232859D02*
X570418D01*
X576416Y239856D02*
X574417Y238857D01*
X572417Y236857D01*
Y234858D01*
X573417Y233858D01*
X575417D01*
X576416Y234858D01*
Y235858D01*
X575417Y236857D01*
X572417D01*
X650849Y238857D02*
X649850Y239856D01*
X647850D01*
X646850Y238857D01*
Y234858D01*
X647850Y233858D01*
X649850D01*
X650849Y234858D01*
X653848Y233858D02*
X655848D01*
X656847Y234858D01*
Y236857D01*
X655848Y237857D01*
X653848D01*
X652848Y236857D01*
Y234858D01*
X653848Y233858D01*
X662845Y239856D02*
Y233858D01*
X659846D01*
X658847Y234858D01*
Y236857D01*
X659846Y237857D01*
X662845D01*
X664845Y232859D02*
X668843D01*
X670843Y239856D02*
X674841D01*
Y238857D01*
X670843Y234858D01*
Y233858D01*
X749274Y238857D02*
X748275Y239856D01*
X746275D01*
X745276Y238857D01*
Y234858D01*
X746275Y233858D01*
X748275D01*
X749274Y234858D01*
X752273Y233858D02*
X754273D01*
X755272Y234858D01*
Y236857D01*
X754273Y237857D01*
X752273D01*
X751274Y236857D01*
Y234858D01*
X752273Y233858D01*
X761271Y239856D02*
Y233858D01*
X758272D01*
X757272Y234858D01*
Y236857D01*
X758272Y237857D01*
X761271D01*
X763270Y232859D02*
X767269D01*
X769268Y238857D02*
X770268Y239856D01*
X772267D01*
X773267Y238857D01*
Y237857D01*
X772267Y236857D01*
X773267Y235858D01*
Y234858D01*
X772267Y233858D01*
X770268D01*
X769268Y234858D01*
Y235858D01*
X770268Y236857D01*
X769268Y237857D01*
Y238857D01*
X770268Y236857D02*
X772267D01*
X713841Y414447D02*
X712842Y415447D01*
X710842D01*
X709843Y414447D01*
Y410449D01*
X710842Y409449D01*
X712842D01*
X713841Y410449D01*
X716840Y409449D02*
X718840D01*
X719839Y410449D01*
Y412448D01*
X718840Y413448D01*
X716840D01*
X715841Y412448D01*
Y410449D01*
X716840Y409449D01*
X725837Y415447D02*
Y409449D01*
X722838D01*
X721839Y410449D01*
Y412448D01*
X722838Y413448D01*
X725837D01*
X727837Y408449D02*
X731836D01*
X733835Y410449D02*
X734834Y409449D01*
X736834D01*
X737833Y410449D01*
Y414447D01*
X736834Y415447D01*
X734834D01*
X733835Y414447D01*
Y413448D01*
X734834Y412448D01*
X737833D01*
X177353Y96549D02*
Y90551D01*
X180352D01*
X181351Y91551D01*
Y95550D01*
X180352Y96549D01*
X177353D01*
X183351Y90551D02*
X185350D01*
X184351D01*
Y96549D01*
X183351Y95550D01*
X176428Y37494D02*
Y31496D01*
X179427D01*
X180427Y32496D01*
Y36494D01*
X179427Y37494D01*
X176428D01*
X182426Y31496D02*
X184425D01*
X183426D01*
Y37494D01*
X182426Y36494D01*
X56299Y198911D02*
Y192913D01*
X59298D01*
X60298Y193913D01*
Y197912D01*
X59298Y198911D01*
X56299D01*
X62297Y192913D02*
X64297D01*
X63297D01*
Y198911D01*
X62297Y197912D01*
X236428Y96549D02*
Y90551D01*
X239427D01*
X240426Y91551D01*
Y95550D01*
X239427Y96549D01*
X236428D01*
X246424Y90551D02*
X242426D01*
X246424Y94550D01*
Y95550D01*
X245425Y96549D01*
X243425D01*
X242426Y95550D01*
X239497Y37494D02*
Y31496D01*
X242496D01*
X243495Y32496D01*
Y36494D01*
X242496Y37494D01*
X239497D01*
X249494Y31496D02*
X245495D01*
X249494Y35495D01*
Y36494D01*
X248494Y37494D01*
X246495D01*
X245495Y36494D01*
X123228Y401274D02*
Y395276D01*
X126227D01*
X127227Y396275D01*
Y400274D01*
X126227Y401274D01*
X123228D01*
X133225Y395276D02*
X129226D01*
X133225Y399274D01*
Y400274D01*
X132225Y401274D01*
X130226D01*
X129226Y400274D01*
X154725Y198911D02*
Y192913D01*
X157723D01*
X158723Y193913D01*
Y197912D01*
X157723Y198911D01*
X154725D01*
X164721Y192913D02*
X160722D01*
X164721Y196912D01*
Y197912D01*
X163722Y198911D01*
X161722D01*
X160722Y197912D01*
X308835Y129248D02*
Y123250D01*
X311834D01*
X312833Y124249D01*
Y128248D01*
X311834Y129248D01*
X308835D01*
X314833Y128248D02*
X315832Y129248D01*
X317832D01*
X318831Y128248D01*
Y127249D01*
X317832Y126249D01*
X316832D01*
X317832D01*
X318831Y125249D01*
Y124249D01*
X317832Y123250D01*
X315832D01*
X314833Y124249D01*
X297528Y37494D02*
Y31496D01*
X300527D01*
X301526Y32496D01*
Y36494D01*
X300527Y37494D01*
X297528D01*
X303526Y36494D02*
X304525Y37494D01*
X306525D01*
X307524Y36494D01*
Y35495D01*
X306525Y34495D01*
X305525D01*
X306525D01*
X307524Y33495D01*
Y32496D01*
X306525Y31496D01*
X304525D01*
X303526Y32496D01*
X181496Y401274D02*
Y395276D01*
X184495D01*
X185495Y396275D01*
Y400274D01*
X184495Y401274D01*
X181496D01*
X187494Y400274D02*
X188494Y401274D01*
X190493D01*
X191493Y400274D01*
Y399274D01*
X190493Y398275D01*
X189494D01*
X190493D01*
X191493Y397275D01*
Y396275D01*
X190493Y395276D01*
X188494D01*
X187494Y396275D01*
X253150Y198911D02*
Y192913D01*
X256149D01*
X257148Y193913D01*
Y197912D01*
X256149Y198911D01*
X253150D01*
X259148Y197912D02*
X260147Y198911D01*
X262147D01*
X263146Y197912D01*
Y196912D01*
X262147Y195912D01*
X261147D01*
X262147D01*
X263146Y194913D01*
Y193913D01*
X262147Y192913D01*
X260147D01*
X259148Y193913D01*
X367835Y129248D02*
Y123250D01*
X370834D01*
X371833Y124249D01*
Y128248D01*
X370834Y129248D01*
X367835D01*
X376832Y123250D02*
Y129248D01*
X373833Y126249D01*
X377832D01*
X357559Y37494D02*
Y31496D01*
X360558D01*
X361558Y32496D01*
Y36494D01*
X360558Y37494D01*
X357559D01*
X366556Y31496D02*
Y37494D01*
X363557Y34495D01*
X367556D01*
X241339Y401274D02*
Y395276D01*
X244338D01*
X245337Y396275D01*
Y400274D01*
X244338Y401274D01*
X241339D01*
X250336Y395276D02*
Y401274D01*
X247337Y398275D01*
X251335D01*
X351575Y198911D02*
Y192913D01*
X354574D01*
X355574Y193913D01*
Y197912D01*
X354574Y198911D01*
X351575D01*
X360572Y192913D02*
Y198911D01*
X357573Y195912D01*
X361572D01*
X446535Y129248D02*
Y123250D01*
X449534D01*
X450533Y124249D01*
Y128248D01*
X449534Y129248D01*
X446535D01*
X456531D02*
X452533D01*
Y126249D01*
X454532Y127249D01*
X455532D01*
X456531Y126249D01*
Y124249D01*
X455532Y123250D01*
X453533D01*
X452533Y124249D01*
X432354Y37494D02*
Y31496D01*
X435353D01*
X436353Y32496D01*
Y36494D01*
X435353Y37494D01*
X432354D01*
X442351D02*
X438352D01*
Y34495D01*
X440351Y35495D01*
X441351D01*
X442351Y34495D01*
Y32496D01*
X441351Y31496D01*
X439352D01*
X438352Y32496D01*
X59322Y342612D02*
Y336614D01*
X62321D01*
X63321Y337614D01*
Y341613D01*
X62321Y342612D01*
X59322D01*
X69319D02*
X65320D01*
Y339613D01*
X67320Y340613D01*
X68319D01*
X69319Y339613D01*
Y337614D01*
X68319Y336614D01*
X66320D01*
X65320Y337614D01*
X450000Y198911D02*
Y192913D01*
X452999D01*
X453999Y193913D01*
Y197912D01*
X452999Y198911D01*
X450000D01*
X459997D02*
X455998D01*
Y195912D01*
X457998Y196912D01*
X458997D01*
X459997Y195912D01*
Y193913D01*
X458997Y192913D01*
X456998D01*
X455998Y193913D01*
X505635Y129248D02*
Y123250D01*
X508634D01*
X509633Y124249D01*
Y128248D01*
X508634Y129248D01*
X505635D01*
X515631D02*
X513632Y128248D01*
X511633Y126249D01*
Y124249D01*
X512633Y123250D01*
X514632D01*
X515631Y124249D01*
Y125249D01*
X514632Y126249D01*
X511633D01*
X492370Y37494D02*
Y31496D01*
X495369D01*
X496369Y32496D01*
Y36494D01*
X495369Y37494D01*
X492370D01*
X502367D02*
X500368Y36494D01*
X498368Y34495D01*
Y32496D01*
X499368Y31496D01*
X501367D01*
X502367Y32496D01*
Y33495D01*
X501367Y34495D01*
X498368D01*
X123333Y342612D02*
Y336614D01*
X126332D01*
X127332Y337614D01*
Y341613D01*
X126332Y342612D01*
X123333D01*
X133330D02*
X131331Y341613D01*
X129331Y339613D01*
Y337614D01*
X130331Y336614D01*
X132330D01*
X133330Y337614D01*
Y338614D01*
X132330Y339613D01*
X129331D01*
X548425Y198911D02*
Y192913D01*
X551424D01*
X552424Y193913D01*
Y197912D01*
X551424Y198911D01*
X548425D01*
X558422D02*
X556423Y197912D01*
X554423Y195912D01*
Y193913D01*
X555423Y192913D01*
X557422D01*
X558422Y193913D01*
Y194913D01*
X557422Y195912D01*
X554423D01*
X564735Y129248D02*
Y123250D01*
X567734D01*
X568733Y124249D01*
Y128248D01*
X567734Y129248D01*
X564735D01*
X570733D02*
X574731D01*
Y128248D01*
X570733Y124249D01*
Y123250D01*
X551403Y37494D02*
Y31496D01*
X554402D01*
X555402Y32496D01*
Y36494D01*
X554402Y37494D01*
X551403D01*
X557401D02*
X561400D01*
Y36494D01*
X557401Y32496D01*
Y31496D01*
X181433Y342612D02*
Y336614D01*
X184432D01*
X185432Y337614D01*
Y341613D01*
X184432Y342612D01*
X181433D01*
X187432D02*
X191430D01*
Y341613D01*
X187432Y337614D01*
Y336614D01*
X646850Y198911D02*
Y192913D01*
X649849D01*
X650849Y193913D01*
Y197912D01*
X649849Y198911D01*
X646850D01*
X652848D02*
X656847D01*
Y197912D01*
X652848Y193913D01*
Y192913D01*
X623735Y129248D02*
Y123250D01*
X626734D01*
X627733Y124249D01*
Y128248D01*
X626734Y129248D01*
X623735D01*
X629733Y128248D02*
X630732Y129248D01*
X632732D01*
X633732Y128248D01*
Y127249D01*
X632732Y126249D01*
X633732Y125249D01*
Y124249D01*
X632732Y123250D01*
X630732D01*
X629733Y124249D01*
Y125249D01*
X630732Y126249D01*
X629733Y127249D01*
Y128248D01*
X630732Y126249D02*
X632732D01*
X610513Y37494D02*
Y31496D01*
X613513D01*
X614512Y32496D01*
Y36494D01*
X613513Y37494D01*
X610513D01*
X616511Y36494D02*
X617511Y37494D01*
X619511D01*
X620510Y36494D01*
Y35495D01*
X619511Y34495D01*
X620510Y33495D01*
Y32496D01*
X619511Y31496D01*
X617511D01*
X616511Y32496D01*
Y33495D01*
X617511Y34495D01*
X616511Y35495D01*
Y36494D01*
X617511Y34495D02*
X619511D01*
X241433Y342612D02*
Y336614D01*
X244432D01*
X245432Y337614D01*
Y341613D01*
X244432Y342612D01*
X241433D01*
X247431Y341613D02*
X248431Y342612D01*
X250430D01*
X251430Y341613D01*
Y340613D01*
X250430Y339613D01*
X251430Y338614D01*
Y337614D01*
X250430Y336614D01*
X248431D01*
X247431Y337614D01*
Y338614D01*
X248431Y339613D01*
X247431Y340613D01*
Y341613D01*
X248431Y339613D02*
X250430D01*
X745276Y198911D02*
Y192913D01*
X748275D01*
X749274Y193913D01*
Y197912D01*
X748275Y198911D01*
X745276D01*
X751274Y197912D02*
X752273Y198911D01*
X754273D01*
X755272Y197912D01*
Y196912D01*
X754273Y195912D01*
X755272Y194913D01*
Y193913D01*
X754273Y192913D01*
X752273D01*
X751274Y193913D01*
Y194913D01*
X752273Y195912D01*
X751274Y196912D01*
Y197912D01*
X752273Y195912D02*
X754273D01*
D17*
X-0Y551181D02*
X-0D01*
Y0D02*
Y551181D01*
Y0D02*
X826772D01*
Y551181D01*
X635827D02*
X826772D01*
X635827Y492126D02*
Y551181D01*
X316929Y310630D02*
X635827D01*
X316929D02*
X316929D01*
X316929D02*
Y551181D01*
X-0Y551181D02*
X316929D01*
X655512Y338583D02*
Y484252D01*
X635827Y492126D02*
X655512Y484252D01*
X635827Y310630D02*
Y330709D01*
X635827Y330709D02*
X655512Y338583D01*
D53*
X293307Y549213D02*
X659449D01*
Y273622D02*
Y549213D01*
X293307Y273622D02*
X659449D01*
X293307D02*
Y549213D01*
X366535Y510236D02*
X633858D01*
Y312598D02*
Y510236D01*
X318898Y312598D02*
X633858D01*
X318898D02*
Y510236D01*
X366535D01*
X334646Y490158D02*
X618110D01*
X334646Y332677D02*
Y490158D01*
X618110Y332677D02*
Y490158D01*
X334646Y332677D02*
X618110D01*
M02*
