M48
;Layer_Color=9474304
;FILE_FORMAT=2:5
INCH,LZ
;TYPE=PLATED
T8F00S00C0.07087
;TYPE=NON_PLATED
%
G90
G05
T08
G00X0044488Y0218504
M15
G01Y0214567
M16
G00X0093307Y0214567
M15
G01Y0218504
M16
G00X0142913Y0218504
M15
G01Y0214567
M16
G00X0191732Y0214567
M15
G01Y0218504
M16
G00X0241339Y0218504
M15
G01Y0214567
M16
G00X0290158Y0214567
M15
G01Y0218504
M16
G00X0339764Y0218504
M15
G01Y0214567
M16
G00X0388583Y0214567
M15
G01Y0218504
M16
G00X0438189Y0218504
M15
G01Y0214567
M16
G00X0487008Y0214567
M15
G01Y0218504
M16
G00X0536614Y0218504
M15
G01Y0214567
M16
G00X0585433Y0214567
M15
G01Y0218504
M16
G00X0635039Y0218504
M15
G01Y0214567
M16
G00X0683858Y0214567
M15
G01Y0218504
M16
G00X0733465Y0218504
M15
G01Y0214567
M16
G00X0782283Y0214567
M15
G01Y0218504
M16
G00X074685Y0391733
M15
G01Y039567
M16
G00X0698032Y039567
M15
G01Y0391733
M16
M17
M30
