M48
;Layer_Color=9474304
;FILE_FORMAT=2:5
INCH,LZ
;TYPE=PLATED
T1F00S00C0.01181
T2F00S00C0.02362
T3F00S00C0.03543
T4F00S00C0.03937
T5F00S00C0.04724
T6F00S00C0.05906
T7F00S00C0.06299
T9F00S00C0.09843
;TYPE=NON_PLATED
T10F00S00C0.11811
%
T01
X0765748Y0043307
X0781496
Y0056693
X0765748Y0068898
Y0083465
Y0108268
X0781496
Y0094488
X0805512Y0075985
X0753898Y0083504
X0736614Y0088504
Y0093504
X0724607
X0722441Y0088504
X0723622Y0108268
X0712599
Y0113386
X0675197Y0109843
X0675197Y0097244
X0662992Y0111024
X0629921Y0098425
Y007874
Y003937
X0662992Y0013386
X0715256Y0039961
X0696969Y0073504
X0602362Y0059055
X0590551Y0037402
X0570866Y003937
X0541339Y0035433
Y0059055
X0537402Y0090945
X0511811Y0098425
Y007874
Y003937
X0472441Y0037402
X0452756Y003937
Y007874
Y0098425
X047874Y0087402
X0480315Y0059055
X0570866Y007874
Y0098425
X059252Y0093701
X0419587Y0085335
X0419685Y0112205
X0413779Y0059055
X0413779Y0037402
X0374016Y003937
Y007874
Y0098819
X0379134Y0093701
X0320079Y0090945
X0314961Y0098425
Y007874
Y003937
X0334646Y0037402
X0340846Y0059154
X0281398Y0059154
X0281496Y0037402
X0255906Y003937
Y007874
X0261024Y0088189
X0255906Y0098425
X0281889Y0085335
X0201969
X019685Y007874
Y0098425
Y003937
X0216535Y0037402
X0222736Y0059154
X0163287Y0059154
X0156299Y0065748
X0143307Y0071653
X0148032Y0085433
Y0112205
X0163386Y0037402
X0105118Y0025197
X0097244Y0029134
X0088976Y0033071
X0082677Y0036614
X0070079Y0041339
X0070866Y0046063
X0072835Y0050788
X0074803Y0055906
X0076772Y0061024
X0062599
X0062441Y0065906
X0062598Y0055906
X0062599Y0050788
X0062362Y0045906
X0062165Y0040906
X0070079Y0021654
X009252Y002126
X0098425Y0070866
X0105906Y0065748
X0062599Y0075984
Y0080709
X0083465Y0107481
X013189Y0111417
X0012992Y0111024
X0008268Y0105906
X0008661Y0064961
X0020276Y0064764
X0016142Y0137402
X0045276Y0163386
X005315Y0165355
X0084646
X0081496Y0144095
X013189Y0143701
X011811Y0172047
X0066142Y0204725
X0074016Y0221654
Y0228347
X0066142Y023189
X0037402Y0237008
Y0242151
X0037411Y0247294
Y0252436
Y0257579
Y0262722
Y0267865
X0012598Y0204331
X0109088Y0250692
X0172441Y0221654
X0183071Y0165355
X0150787Y0165354
X0144882Y0155906
X0148032Y0147638
X0141732Y0141732
X0137795Y0150394
X0151181Y0136221
X019685Y0137795
X0216535Y0139764
X0222835Y011811
X0255906Y0137795
X0281398Y0137697
Y011811
X0281496Y0165355
X025
X0216535Y0172343
X0211024Y0270079
X0270866Y0221654
X0315058Y0250793
X0314961Y0172441
X0314961Y0137795
X0358268Y0139764
X0374016Y0138189
X0379921Y0165355
X0348425
X0340846Y0118012
X0427165Y0137795
X044685Y0165355
X0413386Y0172343
X0369291Y0221654
X0467717
X0478346Y0165355
X0511811Y0172343
X0511811Y0137795
X0497244Y0139764
X0478642Y0118012
X0452756Y0137795
X0537402Y0137795
X0537303Y0118012
X0570866Y0137795
X0576772Y0165355
X0545276
X0566142Y022126
X0511805Y0250692
X0610236Y0231392
X0632677Y0256792
X0664567Y0221654
X0675197Y0165355
X0643701
X0610236Y0172441
X0629921Y0137795
X0675197Y0122441
X0697638Y0122441
X0691732Y0135039
X0716536Y0128347
Y0124016
X0723622Y0125197
X0727559Y0122835
X0732283Y012126
X0736221Y0119685
X0750787Y0118504
X0720865Y0130708
X0720472Y0139173
X0716536Y0141733
Y014685
X0723228Y0144882
X0727165Y014685
X0731496Y0148819
X0736221Y0149607
X0742126Y0165355
X071063Y0172343
X0773622Y0165355
X0781495Y0163386
X0762992Y022126
X0764961Y029605
X0764567Y0302756
X0761022Y0306299
X0761024Y0320866
X0764567Y0317914
X0757087Y0320079
X0753348Y0315156
X0757087Y0307874
X0742126Y0326772
X0711811Y0326477
X0722441Y0349606
X0749098Y0368523
X0695669Y0368504
X0706025Y0384327
X0704331Y0289764
X0682283Y0275984
X0664173
X0632757Y0277212
X0747244Y0275984
X0292976Y0309842
X0255906Y0344488
Y0383858
Y0403543
X019685
Y0383858
Y0344488
X0166144Y0347294
X0165641Y0370436
X0148032Y038804
X0147989Y0395681
X0137795Y0403543
Y0383858
Y0344488
X0146457Y0314567
X0142913Y0310039
X0156299Y0312205
X0159843Y0316535
X017126Y0314961
X0180315Y0312992
X0205512Y0307087
X0205906Y0302756
X0201575
X0200787Y0296063
X02Y0272835
X0188976Y027559
X0179134Y0277953
X0168504Y0280315
X0158194Y0283099
X0147891Y0285273
X0229016Y0283465
X022405Y0299358
X0219016Y0319016
X0214016Y0319134
X0209016Y0318937
X0130315Y0315354
X0126686Y031063
X0112205Y0309842
X0084646Y0299213
X0079134Y0282284
X005315Y0299213
X0037402Y0294882
Y0290065
Y0285248
Y0280431
X0037254Y0275614
X0060984Y0318937
X0065984Y0318898
X0070984Y0319016
X007874Y0344488
Y0383858
Y0403543
X0047638Y0391732
X0019291Y0331496
X007874Y0442913
X0116142Y0496457
X0116142Y053189
X0124016Y0524016
X0025591Y0496457
X0136221Y0458957
X0137795Y0442913
X0164132Y0435503
X019685Y0442913
X0185039Y0458957
X0255906Y0442913
X0292976Y0496389
X0706693Y0497244
X0715354Y0484252
X0735039Y0492126
X0700787Y0462992
X0679921
X0702756Y0541339
X0771654
X0769685Y0490551
X076063Y0488189
T02
X0624921Y0059055
X0634921
X0575866
X0565866
X0516811
X0506811
X0457756
X0447756
X0379016
X0369016
X0319961
X0309961
X0260906
X0250906
X0201851
X019185
X0068898Y0164292
Y0174292
X0167323
Y0164292
X019185Y011811
X0201851
X0250906
X0260906
X0265748Y0164292
Y0174292
X0364173
Y0164292
X0369016Y011811
X0379016
X0319961
X0309961
X0447756
X0457756
X0506811
X0516811
X0565866
X0575866
X0561024Y0164292
Y0174292
X0462599
Y0164292
X0659449
Y0174292
X0634921Y011811
X0624921
X0757874Y0164292
Y0174292
X0255906Y0359173
Y0369173
X0196851
Y0359173
X0137795
Y0369173
X0142795Y0423229
X019185
X0201851
X0250906
X0260906
X0132795
X008374
X007374
X007874Y0369173
Y0359173
T03
X0764094Y0013386
X0774094
X0784094
X0794095
X0754095
X0744095
T04
X0059055Y0187008
X0068898
X007874
Y0244095
X0059055
X015748
X0177165
Y0187008
X0167323
X015748
X0255906
X0265748
X0275591
Y0244095
X0255906
X0354331
X0374016
Y0187008
X0364173
X0354331
X0452756
X0462599
X0472441
Y0244095
X0452756
X0551181
X0570866
Y0187008
X0561024
X0551181
X0649606
X0659449
X0669291
Y0244095
X0649606
X0748032
Y0187008
X0757874
X0767717
Y0244095
X0790158Y0319528
Y0329528
Y0339528
Y0358898
Y0368898
Y0378898
X0732283Y0364173
X0722441
X0712599
Y042126
X0732283
X0548378Y0283417
X0538378
X0528378
X0518378
X0508378
X0498378
X0488378
X0478378
X0468378
X0458378
X0448378
X0438378
X0428378
X0418378
X0408378
X0398378
X0388378
X0378378
X0368378
X0358378
T05
X0693701Y0518898
T06
X0181102Y0543307
X0204724Y0543701
T07
X0791339Y0518898
T09
X0649606Y0283465
X030315
Y053937
X0649606
T10
X0814961Y0011811
X0669291Y0055118
X0600394Y0037402
X0482283
X0344488
X0226378
X0137795Y0055118
X0011811Y0011811
X011811Y0242126
X0218504Y015748
X0226378Y0139764
X0344488
X0413386Y0120079
X0482283Y0139764
X0600394
X0608268Y015748
X0226378Y0344488
X0108268
Y0444882
X0019685Y0531496
X0226378Y0444882
X0814961Y053937
M30
