M48
;Layer_Color=9474304
;FILE_FORMAT=2:5
INCH,LZ
;TYPE=PLATED
T10F00S00C0.07087
;TYPE=NON_PLATED
%
G90
G05
T10
G00X0043701Y0218504
M15
G01Y0214567
M16
G00X0094095Y0214567
M15
G01Y0218504
M16
G00X0142126Y0218504
M15
G01Y0214567
M16
G00X019252Y0214567
M15
G01Y0218504
M16
G00X0240551Y0218504
M15
G01Y0214567
M16
G00X0290945Y0214567
M15
G01Y0218504
M16
G00X0338977Y0218504
M15
G01Y0214567
M16
G00X038937Y0214567
M15
G01Y0218504
M16
G00X0437402Y0218504
M15
G01Y0214567
M16
G00X0487795Y0214567
M15
G01Y0218504
M16
G00X0535827Y0218504
M15
G01Y0214567
M16
G00X0586221Y0214567
M15
G01Y0218504
M16
G00X0634252Y0218504
M15
G01Y0214567
M16
G00X0684646Y0214567
M15
G01Y0218504
M16
G00X0732677Y0218504
M15
G01Y0214567
M16
G00X0783071Y0214567
M15
G01Y0218504
M16
G00X0747638Y0391733
M15
G01Y039567
M16
G00X0697244Y039567
M15
G01Y0391733
M16
M17
M30
