%FSLAX25Y25*%
%MOIN*%
G70*
G01*
G75*
%ADD10C,0.01181*%
%ADD11C,0.00787*%
%ADD12C,0.01575*%
%ADD13C,0.01000*%
%ADD14C,0.01969*%
%ADD15C,0.03543*%
%ADD16C,0.01575*%
%ADD17C,0.11811*%
%ADD18C,0.15748*%
%ADD19C,0.06299*%
%ADD20C,0.04724*%
%ADD21R,0.09449X0.12598*%
%ADD22C,0.05906*%
%ADD23R,0.05906X0.05906*%
%ADD24C,0.07874*%
%ADD25C,0.02362*%
%ADD26C,0.03150*%
%ADD27C,0.05000*%
%ADD28R,0.06890X0.13386*%
%ADD29R,0.06693X0.04921*%
%ADD30R,0.04921X0.06693*%
%ADD31R,0.04803X0.03583*%
%ADD32R,0.03583X0.04803*%
%ADD33R,0.07874X0.02362*%
%ADD34O,0.07874X0.02362*%
%ADD35R,0.07874X0.21654*%
%ADD36R,0.02756X0.09843*%
%ADD37R,0.02559X0.13780*%
%ADD38R,0.04331X0.14921*%
%ADD39R,0.10630X0.11811*%
%ADD40R,0.03937X0.01181*%
%ADD41O,0.03937X0.01181*%
%ADD42R,0.06299X0.06299*%
%ADD43R,0.04331X0.06299*%
%ADD44O,0.02362X0.07874*%
%ADD45R,0.02362X0.07874*%
%ADD46R,0.13386X0.06890*%
%ADD47R,0.06575X0.06496*%
%ADD48R,0.06496X0.06575*%
%ADD49R,0.06299X0.12598*%
%ADD50R,0.33465X0.41732*%
%ADD51R,0.13386X0.03937*%
D14*
X-0Y551181D02*
X-0D01*
Y0D02*
Y551181D01*
Y0D02*
X826772D01*
Y551181D01*
X635827D02*
X826772D01*
X635827Y492126D02*
Y551181D01*
X316929Y310630D02*
X635827D01*
X316929D02*
X316929D01*
X316929D02*
Y551181D01*
X-0Y551181D02*
X316929D01*
X655512Y338583D02*
Y484252D01*
X635827Y492126D02*
X655512Y484252D01*
X635827Y310630D02*
Y330709D01*
X635827Y330709D02*
X655512Y338583D01*
D15*
X757874Y164292D02*
D03*
Y174292D02*
D03*
X255906Y369173D02*
D03*
Y359173D02*
D03*
X634921Y59055D02*
D03*
X624921D02*
D03*
X634921Y118110D02*
D03*
X624921D02*
D03*
X659449Y164292D02*
D03*
Y174292D02*
D03*
X196851Y369173D02*
D03*
Y359173D02*
D03*
X575866Y59055D02*
D03*
X565866D02*
D03*
X575866Y118110D02*
D03*
X565866D02*
D03*
X561024Y164292D02*
D03*
Y174292D02*
D03*
X137795Y369173D02*
D03*
Y359173D02*
D03*
X516811Y59055D02*
D03*
X506811D02*
D03*
X516811Y118110D02*
D03*
X506811D02*
D03*
X462599Y164292D02*
D03*
Y174292D02*
D03*
X78740Y369173D02*
D03*
Y359173D02*
D03*
X457756Y59055D02*
D03*
X447756D02*
D03*
X457756Y118110D02*
D03*
X447756D02*
D03*
X364173Y164292D02*
D03*
Y174292D02*
D03*
X260906Y423229D02*
D03*
X250906D02*
D03*
X379016Y59055D02*
D03*
X369016D02*
D03*
X379016Y118110D02*
D03*
X369016D02*
D03*
X265748Y164292D02*
D03*
Y174292D02*
D03*
X201851Y423229D02*
D03*
X191850D02*
D03*
X319961Y59055D02*
D03*
X309961D02*
D03*
X319961Y118110D02*
D03*
X309961D02*
D03*
X167323Y164292D02*
D03*
Y174292D02*
D03*
X142795Y423229D02*
D03*
X132795D02*
D03*
X260906Y59055D02*
D03*
X250906D02*
D03*
X260906Y118110D02*
D03*
X250906D02*
D03*
X68898Y164292D02*
D03*
Y174292D02*
D03*
X83740Y423229D02*
D03*
X73740D02*
D03*
X201851Y59055D02*
D03*
X191850D02*
D03*
X201851Y118110D02*
D03*
X191850D02*
D03*
D16*
X374016Y78740D02*
D03*
Y39370D02*
D03*
X314961Y78740D02*
D03*
Y39370D02*
D03*
X255906Y78740D02*
D03*
Y39370D02*
D03*
X78740Y383858D02*
D03*
Y344488D02*
D03*
X196850Y78740D02*
D03*
Y39370D02*
D03*
X255906Y403543D02*
D03*
Y442913D02*
D03*
X629921Y98425D02*
D03*
Y137795D02*
D03*
X196850Y403543D02*
D03*
Y442913D02*
D03*
X570866Y98425D02*
D03*
Y137795D02*
D03*
X137795Y403543D02*
D03*
Y442913D02*
D03*
X78740Y403543D02*
D03*
Y442913D02*
D03*
X452756Y98425D02*
D03*
Y137795D02*
D03*
X629921Y78740D02*
D03*
Y39370D02*
D03*
X570866Y78740D02*
D03*
Y39370D02*
D03*
X314961Y98425D02*
D03*
Y137795D02*
D03*
X511811Y78740D02*
D03*
Y39370D02*
D03*
X255906Y98425D02*
D03*
Y137795D02*
D03*
X452756Y78740D02*
D03*
Y39370D02*
D03*
X196850Y98425D02*
D03*
Y137795D02*
D03*
X374016Y98819D02*
D03*
Y138189D02*
D03*
X511811Y98425D02*
D03*
Y137795D02*
D03*
X137795Y383858D02*
D03*
Y344488D02*
D03*
X196850Y383858D02*
D03*
Y344488D02*
D03*
X255906Y383858D02*
D03*
Y344488D02*
D03*
D17*
X118110Y242126D02*
D03*
X600394Y139764D02*
D03*
Y37402D02*
D03*
X344488Y139764D02*
D03*
X669291Y55118D02*
D03*
X608268Y157480D02*
D03*
X413386Y120079D02*
D03*
X218504Y157480D02*
D03*
X137795Y55118D02*
D03*
X108268Y444882D02*
D03*
X226378D02*
D03*
Y344488D02*
D03*
X108268D02*
D03*
X482283Y139764D02*
D03*
Y37402D02*
D03*
X344488D02*
D03*
X226378D02*
D03*
Y139764D02*
D03*
X19685Y531496D02*
D03*
X11811Y11811D02*
D03*
X814961D02*
D03*
Y539370D02*
D03*
X204724Y543701D02*
D03*
X181102Y543307D02*
D03*
D18*
X303150Y539370D02*
D03*
Y283465D02*
D03*
X649606D02*
D03*
Y539370D02*
D03*
D19*
X358378Y283417D02*
D03*
X368378D02*
D03*
X378378D02*
D03*
X388378D02*
D03*
X398378D02*
D03*
X408378D02*
D03*
X418378D02*
D03*
X428378D02*
D03*
X438378D02*
D03*
X448378D02*
D03*
X458378D02*
D03*
X468378D02*
D03*
X478378D02*
D03*
X488378D02*
D03*
X498378D02*
D03*
X508378D02*
D03*
X518378D02*
D03*
X528378D02*
D03*
X538378D02*
D03*
X548378D02*
D03*
X791339Y518898D02*
D03*
X59055Y187008D02*
D03*
X78740D02*
D03*
X68898D02*
D03*
X78740Y244095D02*
D03*
X59055D02*
D03*
X157480Y187008D02*
D03*
X177165D02*
D03*
X167323D02*
D03*
X177165Y244095D02*
D03*
X157480D02*
D03*
X255906Y187008D02*
D03*
X275591D02*
D03*
X265748D02*
D03*
X275591Y244095D02*
D03*
X255906D02*
D03*
X354331Y187008D02*
D03*
X374016D02*
D03*
X364173D02*
D03*
X374016Y244095D02*
D03*
X354331D02*
D03*
X452756Y187008D02*
D03*
X472441D02*
D03*
X462599D02*
D03*
X472441Y244095D02*
D03*
X452756D02*
D03*
X551181Y187008D02*
D03*
X570866D02*
D03*
X561024D02*
D03*
X570866Y244095D02*
D03*
X551181D02*
D03*
X649606Y187008D02*
D03*
X669291D02*
D03*
X659449D02*
D03*
X669291Y244095D02*
D03*
X649606D02*
D03*
X748032Y187008D02*
D03*
X767717D02*
D03*
X757874D02*
D03*
X767717Y244095D02*
D03*
X748032D02*
D03*
X712599Y364173D02*
D03*
X732283D02*
D03*
X722441D02*
D03*
X732283Y421260D02*
D03*
X712599D02*
D03*
D20*
X693701Y518898D02*
D03*
D21*
X43701Y216536D02*
D03*
X94095D02*
D03*
X142126D02*
D03*
X192520D02*
D03*
X240551D02*
D03*
X290945D02*
D03*
X338977D02*
D03*
X389370D02*
D03*
X437402D02*
D03*
X487795D02*
D03*
X535827D02*
D03*
X586221D02*
D03*
X634252D02*
D03*
X684646D02*
D03*
X732677D02*
D03*
X783071D02*
D03*
X697244Y393701D02*
D03*
X747638D02*
D03*
D22*
X794095Y13386D02*
D03*
X784094D02*
D03*
X774094D02*
D03*
X764094D02*
D03*
X754095D02*
D03*
D23*
X744095D02*
D03*
D24*
X790158Y378898D02*
D03*
Y368898D02*
D03*
Y358898D02*
D03*
Y339528D02*
D03*
Y329528D02*
D03*
Y319528D02*
D03*
M02*
