%FSLAX25Y25*%
%MOIN*%
G70*
G01*
G75*
%ADD10C,0.01181*%
%ADD11C,0.00787*%
%ADD12C,0.01575*%
%ADD13C,0.01000*%
%ADD14C,0.01969*%
%ADD15C,0.03543*%
%ADD16C,0.01575*%
%ADD17C,0.11811*%
%ADD18C,0.15748*%
%ADD19C,0.06299*%
%ADD20C,0.04724*%
%ADD21R,0.09449X0.12598*%
%ADD22C,0.05906*%
%ADD23R,0.05906X0.05906*%
%ADD24C,0.07874*%
%ADD25C,0.02362*%
%ADD26C,0.03150*%
%ADD27C,0.05000*%
%ADD28R,0.06890X0.13386*%
%ADD29R,0.06693X0.04921*%
%ADD30R,0.04921X0.06693*%
%ADD31R,0.04803X0.03583*%
%ADD32R,0.03583X0.04803*%
%ADD33R,0.07874X0.02362*%
%ADD34O,0.07874X0.02362*%
%ADD35R,0.07874X0.21654*%
%ADD36R,0.02756X0.09843*%
%ADD37R,0.02559X0.13780*%
%ADD38R,0.04331X0.14921*%
%ADD39R,0.10630X0.11811*%
%ADD40R,0.03937X0.01181*%
%ADD41O,0.03937X0.01181*%
%ADD42R,0.06299X0.06299*%
%ADD43R,0.04331X0.06299*%
%ADD44O,0.02362X0.07874*%
%ADD45R,0.02362X0.07874*%
%ADD46R,0.13386X0.06890*%
%ADD47R,0.06575X0.06496*%
%ADD48R,0.06496X0.06575*%
%ADD49R,0.06299X0.12598*%
%ADD50R,0.33465X0.41732*%
%ADD51R,0.13386X0.03937*%
%ADD52C,0.02362*%
D11*
X82677Y216536D02*
G03*
X82677Y216536I-13780J0D01*
G01*
X181102D02*
G03*
X181102Y216536I-13780J0D01*
G01*
X279528D02*
G03*
X279528Y216536I-13780J0D01*
G01*
X377953D02*
G03*
X377953Y216536I-13780J0D01*
G01*
X476378D02*
G03*
X476378Y216536I-13780J0D01*
G01*
X574803D02*
G03*
X574803Y216536I-13780J0D01*
G01*
X673228D02*
G03*
X673228Y216536I-13780J0D01*
G01*
X771654D02*
G03*
X771654Y216536I-13780J0D01*
G01*
X736221Y393701D02*
G03*
X736221Y393701I-13780J0D01*
G01*
X44488Y190158D02*
Y208662D01*
Y190158D02*
X56693D01*
X44488Y224410D02*
Y242914D01*
X55118D01*
X82677D02*
X93307D01*
Y224410D02*
Y242914D01*
X81103Y190158D02*
X93307D01*
Y208662D01*
X62992Y242914D02*
X74803D01*
X142913Y190158D02*
Y208662D01*
Y190158D02*
X155118D01*
X142913Y224410D02*
Y242914D01*
X153543D01*
X181103D02*
X191732D01*
Y224410D02*
Y242914D01*
X179528Y190158D02*
X191732D01*
Y208662D01*
X161417Y242914D02*
X173229D01*
X241339Y190158D02*
Y208662D01*
Y190158D02*
X253543D01*
X241339Y224410D02*
Y242914D01*
X251969D01*
X279528D02*
X290158D01*
Y224410D02*
Y242914D01*
X277953Y190158D02*
X290158D01*
Y208662D01*
X259842Y242914D02*
X271654D01*
X339764Y190158D02*
Y208662D01*
Y190158D02*
X351969D01*
X339764Y224410D02*
Y242914D01*
X350394D01*
X377953D02*
X388583D01*
Y224410D02*
Y242914D01*
X376378Y190158D02*
X388583D01*
Y208662D01*
X358268Y242914D02*
X370079D01*
X438189Y190158D02*
Y208662D01*
Y190158D02*
X450394D01*
X438189Y224410D02*
Y242914D01*
X448819D01*
X476378D02*
X487008D01*
Y224410D02*
Y242914D01*
X474803Y190158D02*
X487008D01*
Y208662D01*
X456693Y242914D02*
X468504D01*
X536614Y190158D02*
Y208662D01*
Y190158D02*
X548819D01*
X536614Y224410D02*
Y242914D01*
X547244D01*
X574803D02*
X585433D01*
Y224410D02*
Y242914D01*
X573228Y190158D02*
X585433D01*
Y208662D01*
X555118Y242914D02*
X566929D01*
X635040Y190158D02*
Y208662D01*
Y190158D02*
X647244D01*
X635040Y224410D02*
Y242914D01*
X645669D01*
X673229D02*
X683858D01*
Y224410D02*
Y242914D01*
X671654Y190158D02*
X683858D01*
Y208662D01*
X653543Y242914D02*
X665354D01*
X733465Y190158D02*
Y208662D01*
Y190158D02*
X745669D01*
X733465Y224410D02*
Y242914D01*
X744095D01*
X771654D02*
X782283D01*
Y224410D02*
Y242914D01*
X770079Y190158D02*
X782283D01*
Y208662D01*
X751968Y242914D02*
X763779D01*
X698032Y367323D02*
Y385827D01*
Y367323D02*
X710236D01*
X698032Y401575D02*
Y420079D01*
X708662D01*
X736221D02*
X746850D01*
Y401575D02*
Y420079D01*
X734646Y367323D02*
X746850D01*
Y385827D01*
X716536Y420079D02*
X728346D01*
D13*
X756201Y168110D02*
X757874Y169784D01*
X756201Y168110D02*
X759547D01*
X757874Y169784D02*
X759547Y168110D01*
X757874Y167126D02*
Y171457D01*
X756201Y170473D02*
X759547D01*
X255906Y363681D02*
X257579Y365354D01*
X254232D02*
X257579D01*
X254232D02*
X255906Y363681D01*
Y362008D02*
Y366339D01*
X254232Y362992D02*
X257579D01*
X629429Y59055D02*
X631102Y57382D01*
Y60729D01*
X629429Y59055D02*
X631102Y60729D01*
X627756Y59055D02*
X632087D01*
X628740Y57382D02*
Y60729D01*
X629429Y118110D02*
X631102Y116437D01*
Y119784D01*
X629429Y118110D02*
X631102Y119784D01*
X627756Y118110D02*
X632087D01*
X628740Y116437D02*
Y119784D01*
X657776Y168110D02*
X659449Y169784D01*
X657776Y168110D02*
X661122D01*
X659449Y169784D02*
X661122Y168110D01*
X659449Y167126D02*
Y171457D01*
X657776Y170473D02*
X661122D01*
X196851Y363681D02*
X198524Y365354D01*
X195177D02*
X198524D01*
X195177D02*
X196851Y363681D01*
Y362008D02*
Y366339D01*
X195177Y362992D02*
X198524D01*
X570374Y59055D02*
X572047Y57382D01*
Y60729D01*
X570374Y59055D02*
X572047Y60729D01*
X568701Y59055D02*
X573032D01*
X569685Y57382D02*
Y60729D01*
X570374Y118110D02*
X572047Y116437D01*
Y119784D01*
X570374Y118110D02*
X572047Y119784D01*
X568701Y118110D02*
X573032D01*
X569685Y116437D02*
Y119784D01*
X559350Y168110D02*
X561024Y169784D01*
X559350Y168110D02*
X562697D01*
X561024Y169784D02*
X562697Y168110D01*
X561024Y167126D02*
Y171457D01*
X559350Y170473D02*
X562697D01*
X137795Y363681D02*
X139469Y365354D01*
X136122D02*
X139469D01*
X136122D02*
X137795Y363681D01*
Y362008D02*
Y366339D01*
X136122Y362992D02*
X139469D01*
X511319Y59055D02*
X512992Y57382D01*
Y60729D01*
X511319Y59055D02*
X512992Y60729D01*
X509646Y59055D02*
X513976D01*
X510630Y57382D02*
Y60729D01*
X511319Y118110D02*
X512992Y116437D01*
Y119784D01*
X511319Y118110D02*
X512992Y119784D01*
X509646Y118110D02*
X513976D01*
X510630Y116437D02*
Y119784D01*
X460925Y168110D02*
X462599Y169784D01*
X460925Y168110D02*
X464272D01*
X462599Y169784D02*
X464272Y168110D01*
X462599Y167126D02*
Y171457D01*
X460925Y170473D02*
X464272D01*
X78740Y363681D02*
X80414Y365354D01*
X77067D02*
X80414D01*
X77067D02*
X78740Y363681D01*
Y362008D02*
Y366339D01*
X77067Y362992D02*
X80414D01*
X452264Y59055D02*
X453937Y57382D01*
Y60729D01*
X452264Y59055D02*
X453937Y60729D01*
X450591Y59055D02*
X454921D01*
X451575Y57382D02*
Y60729D01*
X452264Y118110D02*
X453937Y116437D01*
Y119784D01*
X452264Y118110D02*
X453937Y119784D01*
X450591Y118110D02*
X454921D01*
X451575Y116437D02*
Y119784D01*
X362500Y168110D02*
X364173Y169784D01*
X362500Y168110D02*
X365846D01*
X364173Y169784D02*
X365846Y168110D01*
X364173Y167126D02*
Y171457D01*
X362500Y170473D02*
X365846D01*
X255414Y423229D02*
X257087Y421555D01*
Y424902D01*
X255414Y423229D02*
X257087Y424902D01*
X253740Y423229D02*
X258071D01*
X254725Y421555D02*
Y424902D01*
X373524Y59055D02*
X375197Y57382D01*
Y60729D01*
X373524Y59055D02*
X375197Y60729D01*
X371850Y59055D02*
X376181D01*
X372835Y57382D02*
Y60729D01*
X373524Y118110D02*
X375197Y116437D01*
Y119784D01*
X373524Y118110D02*
X375197Y119784D01*
X371850Y118110D02*
X376181D01*
X372835Y116437D02*
Y119784D01*
X264075Y168110D02*
X265748Y169784D01*
X264075Y168110D02*
X267421D01*
X265748Y169784D02*
X267421Y168110D01*
X265748Y167126D02*
Y171457D01*
X264075Y170473D02*
X267421D01*
X196358Y423229D02*
X198032Y421555D01*
Y424902D01*
X196358Y423229D02*
X198032Y424902D01*
X194685Y423229D02*
X199016D01*
X195669Y421555D02*
Y424902D01*
X314469Y59055D02*
X316142Y57382D01*
Y60729D01*
X314469Y59055D02*
X316142Y60729D01*
X312795Y59055D02*
X317126D01*
X313780Y57382D02*
Y60729D01*
X314469Y118110D02*
X316142Y116437D01*
Y119784D01*
X314469Y118110D02*
X316142Y119784D01*
X312795Y118110D02*
X317126D01*
X313780Y116437D02*
Y119784D01*
X165650Y168110D02*
X167323Y169784D01*
X165650Y168110D02*
X168996D01*
X167323Y169784D02*
X168996Y168110D01*
X167323Y167126D02*
Y171457D01*
X165650Y170473D02*
X168996D01*
X137303Y423229D02*
X138976Y421555D01*
Y424902D01*
X137303Y423229D02*
X138976Y424902D01*
X135630Y423229D02*
X139961D01*
X136614Y421555D02*
Y424902D01*
X255414Y59055D02*
X257087Y57382D01*
Y60729D01*
X255414Y59055D02*
X257087Y60729D01*
X253740Y59055D02*
X258071D01*
X254725Y57382D02*
Y60729D01*
X255414Y118110D02*
X257087Y116437D01*
Y119784D01*
X255414Y118110D02*
X257087Y119784D01*
X253740Y118110D02*
X258071D01*
X254725Y116437D02*
Y119784D01*
X67225Y168110D02*
X68898Y169784D01*
X67225Y168110D02*
X70571D01*
X68898Y169784D02*
X70571Y168110D01*
X68898Y167126D02*
Y171457D01*
X67225Y170473D02*
X70571D01*
X78248Y423229D02*
X79921Y421555D01*
Y424902D01*
X78248Y423229D02*
X79921Y424902D01*
X76575Y423229D02*
X80906D01*
X77559Y421555D02*
Y424902D01*
X196358Y59055D02*
X198032Y57382D01*
Y60729D01*
X196358Y59055D02*
X198032Y60729D01*
X194685Y59055D02*
X199016D01*
X195669Y57382D02*
Y60729D01*
X196358Y118110D02*
X198032Y116437D01*
Y119784D01*
X196358Y118110D02*
X198032Y119784D01*
X194685Y118110D02*
X199016D01*
X195669Y116437D02*
Y119784D01*
X633858Y490158D02*
X653543Y482283D01*
X633858Y332677D02*
X653543Y340551D01*
Y482283D01*
X633858Y487106D02*
Y488976D01*
X358559Y86888D02*
X357559Y87888D01*
X355560D01*
X354560Y86888D01*
Y85888D01*
X355560Y84889D01*
X357559D01*
X358559Y83889D01*
Y82889D01*
X357559Y81890D01*
X355560D01*
X354560Y82889D01*
X360558Y81890D02*
X362557D01*
X361558D01*
Y87888D01*
X360558Y86888D01*
X369555Y81890D02*
X365556D01*
X369555Y85888D01*
Y86888D01*
X368555Y87888D01*
X366556D01*
X365556Y86888D01*
X371554Y80890D02*
X375553D01*
X377553Y81890D02*
X379552D01*
X378552D01*
Y87888D01*
X377553Y86888D01*
X299527D02*
X298527Y87888D01*
X296528D01*
X295528Y86888D01*
Y85888D01*
X296528Y84889D01*
X298527D01*
X299527Y83889D01*
Y82889D01*
X298527Y81890D01*
X296528D01*
X295528Y82889D01*
X301526Y81890D02*
X303526D01*
X302526D01*
Y87888D01*
X301526Y86888D01*
X306525Y81890D02*
X308524D01*
X307524D01*
Y87888D01*
X306525Y86888D01*
X311523Y80890D02*
X315522D01*
X317521Y81890D02*
X319521D01*
X318521D01*
Y87888D01*
X317521Y86888D01*
X240496D02*
X239497Y87888D01*
X237497D01*
X236498Y86888D01*
Y85888D01*
X237497Y84889D01*
X239497D01*
X240496Y83889D01*
Y82889D01*
X239497Y81890D01*
X237497D01*
X236498Y82889D01*
X242496Y81890D02*
X244495D01*
X243495D01*
Y87888D01*
X242496Y86888D01*
X247494D02*
X248494Y87888D01*
X250493D01*
X251493Y86888D01*
Y82889D01*
X250493Y81890D01*
X248494D01*
X247494Y82889D01*
Y86888D01*
X253492Y80890D02*
X257491D01*
X259490Y81890D02*
X261490D01*
X260490D01*
Y87888D01*
X259490Y86888D01*
X181426D02*
X180427Y87888D01*
X178427D01*
X177428Y86888D01*
Y85888D01*
X178427Y84889D01*
X180427D01*
X181426Y83889D01*
Y82889D01*
X180427Y81890D01*
X178427D01*
X177428Y82889D01*
X183426D02*
X184425Y81890D01*
X186425D01*
X187424Y82889D01*
Y86888D01*
X186425Y87888D01*
X184425D01*
X183426Y86888D01*
Y85888D01*
X184425Y84889D01*
X187424D01*
X189424Y80890D02*
X193422D01*
X195422Y81890D02*
X197421D01*
X196422D01*
Y87888D01*
X195422Y86888D01*
X614512Y85707D02*
X613513Y86707D01*
X611513D01*
X610513Y85707D01*
Y84707D01*
X611513Y83708D01*
X613513D01*
X614512Y82708D01*
Y81708D01*
X613513Y80709D01*
X611513D01*
X610513Y81708D01*
X619511Y80709D02*
Y86707D01*
X616511Y83708D01*
X620510D01*
X622510Y79709D02*
X626508D01*
X632506Y80709D02*
X628508D01*
X632506Y84707D01*
Y85707D01*
X631507Y86707D01*
X629507D01*
X628508Y85707D01*
X555402D02*
X554402Y86707D01*
X552403D01*
X551403Y85707D01*
Y84707D01*
X552403Y83708D01*
X554402D01*
X555402Y82708D01*
Y81708D01*
X554402Y80709D01*
X552403D01*
X551403Y81708D01*
X557401Y85707D02*
X558401Y86707D01*
X560400D01*
X561400Y85707D01*
Y84707D01*
X560400Y83708D01*
X559401D01*
X560400D01*
X561400Y82708D01*
Y81708D01*
X560400Y80709D01*
X558401D01*
X557401Y81708D01*
X563399Y79709D02*
X567398D01*
X573396Y80709D02*
X569397D01*
X573396Y84707D01*
Y85707D01*
X572396Y86707D01*
X570397D01*
X569397Y85707D01*
X496369D02*
X495369Y86707D01*
X493370D01*
X492370Y85707D01*
Y84707D01*
X493370Y83708D01*
X495369D01*
X496369Y82708D01*
Y81708D01*
X495369Y80709D01*
X493370D01*
X492370Y81708D01*
X502367Y80709D02*
X498368D01*
X502367Y84707D01*
Y85707D01*
X501367Y86707D01*
X499368D01*
X498368Y85707D01*
X504366Y79709D02*
X508365D01*
X514363Y80709D02*
X510364D01*
X514363Y84707D01*
Y85707D01*
X513363Y86707D01*
X511364D01*
X510364Y85707D01*
X437352D02*
X436353Y86707D01*
X434353D01*
X433354Y85707D01*
Y84707D01*
X434353Y83708D01*
X436353D01*
X437352Y82708D01*
Y81708D01*
X436353Y80709D01*
X434353D01*
X433354Y81708D01*
X439352Y80709D02*
X441351D01*
X440351D01*
Y86707D01*
X439352Y85707D01*
X444350Y79709D02*
X448349D01*
X454347Y80709D02*
X450348D01*
X454347Y84707D01*
Y85707D01*
X453347Y86707D01*
X451348D01*
X450348Y85707D01*
X614433Y144762D02*
X613434Y145762D01*
X611434D01*
X610435Y144762D01*
Y143763D01*
X611434Y142763D01*
X613434D01*
X614433Y141763D01*
Y140763D01*
X613434Y139764D01*
X611434D01*
X610435Y140763D01*
X616433Y144762D02*
X617432Y145762D01*
X619432D01*
X620432Y144762D01*
Y143763D01*
X619432Y142763D01*
X620432Y141763D01*
Y140763D01*
X619432Y139764D01*
X617432D01*
X616433Y140763D01*
Y141763D01*
X617432Y142763D01*
X616433Y143763D01*
Y144762D01*
X617432Y142763D02*
X619432D01*
X622431Y138764D02*
X626430D01*
X628429Y139764D02*
X630428D01*
X629429D01*
Y145762D01*
X628429Y144762D01*
X555414D02*
X554415Y145762D01*
X552416D01*
X551416Y144762D01*
Y143763D01*
X552416Y142763D01*
X554415D01*
X555414Y141763D01*
Y140763D01*
X554415Y139764D01*
X552416D01*
X551416Y140763D01*
X557414Y145762D02*
X561413D01*
Y144762D01*
X557414Y140763D01*
Y139764D01*
X563412Y138764D02*
X567411D01*
X569410Y139764D02*
X571409D01*
X570410D01*
Y145762D01*
X569410Y144762D01*
X496333Y146731D02*
X495334Y147730D01*
X493334D01*
X492335Y146731D01*
Y145731D01*
X493334Y144731D01*
X495334D01*
X496333Y143732D01*
Y142732D01*
X495334Y141732D01*
X493334D01*
X492335Y142732D01*
X502331Y147730D02*
X500332Y146731D01*
X498333Y144731D01*
Y142732D01*
X499333Y141732D01*
X501332D01*
X502331Y142732D01*
Y143732D01*
X501332Y144731D01*
X498333D01*
X504331Y140733D02*
X508330D01*
X510329Y141732D02*
X512328D01*
X511329D01*
Y147730D01*
X510329Y146731D01*
X437283Y144762D02*
X436283Y145762D01*
X434284D01*
X433284Y144762D01*
Y143763D01*
X434284Y142763D01*
X436283D01*
X437283Y141763D01*
Y140763D01*
X436283Y139764D01*
X434284D01*
X433284Y140763D01*
X443281Y145762D02*
X439282D01*
Y142763D01*
X441282Y143763D01*
X442281D01*
X443281Y142763D01*
Y140763D01*
X442281Y139764D01*
X440282D01*
X439282Y140763D01*
X445281Y138764D02*
X449279D01*
X451278Y139764D02*
X453278D01*
X452278D01*
Y145762D01*
X451278Y144762D01*
X358584Y146731D02*
X357584Y147730D01*
X355585D01*
X354585Y146731D01*
Y145731D01*
X355585Y144731D01*
X357584D01*
X358584Y143732D01*
Y142732D01*
X357584Y141732D01*
X355585D01*
X354585Y142732D01*
X363582Y141732D02*
Y147730D01*
X360583Y144731D01*
X364582D01*
X366581Y140733D02*
X370580D01*
X372579Y141732D02*
X374579D01*
X373579D01*
Y147730D01*
X372579Y146731D01*
X299482Y144762D02*
X298483Y145762D01*
X296483D01*
X295483Y144762D01*
Y143763D01*
X296483Y142763D01*
X298483D01*
X299482Y141763D01*
Y140763D01*
X298483Y139764D01*
X296483D01*
X295483Y140763D01*
X301482Y144762D02*
X302481Y145762D01*
X304481D01*
X305480Y144762D01*
Y143763D01*
X304481Y142763D01*
X303481D01*
X304481D01*
X305480Y141763D01*
Y140763D01*
X304481Y139764D01*
X302481D01*
X301482Y140763D01*
X307480Y138764D02*
X311478D01*
X313478Y139764D02*
X315477D01*
X314477D01*
Y145762D01*
X313478Y144762D01*
X240426D02*
X239427Y145762D01*
X237427D01*
X236428Y144762D01*
Y143763D01*
X237427Y142763D01*
X239427D01*
X240426Y141763D01*
Y140763D01*
X239427Y139764D01*
X237427D01*
X236428Y140763D01*
X246424Y139764D02*
X242426D01*
X246424Y143763D01*
Y144762D01*
X245425Y145762D01*
X243425D01*
X242426Y144762D01*
X248424Y138764D02*
X252422D01*
X254422Y139764D02*
X256421D01*
X255421D01*
Y145762D01*
X254422Y144762D01*
X181351D02*
X180352Y145762D01*
X178352D01*
X177353Y144762D01*
Y143763D01*
X178352Y142763D01*
X180352D01*
X181351Y141763D01*
Y140763D01*
X180352Y139764D01*
X178352D01*
X177353Y140763D01*
X183351Y139764D02*
X185350D01*
X184351D01*
Y145762D01*
X183351Y144762D01*
X188349Y138764D02*
X192348D01*
X194347Y139764D02*
X196347D01*
X195347D01*
Y145762D01*
X194347Y144762D01*
X240433Y392400D02*
X239434Y393400D01*
X237434D01*
X236435Y392400D01*
Y391400D01*
X237434Y390401D01*
X239434D01*
X240433Y389401D01*
Y388401D01*
X239434Y387402D01*
X237434D01*
X236435Y388401D01*
X242433Y387402D02*
X244432D01*
X243432D01*
Y393400D01*
X242433Y392400D01*
X251430Y387402D02*
X247431D01*
X251430Y391400D01*
Y392400D01*
X250430Y393400D01*
X248431D01*
X247431Y392400D01*
X253429Y386402D02*
X257428D01*
X263426Y387402D02*
X259427D01*
X263426Y391400D01*
Y392400D01*
X262426Y393400D01*
X260427D01*
X259427Y392400D01*
X181433D02*
X180434Y393400D01*
X178434D01*
X177435Y392400D01*
Y391400D01*
X178434Y390401D01*
X180434D01*
X181433Y389401D01*
Y388401D01*
X180434Y387402D01*
X178434D01*
X177435Y388401D01*
X183433Y387402D02*
X185432D01*
X184432D01*
Y393400D01*
X183433Y392400D01*
X188431Y387402D02*
X190430D01*
X189431D01*
Y393400D01*
X188431Y392400D01*
X193430Y386402D02*
X197428D01*
X203426Y387402D02*
X199428D01*
X203426Y391400D01*
Y392400D01*
X202427Y393400D01*
X200427D01*
X199428Y392400D01*
X122109D02*
X121109Y393400D01*
X119110D01*
X118110Y392400D01*
Y391400D01*
X119110Y390401D01*
X121109D01*
X122109Y389401D01*
Y388401D01*
X121109Y387402D01*
X119110D01*
X118110Y388401D01*
X124108Y387402D02*
X126108D01*
X125108D01*
Y393400D01*
X124108Y392400D01*
X129107D02*
X130106Y393400D01*
X132106D01*
X133105Y392400D01*
Y388401D01*
X132106Y387402D01*
X130106D01*
X129107Y388401D01*
Y392400D01*
X135105Y386402D02*
X139103D01*
X145101Y387402D02*
X141103D01*
X145101Y391400D01*
Y392400D01*
X144102Y393400D01*
X142103D01*
X141103Y392400D01*
X63321Y390825D02*
X62321Y391825D01*
X60322D01*
X59322Y390825D01*
Y389826D01*
X60322Y388826D01*
X62321D01*
X63321Y387826D01*
Y386826D01*
X62321Y385827D01*
X60322D01*
X59322Y386826D01*
X65320D02*
X66320Y385827D01*
X68319D01*
X69319Y386826D01*
Y390825D01*
X68319Y391825D01*
X66320D01*
X65320Y390825D01*
Y389826D01*
X66320Y388826D01*
X69319D01*
X71318Y384827D02*
X75317D01*
X81315Y385827D02*
X77316D01*
X81315Y389826D01*
Y390825D01*
X80315Y391825D01*
X78316D01*
X77316Y390825D01*
X240415Y450274D02*
X239415Y451274D01*
X237416D01*
X236416Y450274D01*
Y449274D01*
X237416Y448275D01*
X239415D01*
X240415Y447275D01*
Y446275D01*
X239415Y445276D01*
X237416D01*
X236416Y446275D01*
X242414Y450274D02*
X243414Y451274D01*
X245413D01*
X246413Y450274D01*
Y449274D01*
X245413Y448275D01*
X246413Y447275D01*
Y446275D01*
X245413Y445276D01*
X243414D01*
X242414Y446275D01*
Y447275D01*
X243414Y448275D01*
X242414Y449274D01*
Y450274D01*
X243414Y448275D02*
X245413D01*
X248412Y444276D02*
X252411D01*
X258409Y445276D02*
X254410D01*
X258409Y449274D01*
Y450274D01*
X257409Y451274D01*
X255410D01*
X254410Y450274D01*
X181371D02*
X180371Y451274D01*
X178372D01*
X177373Y450274D01*
Y449274D01*
X178372Y448275D01*
X180371D01*
X181371Y447275D01*
Y446275D01*
X180371Y445276D01*
X178372D01*
X177373Y446275D01*
X183371Y451274D02*
X187369D01*
Y450274D01*
X183371Y446275D01*
Y445276D01*
X189369Y444276D02*
X193367D01*
X199365Y445276D02*
X195367D01*
X199365Y449274D01*
Y450274D01*
X198366Y451274D01*
X196366D01*
X195367Y450274D01*
X122345D02*
X121345Y451274D01*
X119345D01*
X118346Y450274D01*
Y449274D01*
X119345Y448275D01*
X121345D01*
X122345Y447275D01*
Y446275D01*
X121345Y445276D01*
X119345D01*
X118346Y446275D01*
X128342Y451274D02*
X126343Y450274D01*
X124344Y448275D01*
Y446275D01*
X125344Y445276D01*
X127343D01*
X128342Y446275D01*
Y447275D01*
X127343Y448275D01*
X124344D01*
X130342Y444276D02*
X134341D01*
X140339Y445276D02*
X136340D01*
X140339Y449274D01*
Y450274D01*
X139339Y451274D01*
X137340D01*
X136340Y450274D01*
X63054D02*
X62054Y451274D01*
X60055D01*
X59055Y450274D01*
Y449274D01*
X60055Y448275D01*
X62054D01*
X63054Y447275D01*
Y446275D01*
X62054Y445276D01*
X60055D01*
X59055Y446275D01*
X69052Y451274D02*
X65053D01*
Y448275D01*
X67053Y449274D01*
X68052D01*
X69052Y448275D01*
Y446275D01*
X68052Y445276D01*
X66053D01*
X65053Y446275D01*
X71051Y444276D02*
X75050D01*
X81048Y445276D02*
X77049D01*
X81048Y449274D01*
Y450274D01*
X80048Y451274D01*
X78049D01*
X77049Y450274D01*
X60322Y401274D02*
Y395276D01*
X63321D01*
X64320Y396275D01*
Y400274D01*
X63321Y401274D01*
X60322D01*
X66320Y395276D02*
X68319D01*
X67320D01*
Y401274D01*
X66320Y400274D01*
X71318Y394276D02*
X75317D01*
X77316Y400274D02*
X78316Y401274D01*
X80315D01*
X81315Y400274D01*
Y399274D01*
X80315Y398275D01*
X79316D01*
X80315D01*
X81315Y397275D01*
Y396275D01*
X80315Y395276D01*
X78316D01*
X77316Y396275D01*
X60298Y238857D02*
X59298Y239856D01*
X57299D01*
X56299Y238857D01*
Y234858D01*
X57299Y233858D01*
X59298D01*
X60298Y234858D01*
X63297Y233858D02*
X65296D01*
X66296Y234858D01*
Y236857D01*
X65296Y237857D01*
X63297D01*
X62297Y236857D01*
Y234858D01*
X63297Y233858D01*
X72294Y239856D02*
Y233858D01*
X69295D01*
X68295Y234858D01*
Y236857D01*
X69295Y237857D01*
X72294D01*
X74294Y232859D02*
X78292D01*
X80291Y233858D02*
X82291D01*
X81291D01*
Y239856D01*
X80291Y238857D01*
X158723D02*
X157723Y239856D01*
X155724D01*
X154725Y238857D01*
Y234858D01*
X155724Y233858D01*
X157723D01*
X158723Y234858D01*
X161722Y233858D02*
X163722D01*
X164721Y234858D01*
Y236857D01*
X163722Y237857D01*
X161722D01*
X160722Y236857D01*
Y234858D01*
X161722Y233858D01*
X170719Y239856D02*
Y233858D01*
X167720D01*
X166721Y234858D01*
Y236857D01*
X167720Y237857D01*
X170719D01*
X172719Y232859D02*
X176717D01*
X182715Y233858D02*
X178717D01*
X182715Y237857D01*
Y238857D01*
X181716Y239856D01*
X179716D01*
X178717Y238857D01*
X257148D02*
X256149Y239856D01*
X254149D01*
X253150Y238857D01*
Y234858D01*
X254149Y233858D01*
X256149D01*
X257148Y234858D01*
X260147Y233858D02*
X262147D01*
X263146Y234858D01*
Y236857D01*
X262147Y237857D01*
X260147D01*
X259148Y236857D01*
Y234858D01*
X260147Y233858D01*
X269145Y239856D02*
Y233858D01*
X266145D01*
X265146Y234858D01*
Y236857D01*
X266145Y237857D01*
X269145D01*
X271144Y232859D02*
X275143D01*
X277142Y238857D02*
X278142Y239856D01*
X280141D01*
X281141Y238857D01*
Y237857D01*
X280141Y236857D01*
X279141D01*
X280141D01*
X281141Y235858D01*
Y234858D01*
X280141Y233858D01*
X278142D01*
X277142Y234858D01*
X355574Y238857D02*
X354574Y239856D01*
X352574D01*
X351575Y238857D01*
Y234858D01*
X352574Y233858D01*
X354574D01*
X355574Y234858D01*
X358573Y233858D02*
X360572D01*
X361572Y234858D01*
Y236857D01*
X360572Y237857D01*
X358573D01*
X357573Y236857D01*
Y234858D01*
X358573Y233858D01*
X367570Y239856D02*
Y233858D01*
X364571D01*
X363571Y234858D01*
Y236857D01*
X364571Y237857D01*
X367570D01*
X369569Y232859D02*
X373568D01*
X378566Y233858D02*
Y239856D01*
X375567Y236857D01*
X379566D01*
X453999Y238857D02*
X452999Y239856D01*
X451000D01*
X450000Y238857D01*
Y234858D01*
X451000Y233858D01*
X452999D01*
X453999Y234858D01*
X456998Y233858D02*
X458997D01*
X459997Y234858D01*
Y236857D01*
X458997Y237857D01*
X456998D01*
X455998Y236857D01*
Y234858D01*
X456998Y233858D01*
X465995Y239856D02*
Y233858D01*
X462996D01*
X461996Y234858D01*
Y236857D01*
X462996Y237857D01*
X465995D01*
X467994Y232859D02*
X471993D01*
X477991Y239856D02*
X473992D01*
Y236857D01*
X475992Y237857D01*
X476991D01*
X477991Y236857D01*
Y234858D01*
X476991Y233858D01*
X474992D01*
X473992Y234858D01*
X552424Y238857D02*
X551424Y239856D01*
X549425D01*
X548425Y238857D01*
Y234858D01*
X549425Y233858D01*
X551424D01*
X552424Y234858D01*
X555423Y233858D02*
X557422D01*
X558422Y234858D01*
Y236857D01*
X557422Y237857D01*
X555423D01*
X554423Y236857D01*
Y234858D01*
X555423Y233858D01*
X564420Y239856D02*
Y233858D01*
X561421D01*
X560421Y234858D01*
Y236857D01*
X561421Y237857D01*
X564420D01*
X566419Y232859D02*
X570418D01*
X576416Y239856D02*
X574417Y238857D01*
X572417Y236857D01*
Y234858D01*
X573417Y233858D01*
X575417D01*
X576416Y234858D01*
Y235858D01*
X575417Y236857D01*
X572417D01*
X650849Y238857D02*
X649850Y239856D01*
X647850D01*
X646850Y238857D01*
Y234858D01*
X647850Y233858D01*
X649850D01*
X650849Y234858D01*
X653848Y233858D02*
X655848D01*
X656847Y234858D01*
Y236857D01*
X655848Y237857D01*
X653848D01*
X652848Y236857D01*
Y234858D01*
X653848Y233858D01*
X662845Y239856D02*
Y233858D01*
X659846D01*
X658847Y234858D01*
Y236857D01*
X659846Y237857D01*
X662845D01*
X664845Y232859D02*
X668843D01*
X670843Y239856D02*
X674841D01*
Y238857D01*
X670843Y234858D01*
Y233858D01*
X749274Y238857D02*
X748275Y239856D01*
X746275D01*
X745276Y238857D01*
Y234858D01*
X746275Y233858D01*
X748275D01*
X749274Y234858D01*
X752273Y233858D02*
X754273D01*
X755272Y234858D01*
Y236857D01*
X754273Y237857D01*
X752273D01*
X751274Y236857D01*
Y234858D01*
X752273Y233858D01*
X761271Y239856D02*
Y233858D01*
X758272D01*
X757272Y234858D01*
Y236857D01*
X758272Y237857D01*
X761271D01*
X763270Y232859D02*
X767269D01*
X769268Y238857D02*
X770268Y239856D01*
X772267D01*
X773267Y238857D01*
Y237857D01*
X772267Y236857D01*
X773267Y235858D01*
Y234858D01*
X772267Y233858D01*
X770268D01*
X769268Y234858D01*
Y235858D01*
X770268Y236857D01*
X769268Y237857D01*
Y238857D01*
X770268Y236857D02*
X772267D01*
X713841Y414447D02*
X712842Y415447D01*
X710842D01*
X709843Y414447D01*
Y410449D01*
X710842Y409449D01*
X712842D01*
X713841Y410449D01*
X716840Y409449D02*
X718840D01*
X719839Y410449D01*
Y412448D01*
X718840Y413448D01*
X716840D01*
X715841Y412448D01*
Y410449D01*
X716840Y409449D01*
X725837Y415447D02*
Y409449D01*
X722838D01*
X721839Y410449D01*
Y412448D01*
X722838Y413448D01*
X725837D01*
X727837Y408449D02*
X731836D01*
X733835Y410449D02*
X734834Y409449D01*
X736834D01*
X737833Y410449D01*
Y414447D01*
X736834Y415447D01*
X734834D01*
X733835Y414447D01*
Y413448D01*
X734834Y412448D01*
X737833D01*
X177353Y96549D02*
Y90551D01*
X180352D01*
X181351Y91551D01*
Y95550D01*
X180352Y96549D01*
X177353D01*
X183351Y90551D02*
X185350D01*
X184351D01*
Y96549D01*
X183351Y95550D01*
X188349Y89552D02*
X192348D01*
X194347Y90551D02*
X196347D01*
X195347D01*
Y96549D01*
X194347Y95550D01*
X176428Y37494D02*
Y31496D01*
X179427D01*
X180427Y32496D01*
Y36494D01*
X179427Y37494D01*
X176428D01*
X182426Y31496D02*
X184425D01*
X183426D01*
Y37494D01*
X182426Y36494D01*
X187424Y30496D02*
X191423D01*
X197421Y31496D02*
X193422D01*
X197421Y35495D01*
Y36494D01*
X196422Y37494D01*
X194422D01*
X193422Y36494D01*
X56299Y198911D02*
Y192913D01*
X59298D01*
X60298Y193913D01*
Y197912D01*
X59298Y198911D01*
X56299D01*
X62297Y192913D02*
X64297D01*
X63297D01*
Y198911D01*
X62297Y197912D01*
X67296Y191914D02*
X71294D01*
X76293Y192913D02*
Y198911D01*
X73294Y195912D01*
X77293D01*
X236428Y96549D02*
Y90551D01*
X239427D01*
X240426Y91551D01*
Y95550D01*
X239427Y96549D01*
X236428D01*
X246424Y90551D02*
X242426D01*
X246424Y94550D01*
Y95550D01*
X245425Y96549D01*
X243425D01*
X242426Y95550D01*
X248424Y89552D02*
X252422D01*
X254422Y90551D02*
X256421D01*
X255421D01*
Y96549D01*
X254422Y95550D01*
X239497Y37494D02*
Y31496D01*
X242496D01*
X243495Y32496D01*
Y36494D01*
X242496Y37494D01*
X239497D01*
X249494Y31496D02*
X245495D01*
X249494Y35495D01*
Y36494D01*
X248494Y37494D01*
X246495D01*
X245495Y36494D01*
X251493Y30496D02*
X255492D01*
X261490Y31496D02*
X257491D01*
X261490Y35495D01*
Y36494D01*
X260490Y37494D01*
X258491D01*
X257491Y36494D01*
X123228Y401274D02*
Y395276D01*
X126227D01*
X127227Y396275D01*
Y400274D01*
X126227Y401274D01*
X123228D01*
X133225Y395276D02*
X129226D01*
X133225Y399274D01*
Y400274D01*
X132225Y401274D01*
X130226D01*
X129226Y400274D01*
X135224Y394276D02*
X139223D01*
X141223Y400274D02*
X142222Y401274D01*
X144222D01*
X145221Y400274D01*
Y399274D01*
X144222Y398275D01*
X143222D01*
X144222D01*
X145221Y397275D01*
Y396275D01*
X144222Y395276D01*
X142222D01*
X141223Y396275D01*
X154725Y198911D02*
Y192913D01*
X157723D01*
X158723Y193913D01*
Y197912D01*
X157723Y198911D01*
X154725D01*
X164721Y192913D02*
X160722D01*
X164721Y196912D01*
Y197912D01*
X163722Y198911D01*
X161722D01*
X160722Y197912D01*
X166721Y191914D02*
X170719D01*
X175718Y192913D02*
Y198911D01*
X172719Y195912D01*
X176717D01*
X295483Y96549D02*
Y90551D01*
X298483D01*
X299482Y91551D01*
Y95550D01*
X298483Y96549D01*
X295483D01*
X301482Y95550D02*
X302481Y96549D01*
X304481D01*
X305480Y95550D01*
Y94550D01*
X304481Y93550D01*
X303481D01*
X304481D01*
X305480Y92550D01*
Y91551D01*
X304481Y90551D01*
X302481D01*
X301482Y91551D01*
X307480Y89552D02*
X311478D01*
X313478Y90551D02*
X315477D01*
X314477D01*
Y96549D01*
X313478Y95550D01*
X297528Y37494D02*
Y31496D01*
X300527D01*
X301526Y32496D01*
Y36494D01*
X300527Y37494D01*
X297528D01*
X303526Y36494D02*
X304525Y37494D01*
X306525D01*
X307524Y36494D01*
Y35495D01*
X306525Y34495D01*
X305525D01*
X306525D01*
X307524Y33495D01*
Y32496D01*
X306525Y31496D01*
X304525D01*
X303526Y32496D01*
X309524Y30496D02*
X313523D01*
X319521Y31496D02*
X315522D01*
X319521Y35495D01*
Y36494D01*
X318521Y37494D01*
X316522D01*
X315522Y36494D01*
X181496Y401274D02*
Y395276D01*
X184495D01*
X185495Y396275D01*
Y400274D01*
X184495Y401274D01*
X181496D01*
X187494Y400274D02*
X188494Y401274D01*
X190493D01*
X191493Y400274D01*
Y399274D01*
X190493Y398275D01*
X189494D01*
X190493D01*
X191493Y397275D01*
Y396275D01*
X190493Y395276D01*
X188494D01*
X187494Y396275D01*
X193492Y394276D02*
X197491D01*
X199490Y400274D02*
X200490Y401274D01*
X202489D01*
X203489Y400274D01*
Y399274D01*
X202489Y398275D01*
X201490D01*
X202489D01*
X203489Y397275D01*
Y396275D01*
X202489Y395276D01*
X200490D01*
X199490Y396275D01*
X253150Y198911D02*
Y192913D01*
X256149D01*
X257148Y193913D01*
Y197912D01*
X256149Y198911D01*
X253150D01*
X259148Y197912D02*
X260147Y198911D01*
X262147D01*
X263146Y197912D01*
Y196912D01*
X262147Y195912D01*
X261147D01*
X262147D01*
X263146Y194913D01*
Y193913D01*
X262147Y192913D01*
X260147D01*
X259148Y193913D01*
X265146Y191914D02*
X269144D01*
X274143Y192913D02*
Y198911D01*
X271144Y195912D01*
X275143D01*
X354585Y96549D02*
Y90551D01*
X357584D01*
X358584Y91551D01*
Y95550D01*
X357584Y96549D01*
X354585D01*
X363582Y90551D02*
Y96549D01*
X360583Y93550D01*
X364582D01*
X366581Y89552D02*
X370580D01*
X372579Y90551D02*
X374579D01*
X373579D01*
Y96549D01*
X372579Y95550D01*
X357559Y37494D02*
Y31496D01*
X360558D01*
X361558Y32496D01*
Y36494D01*
X360558Y37494D01*
X357559D01*
X366556Y31496D02*
Y37494D01*
X363557Y34495D01*
X367556D01*
X369555Y30496D02*
X373554D01*
X379552Y31496D02*
X375553D01*
X379552Y35495D01*
Y36494D01*
X378552Y37494D01*
X376553D01*
X375553Y36494D01*
X241339Y401274D02*
Y395276D01*
X244338D01*
X245337Y396275D01*
Y400274D01*
X244338Y401274D01*
X241339D01*
X250336Y395276D02*
Y401274D01*
X247337Y398275D01*
X251335D01*
X253335Y394276D02*
X257333D01*
X259333Y400274D02*
X260332Y401274D01*
X262332D01*
X263332Y400274D01*
Y399274D01*
X262332Y398275D01*
X261332D01*
X262332D01*
X263332Y397275D01*
Y396275D01*
X262332Y395276D01*
X260332D01*
X259333Y396275D01*
X351575Y198911D02*
Y192913D01*
X354574D01*
X355574Y193913D01*
Y197912D01*
X354574Y198911D01*
X351575D01*
X360572Y192913D02*
Y198911D01*
X357573Y195912D01*
X361572D01*
X363571Y191914D02*
X367570D01*
X372568Y192913D02*
Y198911D01*
X369569Y195912D01*
X373568D01*
X433284Y96549D02*
Y90551D01*
X436283D01*
X437283Y91551D01*
Y95550D01*
X436283Y96549D01*
X433284D01*
X443281D02*
X439282D01*
Y93550D01*
X441282Y94550D01*
X442281D01*
X443281Y93550D01*
Y91551D01*
X442281Y90551D01*
X440282D01*
X439282Y91551D01*
X445281Y89552D02*
X449279D01*
X451278Y90551D02*
X453278D01*
X452278D01*
Y96549D01*
X451278Y95550D01*
X432354Y37494D02*
Y31496D01*
X435353D01*
X436353Y32496D01*
Y36494D01*
X435353Y37494D01*
X432354D01*
X442351D02*
X438352D01*
Y34495D01*
X440351Y35495D01*
X441351D01*
X442351Y34495D01*
Y32496D01*
X441351Y31496D01*
X439352D01*
X438352Y32496D01*
X444350Y30496D02*
X448349D01*
X454347Y31496D02*
X450348D01*
X454347Y35495D01*
Y36494D01*
X453347Y37494D01*
X451348D01*
X450348Y36494D01*
X59322Y342612D02*
Y336614D01*
X62321D01*
X63321Y337614D01*
Y341613D01*
X62321Y342612D01*
X59322D01*
X69319D02*
X65320D01*
Y339613D01*
X67320Y340613D01*
X68319D01*
X69319Y339613D01*
Y337614D01*
X68319Y336614D01*
X66320D01*
X65320Y337614D01*
X71318Y335614D02*
X75317D01*
X77316Y341613D02*
X78316Y342612D01*
X80315D01*
X81315Y341613D01*
Y340613D01*
X80315Y339613D01*
X79316D01*
X80315D01*
X81315Y338614D01*
Y337614D01*
X80315Y336614D01*
X78316D01*
X77316Y337614D01*
X450000Y198911D02*
Y192913D01*
X452999D01*
X453999Y193913D01*
Y197912D01*
X452999Y198911D01*
X450000D01*
X459997D02*
X455998D01*
Y195912D01*
X457998Y196912D01*
X458997D01*
X459997Y195912D01*
Y193913D01*
X458997Y192913D01*
X456998D01*
X455998Y193913D01*
X461996Y191914D02*
X465995D01*
X470993Y192913D02*
Y198911D01*
X467994Y195912D01*
X471993D01*
X492335Y96549D02*
Y90551D01*
X495334D01*
X496333Y91551D01*
Y95550D01*
X495334Y96549D01*
X492335D01*
X502331D02*
X500332Y95550D01*
X498333Y93550D01*
Y91551D01*
X499333Y90551D01*
X501332D01*
X502331Y91551D01*
Y92550D01*
X501332Y93550D01*
X498333D01*
X504331Y89552D02*
X508330D01*
X510329Y90551D02*
X512328D01*
X511329D01*
Y96549D01*
X510329Y95550D01*
X492370Y37494D02*
Y31496D01*
X495369D01*
X496369Y32496D01*
Y36494D01*
X495369Y37494D01*
X492370D01*
X502367D02*
X500368Y36494D01*
X498368Y34495D01*
Y32496D01*
X499368Y31496D01*
X501367D01*
X502367Y32496D01*
Y33495D01*
X501367Y34495D01*
X498368D01*
X504366Y30496D02*
X508365D01*
X514363Y31496D02*
X510364D01*
X514363Y35495D01*
Y36494D01*
X513363Y37494D01*
X511364D01*
X510364Y36494D01*
X123333Y342612D02*
Y336614D01*
X126332D01*
X127332Y337614D01*
Y341613D01*
X126332Y342612D01*
X123333D01*
X133330D02*
X131331Y341613D01*
X129331Y339613D01*
Y337614D01*
X130331Y336614D01*
X132330D01*
X133330Y337614D01*
Y338614D01*
X132330Y339613D01*
X129331D01*
X135329Y335614D02*
X139328D01*
X141327Y341613D02*
X142327Y342612D01*
X144326D01*
X145326Y341613D01*
Y340613D01*
X144326Y339613D01*
X143327D01*
X144326D01*
X145326Y338614D01*
Y337614D01*
X144326Y336614D01*
X142327D01*
X141327Y337614D01*
X548425Y198911D02*
Y192913D01*
X551424D01*
X552424Y193913D01*
Y197912D01*
X551424Y198911D01*
X548425D01*
X558422D02*
X556423Y197912D01*
X554423Y195912D01*
Y193913D01*
X555423Y192913D01*
X557422D01*
X558422Y193913D01*
Y194913D01*
X557422Y195912D01*
X554423D01*
X560421Y191914D02*
X564420D01*
X569418Y192913D02*
Y198911D01*
X566419Y195912D01*
X570418D01*
X551416Y96549D02*
Y90551D01*
X554415D01*
X555414Y91551D01*
Y95550D01*
X554415Y96549D01*
X551416D01*
X557414D02*
X561413D01*
Y95550D01*
X557414Y91551D01*
Y90551D01*
X563412Y89552D02*
X567411D01*
X569410Y90551D02*
X571409D01*
X570410D01*
Y96549D01*
X569410Y95550D01*
X551403Y37494D02*
Y31496D01*
X554402D01*
X555402Y32496D01*
Y36494D01*
X554402Y37494D01*
X551403D01*
X557401D02*
X561400D01*
Y36494D01*
X557401Y32496D01*
Y31496D01*
X563399Y30496D02*
X567398D01*
X573396Y31496D02*
X569397D01*
X573396Y35495D01*
Y36494D01*
X572396Y37494D01*
X570397D01*
X569397Y36494D01*
X181433Y342612D02*
Y336614D01*
X184432D01*
X185432Y337614D01*
Y341613D01*
X184432Y342612D01*
X181433D01*
X187432D02*
X191430D01*
Y341613D01*
X187432Y337614D01*
Y336614D01*
X193430Y335614D02*
X197428D01*
X199428Y341613D02*
X200427Y342612D01*
X202427D01*
X203426Y341613D01*
Y340613D01*
X202427Y339613D01*
X201427D01*
X202427D01*
X203426Y338614D01*
Y337614D01*
X202427Y336614D01*
X200427D01*
X199428Y337614D01*
X646850Y198911D02*
Y192913D01*
X649849D01*
X650849Y193913D01*
Y197912D01*
X649849Y198911D01*
X646850D01*
X652848D02*
X656847D01*
Y197912D01*
X652848Y193913D01*
Y192913D01*
X658847Y191914D02*
X662845D01*
X667844Y192913D02*
Y198911D01*
X664845Y195912D01*
X668843D01*
X610435Y96549D02*
Y90551D01*
X613434D01*
X614433Y91551D01*
Y95550D01*
X613434Y96549D01*
X610435D01*
X616433Y95550D02*
X617432Y96549D01*
X619432D01*
X620432Y95550D01*
Y94550D01*
X619432Y93550D01*
X620432Y92550D01*
Y91551D01*
X619432Y90551D01*
X617432D01*
X616433Y91551D01*
Y92550D01*
X617432Y93550D01*
X616433Y94550D01*
Y95550D01*
X617432Y93550D02*
X619432D01*
X622431Y89552D02*
X626430D01*
X628429Y90551D02*
X630428D01*
X629429D01*
Y96549D01*
X628429Y95550D01*
X610513Y37494D02*
Y31496D01*
X613513D01*
X614512Y32496D01*
Y36494D01*
X613513Y37494D01*
X610513D01*
X616511Y36494D02*
X617511Y37494D01*
X619511D01*
X620510Y36494D01*
Y35495D01*
X619511Y34495D01*
X620510Y33495D01*
Y32496D01*
X619511Y31496D01*
X617511D01*
X616511Y32496D01*
Y33495D01*
X617511Y34495D01*
X616511Y35495D01*
Y36494D01*
X617511Y34495D02*
X619511D01*
X622510Y30496D02*
X626508D01*
X632506Y31496D02*
X628508D01*
X632506Y35495D01*
Y36494D01*
X631507Y37494D01*
X629507D01*
X628508Y36494D01*
X241433Y342612D02*
Y336614D01*
X244432D01*
X245432Y337614D01*
Y341613D01*
X244432Y342612D01*
X241433D01*
X247431Y341613D02*
X248431Y342612D01*
X250430D01*
X251430Y341613D01*
Y340613D01*
X250430Y339613D01*
X251430Y338614D01*
Y337614D01*
X250430Y336614D01*
X248431D01*
X247431Y337614D01*
Y338614D01*
X248431Y339613D01*
X247431Y340613D01*
Y341613D01*
X248431Y339613D02*
X250430D01*
X253429Y335614D02*
X257428D01*
X259427Y341613D02*
X260427Y342612D01*
X262426D01*
X263426Y341613D01*
Y340613D01*
X262426Y339613D01*
X261427D01*
X262426D01*
X263426Y338614D01*
Y337614D01*
X262426Y336614D01*
X260427D01*
X259427Y337614D01*
X745276Y198911D02*
Y192913D01*
X748275D01*
X749274Y193913D01*
Y197912D01*
X748275Y198911D01*
X745276D01*
X751274Y197912D02*
X752273Y198911D01*
X754273D01*
X755272Y197912D01*
Y196912D01*
X754273Y195912D01*
X755272Y194913D01*
Y193913D01*
X754273Y192913D01*
X752273D01*
X751274Y193913D01*
Y194913D01*
X752273Y195912D01*
X751274Y196912D01*
Y197912D01*
X752273Y195912D02*
X754273D01*
X757272Y191914D02*
X761270D01*
X766269Y192913D02*
Y198911D01*
X763270Y195912D01*
X767269D01*
D14*
X-0Y551181D02*
X-0D01*
Y0D02*
Y551181D01*
Y0D02*
X826772D01*
Y551181D01*
X635827D02*
X826772D01*
X635827Y492126D02*
Y551181D01*
X316929Y310630D02*
X635827D01*
X316929D02*
X316929D01*
X316929D02*
Y551181D01*
X-0Y551181D02*
X316929D01*
X655512Y338583D02*
Y484252D01*
X635827Y492126D02*
X655512Y484252D01*
X635827Y310630D02*
Y330709D01*
X635827Y330709D02*
X655512Y338583D01*
D52*
X293307Y549213D02*
X659449D01*
Y273622D02*
Y549213D01*
X293307Y273622D02*
X659449D01*
X293307D02*
Y549213D01*
X366535Y510236D02*
X633858D01*
Y312598D02*
Y510236D01*
X318898Y312598D02*
X633858D01*
X318898D02*
Y510236D01*
X366535D01*
X334646Y490158D02*
X618110D01*
X334646Y332677D02*
Y490158D01*
X618110Y332677D02*
Y490158D01*
X334646Y332677D02*
X618110D01*
M02*
