M48
;Layer_Color=9474304
;FILE_FORMAT=2:5
INCH,LZ
T13F00S00C0.20000
%
G90
G05
T13
G00X0826772Y-001
M15
G01X0828759Y-00098
G01X0830667Y-000921
G01X083242Y-0008252
G01X0833948Y-0006965
G01X0835189Y-0005399
G01X0836094Y-0003619
G01X0836627Y-0001694
G01X0836772Y0
G01X0836772Y0551181
G01X0836572Y0553169
G01X0835982Y0555077
G01X0835024Y055683
G01X0833736Y0558357
G01X0832171Y0559598
G01X0830391Y0560504
G01X0828466Y0561037
G01X0826772Y0561181
G01X0635827Y0561181
G01X0633839Y0560982
G01X0631931Y0560391
G01X0630178Y0559433
G01X0628651Y0558146
G01X062741Y0556581
G01X0626505Y05548
G01X0625971Y0552875
G01X0625827Y0551181
G01X0625827Y0492126
G01X0626026Y0490138
G01X0626617Y048823
G01X0627575Y0486478
G01X0628862Y048495
G01X0630427Y0483709
G01X0632113Y0482841
G01X0645512Y0477482
G01X0645512Y0345353
G01X0632113Y0339993
G01X0630342Y033907
G01X0628789Y0337813
G01X0627518Y0336273
G01X0626578Y033451
G01X0626006Y0332596
G01X0625827Y0330709
G01X0625827Y032063
G01X0326929Y032063
G01X0326929Y0551181
G01X032673Y0553169
G01X0326139Y0555077
G01X0325181Y055683
G01X0323894Y0558357
G01X0322329Y0559598
G01X0320548Y0560504
G01X0318623Y0561037
G01X0316929Y0561181
G01X0Y0561181
G01X-0001988Y0560982
G01X-0003896Y0560391
G01X-0005649Y0559433
G01X-0007176Y0558146
G01X-0008417Y0556581
G01X-0009322Y05548
G01X-0009856Y0552875
G01X-001Y0551181
G01X-001Y0
G01X-00098Y-0001987
G01X-000921Y-0003896
G01X-0008252Y-0005648
G01X-0006965Y-0007176
G01X-00054Y-0008417
G01X-0003619Y-0009322
G01X-0001694Y-0009855
G01X0Y-001
G01X0826772Y-001
M16
M17
M30
