%FSLAX25Y25*%
%MOIN*%
G70*
G01*
G75*
G04 Layer_Color=2752767*
%ADD10C,0.01181*%
%ADD11C,0.00787*%
%ADD12C,0.01575*%
%ADD13C,0.01000*%
%ADD14C,0.01969*%
%ADD15C,0.03543*%
%ADD16C,0.01575*%
%ADD17C,0.11811*%
%ADD18C,0.15748*%
%ADD19C,0.06299*%
%ADD20C,0.04724*%
%ADD21R,0.09449X0.12598*%
%ADD22C,0.05906*%
%ADD23R,0.05906X0.05906*%
%ADD24C,0.07874*%
%ADD25C,0.02362*%
%ADD26C,0.03150*%
%ADD27C,0.05000*%
%ADD28R,0.06890X0.13386*%
%ADD29R,0.06693X0.04921*%
%ADD30R,0.04921X0.06693*%
%ADD31R,0.04803X0.03583*%
%ADD32R,0.03583X0.04803*%
%ADD33R,0.07874X0.02362*%
%ADD34O,0.07874X0.02362*%
%ADD35R,0.07874X0.21654*%
%ADD36R,0.02756X0.09843*%
%ADD37R,0.02559X0.13780*%
%ADD38R,0.04331X0.14921*%
%ADD39R,0.10630X0.11811*%
%ADD40R,0.03937X0.01181*%
%ADD41O,0.03937X0.01181*%
%ADD42R,0.06299X0.06299*%
%ADD43R,0.04331X0.06299*%
%ADD44O,0.02362X0.07874*%
%ADD45R,0.02362X0.07874*%
%ADD46R,0.13386X0.06890*%
%ADD47R,0.06575X0.06496*%
%ADD48R,0.06496X0.06575*%
%ADD49R,0.06299X0.12598*%
%ADD50R,0.33465X0.41732*%
%ADD51R,0.13386X0.03937*%
%ADD52C,0.02362*%
%ADD53C,0.11811*%
%ADD54C,0.04343*%
%ADD55C,0.02375*%
%ADD56C,0.12611*%
%ADD57C,0.16548*%
%ADD58C,0.07099*%
%ADD59C,0.05524*%
%ADD60R,0.10249X0.13398*%
%ADD61C,0.06706*%
%ADD62R,0.06706X0.06706*%
%ADD63C,0.08674*%
%ADD64C,0.03162*%
%ADD65C,0.03950*%
%ADD66C,0.05800*%
%ADD67R,0.07690X0.14186*%
%ADD68R,0.07493X0.05721*%
%ADD69R,0.05721X0.07493*%
%ADD70R,0.05603X0.04383*%
%ADD71R,0.04383X0.05603*%
%ADD72R,0.08674X0.03162*%
%ADD73O,0.08674X0.03162*%
%ADD74R,0.08674X0.22453*%
%ADD75R,0.03556X0.10642*%
%ADD76R,0.03359X0.14579*%
%ADD77R,0.05131X0.15721*%
%ADD78R,0.11430X0.12611*%
%ADD79R,0.04737X0.01981*%
%ADD80O,0.04737X0.01981*%
%ADD81R,0.07099X0.07099*%
%ADD82R,0.05131X0.07099*%
%ADD83O,0.03162X0.08674*%
%ADD84R,0.03162X0.08674*%
%ADD85R,0.14186X0.07690*%
%ADD86R,0.07375X0.07296*%
%ADD87R,0.07296X0.07375*%
%ADD88R,0.07099X0.13398*%
%ADD89R,0.34265X0.42532*%
%ADD90R,0.14186X0.04737*%
%ADD91C,0.00333*%
%ADD92C,0.01500*%
%ADD93C,0.01600*%
D13*
X1155227Y364567D02*
Y370565D01*
X1158226D01*
X1159225Y369565D01*
Y367566D01*
X1158226Y366566D01*
X1155227D01*
X1157226D02*
X1159225Y364567D01*
X1162224D02*
X1164224D01*
X1165224Y365567D01*
Y367566D01*
X1164224Y368566D01*
X1162224D01*
X1161225Y367566D01*
Y365567D01*
X1162224Y364567D01*
X1167223Y368566D02*
Y365567D01*
X1168223Y364567D01*
X1171222D01*
Y368566D01*
X1173221Y364567D02*
Y368566D01*
X1176220D01*
X1177220Y367566D01*
Y364567D01*
X1183218Y370565D02*
Y364567D01*
X1180219D01*
X1179219Y365567D01*
Y367566D01*
X1180219Y368566D01*
X1183218D01*
X1155227Y349567D02*
Y355565D01*
X1158226D01*
X1159225Y354565D01*
Y352566D01*
X1158226Y351566D01*
X1155227D01*
X1157226D02*
X1159225Y349567D01*
X1162224D02*
X1164224D01*
X1165224Y350567D01*
Y352566D01*
X1164224Y353566D01*
X1162224D01*
X1161225Y352566D01*
Y350567D01*
X1162224Y349567D01*
X1167223Y353566D02*
Y350567D01*
X1168223Y349567D01*
X1171222D01*
Y353566D01*
X1173221Y349567D02*
Y353566D01*
X1176220D01*
X1177220Y352566D01*
Y349567D01*
X1183218Y355565D02*
Y349567D01*
X1180219D01*
X1179219Y350567D01*
Y352566D01*
X1180219Y353566D01*
X1183218D01*
X1155227Y334567D02*
Y340565D01*
X1158226D01*
X1159225Y339565D01*
Y337566D01*
X1158226Y336566D01*
X1155227D01*
X1157226D02*
X1159225Y334567D01*
X1162224D02*
X1164224D01*
X1165224Y335567D01*
Y337566D01*
X1164224Y338566D01*
X1162224D01*
X1161225Y337566D01*
Y335567D01*
X1162224Y334567D01*
X1167223Y338566D02*
Y335567D01*
X1168223Y334567D01*
X1171222D01*
Y338566D01*
X1173221Y334567D02*
Y338566D01*
X1176220D01*
X1177220Y337566D01*
Y334567D01*
X1183218Y340565D02*
Y334567D01*
X1180219D01*
X1179219Y335567D01*
Y337566D01*
X1180219Y338566D01*
X1183218D01*
X1155227Y319567D02*
Y325565D01*
X1158226D01*
X1159225Y324565D01*
Y322566D01*
X1158226Y321566D01*
X1155227D01*
X1157226D02*
X1159225Y319567D01*
X1162224D02*
X1164224D01*
X1165224Y320567D01*
Y322566D01*
X1164224Y323566D01*
X1162224D01*
X1161225Y322566D01*
Y320567D01*
X1162224Y319567D01*
X1167223Y323566D02*
Y320567D01*
X1168223Y319567D01*
X1171222D01*
Y323566D01*
X1173221Y319567D02*
Y323566D01*
X1176220D01*
X1177220Y322566D01*
Y319567D01*
X1183218Y325565D02*
Y319567D01*
X1180219D01*
X1179219Y320567D01*
Y322566D01*
X1180219Y323566D01*
X1183218D01*
X1155227Y304567D02*
Y310565D01*
X1158226D01*
X1159225Y309565D01*
Y307566D01*
X1158226Y306566D01*
X1155227D01*
X1157226D02*
X1159225Y304567D01*
X1162224D02*
X1164224D01*
X1165224Y305567D01*
Y307566D01*
X1164224Y308566D01*
X1162224D01*
X1161225Y307566D01*
Y305567D01*
X1162224Y304567D01*
X1167223Y308566D02*
Y305567D01*
X1168223Y304567D01*
X1171222D01*
Y308566D01*
X1173221Y304567D02*
Y308566D01*
X1176220D01*
X1177220Y307566D01*
Y304567D01*
X1183218Y310565D02*
Y304567D01*
X1180219D01*
X1179219Y305567D01*
Y307566D01*
X1180219Y308566D01*
X1183218D01*
X1155227Y289567D02*
Y295565D01*
X1158226D01*
X1159225Y294565D01*
Y292566D01*
X1158226Y291566D01*
X1155227D01*
X1157226D02*
X1159225Y289567D01*
X1162224D02*
X1164224D01*
X1165224Y290567D01*
Y292566D01*
X1164224Y293566D01*
X1162224D01*
X1161225Y292566D01*
Y290567D01*
X1162224Y289567D01*
X1167223Y293566D02*
Y290567D01*
X1168223Y289567D01*
X1171222D01*
Y293566D01*
X1173221Y289567D02*
Y293566D01*
X1176220D01*
X1177220Y292566D01*
Y289567D01*
X1183218Y295565D02*
Y289567D01*
X1180219D01*
X1179219Y290567D01*
Y292566D01*
X1180219Y293566D01*
X1183218D01*
X1155227Y274567D02*
Y280565D01*
X1158226D01*
X1159225Y279565D01*
Y277566D01*
X1158226Y276566D01*
X1155227D01*
X1157226D02*
X1159225Y274567D01*
X1162224D02*
X1164224D01*
X1165224Y275567D01*
Y277566D01*
X1164224Y278566D01*
X1162224D01*
X1161225Y277566D01*
Y275567D01*
X1162224Y274567D01*
X1167223Y278566D02*
Y275567D01*
X1168223Y274567D01*
X1171222D01*
Y278566D01*
X1173221Y274567D02*
Y278566D01*
X1176220D01*
X1177220Y277566D01*
Y274567D01*
X1183218Y280565D02*
Y274567D01*
X1180219D01*
X1179219Y275567D01*
Y277566D01*
X1180219Y278566D01*
X1183218D01*
X1159225Y264565D02*
X1158226Y265565D01*
X1156226D01*
X1155227Y264565D01*
Y263566D01*
X1156226Y262566D01*
X1158226D01*
X1159225Y261566D01*
Y260567D01*
X1158226Y259567D01*
X1156226D01*
X1155227Y260567D01*
X1161225Y259567D02*
X1163224D01*
X1162224D01*
Y265565D01*
X1161225D01*
X1167223Y259567D02*
X1169222D01*
X1170222Y260567D01*
Y262566D01*
X1169222Y263566D01*
X1167223D01*
X1166223Y262566D01*
Y260567D01*
X1167223Y259567D01*
X1173221Y264565D02*
Y263566D01*
X1172221D01*
X1174221D01*
X1173221D01*
Y260567D01*
X1174221Y259567D01*
X1155227Y244567D02*
Y250565D01*
X1158226D01*
X1159225Y249565D01*
Y247566D01*
X1158226Y246566D01*
X1155227D01*
X1157226D02*
X1159225Y244567D01*
X1162224D02*
X1164224D01*
X1165224Y245567D01*
Y247566D01*
X1164224Y248566D01*
X1162224D01*
X1161225Y247566D01*
Y245567D01*
X1162224Y244567D01*
X1167223Y248566D02*
Y245567D01*
X1168223Y244567D01*
X1171222D01*
Y248566D01*
X1173221Y244567D02*
Y248566D01*
X1176220D01*
X1177220Y247566D01*
Y244567D01*
X1183218Y250565D02*
Y244567D01*
X1180219D01*
X1179219Y245567D01*
Y247566D01*
X1180219Y248566D01*
X1183218D01*
X1155227Y229567D02*
Y235565D01*
X1158226D01*
X1159225Y234565D01*
Y232566D01*
X1158226Y231566D01*
X1155227D01*
X1157226D02*
X1159225Y229567D01*
X1162224D02*
X1164224D01*
X1165224Y230567D01*
Y232566D01*
X1164224Y233566D01*
X1162224D01*
X1161225Y232566D01*
Y230567D01*
X1162224Y229567D01*
X1167223Y233566D02*
Y230567D01*
X1168223Y229567D01*
X1171222D01*
Y233566D01*
X1173221Y229567D02*
Y233566D01*
X1176220D01*
X1177220Y232566D01*
Y229567D01*
X1183218Y235565D02*
Y229567D01*
X1180219D01*
X1179219Y230567D01*
Y232566D01*
X1180219Y233566D01*
X1183218D01*
X1155227Y214567D02*
Y220565D01*
X1158226D01*
X1159225Y219565D01*
Y217566D01*
X1158226Y216566D01*
X1155227D01*
X1157226D02*
X1159225Y214567D01*
X1162224D02*
X1164224D01*
X1165224Y215567D01*
Y217566D01*
X1164224Y218566D01*
X1162224D01*
X1161225Y217566D01*
Y215567D01*
X1162224Y214567D01*
X1167223Y218566D02*
Y215567D01*
X1168223Y214567D01*
X1171222D01*
Y218566D01*
X1173221Y214567D02*
Y218566D01*
X1176220D01*
X1177220Y217566D01*
Y214567D01*
X1183218Y220565D02*
Y214567D01*
X1180219D01*
X1179219Y215567D01*
Y217566D01*
X1180219Y218566D01*
X1183218D01*
X1155227Y199567D02*
Y205565D01*
X1158226D01*
X1159225Y204565D01*
Y202566D01*
X1158226Y201566D01*
X1155227D01*
X1157226D02*
X1159225Y199567D01*
X1162224D02*
X1164224D01*
X1165224Y200567D01*
Y202566D01*
X1164224Y203566D01*
X1162224D01*
X1161225Y202566D01*
Y200567D01*
X1162224Y199567D01*
X1167223Y203566D02*
Y200567D01*
X1168223Y199567D01*
X1171222D01*
Y203566D01*
X1173221Y199567D02*
Y203566D01*
X1176220D01*
X1177220Y202566D01*
Y199567D01*
X1183218Y205565D02*
Y199567D01*
X1180219D01*
X1179219Y200567D01*
Y202566D01*
X1180219Y203566D01*
X1183218D01*
X1104639Y364567D02*
Y370565D01*
X1107638D01*
X1108638Y369565D01*
Y367566D01*
X1107638Y366566D01*
X1104639D01*
X1110637Y370565D02*
X1114636D01*
X1112636D01*
Y364567D01*
X1116635Y370565D02*
Y364567D01*
Y367566D01*
X1120634D01*
Y370565D01*
Y364567D01*
X1104639Y349567D02*
Y355565D01*
X1107638D01*
X1108638Y354565D01*
Y352566D01*
X1107638Y351566D01*
X1104639D01*
X1110637Y355565D02*
X1114636D01*
X1112636D01*
Y349567D01*
X1116635Y355565D02*
Y349567D01*
Y352566D01*
X1120634D01*
Y355565D01*
Y349567D01*
X1104639Y334567D02*
Y340565D01*
X1107638D01*
X1108638Y339565D01*
Y337566D01*
X1107638Y336566D01*
X1104639D01*
X1110637Y340565D02*
X1114636D01*
X1112636D01*
Y334567D01*
X1116635Y340565D02*
Y334567D01*
Y337566D01*
X1120634D01*
Y340565D01*
Y334567D01*
X1104639Y319567D02*
Y325565D01*
X1107638D01*
X1108638Y324565D01*
Y322566D01*
X1107638Y321566D01*
X1104639D01*
X1110637Y325565D02*
X1114636D01*
X1112636D01*
Y319567D01*
X1116635Y325565D02*
Y319567D01*
Y322566D01*
X1120634D01*
Y325565D01*
Y319567D01*
X1104639Y304567D02*
Y310565D01*
X1107638D01*
X1108638Y309565D01*
Y307566D01*
X1107638Y306566D01*
X1104639D01*
X1110637Y310565D02*
X1114636D01*
X1112636D01*
Y304567D01*
X1116635Y310565D02*
Y304567D01*
Y307566D01*
X1120634D01*
Y310565D01*
Y304567D01*
X1104639Y289567D02*
Y295565D01*
X1107638D01*
X1108638Y294565D01*
Y292566D01*
X1107638Y291566D01*
X1104639D01*
X1110637Y295565D02*
X1114636D01*
X1112636D01*
Y289567D01*
X1116635Y295565D02*
Y289567D01*
Y292566D01*
X1120634D01*
Y295565D01*
Y289567D01*
X1104639Y274567D02*
Y280565D01*
X1107638D01*
X1108638Y279565D01*
Y277566D01*
X1107638Y276566D01*
X1104639D01*
X1110637Y280565D02*
X1114636D01*
X1112636D01*
Y274567D01*
X1116635Y280565D02*
Y274567D01*
Y277566D01*
X1120634D01*
Y280565D01*
Y274567D01*
X1104639Y259567D02*
Y265565D01*
X1107638D01*
X1108638Y264565D01*
Y262566D01*
X1107638Y261566D01*
X1104639D01*
X1110637Y265565D02*
X1114636D01*
X1112636D01*
Y259567D01*
X1116635Y265565D02*
Y259567D01*
Y262566D01*
X1120634D01*
Y265565D01*
Y259567D01*
X1104639Y244567D02*
Y250565D01*
X1108638Y244567D01*
Y250565D01*
X1110637Y244567D02*
Y250565D01*
X1113636D01*
X1114636Y249565D01*
Y247566D01*
X1113636Y246566D01*
X1110637D01*
X1116635Y250565D02*
X1120634D01*
X1118635D01*
Y244567D01*
X1122633Y250565D02*
Y244567D01*
Y247566D01*
X1126632D01*
Y250565D01*
Y244567D01*
X1104639Y229567D02*
Y235565D01*
X1107638D01*
X1108638Y234565D01*
Y232566D01*
X1107638Y231566D01*
X1104639D01*
X1110637Y235565D02*
X1114636D01*
X1112636D01*
Y229567D01*
X1116635Y235565D02*
Y229567D01*
Y232566D01*
X1120634D01*
Y235565D01*
Y229567D01*
X1104639Y214567D02*
Y220565D01*
X1107638D01*
X1108638Y219565D01*
Y217566D01*
X1107638Y216566D01*
X1104639D01*
X1110637Y220565D02*
X1114636D01*
X1112636D01*
Y214567D01*
X1116635Y220565D02*
Y214567D01*
Y217566D01*
X1120634D01*
Y220565D01*
Y214567D01*
X1104639Y199567D02*
Y205565D01*
X1107638D01*
X1108638Y204565D01*
Y202566D01*
X1107638Y201566D01*
X1104639D01*
X1110637Y205565D02*
X1114636D01*
X1112636D01*
Y199567D01*
X1116635Y205565D02*
Y199567D01*
Y202566D01*
X1120634D01*
Y205565D01*
Y199567D01*
X970079Y369565D02*
X971078Y370565D01*
X973078D01*
X974077Y369565D01*
Y365567D01*
X973078Y364567D01*
X971078D01*
X970079Y365567D01*
Y369565D01*
X976077Y364567D02*
Y365567D01*
X977077D01*
Y364567D01*
X976077D01*
X985074Y370565D02*
X981075D01*
Y367566D01*
X983074Y368566D01*
X984074D01*
X985074Y367566D01*
Y365567D01*
X984074Y364567D01*
X982075D01*
X981075Y365567D01*
X987073Y369565D02*
X988073Y370565D01*
X990072D01*
X991072Y369565D01*
Y365567D01*
X990072Y364567D01*
X988073D01*
X987073Y365567D01*
Y369565D01*
X993071D02*
X994071Y370565D01*
X996070D01*
X997070Y369565D01*
Y365567D01*
X996070Y364567D01*
X994071D01*
X993071Y365567D01*
Y369565D01*
X999069Y364567D02*
Y368566D01*
X1000069D01*
X1001069Y367566D01*
Y364567D01*
Y367566D01*
X1002068Y368566D01*
X1003068Y367566D01*
Y364567D01*
X1005067D02*
Y368566D01*
X1006067D01*
X1007067Y367566D01*
Y364567D01*
Y367566D01*
X1008066Y368566D01*
X1009066Y367566D01*
Y364567D01*
X1019063D02*
X1017064Y366566D01*
Y368566D01*
X1019063Y370565D01*
X1022062Y364567D02*
X1024061D01*
X1023062D01*
Y370565D01*
X1022062Y369565D01*
X1027060Y365567D02*
X1028060Y364567D01*
X1030059D01*
X1031059Y365567D01*
Y369565D01*
X1030059Y370565D01*
X1028060D01*
X1027060Y369565D01*
Y368566D01*
X1028060Y367566D01*
X1031059D01*
X1033058Y364567D02*
Y365567D01*
X1034058D01*
Y364567D01*
X1033058D01*
X1042056Y370565D02*
X1040056Y369565D01*
X1038057Y367566D01*
Y365567D01*
X1039056Y364567D01*
X1041056D01*
X1042056Y365567D01*
Y366566D01*
X1041056Y367566D01*
X1038057D01*
X1044055Y365567D02*
X1045055Y364567D01*
X1047054D01*
X1048053Y365567D01*
Y369565D01*
X1047054Y370565D01*
X1045055D01*
X1044055Y369565D01*
Y368566D01*
X1045055Y367566D01*
X1048053D01*
X1050053Y364567D02*
Y368566D01*
X1051052D01*
X1052052Y367566D01*
Y364567D01*
Y367566D01*
X1053052Y368566D01*
X1054052Y367566D01*
Y364567D01*
X1056051D02*
X1058050D01*
X1057051D01*
Y368566D01*
X1056051D01*
X1061049Y364567D02*
X1063049D01*
X1062049D01*
Y370565D01*
X1061049D01*
X1066048Y364567D02*
X1068047Y366566D01*
Y368566D01*
X1066048Y370565D01*
X970079Y349567D02*
X972078D01*
X971078D01*
Y355565D01*
X970079Y354565D01*
X975077Y349567D02*
Y350567D01*
X976077D01*
Y349567D01*
X975077D01*
X984074D02*
X980075D01*
X984074Y353566D01*
Y354565D01*
X983074Y355565D01*
X981075D01*
X980075Y354565D01*
X986074D02*
X987073Y355565D01*
X989073D01*
X990072Y354565D01*
Y350567D01*
X989073Y349567D01*
X987073D01*
X986074Y350567D01*
Y354565D01*
X992072D02*
X993071Y355565D01*
X995071D01*
X996070Y354565D01*
Y350567D01*
X995071Y349567D01*
X993071D01*
X992072Y350567D01*
Y354565D01*
X998070Y349567D02*
Y353566D01*
X999069D01*
X1000069Y352566D01*
Y349567D01*
Y352566D01*
X1001069Y353566D01*
X1002068Y352566D01*
Y349567D01*
X1004068D02*
Y353566D01*
X1005067D01*
X1006067Y352566D01*
Y349567D01*
Y352566D01*
X1007067Y353566D01*
X1008066Y352566D01*
Y349567D01*
X1018063D02*
X1016064Y351566D01*
Y353566D01*
X1018063Y355565D01*
X1024061Y349567D02*
Y355565D01*
X1021062Y352566D01*
X1025061D01*
X1027060Y355565D02*
X1031059D01*
Y354565D01*
X1027060Y350567D01*
Y349567D01*
X1033058D02*
Y350567D01*
X1034058D01*
Y349567D01*
X1033058D01*
X1042056D02*
X1038057D01*
X1042056Y353566D01*
Y354565D01*
X1041056Y355565D01*
X1039056D01*
X1038057Y354565D01*
X1047054Y349567D02*
Y355565D01*
X1044055Y352566D01*
X1048053D01*
X1050053Y349567D02*
Y353566D01*
X1051052D01*
X1052052Y352566D01*
Y349567D01*
Y352566D01*
X1053052Y353566D01*
X1054052Y352566D01*
Y349567D01*
X1056051D02*
X1058050D01*
X1057051D01*
Y353566D01*
X1056051D01*
X1061049Y349567D02*
X1063049D01*
X1062049D01*
Y355565D01*
X1061049D01*
X1066048Y349567D02*
X1068047Y351566D01*
Y353566D01*
X1066048Y355565D01*
X970079Y334567D02*
X972078D01*
X971078D01*
Y340565D01*
X970079Y339565D01*
X975077Y334567D02*
Y335567D01*
X976077D01*
Y334567D01*
X975077D01*
X984074Y340565D02*
X982075Y339565D01*
X980075Y337566D01*
Y335567D01*
X981075Y334567D01*
X983074D01*
X984074Y335567D01*
Y336566D01*
X983074Y337566D01*
X980075D01*
X986074Y339565D02*
X987073Y340565D01*
X989073D01*
X990072Y339565D01*
Y335567D01*
X989073Y334567D01*
X987073D01*
X986074Y335567D01*
Y339565D01*
X992072D02*
X993071Y340565D01*
X995071D01*
X996070Y339565D01*
Y335567D01*
X995071Y334567D01*
X993071D01*
X992072Y335567D01*
Y339565D01*
X998070Y334567D02*
Y338566D01*
X999069D01*
X1000069Y337566D01*
Y334567D01*
Y337566D01*
X1001069Y338566D01*
X1002068Y337566D01*
Y334567D01*
X1004068D02*
Y338566D01*
X1005067D01*
X1006067Y337566D01*
Y334567D01*
Y337566D01*
X1007067Y338566D01*
X1008066Y337566D01*
Y334567D01*
X1018063D02*
X1016064Y336566D01*
Y338566D01*
X1018063Y340565D01*
X1025061D02*
X1023062Y339565D01*
X1021062Y337566D01*
Y335567D01*
X1022062Y334567D01*
X1024061D01*
X1025061Y335567D01*
Y336566D01*
X1024061Y337566D01*
X1021062D01*
X1031059Y334567D02*
X1027060D01*
X1031059Y338566D01*
Y339565D01*
X1030059Y340565D01*
X1028060D01*
X1027060Y339565D01*
X1033058Y334567D02*
Y335567D01*
X1034058D01*
Y334567D01*
X1033058D01*
X1038057Y335567D02*
X1039056Y334567D01*
X1041056D01*
X1042056Y335567D01*
Y339565D01*
X1041056Y340565D01*
X1039056D01*
X1038057Y339565D01*
Y338566D01*
X1039056Y337566D01*
X1042056D01*
X1044055Y335567D02*
X1045055Y334567D01*
X1047054D01*
X1048053Y335567D01*
Y339565D01*
X1047054Y340565D01*
X1045055D01*
X1044055Y339565D01*
Y338566D01*
X1045055Y337566D01*
X1048053D01*
X1050053Y334567D02*
Y338566D01*
X1051052D01*
X1052052Y337566D01*
Y334567D01*
Y337566D01*
X1053052Y338566D01*
X1054052Y337566D01*
Y334567D01*
X1056051D02*
X1058050D01*
X1057051D01*
Y338566D01*
X1056051D01*
X1061049Y334567D02*
X1063049D01*
X1062049D01*
Y340565D01*
X1061049D01*
X1066048Y334567D02*
X1068047Y336566D01*
Y338566D01*
X1066048Y340565D01*
X970079Y319567D02*
X972078D01*
X971078D01*
Y325565D01*
X970079Y324565D01*
X975077Y319567D02*
Y320567D01*
X976077D01*
Y319567D01*
X975077D01*
X984074Y325565D02*
X980075D01*
Y322566D01*
X982075Y323566D01*
X983074D01*
X984074Y322566D01*
Y320567D01*
X983074Y319567D01*
X981075D01*
X980075Y320567D01*
X986074Y324565D02*
X987073Y325565D01*
X989073D01*
X990072Y324565D01*
Y320567D01*
X989073Y319567D01*
X987073D01*
X986074Y320567D01*
Y324565D01*
X992072D02*
X993071Y325565D01*
X995071D01*
X996070Y324565D01*
Y320567D01*
X995071Y319567D01*
X993071D01*
X992072Y320567D01*
Y324565D01*
X998070Y319567D02*
Y323566D01*
X999069D01*
X1000069Y322566D01*
Y319567D01*
Y322566D01*
X1001069Y323566D01*
X1002068Y322566D01*
Y319567D01*
X1004068D02*
Y323566D01*
X1005067D01*
X1006067Y322566D01*
Y319567D01*
Y322566D01*
X1007067Y323566D01*
X1008066Y322566D01*
Y319567D01*
X1018063D02*
X1016064Y321566D01*
Y323566D01*
X1018063Y325565D01*
X1025061D02*
X1021062D01*
Y322566D01*
X1023062Y323566D01*
X1024061D01*
X1025061Y322566D01*
Y320567D01*
X1024061Y319567D01*
X1022062D01*
X1021062Y320567D01*
X1027060D02*
X1028060Y319567D01*
X1030059D01*
X1031059Y320567D01*
Y324565D01*
X1030059Y325565D01*
X1028060D01*
X1027060Y324565D01*
Y323566D01*
X1028060Y322566D01*
X1031059D01*
X1033058Y319567D02*
Y320567D01*
X1034058D01*
Y319567D01*
X1033058D01*
X1038057Y324565D02*
X1039056Y325565D01*
X1041056D01*
X1042056Y324565D01*
Y320567D01*
X1041056Y319567D01*
X1039056D01*
X1038057Y320567D01*
Y324565D01*
X1048053Y325565D02*
X1046054Y324565D01*
X1044055Y322566D01*
Y320567D01*
X1045055Y319567D01*
X1047054D01*
X1048053Y320567D01*
Y321566D01*
X1047054Y322566D01*
X1044055D01*
X1050053Y319567D02*
Y323566D01*
X1051052D01*
X1052052Y322566D01*
Y319567D01*
Y322566D01*
X1053052Y323566D01*
X1054052Y322566D01*
Y319567D01*
X1056051D02*
X1058050D01*
X1057051D01*
Y323566D01*
X1056051D01*
X1061049Y319567D02*
X1063049D01*
X1062049D01*
Y325565D01*
X1061049D01*
X1066048Y319567D02*
X1068047Y321566D01*
Y323566D01*
X1066048Y325565D01*
X974077Y304567D02*
X970079D01*
X974077Y308566D01*
Y309565D01*
X973078Y310565D01*
X971078D01*
X970079Y309565D01*
X976077Y304567D02*
Y305567D01*
X977077D01*
Y304567D01*
X976077D01*
X985074Y310565D02*
X981075D01*
Y307566D01*
X983074Y308566D01*
X984074D01*
X985074Y307566D01*
Y305567D01*
X984074Y304567D01*
X982075D01*
X981075Y305567D01*
X987073Y309565D02*
X988073Y310565D01*
X990072D01*
X991072Y309565D01*
Y305567D01*
X990072Y304567D01*
X988073D01*
X987073Y305567D01*
Y309565D01*
X993071D02*
X994071Y310565D01*
X996070D01*
X997070Y309565D01*
Y305567D01*
X996070Y304567D01*
X994071D01*
X993071Y305567D01*
Y309565D01*
X999069Y304567D02*
Y308566D01*
X1000069D01*
X1001069Y307566D01*
Y304567D01*
Y307566D01*
X1002068Y308566D01*
X1003068Y307566D01*
Y304567D01*
X1005067D02*
Y308566D01*
X1006067D01*
X1007067Y307566D01*
Y304567D01*
Y307566D01*
X1008066Y308566D01*
X1009066Y307566D01*
Y304567D01*
X1019063D02*
X1017064Y306566D01*
Y308566D01*
X1019063Y310565D01*
X1022062Y305567D02*
X1023062Y304567D01*
X1025061D01*
X1026061Y305567D01*
Y309565D01*
X1025061Y310565D01*
X1023062D01*
X1022062Y309565D01*
Y308566D01*
X1023062Y307566D01*
X1026061D01*
X1028060Y309565D02*
X1029060Y310565D01*
X1031059D01*
X1032059Y309565D01*
Y308566D01*
X1031059Y307566D01*
X1032059Y306566D01*
Y305567D01*
X1031059Y304567D01*
X1029060D01*
X1028060Y305567D01*
Y306566D01*
X1029060Y307566D01*
X1028060Y308566D01*
Y309565D01*
X1029060Y307566D02*
X1031059D01*
X1034058Y304567D02*
Y305567D01*
X1035058D01*
Y304567D01*
X1034058D01*
X1042056D02*
Y310565D01*
X1039056Y307566D01*
X1043055D01*
X1045055Y309565D02*
X1046054Y310565D01*
X1048053D01*
X1049053Y309565D01*
Y308566D01*
X1048053Y307566D01*
X1047054D01*
X1048053D01*
X1049053Y306566D01*
Y305567D01*
X1048053Y304567D01*
X1046054D01*
X1045055Y305567D01*
X1051052Y304567D02*
Y308566D01*
X1052052D01*
X1053052Y307566D01*
Y304567D01*
Y307566D01*
X1054052Y308566D01*
X1055051Y307566D01*
Y304567D01*
X1057051D02*
X1059050D01*
X1058050D01*
Y308566D01*
X1057051D01*
X1062049Y304567D02*
X1064048D01*
X1063049D01*
Y310565D01*
X1062049D01*
X1067047Y304567D02*
X1069047Y306566D01*
Y308566D01*
X1067047Y310565D01*
X970079Y294565D02*
X971078Y295565D01*
X973078D01*
X974077Y294565D01*
Y290567D01*
X973078Y289567D01*
X971078D01*
X970079Y290567D01*
Y294565D01*
X976077Y289567D02*
Y290567D01*
X977077D01*
Y289567D01*
X976077D01*
X981075Y290567D02*
X982075Y289567D01*
X984074D01*
X985074Y290567D01*
Y294565D01*
X984074Y295565D01*
X982075D01*
X981075Y294565D01*
Y293566D01*
X982075Y292566D01*
X985074D01*
X987073Y294565D02*
X988073Y295565D01*
X990072D01*
X991072Y294565D01*
Y290567D01*
X990072Y289567D01*
X988073D01*
X987073Y290567D01*
Y294565D01*
X993071D02*
X994071Y295565D01*
X996070D01*
X997070Y294565D01*
Y290567D01*
X996070Y289567D01*
X994071D01*
X993071Y290567D01*
Y294565D01*
X999069Y289567D02*
Y293566D01*
X1000069D01*
X1001069Y292566D01*
Y289567D01*
Y292566D01*
X1002068Y293566D01*
X1003068Y292566D01*
Y289567D01*
X1005067D02*
Y293566D01*
X1006067D01*
X1007067Y292566D01*
Y289567D01*
Y292566D01*
X1008066Y293566D01*
X1009066Y292566D01*
Y289567D01*
X1019063D02*
X1017064Y291566D01*
Y293566D01*
X1019063Y295565D01*
X1022062Y294565D02*
X1023062Y295565D01*
X1025061D01*
X1026061Y294565D01*
Y293566D01*
X1025061Y292566D01*
X1024061D01*
X1025061D01*
X1026061Y291566D01*
Y290567D01*
X1025061Y289567D01*
X1023062D01*
X1022062Y290567D01*
X1032059Y295565D02*
X1028060D01*
Y292566D01*
X1030059Y293566D01*
X1031059D01*
X1032059Y292566D01*
Y290567D01*
X1031059Y289567D01*
X1029060D01*
X1028060Y290567D01*
X1034058Y289567D02*
Y290567D01*
X1035058D01*
Y289567D01*
X1034058D01*
X1042056D02*
Y295565D01*
X1039056Y292566D01*
X1043055D01*
X1045055Y294565D02*
X1046054Y295565D01*
X1048053D01*
X1049053Y294565D01*
Y293566D01*
X1048053Y292566D01*
X1047054D01*
X1048053D01*
X1049053Y291566D01*
Y290567D01*
X1048053Y289567D01*
X1046054D01*
X1045055Y290567D01*
X1051052Y289567D02*
Y293566D01*
X1052052D01*
X1053052Y292566D01*
Y289567D01*
Y292566D01*
X1054052Y293566D01*
X1055051Y292566D01*
Y289567D01*
X1057051D02*
X1059050D01*
X1058050D01*
Y293566D01*
X1057051D01*
X1062049Y289567D02*
X1064048D01*
X1063049D01*
Y295565D01*
X1062049D01*
X1067047Y289567D02*
X1069047Y291566D01*
Y293566D01*
X1067047Y295565D01*
X970079Y279565D02*
X971078Y280565D01*
X973078D01*
X974077Y279565D01*
Y275567D01*
X973078Y274567D01*
X971078D01*
X970079Y275567D01*
Y279565D01*
X976077Y274567D02*
Y275567D01*
X977077D01*
Y274567D01*
X976077D01*
X981075Y280565D02*
X985074D01*
Y279565D01*
X981075Y275567D01*
Y274567D01*
X987073D02*
X989073D01*
X988073D01*
Y280565D01*
X987073Y279565D01*
X992072Y274567D02*
X994071D01*
X993071D01*
Y280565D01*
X992072Y279565D01*
X997070Y274567D02*
Y278566D01*
X998070D01*
X999069Y277566D01*
Y274567D01*
Y277566D01*
X1000069Y278566D01*
X1001069Y277566D01*
Y274567D01*
X1003068D02*
Y278566D01*
X1004068D01*
X1005067Y277566D01*
Y274567D01*
Y277566D01*
X1006067Y278566D01*
X1007067Y277566D01*
Y274567D01*
X1017064D02*
X1015064Y276566D01*
Y278566D01*
X1017064Y280565D01*
X1024061Y274567D02*
X1020063D01*
X1024061Y278566D01*
Y279565D01*
X1023062Y280565D01*
X1021062D01*
X1020063Y279565D01*
X1026061D02*
X1027060Y280565D01*
X1029060D01*
X1030059Y279565D01*
Y278566D01*
X1029060Y277566D01*
X1030059Y276566D01*
Y275567D01*
X1029060Y274567D01*
X1027060D01*
X1026061Y275567D01*
Y276566D01*
X1027060Y277566D01*
X1026061Y278566D01*
Y279565D01*
X1027060Y277566D02*
X1029060D01*
X1032059Y274567D02*
Y275567D01*
X1033058D01*
Y274567D01*
X1032059D01*
X1037057Y279565D02*
X1038057Y280565D01*
X1040056D01*
X1041056Y279565D01*
Y275567D01*
X1040056Y274567D01*
X1038057D01*
X1037057Y275567D01*
Y279565D01*
X1043055D02*
X1044055Y280565D01*
X1046054D01*
X1047054Y279565D01*
Y275567D01*
X1046054Y274567D01*
X1044055D01*
X1043055Y275567D01*
Y279565D01*
X1049053Y274567D02*
Y278566D01*
X1050053D01*
X1051052Y277566D01*
Y274567D01*
Y277566D01*
X1052052Y278566D01*
X1053052Y277566D01*
Y274567D01*
X1055051D02*
X1057051D01*
X1056051D01*
Y278566D01*
X1055051D01*
X1060050Y274567D02*
X1062049D01*
X1061049D01*
Y280565D01*
X1060050D01*
X1065048Y274567D02*
X1067047Y276566D01*
Y278566D01*
X1065048Y280565D01*
X970079Y259567D02*
X972078D01*
X971078D01*
Y265565D01*
X970079Y264565D01*
X975077Y259567D02*
Y260567D01*
X976077D01*
Y259567D01*
X975077D01*
X980075Y264565D02*
X981075Y265565D01*
X983074D01*
X984074Y264565D01*
Y263566D01*
X983074Y262566D01*
X984074Y261566D01*
Y260567D01*
X983074Y259567D01*
X981075D01*
X980075Y260567D01*
Y261566D01*
X981075Y262566D01*
X980075Y263566D01*
Y264565D01*
X981075Y262566D02*
X983074D01*
X986074Y264565D02*
X987073Y265565D01*
X989073D01*
X990072Y264565D01*
Y260567D01*
X989073Y259567D01*
X987073D01*
X986074Y260567D01*
Y264565D01*
X992072D02*
X993071Y265565D01*
X995071D01*
X996070Y264565D01*
Y260567D01*
X995071Y259567D01*
X993071D01*
X992072Y260567D01*
Y264565D01*
X998070Y259567D02*
Y263566D01*
X999069D01*
X1000069Y262566D01*
Y259567D01*
Y262566D01*
X1001069Y263566D01*
X1002068Y262566D01*
Y259567D01*
X1004068D02*
Y263566D01*
X1005067D01*
X1006067Y262566D01*
Y259567D01*
Y262566D01*
X1007067Y263566D01*
X1008066Y262566D01*
Y259567D01*
X1018063D02*
X1016064Y261566D01*
Y263566D01*
X1018063Y265565D01*
X1021062D02*
X1025061D01*
Y264565D01*
X1021062Y260567D01*
Y259567D01*
X1027060Y264565D02*
X1028060Y265565D01*
X1030059D01*
X1031059Y264565D01*
Y260567D01*
X1030059Y259567D01*
X1028060D01*
X1027060Y260567D01*
Y264565D01*
X1033058Y259567D02*
Y260567D01*
X1034058D01*
Y259567D01*
X1033058D01*
X1038057Y264565D02*
X1039056Y265565D01*
X1041056D01*
X1042056Y264565D01*
Y263566D01*
X1041056Y262566D01*
X1042056Y261566D01*
Y260567D01*
X1041056Y259567D01*
X1039056D01*
X1038057Y260567D01*
Y261566D01*
X1039056Y262566D01*
X1038057Y263566D01*
Y264565D01*
X1039056Y262566D02*
X1041056D01*
X1044055Y265565D02*
X1048053D01*
Y264565D01*
X1044055Y260567D01*
Y259567D01*
X1050053D02*
Y263566D01*
X1051052D01*
X1052052Y262566D01*
Y259567D01*
Y262566D01*
X1053052Y263566D01*
X1054052Y262566D01*
Y259567D01*
X1056051D02*
X1058050D01*
X1057051D01*
Y263566D01*
X1056051D01*
X1061049Y259567D02*
X1063049D01*
X1062049D01*
Y265565D01*
X1061049D01*
X1066048Y259567D02*
X1068047Y261566D01*
Y263566D01*
X1066048Y265565D01*
X970079Y249565D02*
X971078Y250565D01*
X973078D01*
X974077Y249565D01*
Y248566D01*
X973078Y247566D01*
X972078D01*
X973078D01*
X974077Y246566D01*
Y245567D01*
X973078Y244567D01*
X971078D01*
X970079Y245567D01*
X976077Y244567D02*
Y245567D01*
X977077D01*
Y244567D01*
X976077D01*
X981075Y249565D02*
X982075Y250565D01*
X984074D01*
X985074Y249565D01*
Y245567D01*
X984074Y244567D01*
X982075D01*
X981075Y245567D01*
Y249565D01*
X987073D02*
X988073Y250565D01*
X990072D01*
X991072Y249565D01*
Y245567D01*
X990072Y244567D01*
X988073D01*
X987073Y245567D01*
Y249565D01*
X993071D02*
X994071Y250565D01*
X996070D01*
X997070Y249565D01*
Y245567D01*
X996070Y244567D01*
X994071D01*
X993071Y245567D01*
Y249565D01*
X999069Y244567D02*
Y248566D01*
X1000069D01*
X1001069Y247566D01*
Y244567D01*
Y247566D01*
X1002068Y248566D01*
X1003068Y247566D01*
Y244567D01*
X1005067D02*
Y248566D01*
X1006067D01*
X1007067Y247566D01*
Y244567D01*
Y247566D01*
X1008066Y248566D01*
X1009066Y247566D01*
Y244567D01*
X1019063D02*
X1017064Y246566D01*
Y248566D01*
X1019063Y250565D01*
X1022062Y244567D02*
X1024061D01*
X1023062D01*
Y250565D01*
X1022062Y249565D01*
X1027060Y244567D02*
X1029060D01*
X1028060D01*
Y250565D01*
X1027060Y249565D01*
X1032059D02*
X1033058Y250565D01*
X1035058D01*
X1036057Y249565D01*
Y248566D01*
X1035058Y247566D01*
X1036057Y246566D01*
Y245567D01*
X1035058Y244567D01*
X1033058D01*
X1032059Y245567D01*
Y246566D01*
X1033058Y247566D01*
X1032059Y248566D01*
Y249565D01*
X1033058Y247566D02*
X1035058D01*
X1038057Y244567D02*
Y245567D01*
X1039056D01*
Y244567D01*
X1038057D01*
X1043055D02*
X1045055D01*
X1044055D01*
Y250565D01*
X1043055Y249565D01*
X1048053Y244567D02*
X1050053D01*
X1049053D01*
Y250565D01*
X1048053Y249565D01*
X1053052Y244567D02*
Y248566D01*
X1054052D01*
X1055051Y247566D01*
Y244567D01*
Y247566D01*
X1056051Y248566D01*
X1057051Y247566D01*
Y244567D01*
X1059050D02*
X1061049D01*
X1060050D01*
Y248566D01*
X1059050D01*
X1064048Y244567D02*
X1066048D01*
X1065048D01*
Y250565D01*
X1064048D01*
X1069047Y244567D02*
X1071046Y246566D01*
Y248566D01*
X1069047Y250565D01*
X970079Y234565D02*
X971078Y235565D01*
X973078D01*
X974077Y234565D01*
Y230567D01*
X973078Y229567D01*
X971078D01*
X970079Y230567D01*
Y234565D01*
X976077Y229567D02*
Y230567D01*
X977077D01*
Y229567D01*
X976077D01*
X985074Y235565D02*
X983074Y234565D01*
X981075Y232566D01*
Y230567D01*
X982075Y229567D01*
X984074D01*
X985074Y230567D01*
Y231566D01*
X984074Y232566D01*
X981075D01*
X987073Y234565D02*
X988073Y235565D01*
X990072D01*
X991072Y234565D01*
Y230567D01*
X990072Y229567D01*
X988073D01*
X987073Y230567D01*
Y234565D01*
X993071D02*
X994071Y235565D01*
X996070D01*
X997070Y234565D01*
Y230567D01*
X996070Y229567D01*
X994071D01*
X993071Y230567D01*
Y234565D01*
X999069Y229567D02*
Y233566D01*
X1000069D01*
X1001069Y232566D01*
Y229567D01*
Y232566D01*
X1002068Y233566D01*
X1003068Y232566D01*
Y229567D01*
X1005067D02*
Y233566D01*
X1006067D01*
X1007067Y232566D01*
Y229567D01*
Y232566D01*
X1008066Y233566D01*
X1009066Y232566D01*
Y229567D01*
X1019063D02*
X1017064Y231566D01*
Y233566D01*
X1019063Y235565D01*
X1026061Y229567D02*
X1022062D01*
X1026061Y233566D01*
Y234565D01*
X1025061Y235565D01*
X1023062D01*
X1022062Y234565D01*
X1028060D02*
X1029060Y235565D01*
X1031059D01*
X1032059Y234565D01*
Y233566D01*
X1031059Y232566D01*
X1030059D01*
X1031059D01*
X1032059Y231566D01*
Y230567D01*
X1031059Y229567D01*
X1029060D01*
X1028060Y230567D01*
X1034058Y229567D02*
Y230567D01*
X1035058D01*
Y229567D01*
X1034058D01*
X1043055Y235565D02*
X1041056Y234565D01*
X1039056Y232566D01*
Y230567D01*
X1040056Y229567D01*
X1042056D01*
X1043055Y230567D01*
Y231566D01*
X1042056Y232566D01*
X1039056D01*
X1049053Y229567D02*
X1045055D01*
X1049053Y233566D01*
Y234565D01*
X1048053Y235565D01*
X1046054D01*
X1045055Y234565D01*
X1051052Y229567D02*
Y233566D01*
X1052052D01*
X1053052Y232566D01*
Y229567D01*
Y232566D01*
X1054052Y233566D01*
X1055051Y232566D01*
Y229567D01*
X1057051D02*
X1059050D01*
X1058050D01*
Y233566D01*
X1057051D01*
X1062049Y229567D02*
X1064048D01*
X1063049D01*
Y235565D01*
X1062049D01*
X1067047Y229567D02*
X1069047Y231566D01*
Y233566D01*
X1067047Y235565D01*
X970079Y214567D02*
X972078D01*
X971078D01*
Y220565D01*
X970079Y219565D01*
X975077Y214567D02*
Y215567D01*
X976077D01*
Y214567D01*
X975077D01*
X980075Y219565D02*
X981075Y220565D01*
X983074D01*
X984074Y219565D01*
Y215567D01*
X983074Y214567D01*
X981075D01*
X980075Y215567D01*
Y219565D01*
X986074D02*
X987073Y220565D01*
X989073D01*
X990072Y219565D01*
Y215567D01*
X989073Y214567D01*
X987073D01*
X986074Y215567D01*
Y219565D01*
X992072D02*
X993071Y220565D01*
X995071D01*
X996070Y219565D01*
Y215567D01*
X995071Y214567D01*
X993071D01*
X992072Y215567D01*
Y219565D01*
X998070Y214567D02*
Y218566D01*
X999069D01*
X1000069Y217566D01*
Y214567D01*
Y217566D01*
X1001069Y218566D01*
X1002068Y217566D01*
Y214567D01*
X1004068D02*
Y218566D01*
X1005067D01*
X1006067Y217566D01*
Y214567D01*
Y217566D01*
X1007067Y218566D01*
X1008066Y217566D01*
Y214567D01*
X1018063D02*
X1016064Y216566D01*
Y218566D01*
X1018063Y220565D01*
X1021062Y219565D02*
X1022062Y220565D01*
X1024061D01*
X1025061Y219565D01*
Y218566D01*
X1024061Y217566D01*
X1023062D01*
X1024061D01*
X1025061Y216566D01*
Y215567D01*
X1024061Y214567D01*
X1022062D01*
X1021062Y215567D01*
X1027060D02*
X1028060Y214567D01*
X1030059D01*
X1031059Y215567D01*
Y219565D01*
X1030059Y220565D01*
X1028060D01*
X1027060Y219565D01*
Y218566D01*
X1028060Y217566D01*
X1031059D01*
X1033058Y214567D02*
Y215567D01*
X1034058D01*
Y214567D01*
X1033058D01*
X1038057Y219565D02*
X1039056Y220565D01*
X1041056D01*
X1042056Y219565D01*
Y218566D01*
X1041056Y217566D01*
X1040056D01*
X1041056D01*
X1042056Y216566D01*
Y215567D01*
X1041056Y214567D01*
X1039056D01*
X1038057Y215567D01*
X1044055Y220565D02*
X1048053D01*
Y219565D01*
X1044055Y215567D01*
Y214567D01*
X1050053D02*
Y218566D01*
X1051052D01*
X1052052Y217566D01*
Y214567D01*
Y217566D01*
X1053052Y218566D01*
X1054052Y217566D01*
Y214567D01*
X1056051D02*
X1058050D01*
X1057051D01*
Y218566D01*
X1056051D01*
X1061049Y214567D02*
X1063049D01*
X1062049D01*
Y220565D01*
X1061049D01*
X1066048Y214567D02*
X1068047Y216566D01*
Y218566D01*
X1066048Y220565D01*
X970079Y204565D02*
X971078Y205565D01*
X973078D01*
X974077Y204565D01*
Y200567D01*
X973078Y199567D01*
X971078D01*
X970079Y200567D01*
Y204565D01*
X976077Y199567D02*
Y200567D01*
X977077D01*
Y199567D01*
X976077D01*
X981075Y204565D02*
X982075Y205565D01*
X984074D01*
X985074Y204565D01*
Y203566D01*
X984074Y202566D01*
X983074D01*
X984074D01*
X985074Y201566D01*
Y200567D01*
X984074Y199567D01*
X982075D01*
X981075Y200567D01*
X987073Y204565D02*
X988073Y205565D01*
X990072D01*
X991072Y204565D01*
Y200567D01*
X990072Y199567D01*
X988073D01*
X987073Y200567D01*
Y204565D01*
X993071D02*
X994071Y205565D01*
X996070D01*
X997070Y204565D01*
Y200567D01*
X996070Y199567D01*
X994071D01*
X993071Y200567D01*
Y204565D01*
X999069Y199567D02*
Y203566D01*
X1000069D01*
X1001069Y202566D01*
Y199567D01*
Y202566D01*
X1002068Y203566D01*
X1003068Y202566D01*
Y199567D01*
X1005067D02*
Y203566D01*
X1006067D01*
X1007067Y202566D01*
Y199567D01*
Y202566D01*
X1008066Y203566D01*
X1009066Y202566D01*
Y199567D01*
X1019063D02*
X1017064Y201566D01*
Y203566D01*
X1019063Y205565D01*
X1022062Y199567D02*
X1024061D01*
X1023062D01*
Y205565D01*
X1022062Y204565D01*
X1027060Y199567D02*
X1029060D01*
X1028060D01*
Y205565D01*
X1027060Y204565D01*
X1032059Y199567D02*
Y200567D01*
X1033058D01*
Y199567D01*
X1032059D01*
X1037057Y204565D02*
X1038057Y205565D01*
X1040056D01*
X1041056Y204565D01*
Y203566D01*
X1040056Y202566D01*
X1041056Y201566D01*
Y200567D01*
X1040056Y199567D01*
X1038057D01*
X1037057Y200567D01*
Y201566D01*
X1038057Y202566D01*
X1037057Y203566D01*
Y204565D01*
X1038057Y202566D02*
X1040056D01*
X1043055Y199567D02*
X1045055D01*
X1044055D01*
Y205565D01*
X1043055Y204565D01*
X1048053Y199567D02*
Y203566D01*
X1049053D01*
X1050053Y202566D01*
Y199567D01*
Y202566D01*
X1051052Y203566D01*
X1052052Y202566D01*
Y199567D01*
X1054052D02*
X1056051D01*
X1055051D01*
Y203566D01*
X1054052D01*
X1059050Y199567D02*
X1061049D01*
X1060050D01*
Y205565D01*
X1059050D01*
X1064048Y199567D02*
X1066048Y201566D01*
Y203566D01*
X1064048Y205565D01*
X903296Y184567D02*
Y190565D01*
X900297Y187566D01*
X904296D01*
X906295Y190565D02*
X910294D01*
Y189565D01*
X906295Y185567D01*
Y184567D01*
X912294D02*
X914293D01*
X913293D01*
Y190565D01*
X912294Y189565D01*
X923290Y190565D02*
X927289D01*
X925289D01*
Y184567D01*
X930288D02*
X932287D01*
X933287Y185567D01*
Y187566D01*
X932287Y188566D01*
X930288D01*
X929288Y187566D01*
Y185567D01*
X930288Y184567D01*
X936286Y189565D02*
Y188566D01*
X935286D01*
X937285D01*
X936286D01*
Y185567D01*
X937285Y184567D01*
X941284Y188566D02*
X943283D01*
X944283Y187566D01*
Y184567D01*
X941284D01*
X940284Y185567D01*
X941284Y186566D01*
X944283D01*
X946282Y184567D02*
X948282D01*
X947282D01*
Y190565D01*
X946282D01*
X900297Y364567D02*
X902297D01*
X901297D01*
Y370565D01*
X900297Y369565D01*
Y349567D02*
X902297D01*
X901297D01*
Y355565D01*
X900297Y354565D01*
Y334567D02*
X902297D01*
X901297D01*
Y340565D01*
X900297Y339565D01*
X904296Y319567D02*
X900297D01*
X904296Y323566D01*
Y324565D01*
X903296Y325565D01*
X901297D01*
X900297Y324565D01*
X903296Y304567D02*
Y310565D01*
X900297Y307566D01*
X904296D01*
Y295565D02*
X902297Y294565D01*
X900297Y292566D01*
Y290567D01*
X901297Y289567D01*
X903296D01*
X904296Y290567D01*
Y291566D01*
X903296Y292566D01*
X900297D01*
Y275567D02*
X901297Y274567D01*
X903296D01*
X904296Y275567D01*
Y279565D01*
X903296Y280565D01*
X901297D01*
X900297Y279565D01*
Y278566D01*
X901297Y277566D01*
X904296D01*
X900297Y259567D02*
X902297D01*
X901297D01*
Y265565D01*
X900297Y264565D01*
X905296D02*
X906295Y265565D01*
X908295D01*
X909295Y264565D01*
Y263566D01*
X908295Y262566D01*
X909295Y261566D01*
Y260567D01*
X908295Y259567D01*
X906295D01*
X905296Y260567D01*
Y261566D01*
X906295Y262566D01*
X905296Y263566D01*
Y264565D01*
X906295Y262566D02*
X908295D01*
X904296Y244567D02*
X900297D01*
X904296Y248566D01*
Y249565D01*
X903296Y250565D01*
X901297D01*
X900297Y249565D01*
X910294Y244567D02*
X906295D01*
X910294Y248566D01*
Y249565D01*
X909295Y250565D01*
X907295D01*
X906295Y249565D01*
X904296Y235565D02*
X902297Y234565D01*
X900297Y232566D01*
Y230567D01*
X901297Y229567D01*
X903296D01*
X904296Y230567D01*
Y231566D01*
X903296Y232566D01*
X900297D01*
X909295Y229567D02*
Y235565D01*
X906295Y232566D01*
X910294D01*
X900297Y220565D02*
X904296D01*
Y219565D01*
X900297Y215567D01*
Y214567D01*
X906295D02*
X908295D01*
X907295D01*
Y220565D01*
X906295Y219565D01*
X904296Y199567D02*
X900297D01*
X904296Y203566D01*
Y204565D01*
X903296Y205565D01*
X901297D01*
X900297Y204565D01*
X906295Y205565D02*
X910294D01*
Y204565D01*
X906295Y200567D01*
Y199567D01*
X916292D02*
X912294D01*
X916292Y203566D01*
Y204565D01*
X915292Y205565D01*
X913293D01*
X912294Y204565D01*
D14*
X-0Y551181D02*
X-0D01*
Y0D02*
Y551181D01*
Y0D02*
X826772D01*
Y551181D01*
X635827D02*
X826772D01*
X635827Y492126D02*
Y551181D01*
X316929Y310630D02*
X635827D01*
X316929D02*
X316929D01*
X316929D02*
Y551181D01*
X-0Y551181D02*
X316929D01*
X655512Y338583D02*
Y484252D01*
X635827Y492126D02*
X655512Y484252D01*
X635827Y310630D02*
Y330709D01*
X635827Y330709D02*
X655512Y338583D01*
D91*
X852522Y292067D02*
G03*
X852522Y292067I-2500J0D01*
G01*
X851522Y277067D02*
G03*
X851522Y277067I-1500J0D01*
G01*
X852522D02*
G03*
X852522Y277067I-2500J0D01*
G01*
X46276Y163386D02*
G03*
X46276Y163386I-1000J0D01*
G01*
X46942D02*
G03*
X46942Y163386I-1667J0D01*
G01*
X711630Y172343D02*
G03*
X711630Y172343I-1000J0D01*
G01*
X712297D02*
G03*
X712297Y172343I-1667J0D01*
G01*
X611236Y172441D02*
G03*
X611236Y172441I-1000J0D01*
G01*
X611903D02*
G03*
X611903Y172441I-1667J0D01*
G01*
X512811Y172343D02*
G03*
X512811Y172343I-1000J0D01*
G01*
X513478D02*
G03*
X513478Y172343I-1667J0D01*
G01*
X414386Y172343D02*
G03*
X414386Y172343I-1000J0D01*
G01*
X415053D02*
G03*
X415053Y172343I-1667J0D01*
G01*
X315961Y172441D02*
G03*
X315961Y172441I-1000J0D01*
G01*
X316627D02*
G03*
X316627Y172441I-1667J0D01*
G01*
X217535Y172343D02*
G03*
X217535Y172343I-1000J0D01*
G01*
X218202D02*
G03*
X218202Y172343I-1667J0D01*
G01*
X119110Y172047D02*
G03*
X119110Y172047I-1000J0D01*
G01*
X119777D02*
G03*
X119777Y172047I-1667J0D01*
G01*
X782495Y163386D02*
G03*
X782495Y163386I-1000J0D01*
G01*
X783161D02*
G03*
X783161Y163386I-1667J0D01*
G01*
X745761Y13386D02*
G03*
X745761Y13386I-1667J0D01*
G01*
X755761D02*
G03*
X755761Y13386I-1667J0D01*
G01*
X765761D02*
G03*
X765761Y13386I-1667J0D01*
G01*
X775761D02*
G03*
X775761Y13386I-1667J0D01*
G01*
X785761D02*
G03*
X785761Y13386I-1667J0D01*
G01*
X795761D02*
G03*
X795761Y13386I-1667J0D01*
G01*
X849272Y366317D02*
X850022Y365567D01*
X848522Y366317D02*
X849272D01*
X848522D02*
X849272Y367067D01*
X848522Y367817D02*
X849272Y367067D01*
X848522Y367817D02*
X849272D01*
X850022Y368567D01*
X850772Y367817D01*
X851522D01*
X850772Y367067D02*
X851522Y367817D01*
X850772Y367067D02*
X851522Y366317D01*
X850772D02*
X851522D01*
X850022Y365567D02*
X850772Y366317D01*
X848772Y365817D02*
X850022Y364567D01*
X847522Y365817D02*
X848772D01*
X847522D02*
X848772Y367067D01*
X847522Y368317D02*
X848772Y367067D01*
X847522Y368317D02*
X848772D01*
X850022Y369567D01*
X851272Y368317D01*
X852522D01*
X851272Y367067D02*
X852522Y368317D01*
X851272Y367067D02*
X852522Y365817D01*
X851272D02*
X852522D01*
X850022Y364567D02*
X851272Y365817D01*
X847522Y349567D02*
Y350817D01*
X848772Y352067D01*
X847522Y353317D02*
X848772Y352067D01*
X847522Y353317D02*
Y354567D01*
X848772D01*
X850022Y353317D01*
X851272Y354567D01*
X852522D01*
Y353317D02*
Y354567D01*
X851272Y352067D02*
X852522Y353317D01*
X851272Y352067D02*
X852522Y350817D01*
Y349567D02*
Y350817D01*
X851272Y349567D02*
X852522D01*
X850022Y350817D02*
X851272Y349567D01*
X848772D02*
X850022Y350817D01*
X847522Y349567D02*
X848772D01*
X847522Y337067D02*
X850022Y334567D01*
X852522Y337067D01*
X850022Y339567D02*
X852522Y337067D01*
X847522D02*
X850022Y339567D01*
X848772Y320817D02*
X850022Y319567D01*
X847522Y320817D02*
X848772D01*
X847522D02*
X848772Y322067D01*
X847522Y323317D02*
X848772Y322067D01*
X847522Y323317D02*
X848772D01*
X850022Y324567D01*
X851272Y323317D01*
X852522D01*
X851272Y322067D02*
X852522Y323317D01*
X851272Y322067D02*
X852522Y320817D01*
X851272D02*
X852522D01*
X850022Y319567D02*
X851272Y320817D01*
X847522Y304567D02*
X850022Y305817D01*
X852522Y304567D01*
X851272Y307067D02*
X852522Y304567D01*
X851272Y307067D02*
X852522Y309567D01*
X850022Y308317D02*
X852522Y309567D01*
X847522D02*
X850022Y308317D01*
X847522Y309567D02*
X848772Y307067D01*
X847522Y304567D02*
X848772Y307067D01*
X847522Y260817D02*
X848772D01*
X847522D02*
Y263317D01*
X848772D01*
Y264567D01*
X851272D01*
Y263317D02*
Y264567D01*
Y263317D02*
X852522D01*
Y260817D02*
Y263317D01*
X851272Y260817D02*
X852522D01*
X851272Y259567D02*
Y260817D01*
X848772Y259567D02*
X851272D01*
X848772D02*
Y260817D01*
X848522Y245567D02*
X850022Y246317D01*
X851522Y245567D01*
X850772Y247067D02*
X851522Y245567D01*
X850772Y247067D02*
X851522Y248567D01*
X850022Y247817D02*
X851522Y248567D01*
X848522D02*
X850022Y247817D01*
X848522Y248567D02*
X849272Y247067D01*
X848522Y245567D02*
X849272Y247067D01*
X847522Y244567D02*
X850022Y245817D01*
X852522Y244567D01*
X851272Y247067D02*
X852522Y244567D01*
X851272Y247067D02*
X852522Y249567D01*
X850022Y248317D02*
X852522Y249567D01*
X847522D02*
X850022Y248317D01*
X847522Y249567D02*
X848772Y247067D01*
X847522Y244567D02*
X848772Y247067D01*
X847522Y229567D02*
X852522D01*
Y234567D01*
X847522D02*
X852522D01*
X847522Y229567D02*
Y234567D01*
X850022Y214567D02*
X852522Y219567D01*
X847522D02*
X852522D01*
X847522D02*
X850022Y214567D01*
X848522Y200567D02*
X851522D01*
Y203567D01*
X848522D02*
X851522D01*
X848522Y200567D02*
Y203567D01*
X847522Y199567D02*
X852522D01*
Y204567D01*
X847522D02*
X852522D01*
X847522Y199567D02*
Y204567D01*
X762780Y315535D02*
X764780D01*
Y317535D01*
X762780D02*
X764780D01*
X762780Y315535D02*
Y317535D01*
X762113Y314869D02*
X765446D01*
Y318202D01*
X762113D02*
X765446D01*
X762113Y314869D02*
Y318202D01*
X749787Y117504D02*
X751787D01*
Y119504D01*
X749787D02*
X751787D01*
X749787Y117504D02*
Y119504D01*
X749121Y116837D02*
X752454D01*
Y120171D01*
X749121D02*
X752454D01*
X749121Y116837D02*
Y120171D01*
X746244Y368291D02*
X748244D01*
Y370291D01*
X746244D02*
X748244D01*
X746244Y368291D02*
Y370291D01*
X745577Y367625D02*
X748911D01*
Y370958D01*
X745577D02*
X748911D01*
X745577Y367625D02*
Y370958D01*
X697031Y368291D02*
X699031D01*
Y370291D01*
X697031D02*
X699031D01*
X697031Y368291D02*
Y370291D01*
X696365Y367625D02*
X699698D01*
Y370958D01*
X696365D02*
X699698D01*
X696365Y367625D02*
Y370958D01*
X704512Y384433D02*
X706512D01*
Y386433D01*
X704512D02*
X706512D01*
X704512Y384433D02*
Y386433D01*
X703845Y383766D02*
X707178D01*
Y387100D01*
X703845D02*
X707178D01*
X703845Y383766D02*
Y387100D01*
X711598Y112386D02*
X713598D01*
Y114386D01*
X711598D02*
X713598D01*
X711598Y112386D02*
Y114386D01*
X710932Y111719D02*
X714265D01*
Y115053D01*
X710932D02*
X714265D01*
X710932Y111719D02*
Y115053D01*
X695968Y72504D02*
X697968D01*
Y74504D01*
X695968D02*
X697968D01*
X695968Y72504D02*
Y74504D01*
X695302Y71838D02*
X698635D01*
Y75171D01*
X695302D02*
X698635D01*
X695302Y71838D02*
Y75171D01*
X752898Y82504D02*
X754898D01*
Y84504D01*
X752898D02*
X754898D01*
X752898Y82504D02*
Y84504D01*
X752231Y81838D02*
X755564D01*
Y85171D01*
X752231D02*
X755564D01*
X752231Y81838D02*
Y85171D01*
X721441Y87504D02*
X723441D01*
Y89504D01*
X721441D02*
X723441D01*
X721441Y87504D02*
Y89504D01*
X720774Y86838D02*
X724108D01*
Y90171D01*
X720774D02*
X724108D01*
X720774Y86838D02*
Y90171D01*
X723606Y92504D02*
X725606D01*
Y94504D01*
X723606D02*
X725606D01*
X723606Y92504D02*
Y94504D01*
X722940Y91838D02*
X726273D01*
Y95171D01*
X722940D02*
X726273D01*
X722940Y91838D02*
Y95171D01*
X735614Y92504D02*
X737614D01*
Y94504D01*
X735614D02*
X737614D01*
X735614Y92504D02*
Y94504D01*
X734948Y91838D02*
X738281D01*
Y95171D01*
X734948D02*
X738281D01*
X734948Y91838D02*
Y95171D01*
X735614Y87504D02*
X737614D01*
Y89504D01*
X735614D02*
X737614D01*
X735614Y87504D02*
Y89504D01*
X734948Y86838D02*
X738281D01*
Y90171D01*
X734948D02*
X738281D01*
X734948Y86838D02*
Y90171D01*
X751362Y313961D02*
X753362D01*
Y315961D01*
X751362D02*
X753362D01*
X751362Y313961D02*
Y315961D01*
X750696Y313294D02*
X754029D01*
Y316628D01*
X750696D02*
X754029D01*
X750696Y313294D02*
Y316628D01*
X200575Y297819D02*
X202575D01*
Y299819D01*
X200575D02*
X202575D01*
X200575Y297819D02*
Y299819D01*
X199908Y297152D02*
X203241D01*
Y300486D01*
X199908D02*
X203241D01*
X199908Y297152D02*
Y300486D01*
X204512Y306087D02*
X206512D01*
Y308087D01*
X204512D02*
X206512D01*
X204512Y306087D02*
Y308087D01*
X203845Y305420D02*
X207178D01*
Y308753D01*
X203845D02*
X207178D01*
X203845Y305420D02*
Y308753D01*
X200575Y301756D02*
X202575D01*
Y303756D01*
X200575D02*
X202575D01*
X200575Y301756D02*
Y303756D01*
X199908Y301089D02*
X203241D01*
Y304423D01*
X199908D02*
X203241D01*
X199908Y301089D02*
Y304423D01*
X204906Y301756D02*
X206906D01*
Y303756D01*
X204906D02*
X206906D01*
X204906Y301756D02*
Y303756D01*
X204239Y301089D02*
X207572D01*
Y304423D01*
X204239D02*
X207572D01*
X204239Y301089D02*
Y304423D01*
X223016Y300181D02*
X225016D01*
Y302181D01*
X223016D02*
X225016D01*
X223016Y300181D02*
Y302181D01*
X222349Y299515D02*
X225682D01*
Y302848D01*
X222349D02*
X225682D01*
X222349Y299515D02*
Y302848D01*
X741126Y325772D02*
X743126D01*
Y327772D01*
X741126D02*
X743126D01*
X741126Y325772D02*
Y327772D01*
X740459Y325105D02*
X743793D01*
Y328438D01*
X740459D02*
X743793D01*
X740459Y325105D02*
Y328438D01*
X17898Y63961D02*
X19898D01*
Y65961D01*
X17898D02*
X19898D01*
X17898Y63961D02*
Y65961D01*
X17231Y63294D02*
X20564D01*
Y66628D01*
X17231D02*
X20564D01*
X17231Y63294D02*
Y66628D01*
X6480Y63961D02*
X8480D01*
Y65961D01*
X6480D02*
X8480D01*
X6480Y63961D02*
Y65961D01*
X5814Y63294D02*
X9147D01*
Y66628D01*
X5814D02*
X9147D01*
X5814Y63294D02*
Y66628D01*
X536402Y89945D02*
X538402D01*
Y91945D01*
X536402D02*
X538402D01*
X536402Y89945D02*
Y91945D01*
X535735Y89278D02*
X539068D01*
Y92612D01*
X535735D02*
X539068D01*
X535735Y89278D02*
Y92612D01*
X319079Y89945D02*
X321079D01*
Y91945D01*
X319079D02*
X321079D01*
X319079Y89945D02*
Y91945D01*
X318412Y89278D02*
X321745D01*
Y92612D01*
X318412D02*
X321745D01*
X318412Y89278D02*
Y92612D01*
X260024Y87189D02*
X262024D01*
Y89189D01*
X260024D02*
X262024D01*
X260024Y87189D02*
Y89189D01*
X259357Y86523D02*
X262690D01*
Y89856D01*
X259357D02*
X262690D01*
X259357Y86523D02*
Y89856D01*
X378134Y92701D02*
X380134D01*
Y94701D01*
X378134D02*
X380134D01*
X378134Y92701D02*
Y94701D01*
X377467Y92034D02*
X380801D01*
Y95368D01*
X377467D02*
X380801D01*
X377467Y92034D02*
Y95368D01*
X477740Y86402D02*
X479740D01*
Y88402D01*
X477740D02*
X479740D01*
X477740Y86402D02*
Y88402D01*
X477074Y85735D02*
X480407D01*
Y89068D01*
X477074D02*
X480407D01*
X477074Y85735D02*
Y89068D01*
X418587Y84335D02*
X420587D01*
Y86335D01*
X418587D02*
X420587D01*
X418587Y84335D02*
Y86335D01*
X417920Y83668D02*
X421253D01*
Y87002D01*
X417920D02*
X421253D01*
X417920Y83668D02*
Y87002D01*
X280890Y81677D02*
X282890D01*
Y83677D01*
X280890D02*
X282890D01*
X280890Y81677D02*
Y83677D01*
X280223Y81011D02*
X283557D01*
Y84344D01*
X280223D02*
X283557D01*
X280223Y81011D02*
Y84344D01*
X200969Y84335D02*
X202969D01*
Y86335D01*
X200969D02*
X202969D01*
X200969Y84335D02*
Y86335D01*
X200302Y83668D02*
X203635D01*
Y87002D01*
X200302D02*
X203635D01*
X200302Y83668D02*
Y87002D01*
X759236Y317110D02*
X761236D01*
Y319110D01*
X759236D02*
X761236D01*
X759236Y317110D02*
Y319110D01*
X758570Y316444D02*
X761903D01*
Y319777D01*
X758570D02*
X761903D01*
X758570Y316444D02*
Y319777D01*
X762780Y297032D02*
X764780D01*
Y299032D01*
X762780D02*
X764780D01*
X762780Y297032D02*
Y299032D01*
X762113Y296365D02*
X765446D01*
Y299698D01*
X762113D02*
X765446D01*
X762113Y296365D02*
Y299698D01*
X762780Y303725D02*
X764780D01*
Y305725D01*
X762780D02*
X764780D01*
X762780Y303725D02*
Y305725D01*
X762113Y303058D02*
X765446D01*
Y306391D01*
X762113D02*
X765446D01*
X762113Y303058D02*
Y306391D01*
X759236Y305299D02*
X761236D01*
Y307299D01*
X759236D02*
X761236D01*
X759236Y305299D02*
Y307299D01*
X758570Y304633D02*
X761903D01*
Y307966D01*
X758570D02*
X761903D01*
X758570Y304633D02*
Y307966D01*
X674197Y96244D02*
X676197D01*
Y98244D01*
X674197D02*
X676197D01*
X674197Y96244D02*
Y98244D01*
X673530Y95578D02*
X676864D01*
Y98911D01*
X673530D02*
X676864D01*
X673530Y95578D02*
Y98911D01*
X714256Y38961D02*
X716256D01*
Y40961D01*
X714256D02*
X716256D01*
X714256Y38961D02*
Y40961D01*
X713589Y38294D02*
X716923D01*
Y41628D01*
X713589D02*
X716923D01*
X713589Y38294D02*
Y41628D01*
X710811Y325477D02*
X712811D01*
Y327477D01*
X710811D02*
X712811D01*
X710811Y325477D02*
Y327477D01*
X710144Y324810D02*
X713478D01*
Y328143D01*
X710144D02*
X713478D01*
X710144Y324810D02*
Y328143D01*
X714354Y483252D02*
X716354D01*
Y485252D01*
X714354D02*
X716354D01*
X714354Y483252D02*
Y485252D01*
X713688Y482585D02*
X717021D01*
Y485919D01*
X713688D02*
X717021D01*
X713688Y482585D02*
Y485919D01*
X734039Y491126D02*
X736039D01*
Y493126D01*
X734039D02*
X736039D01*
X734039Y491126D02*
Y493126D01*
X733373Y490459D02*
X736706D01*
Y493793D01*
X733373D02*
X736706D01*
X733373Y490459D02*
Y493793D01*
X759630Y487189D02*
X761630D01*
Y489189D01*
X759630D02*
X761630D01*
X759630Y487189D02*
Y489189D01*
X758963Y486522D02*
X762297D01*
Y489856D01*
X758963D02*
X762297D01*
X758963Y486522D02*
Y489856D01*
X721441Y348606D02*
X723441D01*
Y350606D01*
X721441D02*
X723441D01*
X721441Y348606D02*
Y350606D01*
X720774Y347940D02*
X724108D01*
Y351273D01*
X720774D02*
X724108D01*
X720774Y347940D02*
Y351273D01*
X699788Y461992D02*
X701788D01*
Y463992D01*
X699788D02*
X701788D01*
X699788Y461992D02*
Y463992D01*
X699121Y461326D02*
X702454D01*
Y464659D01*
X699121D02*
X702454D01*
X699121Y461326D02*
Y464659D01*
X768685Y489551D02*
X770685D01*
Y491551D01*
X768685D02*
X770685D01*
X768685Y489551D02*
Y491551D01*
X768018Y488885D02*
X771352D01*
Y492218D01*
X768018D02*
X771352D01*
X768018Y488885D02*
Y492218D01*
X755299Y306874D02*
X757299D01*
Y308874D01*
X755299D02*
X757299D01*
X755299Y306874D02*
Y308874D01*
X754633Y306207D02*
X757966D01*
Y309541D01*
X754633D02*
X757966D01*
X754633Y306207D02*
Y309541D01*
X755299Y315536D02*
X757299D01*
Y317536D01*
X755299D02*
X757299D01*
X755299Y315536D02*
Y317536D01*
X754633Y314869D02*
X757966D01*
Y318202D01*
X754633D02*
X757966D01*
X754633Y314869D02*
Y318202D01*
X711598Y107268D02*
X713598D01*
Y109268D01*
X711598D02*
X713598D01*
X711598Y107268D02*
Y109268D01*
X710932Y106601D02*
X714265D01*
Y109935D01*
X710932D02*
X714265D01*
X710932Y106601D02*
Y109935D01*
X735220Y118685D02*
X737220D01*
Y120685D01*
X735220D02*
X737220D01*
X735220Y118685D02*
Y120685D01*
X734554Y118019D02*
X737887D01*
Y121352D01*
X734554D02*
X737887D01*
X734554Y118019D02*
Y121352D01*
X731284Y120785D02*
X733284D01*
Y122785D01*
X731284D02*
X733284D01*
X731284Y120785D02*
Y122785D01*
X730617Y120118D02*
X733950D01*
Y123452D01*
X730617D02*
X733950D01*
X730617Y120118D02*
Y123452D01*
X723410Y124984D02*
X725410D01*
Y126984D01*
X723410D02*
X725410D01*
X723410Y124984D02*
Y126984D01*
X722743Y124318D02*
X726076D01*
Y127651D01*
X722743D02*
X726076D01*
X722743Y124318D02*
Y127651D01*
X723410Y142701D02*
X725410D01*
Y144701D01*
X723410D02*
X725410D01*
X723410Y142701D02*
Y144701D01*
X722743Y142034D02*
X726076D01*
Y145368D01*
X722743D02*
X726076D01*
X722743Y142034D02*
Y145368D01*
X727347Y122885D02*
X729347D01*
Y124885D01*
X727347D02*
X729347D01*
X727347Y122885D02*
Y124885D01*
X726680Y122218D02*
X730013D01*
Y125551D01*
X726680D02*
X730013D01*
X726680Y122218D02*
Y125551D01*
X715535Y144669D02*
X717535D01*
Y146669D01*
X715535D02*
X717535D01*
X715535Y144669D02*
Y146669D01*
X714869Y144003D02*
X718202D01*
Y147336D01*
X714869D02*
X718202D01*
X714869Y144003D02*
Y147336D01*
X715535Y123016D02*
X717535D01*
Y125016D01*
X715535D02*
X717535D01*
X715535Y123016D02*
Y125016D01*
X714869Y122349D02*
X718202D01*
Y125683D01*
X714869D02*
X718202D01*
X714869Y122349D02*
Y125683D01*
X731284Y146638D02*
X733284D01*
Y148638D01*
X731284D02*
X733284D01*
X731284Y146638D02*
Y148638D01*
X730617Y145971D02*
X733950D01*
Y149305D01*
X730617D02*
X733950D01*
X730617Y145971D02*
Y149305D01*
X719473Y138764D02*
X721473D01*
Y140764D01*
X719473D02*
X721473D01*
X719473Y138764D02*
Y140764D01*
X718806Y138097D02*
X722139D01*
Y141431D01*
X718806D02*
X722139D01*
X718806Y138097D02*
Y141431D01*
X727347Y144669D02*
X729347D01*
Y146669D01*
X727347D02*
X729347D01*
X727347Y144669D02*
Y146669D01*
X726680Y144003D02*
X730013D01*
Y147336D01*
X726680D02*
X730013D01*
X726680Y144003D02*
Y147336D01*
X715535Y127347D02*
X717535D01*
Y129347D01*
X715535D02*
X717535D01*
X715535Y127347D02*
Y129347D01*
X714869Y126680D02*
X718202D01*
Y130013D01*
X714869D02*
X718202D01*
X714869Y126680D02*
Y130013D01*
X719473Y129315D02*
X721473D01*
Y131315D01*
X719473D02*
X721473D01*
X719473Y129315D02*
Y131315D01*
X718806Y128648D02*
X722139D01*
Y131982D01*
X718806D02*
X722139D01*
X718806Y128648D02*
Y131982D01*
X715535Y140733D02*
X717535D01*
Y142733D01*
X715535D02*
X717535D01*
X715535Y140733D02*
Y142733D01*
X714869Y140066D02*
X718202D01*
Y143399D01*
X714869D02*
X718202D01*
X714869Y140066D02*
Y143399D01*
X735220Y148607D02*
X737220D01*
Y150607D01*
X735220D02*
X737220D01*
X735220Y148607D02*
Y150607D01*
X734554Y147940D02*
X737887D01*
Y151273D01*
X734554D02*
X737887D01*
X734554Y147940D02*
Y151273D01*
X804512Y74985D02*
X806512D01*
Y76985D01*
X804512D02*
X806512D01*
X804512Y74985D02*
Y76985D01*
X803845Y74318D02*
X807178D01*
Y77651D01*
X803845D02*
X807178D01*
X803845Y74318D02*
Y77651D01*
X128921Y310024D02*
X130921D01*
Y312024D01*
X128921D02*
X130921D01*
X128921Y310024D02*
Y312024D01*
X128255Y309357D02*
X131588D01*
Y312690D01*
X128255D02*
X131588D01*
X128255Y309357D02*
Y312690D01*
X130890Y315929D02*
X132890D01*
Y317929D01*
X130890D02*
X132890D01*
X130890Y315929D02*
Y317929D01*
X130223Y315263D02*
X133556D01*
Y318596D01*
X130223D02*
X133556D01*
X130223Y315263D02*
Y318596D01*
X144276Y310024D02*
X146276D01*
Y312024D01*
X144276D02*
X146276D01*
X144276Y310024D02*
Y312024D01*
X143609Y309357D02*
X146942D01*
Y312690D01*
X143609D02*
X146942D01*
X143609Y309357D02*
Y312690D01*
X147819Y313961D02*
X149819D01*
Y315961D01*
X147819D02*
X149819D01*
X147819Y313961D02*
Y315961D01*
X147152Y313294D02*
X150486D01*
Y316628D01*
X147152D02*
X150486D01*
X147152Y313294D02*
Y316628D01*
X157268Y311992D02*
X159268D01*
Y313992D01*
X157268D02*
X159268D01*
X157268Y311992D02*
Y313992D01*
X156601Y311326D02*
X159934D01*
Y314659D01*
X156601D02*
X159934D01*
X156601Y311326D02*
Y314659D01*
X158843Y317898D02*
X160843D01*
Y319898D01*
X158843D02*
X160843D01*
X158843Y317898D02*
Y319898D01*
X158176Y317231D02*
X161509D01*
Y320565D01*
X158176D02*
X161509D01*
X158176Y317231D02*
Y320565D01*
X154118Y280496D02*
X156118D01*
Y282496D01*
X154118D02*
X156118D01*
X154118Y280496D02*
Y282496D01*
X153452Y279830D02*
X156785D01*
Y283163D01*
X153452D02*
X156785D01*
X153452Y279830D02*
Y283163D01*
X163961Y278528D02*
X165961D01*
Y280528D01*
X163961D02*
X165961D01*
X163961Y278528D02*
Y280528D01*
X163294Y277861D02*
X166627D01*
Y281194D01*
X163294D02*
X166627D01*
X163294Y277861D02*
Y281194D01*
X173803Y276559D02*
X175803D01*
Y278559D01*
X173803D02*
X175803D01*
X173803Y276559D02*
Y278559D01*
X173137Y275893D02*
X176470D01*
Y279226D01*
X173137D02*
X176470D01*
X173137Y275893D02*
Y279226D01*
X183252Y274591D02*
X185252D01*
Y276591D01*
X183252D02*
X185252D01*
X183252Y274591D02*
Y276591D01*
X182585Y273924D02*
X185919D01*
Y277257D01*
X182585D02*
X185919D01*
X182585Y273924D02*
Y277257D01*
X211598Y268685D02*
X213598D01*
Y270685D01*
X211598D02*
X213598D01*
X211598Y268685D02*
Y270685D01*
X210932Y268019D02*
X214265D01*
Y271352D01*
X210932D02*
X214265D01*
X210932Y268019D02*
Y271352D01*
X192701Y272622D02*
X194701D01*
Y274622D01*
X192701D02*
X194701D01*
X192701Y272622D02*
Y274622D01*
X192034Y271956D02*
X195368D01*
Y275289D01*
X192034D02*
X195368D01*
X192034Y271956D02*
Y275289D01*
X202150Y270654D02*
X204150D01*
Y272654D01*
X202150D02*
X204150D01*
X202150Y270654D02*
Y272654D01*
X201483Y269987D02*
X204816D01*
Y273320D01*
X201483D02*
X204816D01*
X201483Y269987D02*
Y273320D01*
X249000Y164355D02*
X251000D01*
Y166355D01*
X249000D02*
X251000D01*
X249000Y164355D02*
Y166355D01*
X248334Y163688D02*
X251667D01*
Y167021D01*
X248334D02*
X251667D01*
X248334Y163688D02*
Y167021D01*
X741126Y164355D02*
X743126D01*
Y166355D01*
X741126D02*
X743126D01*
X741126Y164355D02*
Y166355D01*
X740459Y163688D02*
X743793D01*
Y167021D01*
X740459D02*
X743793D01*
X740459Y163688D02*
Y167021D01*
X674197Y164355D02*
X676197D01*
Y166355D01*
X674197D02*
X676197D01*
X674197Y164355D02*
Y166355D01*
X673530Y163688D02*
X676864D01*
Y167021D01*
X673530D02*
X676864D01*
X673530Y163688D02*
Y167021D01*
X642701Y164355D02*
X644701D01*
Y166355D01*
X642701D02*
X644701D01*
X642701Y164355D02*
Y166355D01*
X642034Y163688D02*
X645368D01*
Y167021D01*
X642034D02*
X645368D01*
X642034Y163688D02*
Y167021D01*
X575772Y164355D02*
X577772D01*
Y166355D01*
X575772D02*
X577772D01*
X575772Y164355D02*
Y166355D01*
X575105Y163688D02*
X578438D01*
Y167021D01*
X575105D02*
X578438D01*
X575105Y163688D02*
Y167021D01*
X544276Y164355D02*
X546276D01*
Y166355D01*
X544276D02*
X546276D01*
X544276Y164355D02*
Y166355D01*
X543609Y163688D02*
X546942D01*
Y167021D01*
X543609D02*
X546942D01*
X543609Y163688D02*
Y167021D01*
X477347Y164355D02*
X479347D01*
Y166355D01*
X477347D02*
X479347D01*
X477347Y164355D02*
Y166355D01*
X476680Y163688D02*
X480013D01*
Y167021D01*
X476680D02*
X480013D01*
X476680Y163688D02*
Y167021D01*
X445851Y164355D02*
X447851D01*
Y166355D01*
X445851D02*
X447851D01*
X445851Y164355D02*
Y166355D01*
X445184Y163688D02*
X448517D01*
Y167021D01*
X445184D02*
X448517D01*
X445184Y163688D02*
Y167021D01*
X378921Y164355D02*
X380921D01*
Y166355D01*
X378921D02*
X380921D01*
X378921Y164355D02*
Y166355D01*
X378255Y163688D02*
X381588D01*
Y167021D01*
X378255D02*
X381588D01*
X378255Y163688D02*
Y167021D01*
X347425Y164355D02*
X349425D01*
Y166355D01*
X347425D02*
X349425D01*
X347425Y164355D02*
Y166355D01*
X346759Y163688D02*
X350092D01*
Y167021D01*
X346759D02*
X350092D01*
X346759Y163688D02*
Y167021D01*
X280496Y164355D02*
X282496D01*
Y166355D01*
X280496D02*
X282496D01*
X280496Y164355D02*
Y166355D01*
X279830Y163688D02*
X283163D01*
Y167021D01*
X279830D02*
X283163D01*
X279830Y163688D02*
Y167021D01*
X182071Y164355D02*
X184071D01*
Y166355D01*
X182071D02*
X184071D01*
X182071Y164355D02*
Y166355D01*
X181404Y163688D02*
X184738D01*
Y167021D01*
X181404D02*
X184738D01*
X181404Y163688D02*
Y167021D01*
X150575Y164355D02*
X152575D01*
Y166355D01*
X150575D02*
X152575D01*
X150575Y164355D02*
Y166355D01*
X149908Y163688D02*
X153242D01*
Y167021D01*
X149908D02*
X153242D01*
X149908Y163688D02*
Y167021D01*
X52150Y164355D02*
X54150D01*
Y166355D01*
X52150D02*
X54150D01*
X52150Y164355D02*
Y166355D01*
X51483Y163688D02*
X54816D01*
Y167021D01*
X51483D02*
X54816D01*
X51483Y163688D02*
Y167021D01*
X83646Y164355D02*
X85646D01*
Y166355D01*
X83646D02*
X85646D01*
X83646Y164355D02*
Y166355D01*
X82979Y163688D02*
X86312D01*
Y167021D01*
X82979D02*
X86312D01*
X82979Y163688D02*
Y167021D01*
X696244Y291126D02*
X698244D01*
Y293126D01*
X696244D02*
X698244D01*
X696244Y291126D02*
Y293126D01*
X695577Y290459D02*
X698911D01*
Y293793D01*
X695577D02*
X698911D01*
X695577Y290459D02*
Y293793D01*
X115142Y495457D02*
X117142D01*
Y497457D01*
X115142D02*
X117142D01*
X115142Y495457D02*
Y497457D01*
X114475Y494790D02*
X117808D01*
Y498124D01*
X114475D02*
X117808D01*
X114475Y494790D02*
Y498124D01*
X123016Y523016D02*
X125016D01*
Y525016D01*
X123016D02*
X125016D01*
X123016Y523016D02*
Y525016D01*
X122349Y522349D02*
X125682D01*
Y525683D01*
X122349D02*
X125682D01*
X122349Y522349D02*
Y525683D01*
X134827Y456481D02*
X136827D01*
Y458481D01*
X134827D02*
X136827D01*
X134827Y456481D02*
Y458481D01*
X134160Y455814D02*
X137494D01*
Y459147D01*
X134160D02*
X137494D01*
X134160Y455814D02*
Y459147D01*
X184039Y457957D02*
X186039D01*
Y459957D01*
X184039D02*
X186039D01*
X184039Y457957D02*
Y459957D01*
X183373Y457290D02*
X186706D01*
Y460624D01*
X183373D02*
X186706D01*
X183373Y457290D02*
Y460624D01*
X701756Y540339D02*
X703756D01*
Y542339D01*
X701756D02*
X703756D01*
X701756Y540339D02*
Y542339D01*
X701089Y539672D02*
X704423D01*
Y543005D01*
X701089D02*
X704423D01*
X701089Y539672D02*
Y543005D01*
X770654Y540339D02*
X772654D01*
Y542339D01*
X770654D02*
X772654D01*
X770654Y540339D02*
Y542339D01*
X769987Y539672D02*
X773320D01*
Y543005D01*
X769987D02*
X773320D01*
X769987Y539672D02*
Y543005D01*
X412780Y58055D02*
X414780D01*
Y60055D01*
X412780D02*
X414780D01*
X412780Y58055D02*
Y60055D01*
X412113Y57389D02*
X415446D01*
Y60722D01*
X412113D02*
X415446D01*
X412113Y57389D02*
Y60722D01*
X479315Y58055D02*
X481315D01*
Y60055D01*
X479315D02*
X481315D01*
X479315Y58055D02*
Y60055D01*
X478648Y57389D02*
X481982D01*
Y60722D01*
X478648D02*
X481982D01*
X478648Y57389D02*
Y60722D01*
X540339Y58055D02*
X542339D01*
Y60055D01*
X540339D02*
X542339D01*
X540339Y58055D02*
Y60055D01*
X539672Y57389D02*
X543005D01*
Y60722D01*
X539672D02*
X543005D01*
X539672Y57389D02*
Y60722D01*
X601362Y58055D02*
X603362D01*
Y60055D01*
X601362D02*
X603362D01*
X601362Y58055D02*
Y60055D01*
X600696Y57389D02*
X604029D01*
Y60722D01*
X600696D02*
X604029D01*
X600696Y57389D02*
Y60722D01*
X540339Y34433D02*
X542339D01*
Y36433D01*
X540339D02*
X542339D01*
X540339Y34433D02*
Y36433D01*
X539672Y33767D02*
X543005D01*
Y37100D01*
X539672D02*
X543005D01*
X539672Y33767D02*
Y37100D01*
X761992Y220260D02*
X763992D01*
Y222260D01*
X761992D02*
X763992D01*
X761992Y220260D02*
Y222260D01*
X761326Y219593D02*
X764659D01*
Y222927D01*
X761326D02*
X764659D01*
X761326Y219593D02*
Y222927D01*
X663567Y220654D02*
X665567D01*
Y222654D01*
X663567D02*
X665567D01*
X663567Y220654D02*
Y222654D01*
X662900Y219987D02*
X666234D01*
Y223320D01*
X662900D02*
X666234D01*
X662900Y219987D02*
Y223320D01*
X565142Y220260D02*
X567142D01*
Y222260D01*
X565142D02*
X567142D01*
X565142Y220260D02*
Y222260D01*
X564475Y219593D02*
X567808D01*
Y222927D01*
X564475D02*
X567808D01*
X564475Y219593D02*
Y222927D01*
X466717Y220654D02*
X468717D01*
Y222654D01*
X466717D02*
X468717D01*
X466717Y220654D02*
Y222654D01*
X466050Y219987D02*
X469383D01*
Y223320D01*
X466050D02*
X469383D01*
X466050Y219987D02*
Y223320D01*
X368291Y220654D02*
X370291D01*
Y222654D01*
X368291D02*
X370291D01*
X368291Y220654D02*
Y222654D01*
X367625Y219987D02*
X370958D01*
Y223320D01*
X367625D02*
X370958D01*
X367625Y219987D02*
Y223320D01*
X269866Y220654D02*
X271866D01*
Y222654D01*
X269866D02*
X271866D01*
X269866Y220654D02*
Y222654D01*
X269199Y219987D02*
X272533D01*
Y223320D01*
X269199D02*
X272533D01*
X269199Y219987D02*
Y223320D01*
X171441Y220654D02*
X173441D01*
Y222654D01*
X171441D02*
X173441D01*
X171441Y220654D02*
Y222654D01*
X170774Y219987D02*
X174108D01*
Y223320D01*
X170774D02*
X174108D01*
X170774Y219987D02*
Y223320D01*
X221736Y58154D02*
X223736D01*
Y60154D01*
X221736D02*
X223736D01*
X221736Y58154D02*
Y60154D01*
X221070Y57487D02*
X224403D01*
Y60820D01*
X221070D02*
X224403D01*
X221070Y57487D02*
Y60820D01*
X280398Y58154D02*
X282398D01*
Y60154D01*
X280398D02*
X282398D01*
X280398Y58154D02*
Y60154D01*
X279731Y57487D02*
X283065D01*
Y60820D01*
X279731D02*
X283065D01*
X279731Y57487D02*
Y60820D01*
X339846Y58154D02*
X341846D01*
Y60154D01*
X339846D02*
X341846D01*
X339846Y58154D02*
Y60154D01*
X339180Y57487D02*
X342513D01*
Y60820D01*
X339180D02*
X342513D01*
X339180Y57487D02*
Y60820D01*
X59984Y317937D02*
X61984D01*
Y319937D01*
X59984D02*
X61984D01*
X59984Y317937D02*
Y319937D01*
X59318Y317270D02*
X62651D01*
Y320604D01*
X59318D02*
X62651D01*
X59318Y317270D02*
Y320604D01*
X64984Y317898D02*
X66984D01*
Y319898D01*
X64984D02*
X66984D01*
X64984Y317898D02*
Y319898D01*
X64318Y317231D02*
X67651D01*
Y320565D01*
X64318D02*
X67651D01*
X64318Y317231D02*
Y320565D01*
X69984Y318016D02*
X71984D01*
Y320016D01*
X69984D02*
X71984D01*
X69984Y318016D02*
Y320016D01*
X69318Y317349D02*
X72651D01*
Y320683D01*
X69318D02*
X72651D01*
X69318Y317349D02*
Y320683D01*
X228016Y282465D02*
X230016D01*
Y284465D01*
X228016D02*
X230016D01*
X228016Y282465D02*
Y284465D01*
X227349Y281798D02*
X230683D01*
Y285131D01*
X227349D02*
X230683D01*
X227349Y281798D02*
Y285131D01*
X150181Y135221D02*
X152181D01*
Y137221D01*
X150181D02*
X152181D01*
X150181Y135221D02*
Y137221D01*
X149514Y134554D02*
X152848D01*
Y137887D01*
X149514D02*
X152848D01*
X149514Y134554D02*
Y137887D01*
X61598Y60024D02*
X63599D01*
Y62024D01*
X61598D02*
X63599D01*
X61598Y60024D02*
Y62024D01*
X60932Y59357D02*
X64265D01*
Y62691D01*
X60932D02*
X64265D01*
X60932Y59357D02*
Y62691D01*
X61598Y54906D02*
X63598D01*
Y56906D01*
X61598D02*
X63598D01*
X61598Y54906D02*
Y56906D01*
X60932Y54239D02*
X64265D01*
Y57573D01*
X60932D02*
X64265D01*
X60932Y54239D02*
Y57573D01*
X61362Y44906D02*
X63362D01*
Y46906D01*
X61362D02*
X63362D01*
X61362Y44906D02*
Y46906D01*
X60695Y44239D02*
X64029D01*
Y47572D01*
X60695D02*
X64029D01*
X60695Y44239D02*
Y47572D01*
X162287Y58154D02*
X164287D01*
Y60154D01*
X162287D02*
X164287D01*
X162287Y58154D02*
Y60154D01*
X161621Y57487D02*
X164954D01*
Y60821D01*
X161621D02*
X164954D01*
X161621Y57487D02*
Y60821D01*
X61598Y49788D02*
X63599D01*
Y51788D01*
X61598D02*
X63599D01*
X61598Y49788D02*
Y51788D01*
X60932Y49121D02*
X64265D01*
Y52454D01*
X60932D02*
X64265D01*
X60932Y49121D02*
Y52454D01*
X97425Y69866D02*
X99425D01*
Y71866D01*
X97425D02*
X99425D01*
X97425Y69866D02*
Y71866D01*
X96759Y69200D02*
X100092D01*
Y72533D01*
X96759D02*
X100092D01*
X96759Y69200D02*
Y72533D01*
X208016Y317937D02*
X210016D01*
Y319937D01*
X208016D02*
X210016D01*
X208016Y317937D02*
Y319937D01*
X207349Y317270D02*
X210683D01*
Y320604D01*
X207349D02*
X210683D01*
X207349Y317270D02*
Y320604D01*
X213016Y318134D02*
X215016D01*
Y320134D01*
X213016D02*
X215016D01*
X213016Y318134D02*
Y320134D01*
X212349Y317467D02*
X215683D01*
Y320801D01*
X212349D02*
X215683D01*
X212349Y317467D02*
Y320801D01*
X218016Y318016D02*
X220016D01*
Y320016D01*
X218016D02*
X220016D01*
X218016Y318016D02*
Y320016D01*
X217349Y317349D02*
X220683D01*
Y320683D01*
X217349D02*
X220683D01*
X217349Y317349D02*
Y320683D01*
X147032Y111205D02*
X149032D01*
Y113205D01*
X147032D02*
X149032D01*
X147032Y111205D02*
Y113205D01*
X146365Y110538D02*
X149698D01*
Y113872D01*
X146365D02*
X149698D01*
X146365Y110538D02*
Y113872D01*
X61441Y64906D02*
X63441D01*
Y66906D01*
X61441D02*
X63441D01*
X61441Y64906D02*
Y66906D01*
X60774Y64239D02*
X64108D01*
Y67572D01*
X60774D02*
X64108D01*
X60774Y64239D02*
Y67572D01*
X61165Y39906D02*
X63165D01*
Y41906D01*
X61165D02*
X63165D01*
X61165Y39906D02*
Y41906D01*
X60499Y39239D02*
X63832D01*
Y42573D01*
X60499D02*
X63832D01*
X60499Y39239D02*
Y42573D01*
X170260Y313961D02*
X172260D01*
Y315961D01*
X170260D02*
X172260D01*
X170260Y313961D02*
Y315961D01*
X169593Y313294D02*
X172927D01*
Y316628D01*
X169593D02*
X172927D01*
X169593Y313294D02*
Y316628D01*
X179315Y311992D02*
X181315D01*
Y313992D01*
X179315D02*
X181315D01*
X179315Y311992D02*
Y313992D01*
X178648Y311326D02*
X181982D01*
Y314659D01*
X178648D02*
X181982D01*
X178648Y311326D02*
Y314659D01*
X78134Y281284D02*
X80134D01*
Y283284D01*
X78134D02*
X80134D01*
X78134Y281284D02*
Y283284D01*
X77467Y280617D02*
X80801D01*
Y283950D01*
X77467D02*
X80801D01*
X77467Y280617D02*
Y283950D01*
X294276Y311205D02*
X296276D01*
Y313205D01*
X294276D02*
X296276D01*
X294276Y311205D02*
Y313205D01*
X293609Y310538D02*
X296942D01*
Y313872D01*
X293609D02*
X296942D01*
X293609Y310538D02*
Y313872D01*
X294276Y495851D02*
X296276D01*
Y497851D01*
X294276D02*
X296276D01*
X294276Y495851D02*
Y497851D01*
X293609Y495184D02*
X296942D01*
Y498517D01*
X293609D02*
X296942D01*
X293609Y495184D02*
Y498517D01*
X87976Y32071D02*
X89976D01*
Y34071D01*
X87976D02*
X89976D01*
X87976Y32071D02*
Y34071D01*
X87310Y31404D02*
X90643D01*
Y34738D01*
X87310D02*
X90643D01*
X87310Y31404D02*
Y34738D01*
X6480Y104906D02*
X8480D01*
Y106906D01*
X6480D02*
X8480D01*
X6480Y104906D02*
Y106906D01*
X5814Y104239D02*
X9147D01*
Y107572D01*
X5814D02*
X9147D01*
X5814Y104239D02*
Y107572D01*
X24591Y495457D02*
X26591D01*
Y497457D01*
X24591D02*
X26591D01*
X24591Y495457D02*
Y497457D01*
X23924Y494790D02*
X27257D01*
Y498124D01*
X23924D02*
X27257D01*
X23924Y494790D02*
Y498124D01*
X10417Y110417D02*
X12417D01*
Y112417D01*
X10417D02*
X12417D01*
X10417Y110417D02*
Y112417D01*
X9751Y109751D02*
X13084D01*
Y113084D01*
X9751D02*
X13084D01*
X9751Y109751D02*
Y113084D01*
X61598Y79709D02*
X63599D01*
Y81709D01*
X61598D02*
X63599D01*
X61598Y79709D02*
Y81709D01*
X60932Y79042D02*
X64265D01*
Y82376D01*
X60932D02*
X64265D01*
X60932Y79042D02*
Y82376D01*
X61598Y74984D02*
X63599D01*
Y76984D01*
X61598D02*
X63599D01*
X61598Y74984D02*
Y76984D01*
X60932Y74318D02*
X64265D01*
Y77651D01*
X60932D02*
X64265D01*
X60932Y74318D02*
Y77651D01*
X36402Y288370D02*
X38402D01*
Y290370D01*
X36402D02*
X38402D01*
X36402Y288370D02*
Y290370D01*
X35735Y287704D02*
X39068D01*
Y291037D01*
X35735D02*
X39068D01*
X35735Y287704D02*
Y291037D01*
X36402Y284433D02*
X38402D01*
Y286433D01*
X36402D02*
X38402D01*
X36402Y284433D02*
Y286433D01*
X35735Y283767D02*
X39068D01*
Y287100D01*
X35735D02*
X39068D01*
X35735Y283767D02*
Y287100D01*
X36402Y280496D02*
X38402D01*
Y282496D01*
X36402D02*
X38402D01*
X36402Y280496D02*
Y282496D01*
X35735Y279830D02*
X39068D01*
Y283163D01*
X35735D02*
X39068D01*
X35735Y279830D02*
Y283163D01*
X73016Y220654D02*
X75016D01*
Y222654D01*
X73016D02*
X75016D01*
X73016Y220654D02*
Y222654D01*
X72349Y219987D02*
X75682D01*
Y223320D01*
X72349D02*
X75682D01*
X72349Y219987D02*
Y223320D01*
X67898Y39945D02*
X69898D01*
Y41945D01*
X67898D02*
X69898D01*
X67898Y39945D02*
Y41945D01*
X67231Y39278D02*
X70564D01*
Y42612D01*
X67231D02*
X70564D01*
X67231Y39278D02*
Y42612D01*
X69866Y45063D02*
X71866D01*
Y47063D01*
X69866D02*
X71866D01*
X69866Y45063D02*
Y47063D01*
X69200Y44396D02*
X72533D01*
Y47730D01*
X69200D02*
X72533D01*
X69200Y44396D02*
Y47730D01*
X71835Y49788D02*
X73835D01*
Y51788D01*
X71835D02*
X73835D01*
X71835Y49788D02*
Y51788D01*
X71168Y49121D02*
X74501D01*
Y52454D01*
X71168D02*
X74501D01*
X71168Y49121D02*
Y52454D01*
X73803Y54906D02*
X75803D01*
Y56906D01*
X73803D02*
X75803D01*
X73803Y54906D02*
Y56906D01*
X73137Y54239D02*
X76470D01*
Y57572D01*
X73137D02*
X76470D01*
X73137Y54239D02*
Y57572D01*
X75772Y60024D02*
X77772D01*
Y62024D01*
X75772D02*
X77772D01*
X75772Y60024D02*
Y62024D01*
X75105Y59357D02*
X78438D01*
Y62691D01*
X75105D02*
X78438D01*
X75105Y59357D02*
Y62691D01*
X81677Y36008D02*
X83677D01*
Y38008D01*
X81677D02*
X83677D01*
X81677Y36008D02*
Y38008D01*
X81011Y35341D02*
X84344D01*
Y38675D01*
X81011D02*
X84344D01*
X81011Y35341D02*
Y38675D01*
X36402Y264748D02*
X38402D01*
Y266748D01*
X36402D02*
X38402D01*
X36402Y264748D02*
Y266748D01*
X35735Y264082D02*
X39068D01*
Y267415D01*
X35735D02*
X39068D01*
X35735Y264082D02*
Y267415D01*
X36402Y268685D02*
X38402D01*
Y270685D01*
X36402D02*
X38402D01*
X36402Y268685D02*
Y270685D01*
X35735Y268019D02*
X39068D01*
Y271352D01*
X35735D02*
X39068D01*
X35735Y268019D02*
Y271352D01*
X36402Y260811D02*
X38402D01*
Y262811D01*
X36402D02*
X38402D01*
X36402Y260811D02*
Y262811D01*
X35735Y260144D02*
X39068D01*
Y263478D01*
X35735D02*
X39068D01*
X35735Y260144D02*
Y263478D01*
X36402Y276559D02*
X38402D01*
Y278559D01*
X36402D02*
X38402D01*
X36402Y276559D02*
Y278559D01*
X35735Y275893D02*
X39068D01*
Y279226D01*
X35735D02*
X39068D01*
X35735Y275893D02*
Y279226D01*
X36402Y256874D02*
X38402D01*
Y258874D01*
X36402D02*
X38402D01*
X36402Y256874D02*
Y258874D01*
X35735Y256207D02*
X39068D01*
Y259541D01*
X35735D02*
X39068D01*
X35735Y256207D02*
Y259541D01*
X36402Y252937D02*
X38402D01*
Y254937D01*
X36402D02*
X38402D01*
X36402Y252937D02*
Y254937D01*
X35735Y252271D02*
X39068D01*
Y255604D01*
X35735D02*
X39068D01*
X35735Y252271D02*
Y255604D01*
X36402Y249000D02*
X38402D01*
Y251000D01*
X36402D02*
X38402D01*
X36402Y249000D02*
Y251000D01*
X35735Y248334D02*
X39068D01*
Y251667D01*
X35735D02*
X39068D01*
X35735Y248334D02*
Y251667D01*
X36402Y244670D02*
X38402D01*
Y246670D01*
X36402D02*
X38402D01*
X36402Y244670D02*
Y246670D01*
X35735Y244003D02*
X39068D01*
Y247336D01*
X35735D02*
X39068D01*
X35735Y244003D02*
Y247336D01*
X36402Y292701D02*
X38402D01*
Y294701D01*
X36402D02*
X38402D01*
X36402Y292701D02*
Y294701D01*
X35735Y292034D02*
X39068D01*
Y295368D01*
X35735D02*
X39068D01*
X35735Y292034D02*
Y295368D01*
X119079Y311992D02*
X121079D01*
Y313992D01*
X119079D02*
X121079D01*
X119079Y311992D02*
Y313992D01*
X118412Y311326D02*
X121746D01*
Y314659D01*
X118412D02*
X121746D01*
X118412Y311326D02*
Y314659D01*
X83646Y298213D02*
X85646D01*
Y300213D01*
X83646D02*
X85646D01*
X83646Y298213D02*
Y300213D01*
X82979Y297546D02*
X86312D01*
Y300879D01*
X82979D02*
X86312D01*
X82979Y297546D02*
Y300879D01*
X52150Y298213D02*
X54150D01*
Y300213D01*
X52150D02*
X54150D01*
X52150Y298213D02*
Y300213D01*
X51483Y297546D02*
X54816D01*
Y300879D01*
X51483D02*
X54816D01*
X51483Y297546D02*
Y300879D01*
X96244Y28134D02*
X98244D01*
Y30134D01*
X96244D02*
X98244D01*
X96244Y28134D02*
Y30134D01*
X95578Y27467D02*
X98911D01*
Y30801D01*
X95578D02*
X98911D01*
X95578Y27467D02*
Y30801D01*
X104118Y24197D02*
X106118D01*
Y26197D01*
X104118D02*
X106118D01*
X104118Y24197D02*
Y26197D01*
X103452Y23530D02*
X106785D01*
Y26864D01*
X103452D02*
X106785D01*
X103452Y23530D02*
Y26864D01*
X772622Y164355D02*
X774622D01*
Y166355D01*
X772622D02*
X774622D01*
X772622Y164355D02*
Y166355D01*
X771955Y163688D02*
X775289D01*
Y167021D01*
X771955D02*
X775289D01*
X771955Y163688D02*
Y167021D01*
X10417Y203725D02*
X12417D01*
Y205725D01*
X10417D02*
X12417D01*
X10417Y203725D02*
Y205725D01*
X9751Y203058D02*
X13084D01*
Y206391D01*
X9751D02*
X13084D01*
X9751Y203058D02*
Y206391D01*
X73016Y227347D02*
X75016D01*
Y229347D01*
X73016D02*
X75016D01*
X73016Y227347D02*
Y229347D01*
X72349Y226680D02*
X75682D01*
Y230013D01*
X72349D02*
X75682D01*
X72349Y226680D02*
Y230013D01*
X65142Y230890D02*
X67142D01*
Y232890D01*
X65142D02*
X67142D01*
X65142Y230890D02*
Y232890D01*
X64475Y230223D02*
X67809D01*
Y233557D01*
X64475D02*
X67809D01*
X64475Y230223D02*
Y233557D01*
X65142Y203725D02*
X67142D01*
Y205725D01*
X65142D02*
X67142D01*
X65142Y203725D02*
Y205725D01*
X64475Y203058D02*
X67809D01*
Y206391D01*
X64475D02*
X67809D01*
X64475Y203058D02*
Y206391D01*
X705693Y496244D02*
X707693D01*
Y498244D01*
X705693D02*
X707693D01*
X705693Y496244D02*
Y498244D01*
X705026Y495578D02*
X708360D01*
Y498911D01*
X705026D02*
X708360D01*
X705026Y495578D02*
Y498911D01*
X764748Y67898D02*
X766748D01*
Y69898D01*
X764748D02*
X766748D01*
X764748Y67898D02*
Y69898D01*
X764081Y67231D02*
X767415D01*
Y70565D01*
X764081D02*
X767415D01*
X764081Y67231D02*
Y70565D01*
X764748Y42307D02*
X766748D01*
Y44307D01*
X764748D02*
X766748D01*
X764748Y42307D02*
Y44307D01*
X764081Y41641D02*
X767415D01*
Y44974D01*
X764081D02*
X767415D01*
X764081Y41641D02*
Y44974D01*
X780496Y42307D02*
X782496D01*
Y44307D01*
X780496D02*
X782496D01*
X780496Y42307D02*
Y44307D01*
X779830Y41641D02*
X783163D01*
Y44974D01*
X779830D02*
X783163D01*
X779830Y41641D02*
Y44974D01*
X780496Y55693D02*
X782496D01*
Y57693D01*
X780496D02*
X782496D01*
X780496Y55693D02*
Y57693D01*
X779830Y55026D02*
X783163D01*
Y58360D01*
X779830D02*
X783163D01*
X779830Y55026D02*
Y58360D01*
X780496Y93488D02*
X782496D01*
Y95488D01*
X780496D02*
X782496D01*
X780496Y93488D02*
Y95488D01*
X779830Y92822D02*
X783163D01*
Y96155D01*
X779830D02*
X783163D01*
X779830Y92822D02*
Y96155D01*
X780496Y107268D02*
X782496D01*
Y109268D01*
X780496D02*
X782496D01*
X780496Y107268D02*
Y109268D01*
X779830Y106601D02*
X783163D01*
Y109935D01*
X779830D02*
X783163D01*
X779830Y106601D02*
Y109935D01*
X764748Y107268D02*
X766748D01*
Y109268D01*
X764748D02*
X766748D01*
X764748Y107268D02*
Y109268D01*
X764081Y106601D02*
X767415D01*
Y109935D01*
X764081D02*
X767415D01*
X764081Y106601D02*
Y109935D01*
X764748Y82465D02*
X766748D01*
Y84465D01*
X764748D02*
X766748D01*
X764748Y82465D02*
Y84465D01*
X764081Y81798D02*
X767415D01*
Y85131D01*
X764081D02*
X767415D01*
X764081Y81798D02*
Y85131D01*
X91520Y20260D02*
X93520D01*
Y22260D01*
X91520D02*
X93520D01*
X91520Y20260D02*
Y22260D01*
X90853Y19593D02*
X94186D01*
Y22927D01*
X90853D02*
X94186D01*
X90853Y19593D02*
Y22927D01*
X68291Y20260D02*
X70291D01*
Y22260D01*
X68291D02*
X70291D01*
X68291Y20260D02*
Y22260D01*
X67625Y19593D02*
X70958D01*
Y22927D01*
X67625D02*
X70958D01*
X67625Y19593D02*
Y22927D01*
X591520Y92701D02*
X593520D01*
Y94701D01*
X591520D02*
X593520D01*
X591520Y92701D02*
Y94701D01*
X590853Y92034D02*
X594186D01*
Y95368D01*
X590853D02*
X594186D01*
X590853Y92034D02*
Y95368D01*
X155299Y64748D02*
X157299D01*
Y66748D01*
X155299D02*
X157299D01*
X155299Y64748D02*
Y66748D01*
X154633Y64082D02*
X157966D01*
Y67415D01*
X154633D02*
X157966D01*
X154633Y64082D02*
Y67415D01*
X147032Y84433D02*
X149032D01*
Y86433D01*
X147032D02*
X149032D01*
X147032Y84433D02*
Y86433D01*
X146365Y83767D02*
X149698D01*
Y87100D01*
X146365D02*
X149698D01*
X146365Y83767D02*
Y87100D01*
X104906Y64748D02*
X106906D01*
Y66748D01*
X104906D02*
X106906D01*
X104906Y64748D02*
Y66748D01*
X104239Y64082D02*
X107572D01*
Y67415D01*
X104239D02*
X107572D01*
X104239Y64082D02*
Y67415D01*
X143882Y154906D02*
X145882D01*
Y156906D01*
X143882D02*
X145882D01*
X143882Y154906D02*
Y156906D01*
X143215Y154239D02*
X146549D01*
Y157572D01*
X143215D02*
X146549D01*
X143215Y154239D02*
Y157572D01*
X147032Y146638D02*
X149032D01*
Y148638D01*
X147032D02*
X149032D01*
X147032Y146638D02*
Y148638D01*
X146365Y145971D02*
X149698D01*
Y149305D01*
X146365D02*
X149698D01*
X146365Y145971D02*
Y149305D01*
X143882Y71835D02*
X145882D01*
Y73835D01*
X143882D02*
X145882D01*
X143882Y71835D02*
Y73835D01*
X143215Y71168D02*
X146549D01*
Y74502D01*
X143215D02*
X146549D01*
X143215Y71168D02*
Y74502D01*
X141126Y140733D02*
X143126D01*
Y142733D01*
X141126D02*
X143126D01*
X141126Y140733D02*
Y142733D01*
X140459Y140066D02*
X143793D01*
Y143399D01*
X140459D02*
X143793D01*
X140459Y140066D02*
Y143399D01*
X138370Y149788D02*
X140370D01*
Y151788D01*
X138370D02*
X140370D01*
X138370Y149788D02*
Y151788D01*
X137704Y149121D02*
X141037D01*
Y152454D01*
X137704D02*
X141037D01*
X137704Y149121D02*
Y152454D01*
X221835Y117110D02*
X223835D01*
Y119110D01*
X221835D02*
X223835D01*
X221835Y117110D02*
Y119110D01*
X221168Y116444D02*
X224501D01*
Y119777D01*
X221168D02*
X224501D01*
X221168Y116444D02*
Y119777D01*
X280398Y117110D02*
X282398D01*
Y119110D01*
X280398D02*
X282398D01*
X280398Y117110D02*
Y119110D01*
X279731Y116444D02*
X283064D01*
Y119777D01*
X279731D02*
X283064D01*
X279731Y116444D02*
Y119777D01*
X280398Y136697D02*
X282398D01*
Y138697D01*
X280398D02*
X282398D01*
X280398Y136697D02*
Y138697D01*
X279731Y136030D02*
X283064D01*
Y139364D01*
X279731D02*
X283064D01*
X279731Y136030D02*
Y139364D01*
X339846Y117012D02*
X341846D01*
Y119012D01*
X339846D02*
X341846D01*
X339846Y117012D02*
Y119012D01*
X339180Y116345D02*
X342513D01*
Y119679D01*
X339180D02*
X342513D01*
X339180Y116345D02*
Y119679D01*
X477642Y117012D02*
X479642D01*
Y119012D01*
X477642D02*
X479642D01*
X477642Y117012D02*
Y119012D01*
X476975Y116345D02*
X480309D01*
Y119679D01*
X476975D02*
X480309D01*
X476975Y116345D02*
Y119679D01*
X536303Y117012D02*
X538303D01*
Y119012D01*
X536303D02*
X538303D01*
X536303Y117012D02*
Y119012D01*
X535637Y116345D02*
X538970D01*
Y119679D01*
X535637D02*
X538970D01*
X535637Y116345D02*
Y119679D01*
X536402Y136795D02*
X538402D01*
Y138795D01*
X536402D02*
X538402D01*
X536402Y136795D02*
Y138795D01*
X535735Y136129D02*
X539068D01*
Y139462D01*
X535735D02*
X539068D01*
X535735Y136129D02*
Y139462D01*
X661992Y12386D02*
X663992D01*
Y14386D01*
X661992D02*
X663992D01*
X661992Y12386D02*
Y14386D01*
X661326Y11719D02*
X664659D01*
Y15053D01*
X661326D02*
X664659D01*
X661326Y11719D02*
Y15053D01*
X661992Y110024D02*
X663992D01*
Y112024D01*
X661992D02*
X663992D01*
X661992Y110024D02*
Y112024D01*
X661326Y109357D02*
X664659D01*
Y112690D01*
X661326D02*
X664659D01*
X661326Y109357D02*
Y112690D01*
X722622Y107268D02*
X724622D01*
Y109268D01*
X722622D02*
X724622D01*
X722622Y107268D02*
Y109268D01*
X721955Y106601D02*
X725289D01*
Y109935D01*
X721955D02*
X725289D01*
X721955Y106601D02*
Y109935D01*
X82465Y106481D02*
X84465D01*
Y108481D01*
X82465D02*
X84465D01*
X82465Y106481D02*
Y108481D01*
X81798Y105814D02*
X85131D01*
Y109147D01*
X81798D02*
X85131D01*
X81798Y105814D02*
Y109147D01*
X130890Y105103D02*
X132890D01*
Y107103D01*
X130890D02*
X132890D01*
X130890Y105103D02*
Y107103D01*
X130223Y104436D02*
X133556D01*
Y107769D01*
X130223D02*
X133556D01*
X130223Y104436D02*
Y107769D01*
X14354Y136402D02*
X16354D01*
Y138402D01*
X14354D02*
X16354D01*
X14354Y136402D02*
Y138402D01*
X13688Y135735D02*
X17021D01*
Y139068D01*
X13688D02*
X17021D01*
X13688Y135735D02*
Y139068D01*
X589551Y36402D02*
X591551D01*
Y38402D01*
X589551D02*
X591551D01*
X589551Y36402D02*
Y38402D01*
X588884Y35735D02*
X592218D01*
Y39068D01*
X588884D02*
X592218D01*
X588884Y35735D02*
Y39068D01*
X412780Y36402D02*
X414780D01*
Y38402D01*
X412780D02*
X414780D01*
X412780Y36402D02*
Y38402D01*
X412113Y35735D02*
X415446D01*
Y39068D01*
X412113D02*
X415446D01*
X412113Y35735D02*
Y39068D01*
X471441Y36402D02*
X473441D01*
Y38402D01*
X471441D02*
X473441D01*
X471441Y36402D02*
Y38402D01*
X470774Y35735D02*
X474108D01*
Y39068D01*
X470774D02*
X474108D01*
X470774Y35735D02*
Y39068D01*
X333646Y36402D02*
X335646D01*
Y38402D01*
X333646D02*
X335646D01*
X333646Y36402D02*
Y38402D01*
X332979Y35735D02*
X336312D01*
Y39068D01*
X332979D02*
X336312D01*
X332979Y35735D02*
Y39068D01*
X280496Y36402D02*
X282496D01*
Y38402D01*
X280496D02*
X282496D01*
X280496Y36402D02*
Y38402D01*
X279829Y35735D02*
X283163D01*
Y39068D01*
X279829D02*
X283163D01*
X279829Y35735D02*
Y39068D01*
X215535Y36402D02*
X217535D01*
Y38402D01*
X215535D02*
X217535D01*
X215535Y36402D02*
Y38402D01*
X214869Y35735D02*
X218202D01*
Y39068D01*
X214869D02*
X218202D01*
X214869Y35735D02*
Y39068D01*
X162386Y36402D02*
X164386D01*
Y38402D01*
X162386D02*
X164386D01*
X162386Y36402D02*
Y38402D01*
X161719Y35735D02*
X165052D01*
Y39068D01*
X161719D02*
X165052D01*
X161719Y35735D02*
Y39068D01*
X215535Y138764D02*
X217535D01*
Y140764D01*
X215535D02*
X217535D01*
X215535Y138764D02*
Y140764D01*
X214869Y138097D02*
X218202D01*
Y141430D01*
X214869D02*
X218202D01*
X214869Y138097D02*
Y141430D01*
X357268Y138764D02*
X359268D01*
Y140764D01*
X357268D02*
X359268D01*
X357268Y138764D02*
Y140764D01*
X356601Y138097D02*
X359934D01*
Y141430D01*
X356601D02*
X359934D01*
X356601Y138097D02*
Y141430D01*
X496244Y138764D02*
X498244D01*
Y140764D01*
X496244D02*
X498244D01*
X496244Y138764D02*
Y140764D01*
X495577Y138097D02*
X498911D01*
Y141430D01*
X495577D02*
X498911D01*
X495577Y138097D02*
Y141430D01*
X46638Y390732D02*
X48638D01*
Y392732D01*
X46638D02*
X48638D01*
X46638Y390732D02*
Y392732D01*
X45971Y390066D02*
X49305D01*
Y393399D01*
X45971D02*
X49305D01*
X45971Y390066D02*
Y393399D01*
X426165Y136795D02*
X428165D01*
Y138795D01*
X426165D02*
X428165D01*
X426165Y136795D02*
Y138795D01*
X425499Y136129D02*
X428832D01*
Y139462D01*
X425499D02*
X428832D01*
X425499Y136129D02*
Y139462D01*
X418685Y111205D02*
X420685D01*
Y113205D01*
X418685D02*
X420685D01*
X418685Y111205D02*
Y113205D01*
X418018Y110538D02*
X421352D01*
Y113871D01*
X418018D02*
X421352D01*
X418018Y110538D02*
Y113871D01*
X674197Y121441D02*
X676197D01*
Y123441D01*
X674197D02*
X676197D01*
X674197Y121441D02*
Y123441D01*
X673530Y120774D02*
X676864D01*
Y124108D01*
X673530D02*
X676864D01*
X673530Y120774D02*
Y124108D01*
X115642Y531390D02*
X116142Y530890D01*
X115142Y531390D02*
X115642D01*
X115142D02*
X115642Y531890D01*
X115142Y532390D02*
X115642Y531890D01*
X115142Y532390D02*
X115642D01*
X116142Y532890D01*
X116642Y532390D01*
X117142D01*
X116642Y531890D02*
X117142Y532390D01*
X116642Y531890D02*
X117142Y531390D01*
X116642D02*
X117142D01*
X116142Y530890D02*
X116642Y531390D01*
X115308Y531056D02*
X116142Y530223D01*
X114475Y531056D02*
X115308D01*
X114475D02*
X115308Y531890D01*
X114475Y532723D02*
X115308Y531890D01*
X114475Y532723D02*
X115308D01*
X116142Y533556D01*
X116975Y532723D01*
X117808D01*
X116975Y531890D02*
X117808Y532723D01*
X116975Y531890D02*
X117808Y531056D01*
X116975D02*
X117808D01*
X116142Y530223D02*
X116975Y531056D01*
X17110Y330890D02*
X19110D01*
Y332890D01*
X17110D02*
X19110D01*
X17110Y330890D02*
Y332890D01*
X16444Y330223D02*
X19777D01*
Y333556D01*
X16444D02*
X19777D01*
X16444Y330223D02*
Y333556D01*
X632760Y255792D02*
X634760D01*
Y257792D01*
X632760D02*
X634760D01*
X632760Y255792D02*
Y257792D01*
X632093Y255125D02*
X635427D01*
Y258458D01*
X632093D02*
X635427D01*
X632093Y255125D02*
Y258458D01*
X663173Y274984D02*
X665173D01*
Y276984D01*
X663173D02*
X665173D01*
X663173Y274984D02*
Y276984D01*
X662507Y274318D02*
X665840D01*
Y277651D01*
X662507D02*
X665840D01*
X662507Y274318D02*
Y277651D01*
X681284Y274984D02*
X683284D01*
Y276984D01*
X681284D02*
X683284D01*
X681284Y274984D02*
Y276984D01*
X680617Y274318D02*
X683950D01*
Y277651D01*
X680617D02*
X683950D01*
X680617Y274318D02*
Y277651D01*
X746244Y274984D02*
X748244D01*
Y276984D01*
X746244D02*
X748244D01*
X746244Y274984D02*
Y276984D01*
X745577Y274318D02*
X748911D01*
Y277651D01*
X745577D02*
X748911D01*
X745577Y274318D02*
Y277651D01*
X678922Y461992D02*
X680922D01*
Y463992D01*
X678922D02*
X680922D01*
X678922Y461992D02*
Y463992D01*
X678255Y461326D02*
X681588D01*
Y464659D01*
X678255D02*
X681588D01*
X678255Y461326D02*
Y464659D01*
X80496Y143095D02*
X82496D01*
Y145095D01*
X80496D02*
X82496D01*
X80496Y143095D02*
Y145095D01*
X79829Y142428D02*
X83163D01*
Y145761D01*
X79829D02*
X83163D01*
X79829Y142428D02*
Y145761D01*
X674197Y108843D02*
X676197D01*
Y110843D01*
X674197D02*
X676197D01*
X674197Y108843D02*
Y110843D01*
X673530Y108176D02*
X676863D01*
Y111509D01*
X673530D02*
X676863D01*
X673530Y108176D02*
Y111509D01*
X696638Y121441D02*
X698638D01*
Y123441D01*
X696638D02*
X698638D01*
X696638Y121441D02*
Y123441D01*
X695971Y120774D02*
X699304D01*
Y124108D01*
X695971D02*
X699304D01*
X695971Y120774D02*
Y124108D01*
X690732Y134039D02*
X692732D01*
Y136039D01*
X690732D02*
X692732D01*
X690732Y134039D02*
Y136039D01*
X690066Y133373D02*
X693399D01*
Y136706D01*
X690066D02*
X693399D01*
X690066Y133373D02*
Y136706D01*
X254906Y343488D02*
X256906D01*
Y345488D01*
X254906D02*
X256906D01*
X254906Y343488D02*
Y345488D01*
X254239Y342822D02*
X257572D01*
Y346155D01*
X254239D02*
X257572D01*
X254239Y342822D02*
Y346155D01*
X254906Y382858D02*
X256906D01*
Y384858D01*
X254906D02*
X256906D01*
X254906Y382858D02*
Y384858D01*
X254239Y382192D02*
X257572D01*
Y385525D01*
X254239D02*
X257572D01*
X254239Y382192D02*
Y385525D01*
X195850Y343488D02*
X197850D01*
Y345488D01*
X195850D02*
X197850D01*
X195850Y343488D02*
Y345488D01*
X195184Y342822D02*
X198517D01*
Y346155D01*
X195184D02*
X198517D01*
X195184Y342822D02*
Y346155D01*
X195850Y382858D02*
X197850D01*
Y384858D01*
X195850D02*
X197850D01*
X195850Y382858D02*
Y384858D01*
X195184Y382192D02*
X198517D01*
Y385525D01*
X195184D02*
X198517D01*
X195184Y382192D02*
Y385525D01*
X136795Y343488D02*
X138795D01*
Y345488D01*
X136795D02*
X138795D01*
X136795Y343488D02*
Y345488D01*
X136129Y342822D02*
X139462D01*
Y346155D01*
X136129D02*
X139462D01*
X136129Y342822D02*
Y346155D01*
X136795Y382858D02*
X138795D01*
Y384858D01*
X136795D02*
X138795D01*
X136795Y382858D02*
Y384858D01*
X136129Y382192D02*
X139462D01*
Y385525D01*
X136129D02*
X139462D01*
X136129Y382192D02*
Y385525D01*
X510811Y136795D02*
X512811D01*
Y138795D01*
X510811D02*
X512811D01*
X510811Y136795D02*
Y138795D01*
X510144Y136129D02*
X513478D01*
Y139462D01*
X510144D02*
X513478D01*
X510144Y136129D02*
Y139462D01*
X510811Y97425D02*
X512811D01*
Y99425D01*
X510811D02*
X512811D01*
X510811Y97425D02*
Y99425D01*
X510144Y96759D02*
X513478D01*
Y100092D01*
X510144D02*
X513478D01*
X510144Y96759D02*
Y100092D01*
X373016Y137189D02*
X375016D01*
Y139189D01*
X373016D02*
X375016D01*
X373016Y137189D02*
Y139189D01*
X372349Y136522D02*
X375682D01*
Y139856D01*
X372349D02*
X375682D01*
X372349Y136522D02*
Y139856D01*
X373016Y97819D02*
X375016D01*
Y99819D01*
X373016D02*
X375016D01*
X373016Y97819D02*
Y99819D01*
X372349Y97152D02*
X375682D01*
Y100486D01*
X372349D02*
X375682D01*
X372349Y97152D02*
Y100486D01*
X790158Y317861D02*
X791824Y321194D01*
X788491D02*
X791824D01*
X788491D02*
X790158Y317861D01*
Y327861D02*
X791824Y331194D01*
X788491D02*
X791824D01*
X788491D02*
X790158Y327861D01*
Y337861D02*
X791824Y341194D01*
X788491D02*
X791824D01*
X788491D02*
X790158Y337861D01*
Y357231D02*
X791824Y360564D01*
X788491D02*
X791824D01*
X788491D02*
X790158Y357231D01*
Y367231D02*
X791824Y370564D01*
X788491D02*
X791824D01*
X788491D02*
X790158Y367231D01*
Y377231D02*
X791824Y380564D01*
X788491D02*
X791824D01*
X788491D02*
X790158Y377231D01*
X712599Y419593D02*
X714265Y422927D01*
X710932D02*
X714265D01*
X710932D02*
X712599Y419593D01*
X732283D02*
X733950Y422927D01*
X730617D02*
X733950D01*
X730617D02*
X732283Y419593D01*
X745971Y392868D02*
X746805D01*
X745971D02*
Y394534D01*
X746805D01*
Y395368D01*
X748471D01*
Y394534D02*
Y395368D01*
Y394534D02*
X749305D01*
Y392868D02*
Y394534D01*
X748471Y392868D02*
X749305D01*
X748471Y392034D02*
Y392868D01*
X746805Y392034D02*
X748471D01*
X746805D02*
Y392868D01*
X695577D02*
X696411D01*
X695577D02*
Y394534D01*
X696411D01*
Y395368D01*
X698077D01*
Y394534D02*
Y395368D01*
Y394534D02*
X698911D01*
Y392868D02*
Y394534D01*
X698077Y392868D02*
X698911D01*
X698077Y392034D02*
Y392868D01*
X696411Y392034D02*
X698077D01*
X696411D02*
Y392868D01*
X722441Y362507D02*
X724108Y365840D01*
X720775D02*
X724108D01*
X720775D02*
X722441Y362507D01*
X732283D02*
X733950Y365840D01*
X730617D02*
X733950D01*
X730617D02*
X732283Y362507D01*
X712599D02*
X714265Y365840D01*
X710932D02*
X714265D01*
X710932D02*
X712599Y362507D01*
X748032Y242428D02*
X749698Y245761D01*
X746365D02*
X749698D01*
X746365D02*
X748032Y242428D01*
X767717D02*
X769383Y245761D01*
X766050D02*
X769383D01*
X766050D02*
X767717Y242428D01*
X781404Y215702D02*
X782238D01*
X781404D02*
Y217369D01*
X782238D01*
Y218202D01*
X783904D01*
Y217369D02*
Y218202D01*
Y217369D02*
X784738D01*
Y215702D02*
Y217369D01*
X783904Y215702D02*
X784738D01*
X783904Y214869D02*
Y215702D01*
X782238Y214869D02*
X783904D01*
X782238D02*
Y215702D01*
X731011D02*
X731844D01*
X731011D02*
Y217369D01*
X731844D01*
Y218202D01*
X733511D01*
Y217369D02*
Y218202D01*
Y217369D02*
X734344D01*
Y215702D02*
Y217369D01*
X733511Y215702D02*
X734344D01*
X733511Y214869D02*
Y215702D01*
X731844Y214869D02*
X733511D01*
X731844D02*
Y215702D01*
X757874Y185341D02*
X759541Y188675D01*
X756208D02*
X759541D01*
X756208D02*
X757874Y185341D01*
X767717D02*
X769383Y188675D01*
X766050D02*
X769383D01*
X766050D02*
X767717Y185341D01*
X748032D02*
X749698Y188675D01*
X746365D02*
X749698D01*
X746365D02*
X748032Y185341D01*
X649606Y242428D02*
X651273Y245761D01*
X647940D02*
X651273D01*
X647940D02*
X649606Y242428D01*
X669291D02*
X670958Y245761D01*
X667625D02*
X670958D01*
X667625D02*
X669291Y242428D01*
X682979Y215702D02*
X683812D01*
X682979D02*
Y217369D01*
X683812D01*
Y218202D01*
X685479D01*
Y217369D02*
Y218202D01*
Y217369D02*
X686312D01*
Y215702D02*
Y217369D01*
X685479Y215702D02*
X686312D01*
X685479Y214869D02*
Y215702D01*
X683812Y214869D02*
X685479D01*
X683812D02*
Y215702D01*
X632585D02*
X633419D01*
X632585D02*
Y217369D01*
X633419D01*
Y218202D01*
X635085D01*
Y217369D02*
Y218202D01*
Y217369D02*
X635919D01*
Y215702D02*
Y217369D01*
X635085Y215702D02*
X635919D01*
X635085Y214869D02*
Y215702D01*
X633419Y214869D02*
X635085D01*
X633419D02*
Y215702D01*
X659449Y185341D02*
X661116Y188675D01*
X657782D02*
X661116D01*
X657782D02*
X659449Y185341D01*
X669291D02*
X670958Y188675D01*
X667625D02*
X670958D01*
X667625D02*
X669291Y185341D01*
X649606D02*
X651273Y188675D01*
X647940D02*
X651273D01*
X647940D02*
X649606Y185341D01*
X551181Y242428D02*
X552848Y245761D01*
X549514D02*
X552848D01*
X549514D02*
X551181Y242428D01*
X570866D02*
X572533Y245761D01*
X569200D02*
X572533D01*
X569200D02*
X570866Y242428D01*
X584554Y215702D02*
X585387D01*
X584554D02*
Y217369D01*
X585387D01*
Y218202D01*
X587054D01*
Y217369D02*
Y218202D01*
Y217369D02*
X587887D01*
Y215702D02*
Y217369D01*
X587054Y215702D02*
X587887D01*
X587054Y214869D02*
Y215702D01*
X585387Y214869D02*
X587054D01*
X585387D02*
Y215702D01*
X534160D02*
X534994D01*
X534160D02*
Y217369D01*
X534994D01*
Y218202D01*
X536660D01*
Y217369D02*
Y218202D01*
Y217369D02*
X537494D01*
Y215702D02*
Y217369D01*
X536660Y215702D02*
X537494D01*
X536660Y214869D02*
Y215702D01*
X534994Y214869D02*
X536660D01*
X534994D02*
Y215702D01*
X561024Y185341D02*
X562690Y188675D01*
X559357D02*
X562690D01*
X559357D02*
X561024Y185341D01*
X570866D02*
X572533Y188675D01*
X569200D02*
X572533D01*
X569200D02*
X570866Y185341D01*
X551181D02*
X552848Y188675D01*
X549514D02*
X552848D01*
X549514D02*
X551181Y185341D01*
X452756Y242428D02*
X454423Y245761D01*
X451089D02*
X454423D01*
X451089D02*
X452756Y242428D01*
X472441D02*
X474108Y245761D01*
X470775D02*
X474108D01*
X470775D02*
X472441Y242428D01*
X486129Y215702D02*
X486962D01*
X486129D02*
Y217369D01*
X486962D01*
Y218202D01*
X488629D01*
Y217369D02*
Y218202D01*
Y217369D02*
X489462D01*
Y215702D02*
Y217369D01*
X488629Y215702D02*
X489462D01*
X488629Y214869D02*
Y215702D01*
X486962Y214869D02*
X488629D01*
X486962D02*
Y215702D01*
X435735D02*
X436568D01*
X435735D02*
Y217369D01*
X436568D01*
Y218202D01*
X438235D01*
Y217369D02*
Y218202D01*
Y217369D02*
X439068D01*
Y215702D02*
Y217369D01*
X438235Y215702D02*
X439068D01*
X438235Y214869D02*
Y215702D01*
X436568Y214869D02*
X438235D01*
X436568D02*
Y215702D01*
X462599Y185341D02*
X464265Y188675D01*
X460932D02*
X464265D01*
X460932D02*
X462599Y185341D01*
X472441D02*
X474108Y188675D01*
X470775D02*
X474108D01*
X470775D02*
X472441Y185341D01*
X452756D02*
X454423Y188675D01*
X451089D02*
X454423D01*
X451089D02*
X452756Y185341D01*
X354331Y242428D02*
X355997Y245761D01*
X352664D02*
X355997D01*
X352664D02*
X354331Y242428D01*
X374016D02*
X375683Y245761D01*
X372349D02*
X375683D01*
X372349D02*
X374016Y242428D01*
X387703Y215702D02*
X388537D01*
X387703D02*
Y217369D01*
X388537D01*
Y218202D01*
X390203D01*
Y217369D02*
Y218202D01*
Y217369D02*
X391037D01*
Y215702D02*
Y217369D01*
X390203Y215702D02*
X391037D01*
X390203Y214869D02*
Y215702D01*
X388537Y214869D02*
X390203D01*
X388537D02*
Y215702D01*
X337310D02*
X338143D01*
X337310D02*
Y217369D01*
X338143D01*
Y218202D01*
X339810D01*
Y217369D02*
Y218202D01*
Y217369D02*
X340643D01*
Y215702D02*
Y217369D01*
X339810Y215702D02*
X340643D01*
X339810Y214869D02*
Y215702D01*
X338143Y214869D02*
X339810D01*
X338143D02*
Y215702D01*
X364173Y185341D02*
X365840Y188675D01*
X362507D02*
X365840D01*
X362507D02*
X364173Y185341D01*
X374016D02*
X375683Y188675D01*
X372349D02*
X375683D01*
X372349D02*
X374016Y185341D01*
X354331D02*
X355997Y188675D01*
X352664D02*
X355997D01*
X352664D02*
X354331Y185341D01*
X255906Y242428D02*
X257572Y245761D01*
X254239D02*
X257572D01*
X254239D02*
X255906Y242428D01*
X275591D02*
X277257Y245761D01*
X273924D02*
X277257D01*
X273924D02*
X275591Y242428D01*
X289278Y215702D02*
X290112D01*
X289278D02*
Y217369D01*
X290112D01*
Y218202D01*
X291778D01*
Y217369D02*
Y218202D01*
Y217369D02*
X292612D01*
Y215702D02*
Y217369D01*
X291778Y215702D02*
X292612D01*
X291778Y214869D02*
Y215702D01*
X290112Y214869D02*
X291778D01*
X290112D02*
Y215702D01*
X238885D02*
X239718D01*
X238885D02*
Y217369D01*
X239718D01*
Y218202D01*
X241385D01*
Y217369D02*
Y218202D01*
Y217369D02*
X242218D01*
Y215702D02*
Y217369D01*
X241385Y215702D02*
X242218D01*
X241385Y214869D02*
Y215702D01*
X239718Y214869D02*
X241385D01*
X239718D02*
Y215702D01*
X265748Y185341D02*
X267415Y188675D01*
X264082D02*
X267415D01*
X264082D02*
X265748Y185341D01*
X275591D02*
X277257Y188675D01*
X273924D02*
X277257D01*
X273924D02*
X275591Y185341D01*
X255906D02*
X257572Y188675D01*
X254239D02*
X257572D01*
X254239D02*
X255906Y185341D01*
X157480Y242428D02*
X159147Y245761D01*
X155814D02*
X159147D01*
X155814D02*
X157480Y242428D01*
X177165D02*
X178832Y245761D01*
X175499D02*
X178832D01*
X175499D02*
X177165Y242428D01*
X190853Y215702D02*
X191686D01*
X190853D02*
Y217369D01*
X191686D01*
Y218202D01*
X193353D01*
Y217369D02*
Y218202D01*
Y217369D02*
X194186D01*
Y215702D02*
Y217369D01*
X193353Y215702D02*
X194186D01*
X193353Y214869D02*
Y215702D01*
X191686Y214869D02*
X193353D01*
X191686D02*
Y215702D01*
X140460D02*
X141293D01*
X140460D02*
Y217369D01*
X141293D01*
Y218202D01*
X142959D01*
Y217369D02*
Y218202D01*
Y217369D02*
X143793D01*
Y215702D02*
Y217369D01*
X142959Y215702D02*
X143793D01*
X142959Y214869D02*
Y215702D01*
X141293Y214869D02*
X142959D01*
X141293D02*
Y215702D01*
X167323Y185341D02*
X168990Y188675D01*
X165656D02*
X168990D01*
X165656D02*
X167323Y185341D01*
X177165D02*
X178832Y188675D01*
X175499D02*
X178832D01*
X175499D02*
X177165Y185341D01*
X157480D02*
X159147Y188675D01*
X155814D02*
X159147D01*
X155814D02*
X157480Y185341D01*
X59055Y242428D02*
X60722Y245761D01*
X57389D02*
X60722D01*
X57389D02*
X59055Y242428D01*
X78740D02*
X80407Y245761D01*
X77074D02*
X80407D01*
X77074D02*
X78740Y242428D01*
X92428Y215702D02*
X93261D01*
X92428D02*
Y217369D01*
X93261D01*
Y218202D01*
X94928D01*
Y217369D02*
Y218202D01*
Y217369D02*
X95761D01*
Y215702D02*
Y217369D01*
X94928Y215702D02*
X95761D01*
X94928Y214869D02*
Y215702D01*
X93261Y214869D02*
X94928D01*
X93261D02*
Y215702D01*
X42034D02*
X42868D01*
X42034D02*
Y217369D01*
X42868D01*
Y218202D01*
X44534D01*
Y217369D02*
Y218202D01*
Y217369D02*
X45368D01*
Y215702D02*
Y217369D01*
X44534Y215702D02*
X45368D01*
X44534Y214869D02*
Y215702D01*
X42868Y214869D02*
X44534D01*
X42868D02*
Y215702D01*
X68898Y185341D02*
X70564Y188675D01*
X67231D02*
X70564D01*
X67231D02*
X68898Y185341D01*
X78740D02*
X80407Y188675D01*
X77074D02*
X80407D01*
X77074D02*
X78740Y185341D01*
X59055D02*
X60722Y188675D01*
X57389D02*
X60722D01*
X57389D02*
X59055Y185341D01*
X692034Y517231D02*
Y518064D01*
X692868Y518898D01*
X692034Y519731D02*
X692868Y518898D01*
X692034Y519731D02*
Y520565D01*
X692868D01*
X693701Y519731D01*
X694534Y520565D01*
X695367D01*
Y519731D02*
Y520565D01*
X694534Y518898D02*
X695367Y519731D01*
X694534Y518898D02*
X695367Y518064D01*
Y517231D02*
Y518064D01*
X694534Y517231D02*
X695367D01*
X693701Y518064D02*
X694534Y517231D01*
X692868D02*
X693701Y518064D01*
X692034Y517231D02*
X692868D01*
X789672Y518898D02*
X791339Y517231D01*
X793005Y518898D01*
X791339Y520565D02*
X793005Y518898D01*
X789672D02*
X791339Y520565D01*
X548378Y281751D02*
X550045Y285084D01*
X546711D02*
X550045D01*
X546711D02*
X548378Y281751D01*
X538378D02*
X540045Y285084D01*
X536711D02*
X540045D01*
X536711D02*
X538378Y281751D01*
X528378D02*
X530045Y285084D01*
X526711D02*
X530045D01*
X526711D02*
X528378Y281751D01*
X518378D02*
X520045Y285084D01*
X516711D02*
X520045D01*
X516711D02*
X518378Y281751D01*
X508378D02*
X510045Y285084D01*
X506711D02*
X510045D01*
X506711D02*
X508378Y281751D01*
X498378D02*
X500045Y285084D01*
X496711D02*
X500045D01*
X496711D02*
X498378Y281751D01*
X488378D02*
X490045Y285084D01*
X486711D02*
X490045D01*
X486711D02*
X488378Y281751D01*
X478378D02*
X480045Y285084D01*
X476711D02*
X480045D01*
X476711D02*
X478378Y281751D01*
X468378D02*
X470045Y285084D01*
X466711D02*
X470045D01*
X466711D02*
X468378Y281751D01*
X458378D02*
X460045Y285084D01*
X456711D02*
X460045D01*
X456711D02*
X458378Y281751D01*
X448378D02*
X450045Y285084D01*
X446711D02*
X450045D01*
X446711D02*
X448378Y281751D01*
X438378D02*
X440045Y285084D01*
X436711D02*
X440045D01*
X436711D02*
X438378Y281751D01*
X428378D02*
X430045Y285084D01*
X426711D02*
X430045D01*
X426711D02*
X428378Y281751D01*
X418378D02*
X420045Y285084D01*
X416711D02*
X420045D01*
X416711D02*
X418378Y281751D01*
X408378D02*
X410045Y285084D01*
X406711D02*
X410045D01*
X406711D02*
X408378Y281751D01*
X398378D02*
X400045Y285084D01*
X396711D02*
X400045D01*
X396711D02*
X398378Y281751D01*
X388378D02*
X390045Y285084D01*
X386711D02*
X390045D01*
X386711D02*
X388378Y281751D01*
X378378D02*
X380045Y285084D01*
X376711D02*
X380045D01*
X376711D02*
X378378Y281751D01*
X368378D02*
X370045Y285084D01*
X366711D02*
X370045D01*
X366711D02*
X368378Y281751D01*
X358378D02*
X360045Y285084D01*
X356711D02*
X360045D01*
X356711D02*
X358378Y281751D01*
X647940Y537703D02*
X649606Y538537D01*
X651273Y537703D01*
X650440Y539370D02*
X651273Y537703D01*
X650440Y539370D02*
X651273Y541037D01*
X649606Y540203D02*
X651273Y541037D01*
X647940D02*
X649606Y540203D01*
X647940Y541037D02*
X648773Y539370D01*
X647940Y537703D02*
X648773Y539370D01*
X647940Y281798D02*
X649606Y282631D01*
X651273Y281798D01*
X650440Y283465D02*
X651273Y281798D01*
X650440Y283465D02*
X651273Y285131D01*
X649606Y284298D02*
X651273Y285131D01*
X647940D02*
X649606Y284298D01*
X647940Y285131D02*
X648773Y283465D01*
X647940Y281798D02*
X648773Y283465D01*
X301483Y281798D02*
X303150Y282631D01*
X304816Y281798D01*
X303983Y283465D02*
X304816Y281798D01*
X303983Y283465D02*
X304816Y285131D01*
X303150Y284298D02*
X304816Y285131D01*
X301483D02*
X303150Y284298D01*
X301483Y285131D02*
X302316Y283465D01*
X301483Y281798D02*
X302316Y283465D01*
X301483Y537703D02*
X303150Y538537D01*
X304816Y537703D01*
X303983Y539370D02*
X304816Y537703D01*
X303983Y539370D02*
X304816Y541037D01*
X303150Y540203D02*
X304816Y541037D01*
X301483D02*
X303150Y540203D01*
X301483Y541037D02*
X302316Y539370D01*
X301483Y537703D02*
X302316Y539370D01*
X180269Y542474D02*
X181102Y541640D01*
X179436Y542474D02*
X180269D01*
X179436D02*
X180269Y543307D01*
X179436Y544140D02*
X180269Y543307D01*
X179436Y544140D02*
X180269D01*
X181102Y544974D01*
X181936Y544140D01*
X182769D01*
X181936Y543307D02*
X182769Y544140D01*
X181936Y543307D02*
X182769Y542474D01*
X181936D02*
X182769D01*
X181102Y541640D02*
X181936Y542474D01*
X203891Y542868D02*
X204724Y542034D01*
X203058Y542868D02*
X203891D01*
X203058D02*
X203891Y543701D01*
X203058Y544534D02*
X203891Y543701D01*
X203058Y544534D02*
X203891D01*
X204724Y545367D01*
X205558Y544534D01*
X206391D01*
X205558Y543701D02*
X206391Y544534D01*
X205558Y543701D02*
X206391Y542868D01*
X205558D02*
X206391D01*
X204724Y542034D02*
X205558Y542868D01*
X813961Y538370D02*
X814961Y538870D01*
X815961Y538370D01*
X815461Y539370D02*
X815961Y538370D01*
X815461Y539370D02*
X815961Y540370D01*
X814961Y539870D02*
X815961Y540370D01*
X813961D02*
X814961Y539870D01*
X813961Y540370D02*
X814461Y539370D01*
X813961Y538370D02*
X814461Y539370D01*
X813294Y537703D02*
X814961Y538537D01*
X816627Y537703D01*
X815794Y539370D02*
X816627Y537703D01*
X815794Y539370D02*
X816627Y541037D01*
X814961Y540203D02*
X816627Y541037D01*
X813294D02*
X814961Y540203D01*
X813294Y541037D02*
X814127Y539370D01*
X813294Y537703D02*
X814127Y539370D01*
X813961Y10811D02*
X814961Y11311D01*
X815961Y10811D01*
X815461Y11811D02*
X815961Y10811D01*
X815461Y11811D02*
X815961Y12811D01*
X814961Y12311D02*
X815961Y12811D01*
X813961D02*
X814961Y12311D01*
X813961Y12811D02*
X814461Y11811D01*
X813961Y10811D02*
X814461Y11811D01*
X813294Y10144D02*
X814961Y10978D01*
X816627Y10144D01*
X815794Y11811D02*
X816627Y10144D01*
X815794Y11811D02*
X816627Y13478D01*
X814961Y12644D02*
X816627Y13478D01*
X813294D02*
X814961Y12644D01*
X813294Y13478D02*
X814127Y11811D01*
X813294Y10144D02*
X814127Y11811D01*
X10811Y10811D02*
X11811Y11311D01*
X12811Y10811D01*
X12311Y11811D02*
X12811Y10811D01*
X12311Y11811D02*
X12811Y12811D01*
X11811Y12311D02*
X12811Y12811D01*
X10811D02*
X11811Y12311D01*
X10811Y12811D02*
X11311Y11811D01*
X10811Y10811D02*
X11311Y11811D01*
X10144Y10144D02*
X11811Y10978D01*
X13478Y10144D01*
X12644Y11811D02*
X13478Y10144D01*
X12644Y11811D02*
X13478Y13478D01*
X11811Y12644D02*
X13478Y13478D01*
X10144D02*
X11811Y12644D01*
X10144Y13478D02*
X10978Y11811D01*
X10144Y10144D02*
X10978Y11811D01*
X18685Y530496D02*
X19685Y530996D01*
X20685Y530496D01*
X20185Y531496D02*
X20685Y530496D01*
X20185Y531496D02*
X20685Y532496D01*
X19685Y531996D02*
X20685Y532496D01*
X18685D02*
X19685Y531996D01*
X18685Y532496D02*
X19185Y531496D01*
X18685Y530496D02*
X19185Y531496D01*
X18018Y529829D02*
X19685Y530663D01*
X21352Y529829D01*
X20518Y531496D02*
X21352Y529829D01*
X20518Y531496D02*
X21352Y533163D01*
X19685Y532329D02*
X21352Y533163D01*
X18018D02*
X19685Y532329D01*
X18018Y533163D02*
X18852Y531496D01*
X18018Y529829D02*
X18852Y531496D01*
X225378Y138764D02*
X226378Y139264D01*
X227378Y138764D01*
X226878Y139764D02*
X227378Y138764D01*
X226878Y139764D02*
X227378Y140764D01*
X226378Y140264D02*
X227378Y140764D01*
X225378D02*
X226378Y140264D01*
X225378Y140764D02*
X225878Y139764D01*
X225378Y138764D02*
X225878Y139764D01*
X224711Y138097D02*
X226378Y138930D01*
X228045Y138097D01*
X227211Y139764D02*
X228045Y138097D01*
X227211Y139764D02*
X228045Y141430D01*
X226378Y140597D02*
X228045Y141430D01*
X224711D02*
X226378Y140597D01*
X224711Y141430D02*
X225545Y139764D01*
X224711Y138097D02*
X225545Y139764D01*
X225378Y36402D02*
X226378Y36902D01*
X227378Y36402D01*
X226878Y37402D02*
X227378Y36402D01*
X226878Y37402D02*
X227378Y38402D01*
X226378Y37902D02*
X227378Y38402D01*
X225378D02*
X226378Y37902D01*
X225378Y38402D02*
X225878Y37402D01*
X225378Y36402D02*
X225878Y37402D01*
X224711Y35735D02*
X226378Y36568D01*
X228045Y35735D01*
X227211Y37402D02*
X228045Y35735D01*
X227211Y37402D02*
X228045Y39068D01*
X226378Y38235D02*
X228045Y39068D01*
X224711D02*
X226378Y38235D01*
X224711Y39068D02*
X225545Y37402D01*
X224711Y35735D02*
X225545Y37402D01*
X343488Y36402D02*
X344488Y36902D01*
X345488Y36402D01*
X344988Y37402D02*
X345488Y36402D01*
X344988Y37402D02*
X345488Y38402D01*
X344488Y37902D02*
X345488Y38402D01*
X343488D02*
X344488Y37902D01*
X343488Y38402D02*
X343988Y37402D01*
X343488Y36402D02*
X343988Y37402D01*
X342822Y35735D02*
X344488Y36568D01*
X346155Y35735D01*
X345321Y37402D02*
X346155Y35735D01*
X345321Y37402D02*
X346155Y39068D01*
X344488Y38235D02*
X346155Y39068D01*
X342822D02*
X344488Y38235D01*
X342822Y39068D02*
X343655Y37402D01*
X342822Y35735D02*
X343655Y37402D01*
X481284Y36402D02*
X482283Y36902D01*
X483284Y36402D01*
X482784Y37402D02*
X483284Y36402D01*
X482784Y37402D02*
X483284Y38402D01*
X482283Y37902D02*
X483284Y38402D01*
X481284D02*
X482283Y37902D01*
X481284Y38402D02*
X481783Y37402D01*
X481284Y36402D02*
X481783Y37402D01*
X480617Y35735D02*
X482283Y36568D01*
X483950Y35735D01*
X483117Y37402D02*
X483950Y35735D01*
X483117Y37402D02*
X483950Y39068D01*
X482283Y38235D02*
X483950Y39068D01*
X480617D02*
X482283Y38235D01*
X480617Y39068D02*
X481450Y37402D01*
X480617Y35735D02*
X481450Y37402D01*
X481284Y138764D02*
X482283Y139264D01*
X483284Y138764D01*
X482784Y139764D02*
X483284Y138764D01*
X482784Y139764D02*
X483284Y140764D01*
X482283Y140264D02*
X483284Y140764D01*
X481284D02*
X482283Y140264D01*
X481284Y140764D02*
X481783Y139764D01*
X481284Y138764D02*
X481783Y139764D01*
X480617Y138097D02*
X482283Y138930D01*
X483950Y138097D01*
X483117Y139764D02*
X483950Y138097D01*
X483117Y139764D02*
X483950Y141430D01*
X482283Y140597D02*
X483950Y141430D01*
X480617D02*
X482283Y140597D01*
X480617Y141430D02*
X481450Y139764D01*
X480617Y138097D02*
X481450Y139764D01*
X107268Y343488D02*
X108268Y343988D01*
X109268Y343488D01*
X108768Y344488D02*
X109268Y343488D01*
X108768Y344488D02*
X109268Y345488D01*
X108268Y344988D02*
X109268Y345488D01*
X107268D02*
X108268Y344988D01*
X107268Y345488D02*
X107768Y344488D01*
X107268Y343488D02*
X107768Y344488D01*
X106601Y342822D02*
X108268Y343655D01*
X109934Y342822D01*
X109101Y344488D02*
X109934Y342822D01*
X109101Y344488D02*
X109934Y346155D01*
X108268Y345321D02*
X109934Y346155D01*
X106601D02*
X108268Y345321D01*
X106601Y346155D02*
X107434Y344488D01*
X106601Y342822D02*
X107434Y344488D01*
X225378Y343488D02*
X226378Y343988D01*
X227378Y343488D01*
X226878Y344488D02*
X227378Y343488D01*
X226878Y344488D02*
X227378Y345488D01*
X226378Y344988D02*
X227378Y345488D01*
X225378D02*
X226378Y344988D01*
X225378Y345488D02*
X225878Y344488D01*
X225378Y343488D02*
X225878Y344488D01*
X224711Y342822D02*
X226378Y343655D01*
X228045Y342822D01*
X227211Y344488D02*
X228045Y342822D01*
X227211Y344488D02*
X228045Y346155D01*
X226378Y345321D02*
X228045Y346155D01*
X224711D02*
X226378Y345321D01*
X224711Y346155D02*
X225545Y344488D01*
X224711Y342822D02*
X225545Y344488D01*
X225378Y443882D02*
X226378Y444382D01*
X227378Y443882D01*
X226878Y444882D02*
X227378Y443882D01*
X226878Y444882D02*
X227378Y445882D01*
X226378Y445382D02*
X227378Y445882D01*
X225378D02*
X226378Y445382D01*
X225378Y445882D02*
X225878Y444882D01*
X225378Y443882D02*
X225878Y444882D01*
X224711Y443215D02*
X226378Y444049D01*
X228045Y443215D01*
X227211Y444882D02*
X228045Y443215D01*
X227211Y444882D02*
X228045Y446549D01*
X226378Y445715D02*
X228045Y446549D01*
X224711D02*
X226378Y445715D01*
X224711Y446549D02*
X225545Y444882D01*
X224711Y443215D02*
X225545Y444882D01*
X107268Y443882D02*
X108268Y444382D01*
X109268Y443882D01*
X108768Y444882D02*
X109268Y443882D01*
X108768Y444882D02*
X109268Y445882D01*
X108268Y445382D02*
X109268Y445882D01*
X107268D02*
X108268Y445382D01*
X107268Y445882D02*
X107768Y444882D01*
X107268Y443882D02*
X107768Y444882D01*
X106601Y443215D02*
X108268Y444049D01*
X109934Y443215D01*
X109101Y444882D02*
X109934Y443215D01*
X109101Y444882D02*
X109934Y446549D01*
X108268Y445715D02*
X109934Y446549D01*
X106601D02*
X108268Y445715D01*
X106601Y446549D02*
X107434Y444882D01*
X106601Y443215D02*
X107434Y444882D01*
X136795Y54118D02*
X137795Y54618D01*
X138795Y54118D01*
X138295Y55118D02*
X138795Y54118D01*
X138295Y55118D02*
X138795Y56118D01*
X137795Y55618D02*
X138795Y56118D01*
X136795D02*
X137795Y55618D01*
X136795Y56118D02*
X137295Y55118D01*
X136795Y54118D02*
X137295Y55118D01*
X136129Y53451D02*
X137795Y54285D01*
X139462Y53451D01*
X138629Y55118D02*
X139462Y53451D01*
X138629Y55118D02*
X139462Y56785D01*
X137795Y55951D02*
X139462Y56785D01*
X136129D02*
X137795Y55951D01*
X136129Y56785D02*
X136962Y55118D01*
X136129Y53451D02*
X136962Y55118D01*
X217504Y156480D02*
X218504Y156980D01*
X219504Y156480D01*
X219004Y157480D02*
X219504Y156480D01*
X219004Y157480D02*
X219504Y158480D01*
X218504Y157980D02*
X219504Y158480D01*
X217504D02*
X218504Y157980D01*
X217504Y158480D02*
X218004Y157480D01*
X217504Y156480D02*
X218004Y157480D01*
X216837Y155814D02*
X218504Y156647D01*
X220171Y155814D01*
X219337Y157480D02*
X220171Y155814D01*
X219337Y157480D02*
X220171Y159147D01*
X218504Y158314D02*
X220171Y159147D01*
X216837D02*
X218504Y158314D01*
X216837Y159147D02*
X217671Y157480D01*
X216837Y155814D02*
X217671Y157480D01*
X412386Y119079D02*
X413386Y119579D01*
X414386Y119079D01*
X413886Y120079D02*
X414386Y119079D01*
X413886Y120079D02*
X414386Y121079D01*
X413386Y120579D02*
X414386Y121079D01*
X412386D02*
X413386Y120579D01*
X412386Y121079D02*
X412886Y120079D01*
X412386Y119079D02*
X412886Y120079D01*
X411719Y118412D02*
X413386Y119245D01*
X415053Y118412D01*
X414219Y120079D02*
X415053Y118412D01*
X414219Y120079D02*
X415053Y121745D01*
X413386Y120912D02*
X415053Y121745D01*
X411719D02*
X413386Y120912D01*
X411719Y121745D02*
X412552Y120079D01*
X411719Y118412D02*
X412552Y120079D01*
X607268Y156480D02*
X608268Y156980D01*
X609268Y156480D01*
X608768Y157480D02*
X609268Y156480D01*
X608768Y157480D02*
X609268Y158480D01*
X608268Y157980D02*
X609268Y158480D01*
X607268D02*
X608268Y157980D01*
X607268Y158480D02*
X607768Y157480D01*
X607268Y156480D02*
X607768Y157480D01*
X606601Y155814D02*
X608268Y156647D01*
X609934Y155814D01*
X609101Y157480D02*
X609934Y155814D01*
X609101Y157480D02*
X609934Y159147D01*
X608268Y158314D02*
X609934Y159147D01*
X606601D02*
X608268Y158314D01*
X606601Y159147D02*
X607434Y157480D01*
X606601Y155814D02*
X607434Y157480D01*
X668291Y54118D02*
X669291Y54618D01*
X670291Y54118D01*
X669791Y55118D02*
X670291Y54118D01*
X669791Y55118D02*
X670291Y56118D01*
X669291Y55618D02*
X670291Y56118D01*
X668291D02*
X669291Y55618D01*
X668291Y56118D02*
X668791Y55118D01*
X668291Y54118D02*
X668791Y55118D01*
X667625Y53451D02*
X669291Y54285D01*
X670958Y53451D01*
X670125Y55118D02*
X670958Y53451D01*
X670125Y55118D02*
X670958Y56785D01*
X669291Y55951D02*
X670958Y56785D01*
X667625D02*
X669291Y55951D01*
X667625Y56785D02*
X668458Y55118D01*
X667625Y53451D02*
X668458Y55118D01*
X343488Y138764D02*
X344488Y139264D01*
X345488Y138764D01*
X344988Y139764D02*
X345488Y138764D01*
X344988Y139764D02*
X345488Y140764D01*
X344488Y140264D02*
X345488Y140764D01*
X343488D02*
X344488Y140264D01*
X343488Y140764D02*
X343988Y139764D01*
X343488Y138764D02*
X343988Y139764D01*
X342822Y138097D02*
X344488Y138930D01*
X346155Y138097D01*
X345321Y139764D02*
X346155Y138097D01*
X345321Y139764D02*
X346155Y141430D01*
X344488Y140597D02*
X346155Y141430D01*
X342822D02*
X344488Y140597D01*
X342822Y141430D02*
X343655Y139764D01*
X342822Y138097D02*
X343655Y139764D01*
X599394Y36402D02*
X600394Y36902D01*
X601394Y36402D01*
X600894Y37402D02*
X601394Y36402D01*
X600894Y37402D02*
X601394Y38402D01*
X600394Y37902D02*
X601394Y38402D01*
X599394D02*
X600394Y37902D01*
X599394Y38402D02*
X599894Y37402D01*
X599394Y36402D02*
X599894Y37402D01*
X598727Y35735D02*
X600394Y36568D01*
X602060Y35735D01*
X601227Y37402D02*
X602060Y35735D01*
X601227Y37402D02*
X602060Y39068D01*
X600394Y38235D02*
X602060Y39068D01*
X598727D02*
X600394Y38235D01*
X598727Y39068D02*
X599560Y37402D01*
X598727Y35735D02*
X599560Y37402D01*
X599394Y138764D02*
X600394Y139264D01*
X601394Y138764D01*
X600894Y139764D02*
X601394Y138764D01*
X600894Y139764D02*
X601394Y140764D01*
X600394Y140264D02*
X601394Y140764D01*
X599394D02*
X600394Y140264D01*
X599394Y140764D02*
X599894Y139764D01*
X599394Y138764D02*
X599894Y139764D01*
X598727Y138097D02*
X600394Y138930D01*
X602060Y138097D01*
X601227Y139764D02*
X602060Y138097D01*
X601227Y139764D02*
X602060Y141430D01*
X600394Y140597D02*
X602060Y141430D01*
X598727D02*
X600394Y140597D01*
X598727Y141430D02*
X599560Y139764D01*
X598727Y138097D02*
X599560Y139764D01*
X117110Y241126D02*
X118110Y241626D01*
X119110Y241126D01*
X118610Y242126D02*
X119110Y241126D01*
X118610Y242126D02*
X119110Y243126D01*
X118110Y242626D02*
X119110Y243126D01*
X117110D02*
X118110Y242626D01*
X117110Y243126D02*
X117610Y242126D01*
X117110Y241126D02*
X117610Y242126D01*
X116444Y240459D02*
X118110Y241293D01*
X119777Y240459D01*
X118944Y242126D02*
X119777Y240459D01*
X118944Y242126D02*
X119777Y243793D01*
X118110Y242959D02*
X119777Y243793D01*
X116444D02*
X118110Y242959D01*
X116444Y243793D02*
X117277Y242126D01*
X116444Y240459D02*
X117277Y242126D01*
X195850Y136795D02*
X197850D01*
Y138795D01*
X195850D02*
X197850D01*
X195850Y136795D02*
Y138795D01*
X195184Y136129D02*
X198517D01*
Y139462D01*
X195184D02*
X198517D01*
X195184Y136129D02*
Y139462D01*
X195850Y97425D02*
X197850D01*
Y99425D01*
X195850D02*
X197850D01*
X195850Y97425D02*
Y99425D01*
X195184Y96759D02*
X198517D01*
Y100092D01*
X195184D02*
X198517D01*
X195184Y96759D02*
Y100092D01*
X451756Y38370D02*
X453756D01*
Y40370D01*
X451756D02*
X453756D01*
X451756Y38370D02*
Y40370D01*
X451089Y37703D02*
X454423D01*
Y41037D01*
X451089D02*
X454423D01*
X451089Y37703D02*
Y41037D01*
X451756Y77740D02*
X453756D01*
Y79740D01*
X451756D02*
X453756D01*
X451756Y77740D02*
Y79740D01*
X451089Y77074D02*
X454423D01*
Y80407D01*
X451089D02*
X454423D01*
X451089Y77074D02*
Y80407D01*
X254906Y136795D02*
X256906D01*
Y138795D01*
X254906D02*
X256906D01*
X254906Y136795D02*
Y138795D01*
X254239Y136129D02*
X257572D01*
Y139462D01*
X254239D02*
X257572D01*
X254239Y136129D02*
Y139462D01*
X254906Y97425D02*
X256906D01*
Y99425D01*
X254906D02*
X256906D01*
X254906Y97425D02*
Y99425D01*
X254239Y96759D02*
X257572D01*
Y100092D01*
X254239D02*
X257572D01*
X254239Y96759D02*
Y100092D01*
X510811Y38370D02*
X512811D01*
Y40370D01*
X510811D02*
X512811D01*
X510811Y38370D02*
Y40370D01*
X510144Y37703D02*
X513478D01*
Y41037D01*
X510144D02*
X513478D01*
X510144Y37703D02*
Y41037D01*
X510811Y77740D02*
X512811D01*
Y79740D01*
X510811D02*
X512811D01*
X510811Y77740D02*
Y79740D01*
X510144Y77074D02*
X513478D01*
Y80407D01*
X510144D02*
X513478D01*
X510144Y77074D02*
Y80407D01*
X313961Y136795D02*
X315961D01*
Y138795D01*
X313961D02*
X315961D01*
X313961Y136795D02*
Y138795D01*
X313294Y136129D02*
X316627D01*
Y139462D01*
X313294D02*
X316627D01*
X313294Y136129D02*
Y139462D01*
X313961Y97425D02*
X315961D01*
Y99425D01*
X313961D02*
X315961D01*
X313961Y97425D02*
Y99425D01*
X313294Y96759D02*
X316627D01*
Y100092D01*
X313294D02*
X316627D01*
X313294Y96759D02*
Y100092D01*
X569866Y38370D02*
X571866D01*
Y40370D01*
X569866D02*
X571866D01*
X569866Y38370D02*
Y40370D01*
X569200Y37703D02*
X572533D01*
Y41037D01*
X569200D02*
X572533D01*
X569200Y37703D02*
Y41037D01*
X569866Y77740D02*
X571866D01*
Y79740D01*
X569866D02*
X571866D01*
X569866Y77740D02*
Y79740D01*
X569200Y77074D02*
X572533D01*
Y80407D01*
X569200D02*
X572533D01*
X569200Y77074D02*
Y80407D01*
X628921Y38370D02*
X630921D01*
Y40370D01*
X628921D02*
X630921D01*
X628921Y38370D02*
Y40370D01*
X628255Y37703D02*
X631588D01*
Y41037D01*
X628255D02*
X631588D01*
X628255Y37703D02*
Y41037D01*
X628921Y77740D02*
X630921D01*
Y79740D01*
X628921D02*
X630921D01*
X628921Y77740D02*
Y79740D01*
X628255Y77074D02*
X631588D01*
Y80407D01*
X628255D02*
X631588D01*
X628255Y77074D02*
Y80407D01*
X451756Y136795D02*
X453756D01*
Y138795D01*
X451756D02*
X453756D01*
X451756Y136795D02*
Y138795D01*
X451089Y136129D02*
X454423D01*
Y139462D01*
X451089D02*
X454423D01*
X451089Y136129D02*
Y139462D01*
X451756Y97425D02*
X453756D01*
Y99425D01*
X451756D02*
X453756D01*
X451756Y97425D02*
Y99425D01*
X451089Y96759D02*
X454423D01*
Y100092D01*
X451089D02*
X454423D01*
X451089Y96759D02*
Y100092D01*
X77740Y441913D02*
X79740D01*
Y443913D01*
X77740D02*
X79740D01*
X77740Y441913D02*
Y443913D01*
X77074Y441247D02*
X80407D01*
Y444580D01*
X77074D02*
X80407D01*
X77074Y441247D02*
Y444580D01*
X77740Y402543D02*
X79740D01*
Y404543D01*
X77740D02*
X79740D01*
X77740Y402543D02*
Y404543D01*
X77074Y401877D02*
X80407D01*
Y405210D01*
X77074D02*
X80407D01*
X77074Y401877D02*
Y405210D01*
X136795Y441913D02*
X138795D01*
Y443913D01*
X136795D02*
X138795D01*
X136795Y441913D02*
Y443913D01*
X136129Y441247D02*
X139462D01*
Y444580D01*
X136129D02*
X139462D01*
X136129Y441247D02*
Y444580D01*
X136795Y402543D02*
X138795D01*
Y404543D01*
X136795D02*
X138795D01*
X136795Y402543D02*
Y404543D01*
X136129Y401877D02*
X139462D01*
Y405210D01*
X136129D02*
X139462D01*
X136129Y401877D02*
Y405210D01*
X569866Y136795D02*
X571866D01*
Y138795D01*
X569866D02*
X571866D01*
X569866Y136795D02*
Y138795D01*
X569200Y136129D02*
X572533D01*
Y139462D01*
X569200D02*
X572533D01*
X569200Y136129D02*
Y139462D01*
X569866Y97425D02*
X571866D01*
Y99425D01*
X569866D02*
X571866D01*
X569866Y97425D02*
Y99425D01*
X569200Y96759D02*
X572533D01*
Y100092D01*
X569200D02*
X572533D01*
X569200Y96759D02*
Y100092D01*
X195850Y441913D02*
X197850D01*
Y443913D01*
X195850D02*
X197850D01*
X195850Y441913D02*
Y443913D01*
X195184Y441247D02*
X198517D01*
Y444580D01*
X195184D02*
X198517D01*
X195184Y441247D02*
Y444580D01*
X195850Y402543D02*
X197850D01*
Y404543D01*
X195850D02*
X197850D01*
X195850Y402543D02*
Y404543D01*
X195184Y401877D02*
X198517D01*
Y405210D01*
X195184D02*
X198517D01*
X195184Y401877D02*
Y405210D01*
X628921Y136795D02*
X630921D01*
Y138795D01*
X628921D02*
X630921D01*
X628921Y136795D02*
Y138795D01*
X628255Y136129D02*
X631588D01*
Y139462D01*
X628255D02*
X631588D01*
X628255Y136129D02*
Y139462D01*
X628921Y97425D02*
X630921D01*
Y99425D01*
X628921D02*
X630921D01*
X628921Y97425D02*
Y99425D01*
X628255Y96759D02*
X631588D01*
Y100092D01*
X628255D02*
X631588D01*
X628255Y96759D02*
Y100092D01*
X254906Y441913D02*
X256906D01*
Y443913D01*
X254906D02*
X256906D01*
X254906Y441913D02*
Y443913D01*
X254239Y441247D02*
X257572D01*
Y444580D01*
X254239D02*
X257572D01*
X254239Y441247D02*
Y444580D01*
X254906Y402543D02*
X256906D01*
Y404543D01*
X254906D02*
X256906D01*
X254906Y402543D02*
Y404543D01*
X254239Y401877D02*
X257572D01*
Y405210D01*
X254239D02*
X257572D01*
X254239Y401877D02*
Y405210D01*
X195850Y38370D02*
X197850D01*
Y40370D01*
X195850D02*
X197850D01*
X195850Y38370D02*
Y40370D01*
X195184Y37703D02*
X198517D01*
Y41037D01*
X195184D02*
X198517D01*
X195184Y37703D02*
Y41037D01*
X195850Y77740D02*
X197850D01*
Y79740D01*
X195850D02*
X197850D01*
X195850Y77740D02*
Y79740D01*
X195184Y77074D02*
X198517D01*
Y80407D01*
X195184D02*
X198517D01*
X195184Y77074D02*
Y80407D01*
X77740Y343488D02*
X79740D01*
Y345488D01*
X77740D02*
X79740D01*
X77740Y343488D02*
Y345488D01*
X77074Y342822D02*
X80407D01*
Y346155D01*
X77074D02*
X80407D01*
X77074Y342822D02*
Y346155D01*
X77740Y382858D02*
X79740D01*
Y384858D01*
X77740D02*
X79740D01*
X77740Y382858D02*
Y384858D01*
X77074Y382192D02*
X80407D01*
Y385525D01*
X77074D02*
X80407D01*
X77074Y382192D02*
Y385525D01*
X254906Y38370D02*
X256906D01*
Y40370D01*
X254906D02*
X256906D01*
X254906Y38370D02*
Y40370D01*
X254239Y37703D02*
X257572D01*
Y41037D01*
X254239D02*
X257572D01*
X254239Y37703D02*
Y41037D01*
X254906Y77740D02*
X256906D01*
Y79740D01*
X254906D02*
X256906D01*
X254906Y77740D02*
Y79740D01*
X254239Y77074D02*
X257572D01*
Y80407D01*
X254239D02*
X257572D01*
X254239Y77074D02*
Y80407D01*
X313961Y38370D02*
X315961D01*
Y40370D01*
X313961D02*
X315961D01*
X313961Y38370D02*
Y40370D01*
X313294Y37703D02*
X316627D01*
Y41037D01*
X313294D02*
X316627D01*
X313294Y37703D02*
Y41037D01*
X313961Y77740D02*
X315961D01*
Y79740D01*
X313961D02*
X315961D01*
X313961Y77740D02*
Y79740D01*
X313294Y77074D02*
X316627D01*
Y80407D01*
X313294D02*
X316627D01*
X313294Y77074D02*
Y80407D01*
X373016Y38370D02*
X375016D01*
Y40370D01*
X373016D02*
X375016D01*
X373016Y38370D02*
Y40370D01*
X372349Y37703D02*
X375682D01*
Y41037D01*
X372349D02*
X375682D01*
X372349Y37703D02*
Y41037D01*
X373016Y77740D02*
X375016D01*
Y79740D01*
X373016D02*
X375016D01*
X373016Y77740D02*
Y79740D01*
X372349Y77074D02*
X375682D01*
Y80407D01*
X372349D02*
X375682D01*
X372349Y77074D02*
Y80407D01*
X190184Y116444D02*
X193517D01*
Y119777D01*
X190184D02*
X193517D01*
X190184Y116444D02*
Y119777D01*
X200184Y116444D02*
X203517D01*
Y119777D01*
X200184D02*
X203517D01*
X200184Y116444D02*
Y119777D01*
X190184Y57389D02*
X193517D01*
Y60722D01*
X190184D02*
X193517D01*
X190184Y57389D02*
Y60722D01*
X200184Y57389D02*
X203517D01*
Y60722D01*
X200184D02*
X203517D01*
X200184Y57389D02*
Y60722D01*
X72074Y421562D02*
X75407D01*
Y424895D01*
X72074D02*
X75407D01*
X72074Y421562D02*
Y424895D01*
X82074Y421562D02*
X85407D01*
Y424895D01*
X82074D02*
X85407D01*
X82074Y421562D02*
Y424895D01*
X67231Y172625D02*
X70564D01*
Y175958D01*
X67231D02*
X70564D01*
X67231Y172625D02*
Y175958D01*
Y162625D02*
X70564D01*
Y165958D01*
X67231D02*
X70564D01*
X67231Y162625D02*
Y165958D01*
X249239Y116444D02*
X252572D01*
Y119777D01*
X249239D02*
X252572D01*
X249239Y116444D02*
Y119777D01*
X259239Y116444D02*
X262572D01*
Y119777D01*
X259239D02*
X262572D01*
X259239Y116444D02*
Y119777D01*
X249239Y57389D02*
X252572D01*
Y60722D01*
X249239D02*
X252572D01*
X249239Y57389D02*
Y60722D01*
X259239Y57389D02*
X262572D01*
Y60722D01*
X259239D02*
X262572D01*
X259239Y57389D02*
Y60722D01*
X131129Y421562D02*
X134462D01*
Y424895D01*
X131129D02*
X134462D01*
X131129Y421562D02*
Y424895D01*
X141129Y421562D02*
X144462D01*
Y424895D01*
X141129D02*
X144462D01*
X141129Y421562D02*
Y424895D01*
X165656Y172625D02*
X168990D01*
Y175958D01*
X165656D02*
X168990D01*
X165656Y172625D02*
Y175958D01*
Y162625D02*
X168990D01*
Y165958D01*
X165656D02*
X168990D01*
X165656Y162625D02*
Y165958D01*
X308294Y116444D02*
X311627D01*
Y119777D01*
X308294D02*
X311627D01*
X308294Y116444D02*
Y119777D01*
X318294Y116444D02*
X321627D01*
Y119777D01*
X318294D02*
X321627D01*
X318294Y116444D02*
Y119777D01*
X308294Y57389D02*
X311627D01*
Y60722D01*
X308294D02*
X311627D01*
X308294Y57389D02*
Y60722D01*
X318294Y57389D02*
X321627D01*
Y60722D01*
X318294D02*
X321627D01*
X318294Y57389D02*
Y60722D01*
X190184Y421562D02*
X193517D01*
Y424895D01*
X190184D02*
X193517D01*
X190184Y421562D02*
Y424895D01*
X200184Y421562D02*
X203517D01*
Y424895D01*
X200184D02*
X203517D01*
X200184Y421562D02*
Y424895D01*
X264081Y172625D02*
X267415D01*
Y175958D01*
X264081D02*
X267415D01*
X264081Y172625D02*
Y175958D01*
Y162625D02*
X267415D01*
Y165958D01*
X264081D02*
X267415D01*
X264081Y162625D02*
Y165958D01*
X367349Y116444D02*
X370683D01*
Y119777D01*
X367349D02*
X370683D01*
X367349Y116444D02*
Y119777D01*
X377349Y116444D02*
X380682D01*
Y119777D01*
X377349D02*
X380682D01*
X377349Y116444D02*
Y119777D01*
X367349Y57389D02*
X370683D01*
Y60722D01*
X367349D02*
X370683D01*
X367349Y57389D02*
Y60722D01*
X377349Y57389D02*
X380682D01*
Y60722D01*
X377349D02*
X380682D01*
X377349Y57389D02*
Y60722D01*
X249239Y421562D02*
X252572D01*
Y424895D01*
X249239D02*
X252572D01*
X249239Y421562D02*
Y424895D01*
X259239Y421562D02*
X262572D01*
Y424895D01*
X259239D02*
X262572D01*
X259239Y421562D02*
Y424895D01*
X362507Y172625D02*
X365840D01*
Y175958D01*
X362507D02*
X365840D01*
X362507Y172625D02*
Y175958D01*
Y162625D02*
X365840D01*
Y165958D01*
X362507D02*
X365840D01*
X362507Y162625D02*
Y165958D01*
X446089Y116444D02*
X449423D01*
Y119777D01*
X446089D02*
X449423D01*
X446089Y116444D02*
Y119777D01*
X456089Y116444D02*
X459423D01*
Y119777D01*
X456089D02*
X459423D01*
X456089Y116444D02*
Y119777D01*
X446089Y57389D02*
X449423D01*
Y60722D01*
X446089D02*
X449423D01*
X446089Y57389D02*
Y60722D01*
X456089Y57389D02*
X459423D01*
Y60722D01*
X456089D02*
X459423D01*
X456089Y57389D02*
Y60722D01*
X77074Y357507D02*
X80407D01*
Y360840D01*
X77074D02*
X80407D01*
X77074Y357507D02*
Y360840D01*
Y367507D02*
X80407D01*
Y370840D01*
X77074D02*
X80407D01*
X77074Y367507D02*
Y370840D01*
X460932Y172625D02*
X464265D01*
Y175958D01*
X460932D02*
X464265D01*
X460932Y172625D02*
Y175958D01*
Y162625D02*
X464265D01*
Y165958D01*
X460932D02*
X464265D01*
X460932Y162625D02*
Y165958D01*
X505144Y116444D02*
X508478D01*
Y119777D01*
X505144D02*
X508478D01*
X505144Y116444D02*
Y119777D01*
X515144Y116444D02*
X518478D01*
Y119777D01*
X515144D02*
X518478D01*
X515144Y116444D02*
Y119777D01*
X505144Y57389D02*
X508478D01*
Y60722D01*
X505144D02*
X508478D01*
X505144Y57389D02*
Y60722D01*
X515144Y57389D02*
X518478D01*
Y60722D01*
X515144D02*
X518478D01*
X515144Y57389D02*
Y60722D01*
X136129Y357507D02*
X139462D01*
Y360840D01*
X136129D02*
X139462D01*
X136129Y357507D02*
Y360840D01*
Y367507D02*
X139462D01*
Y370840D01*
X136129D02*
X139462D01*
X136129Y367507D02*
Y370840D01*
X559357Y172625D02*
X562690D01*
Y175958D01*
X559357D02*
X562690D01*
X559357Y172625D02*
Y175958D01*
Y162625D02*
X562690D01*
Y165958D01*
X559357D02*
X562690D01*
X559357Y162625D02*
Y165958D01*
X564199Y116444D02*
X567533D01*
Y119777D01*
X564199D02*
X567533D01*
X564199Y116444D02*
Y119777D01*
X574199Y116444D02*
X577533D01*
Y119777D01*
X574199D02*
X577533D01*
X574199Y116444D02*
Y119777D01*
X564199Y57389D02*
X567533D01*
Y60722D01*
X564199D02*
X567533D01*
X564199Y57389D02*
Y60722D01*
X574199Y57389D02*
X577533D01*
Y60722D01*
X574199D02*
X577533D01*
X574199Y57389D02*
Y60722D01*
X195184Y357507D02*
X198517D01*
Y360840D01*
X195184D02*
X198517D01*
X195184Y357507D02*
Y360840D01*
Y367507D02*
X198517D01*
Y370840D01*
X195184D02*
X198517D01*
X195184Y367507D02*
Y370840D01*
X657782Y172625D02*
X661116D01*
Y175958D01*
X657782D02*
X661116D01*
X657782Y172625D02*
Y175958D01*
Y162625D02*
X661116D01*
Y165958D01*
X657782D02*
X661116D01*
X657782Y162625D02*
Y165958D01*
X623255Y116444D02*
X626588D01*
Y119777D01*
X623255D02*
X626588D01*
X623255Y116444D02*
Y119777D01*
X633255Y116444D02*
X636588D01*
Y119777D01*
X633255D02*
X636588D01*
X633255Y116444D02*
Y119777D01*
X623255Y57389D02*
X626588D01*
Y60722D01*
X623255D02*
X626588D01*
X623255Y57389D02*
Y60722D01*
X633255Y57389D02*
X636588D01*
Y60722D01*
X633255D02*
X636588D01*
X633255Y57389D02*
Y60722D01*
X254239Y357507D02*
X257572D01*
Y360840D01*
X254239D02*
X257572D01*
X254239Y357507D02*
Y360840D01*
Y367507D02*
X257572D01*
Y370840D01*
X254239D02*
X257572D01*
X254239Y367507D02*
Y370840D01*
X756207Y172625D02*
X759541D01*
Y175958D01*
X756207D02*
X759541D01*
X756207Y172625D02*
Y175958D01*
Y162625D02*
X759541D01*
Y165958D01*
X756207D02*
X759541D01*
X756207Y162625D02*
Y165958D01*
D92*
X840710Y375067D02*
X1228607D01*
X840710Y195067D02*
X1228607D01*
X840710Y180067D02*
X1228607D01*
Y390067D01*
X840710D02*
X1228607D01*
X840710Y180067D02*
Y390067D01*
X1150727Y180067D02*
Y390067D01*
X1100139Y180067D02*
Y390067D01*
X965579Y180067D02*
Y390067D01*
X895797Y180067D02*
Y390067D01*
D93*
X1155227Y386765D02*
Y379567D01*
Y383166D01*
X1160025D01*
Y386765D01*
Y379567D01*
X1163624D02*
X1166023D01*
X1167223Y380767D01*
Y383166D01*
X1166023Y384365D01*
X1163624D01*
X1162424Y383166D01*
Y380767D01*
X1163624Y379567D01*
X1169622D02*
X1172021D01*
X1170822D01*
Y386765D01*
X1169622D01*
X1179219Y379567D02*
X1176820D01*
X1175620Y380767D01*
Y383166D01*
X1176820Y384365D01*
X1179219D01*
X1180419Y383166D01*
Y381966D01*
X1175620D01*
X1190016Y386765D02*
X1194814D01*
X1192415D01*
Y379567D01*
X1197213Y384365D02*
Y380767D01*
X1198413Y379567D01*
X1202012D01*
Y378367D01*
X1200812Y377168D01*
X1199612D01*
X1202012Y379567D02*
Y384365D01*
X1204411Y377168D02*
Y384365D01*
X1208010D01*
X1209209Y383166D01*
Y380767D01*
X1208010Y379567D01*
X1204411D01*
X1215207D02*
X1212808D01*
X1211609Y380767D01*
Y383166D01*
X1212808Y384365D01*
X1215207D01*
X1216407Y383166D01*
Y381966D01*
X1211609D01*
X1104639Y379567D02*
Y386765D01*
X1108238D01*
X1109438Y385565D01*
Y383166D01*
X1108238Y381966D01*
X1104639D01*
X1111837Y379567D02*
X1114236D01*
X1113036D01*
Y386765D01*
X1111837D01*
X1119034Y384365D02*
X1121434D01*
X1122633Y383166D01*
Y379567D01*
X1119034D01*
X1117835Y380767D01*
X1119034Y381966D01*
X1122633D01*
X1126232Y385565D02*
Y384365D01*
X1125033D01*
X1127432D01*
X1126232D01*
Y380767D01*
X1127432Y379567D01*
X1134629D02*
X1132230D01*
X1131031Y380767D01*
Y383166D01*
X1132230Y384365D01*
X1134629D01*
X1135829Y383166D01*
Y381966D01*
X1131031D01*
X1143027Y386765D02*
Y379567D01*
X1139428D01*
X1138228Y380767D01*
Y383166D01*
X1139428Y384365D01*
X1143027D01*
X974877Y386765D02*
X970079D01*
Y383166D01*
X972478D01*
X970079D01*
Y379567D01*
X977276D02*
X979676D01*
X978476D01*
Y384365D01*
X977276D01*
X983274Y379567D02*
Y384365D01*
X986873D01*
X988073Y383166D01*
Y379567D01*
X990472D02*
X992871D01*
X991672D01*
Y384365D01*
X990472D01*
X996470Y379567D02*
X1000069D01*
X1001269Y380767D01*
X1000069Y381966D01*
X997670D01*
X996470Y383166D01*
X997670Y384365D01*
X1001269D01*
X1003668Y386765D02*
Y379567D01*
Y383166D01*
X1004867Y384365D01*
X1007267D01*
X1008466Y383166D01*
Y379567D01*
X1014464D02*
X1012065D01*
X1010865Y380767D01*
Y383166D01*
X1012065Y384365D01*
X1014464D01*
X1015664Y383166D01*
Y381966D01*
X1010865D01*
X1022862Y386765D02*
Y379567D01*
X1019263D01*
X1018063Y380767D01*
Y383166D01*
X1019263Y384365D01*
X1022862D01*
X1032458Y386765D02*
Y379567D01*
Y383166D01*
X1037257D01*
Y386765D01*
Y379567D01*
X1040856D02*
X1043255D01*
X1044455Y380767D01*
Y383166D01*
X1043255Y384365D01*
X1040856D01*
X1039656Y383166D01*
Y380767D01*
X1040856Y379567D01*
X1046854D02*
X1049253D01*
X1048053D01*
Y386765D01*
X1046854D01*
X1056451Y379567D02*
X1054052D01*
X1052852Y380767D01*
Y383166D01*
X1054052Y384365D01*
X1056451D01*
X1057650Y383166D01*
Y381966D01*
X1052852D01*
X1072046Y385565D02*
X1070846Y386765D01*
X1068447D01*
X1067247Y385565D01*
Y384365D01*
X1068447Y383166D01*
X1070846D01*
X1072046Y381966D01*
Y380767D01*
X1070846Y379567D01*
X1068447D01*
X1067247Y380767D01*
X1074445Y379567D02*
X1076844D01*
X1075645D01*
Y384365D01*
X1074445D01*
X1080443D02*
X1085242D01*
X1080443Y379567D01*
X1085242D01*
X1091239D02*
X1088840D01*
X1087641Y380767D01*
Y383166D01*
X1088840Y384365D01*
X1091239D01*
X1092439Y383166D01*
Y381966D01*
X1087641D01*
X900297Y386765D02*
Y379567D01*
Y383166D01*
X905096D01*
Y386765D01*
Y379567D01*
X907495D02*
X909894D01*
X908695D01*
Y384365D01*
X907495D01*
X914693Y385565D02*
Y384365D01*
X913493D01*
X915892D01*
X914693D01*
Y380767D01*
X915892Y379567D01*
X931487Y385565D02*
X930288Y386765D01*
X927888D01*
X926689Y385565D01*
Y380767D01*
X927888Y379567D01*
X930288D01*
X931487Y380767D01*
X935086Y379567D02*
X937485D01*
X938685Y380767D01*
Y383166D01*
X937485Y384365D01*
X935086D01*
X933887Y383166D01*
Y380767D01*
X935086Y379567D01*
X941084Y384365D02*
Y380767D01*
X942284Y379567D01*
X945883D01*
Y384365D01*
X948282Y379567D02*
Y384365D01*
X951881D01*
X953080Y383166D01*
Y379567D01*
X956679Y385565D02*
Y384365D01*
X955480D01*
X957879D01*
X956679D01*
Y380767D01*
X957879Y379567D01*
X854508Y385565D02*
X853309Y386765D01*
X850909D01*
X849710Y385565D01*
Y384365D01*
X850909Y383166D01*
X853309D01*
X854508Y381966D01*
Y380767D01*
X853309Y379567D01*
X850909D01*
X849710Y380767D01*
X856907Y384365D02*
Y380767D01*
X858107Y379567D01*
X861706D01*
Y378367D01*
X860506Y377168D01*
X859307D01*
X861706Y379567D02*
Y384365D01*
X864105Y379567D02*
Y384365D01*
X865305D01*
X866504Y383166D01*
Y379567D01*
Y383166D01*
X867704Y384365D01*
X868904Y383166D01*
Y379567D01*
X871303Y386765D02*
Y379567D01*
X874902D01*
X876101Y380767D01*
Y381966D01*
Y383166D01*
X874902Y384365D01*
X871303D01*
X879700Y379567D02*
X882099D01*
X883299Y380767D01*
Y383166D01*
X882099Y384365D01*
X879700D01*
X878500Y383166D01*
Y380767D01*
X879700Y379567D01*
X885698D02*
X888097D01*
X886898D01*
Y386765D01*
X885698D01*
M02*
