%FSLAX25Y25*%
%MOIN*%
G70*
G01*
G75*
%ADD10C,0.01181*%
%ADD11C,0.00787*%
%ADD12C,0.01575*%
%ADD13C,0.01000*%
%ADD14C,0.01969*%
%ADD15C,0.03543*%
%ADD16C,0.01575*%
%ADD17C,0.11811*%
%ADD18C,0.15748*%
%ADD19C,0.06299*%
%ADD20C,0.04724*%
%ADD21R,0.09449X0.12598*%
%ADD22C,0.05906*%
%ADD23R,0.05906X0.05906*%
%ADD24C,0.07874*%
%ADD25C,0.02362*%
%ADD26C,0.03150*%
%ADD27C,0.05000*%
%ADD28R,0.06890X0.13386*%
%ADD29R,0.06693X0.04921*%
%ADD30R,0.04921X0.06693*%
%ADD31R,0.04803X0.03583*%
%ADD32R,0.03583X0.04803*%
%ADD33R,0.07874X0.02362*%
%ADD34O,0.07874X0.02362*%
%ADD35R,0.07874X0.21654*%
%ADD36R,0.02756X0.09843*%
%ADD37R,0.02559X0.13780*%
%ADD38R,0.04331X0.14921*%
%ADD39R,0.10630X0.11811*%
%ADD40R,0.03937X0.01181*%
%ADD41O,0.03937X0.01181*%
%ADD42R,0.06299X0.06299*%
%ADD43R,0.04331X0.06299*%
%ADD44O,0.02362X0.07874*%
%ADD45R,0.02362X0.07874*%
%ADD46R,0.13386X0.06890*%
%ADD47R,0.06575X0.06496*%
%ADD48R,0.06496X0.06575*%
%ADD49R,0.06299X0.12598*%
%ADD50R,0.33465X0.41732*%
%ADD51R,0.13386X0.03937*%
%ADD52C,0.02362*%
%ADD53C,0.11811*%
%ADD54C,0.04343*%
%ADD55C,0.02375*%
%ADD56C,0.12611*%
%ADD57C,0.16548*%
%ADD58C,0.07099*%
%ADD59C,0.05524*%
%ADD60R,0.10249X0.13398*%
%ADD61C,0.06706*%
%ADD62R,0.06706X0.06706*%
%ADD63C,0.08674*%
%ADD64C,0.03162*%
%ADD65C,0.03950*%
%ADD66C,0.05800*%
%ADD67R,0.07690X0.14186*%
%ADD68R,0.07493X0.05721*%
%ADD69R,0.05721X0.07493*%
%ADD70R,0.05603X0.04383*%
%ADD71R,0.04383X0.05603*%
%ADD72R,0.08674X0.03162*%
%ADD73O,0.08674X0.03162*%
%ADD74R,0.08674X0.22453*%
%ADD75R,0.03556X0.10642*%
%ADD76R,0.03359X0.14579*%
%ADD77R,0.05131X0.15721*%
%ADD78R,0.11430X0.12611*%
%ADD79R,0.04737X0.01981*%
%ADD80O,0.04737X0.01981*%
%ADD81R,0.07099X0.07099*%
%ADD82R,0.05131X0.07099*%
%ADD83O,0.03162X0.08674*%
%ADD84R,0.03162X0.08674*%
%ADD85R,0.14186X0.07690*%
%ADD86R,0.07375X0.07296*%
%ADD87R,0.07296X0.07375*%
%ADD88R,0.07099X0.13398*%
%ADD89R,0.34265X0.42532*%
%ADD90R,0.14186X0.04737*%
%ADD91C,0.00333*%
%ADD92C,0.01500*%
%ADD93C,0.01600*%
%ADD94C,0.00500*%
D14*
X-0Y551181D02*
X-0D01*
Y0D02*
Y551181D01*
Y0D02*
X826772D01*
Y551181D01*
X635827D02*
X826772D01*
X635827Y492126D02*
Y551181D01*
X316929Y310630D02*
X635827D01*
X316929D02*
X316929D01*
X316929D02*
Y551181D01*
X-0Y551181D02*
X316929D01*
X655512Y338583D02*
Y484252D01*
X635827Y492126D02*
X655512Y484252D01*
X635827Y310630D02*
Y330709D01*
X635827Y330709D02*
X655512Y338583D01*
D94*
X756693Y164292D02*
X759055D01*
X757874Y163110D02*
Y165473D01*
X756693Y174292D02*
X759055D01*
X757874Y173110D02*
Y175473D01*
X254725Y369173D02*
X257087D01*
X255906Y367992D02*
Y370355D01*
X254725Y359173D02*
X257087D01*
X255906Y357992D02*
Y360354D01*
X633740Y59055D02*
X636102D01*
X634921Y57874D02*
Y60236D01*
X623740Y59055D02*
X626102D01*
X624921Y57874D02*
Y60236D01*
X633740Y118110D02*
X636102D01*
X634921Y116929D02*
Y119291D01*
X623740Y118110D02*
X626102D01*
X624921Y116929D02*
Y119291D01*
X658268Y164292D02*
X660630D01*
X659449Y163110D02*
Y165473D01*
X658268Y174292D02*
X660630D01*
X659449Y173110D02*
Y175473D01*
X195669Y369173D02*
X198032D01*
X196851Y367992D02*
Y370355D01*
X195669Y359173D02*
X198032D01*
X196851Y357992D02*
Y360354D01*
X574685Y59055D02*
X577047D01*
X575866Y57874D02*
Y60236D01*
X564685Y59055D02*
X567047D01*
X565866Y57874D02*
Y60236D01*
X574685Y118110D02*
X577047D01*
X575866Y116929D02*
Y119291D01*
X564685Y118110D02*
X567047D01*
X565866Y116929D02*
Y119291D01*
X559843Y164292D02*
X562205D01*
X561024Y163110D02*
Y165473D01*
X559843Y174292D02*
X562205D01*
X561024Y173110D02*
Y175473D01*
X136614Y369173D02*
X138976D01*
X137795Y367992D02*
Y370355D01*
X136614Y359173D02*
X138976D01*
X137795Y357992D02*
Y360354D01*
X515630Y59055D02*
X517992D01*
X516811Y57874D02*
Y60236D01*
X505630Y59055D02*
X507992D01*
X506811Y57874D02*
Y60236D01*
X515630Y118110D02*
X517992D01*
X516811Y116929D02*
Y119291D01*
X505630Y118110D02*
X507992D01*
X506811Y116929D02*
Y119291D01*
X461417Y164292D02*
X463780D01*
X462599Y163110D02*
Y165473D01*
X461417Y174292D02*
X463780D01*
X462599Y173110D02*
Y175473D01*
X77559Y369173D02*
X79921D01*
X78740Y367992D02*
Y370355D01*
X77559Y359173D02*
X79921D01*
X78740Y357992D02*
Y360354D01*
X456575Y59055D02*
X458937D01*
X457756Y57874D02*
Y60236D01*
X446575Y59055D02*
X448937D01*
X447756Y57874D02*
Y60236D01*
X456575Y118110D02*
X458937D01*
X457756Y116929D02*
Y119291D01*
X446575Y118110D02*
X448937D01*
X447756Y116929D02*
Y119291D01*
X362992Y164292D02*
X365354D01*
X364173Y163110D02*
Y165473D01*
X362992Y174292D02*
X365354D01*
X364173Y173110D02*
Y175473D01*
X259724Y423229D02*
X262087D01*
X260906Y422047D02*
Y424410D01*
X249725Y423229D02*
X252087D01*
X250906Y422047D02*
Y424410D01*
X377835Y59055D02*
X380197D01*
X379016Y57874D02*
Y60236D01*
X367835Y59055D02*
X370197D01*
X369016Y57874D02*
Y60236D01*
X377835Y118110D02*
X380197D01*
X379016Y116929D02*
Y119291D01*
X367835Y118110D02*
X370197D01*
X369016Y116929D02*
Y119291D01*
X264567Y164292D02*
X266929D01*
X265748Y163110D02*
Y165473D01*
X264567Y174292D02*
X266929D01*
X265748Y173110D02*
Y175473D01*
X200669Y423229D02*
X203032D01*
X201851Y422047D02*
Y424410D01*
X190669Y423229D02*
X193032D01*
X191850Y422047D02*
Y424410D01*
X318780Y59055D02*
X321142D01*
X319961Y57874D02*
Y60236D01*
X308780Y59055D02*
X311142D01*
X309961Y57874D02*
Y60236D01*
X318780Y118110D02*
X321142D01*
X319961Y116929D02*
Y119291D01*
X308780Y118110D02*
X311142D01*
X309961Y116929D02*
Y119291D01*
X166142Y164292D02*
X168504D01*
X167323Y163110D02*
Y165473D01*
X166142Y174292D02*
X168504D01*
X167323Y173110D02*
Y175473D01*
X141614Y423229D02*
X143976D01*
X142795Y422047D02*
Y424410D01*
X131614Y423229D02*
X133976D01*
X132795Y422047D02*
Y424410D01*
X259724Y59055D02*
X262087D01*
X260906Y57874D02*
Y60236D01*
X249725Y59055D02*
X252087D01*
X250906Y57874D02*
Y60236D01*
X259724Y118110D02*
X262087D01*
X260906Y116929D02*
Y119291D01*
X249725Y118110D02*
X252087D01*
X250906Y116929D02*
Y119291D01*
X67717Y164292D02*
X70079D01*
X68898Y163110D02*
Y165473D01*
X67717Y174292D02*
X70079D01*
X68898Y173110D02*
Y175473D01*
X82559Y423229D02*
X84921D01*
X83740Y422047D02*
Y424410D01*
X72559Y423229D02*
X74921D01*
X73740Y422047D02*
Y424410D01*
X200669Y59055D02*
X203032D01*
X201851Y57874D02*
Y60236D01*
X190669Y59055D02*
X193032D01*
X191850Y57874D02*
Y60236D01*
X200669Y118110D02*
X203032D01*
X201851Y116929D02*
Y119291D01*
X190669Y118110D02*
X193032D01*
X191850Y116929D02*
Y119291D01*
X373425Y78740D02*
X374606D01*
X374016Y78150D02*
Y79331D01*
X373425Y39370D02*
X374606D01*
X374016Y38780D02*
Y39961D01*
X314370Y78740D02*
X315551D01*
X314961Y78150D02*
Y79331D01*
X314370Y39370D02*
X315551D01*
X314961Y38780D02*
Y39961D01*
X255315Y78740D02*
X256496D01*
X255906Y78150D02*
Y79331D01*
X255315Y39370D02*
X256496D01*
X255906Y38780D02*
Y39961D01*
X78150Y383858D02*
X79331D01*
X78740Y383268D02*
Y384449D01*
X78150Y344488D02*
X79331D01*
X78740Y343898D02*
Y345079D01*
X196260Y78740D02*
X197441D01*
X196850Y78150D02*
Y79331D01*
X196260Y39370D02*
X197441D01*
X196850Y38780D02*
Y39961D01*
X255315Y403543D02*
X256496D01*
X255906Y402953D02*
Y404134D01*
X255315Y442913D02*
X256496D01*
X255906Y442323D02*
Y443504D01*
X629331Y98425D02*
X630512D01*
X629921Y97835D02*
Y99016D01*
X629331Y137795D02*
X630512D01*
X629921Y137205D02*
Y138386D01*
X196260Y403543D02*
X197441D01*
X196850Y402953D02*
Y404134D01*
X196260Y442913D02*
X197441D01*
X196850Y442323D02*
Y443504D01*
X570276Y98425D02*
X571457D01*
X570866Y97835D02*
Y99016D01*
X570276Y137795D02*
X571457D01*
X570866Y137205D02*
Y138386D01*
X137205Y403543D02*
X138386D01*
X137795Y402953D02*
Y404134D01*
X137205Y442913D02*
X138386D01*
X137795Y442323D02*
Y443504D01*
X78150Y403543D02*
X79331D01*
X78740Y402953D02*
Y404134D01*
X78150Y442913D02*
X79331D01*
X78740Y442323D02*
Y443504D01*
X452165Y98425D02*
X453346D01*
X452756Y97835D02*
Y99016D01*
X452165Y137795D02*
X453346D01*
X452756Y137205D02*
Y138386D01*
X629331Y78740D02*
X630512D01*
X629921Y78150D02*
Y79331D01*
X629331Y39370D02*
X630512D01*
X629921Y38780D02*
Y39961D01*
X570276Y78740D02*
X571457D01*
X570866Y78150D02*
Y79331D01*
X570276Y39370D02*
X571457D01*
X570866Y38780D02*
Y39961D01*
X314370Y98425D02*
X315551D01*
X314961Y97835D02*
Y99016D01*
X314370Y137795D02*
X315551D01*
X314961Y137205D02*
Y138386D01*
X511221Y78740D02*
X512402D01*
X511811Y78150D02*
Y79331D01*
X511221Y39370D02*
X512402D01*
X511811Y38780D02*
Y39961D01*
X255315Y98425D02*
X256496D01*
X255906Y97835D02*
Y99016D01*
X255315Y137795D02*
X256496D01*
X255906Y137205D02*
Y138386D01*
X452165Y78740D02*
X453346D01*
X452756Y78150D02*
Y79331D01*
X452165Y39370D02*
X453346D01*
X452756Y38780D02*
Y39961D01*
X196260Y98425D02*
X197441D01*
X196850Y97835D02*
Y99016D01*
X196260Y137795D02*
X197441D01*
X196850Y137205D02*
Y138386D01*
X112205Y242126D02*
X124016D01*
X118110Y236221D02*
Y248031D01*
X594488Y139764D02*
X606299D01*
X600394Y133858D02*
Y145669D01*
X594488Y37402D02*
X606299D01*
X600394Y31496D02*
Y43307D01*
X338583Y139764D02*
X350394D01*
X344488Y133858D02*
Y145669D01*
X663386Y55118D02*
X675197D01*
X669291Y49213D02*
Y61024D01*
X602362Y157480D02*
X614173D01*
X608268Y151575D02*
Y163386D01*
X407480Y120079D02*
X419291D01*
X413386Y114173D02*
Y125984D01*
X212598Y157480D02*
X224410D01*
X218504Y151575D02*
Y163386D01*
X131890Y55118D02*
X143701D01*
X137795Y49213D02*
Y61024D01*
X102362Y444882D02*
X114173D01*
X108268Y438976D02*
Y450787D01*
X220472Y444882D02*
X232283D01*
X226378Y438976D02*
Y450787D01*
X220472Y344488D02*
X232283D01*
X226378Y338583D02*
Y350394D01*
X102362Y344488D02*
X114173D01*
X108268Y338583D02*
Y350394D01*
X476378Y139764D02*
X488189D01*
X482283Y133858D02*
Y145669D01*
X476378Y37402D02*
X488189D01*
X482283Y31496D02*
Y43307D01*
X338583Y37402D02*
X350394D01*
X344488Y31496D02*
Y43307D01*
X220472Y37402D02*
X232283D01*
X226378Y31496D02*
Y43307D01*
X220472Y139764D02*
X232283D01*
X226378Y133858D02*
Y145669D01*
X13780Y531496D02*
X25591D01*
X19685Y525591D02*
Y537402D01*
X5906Y11811D02*
X17717D01*
X11811Y5906D02*
Y17717D01*
X809055Y11811D02*
X820866D01*
X814961Y5906D02*
Y17717D01*
X809055Y539370D02*
X820866D01*
X814961Y533465D02*
Y545276D01*
X201772Y543701D02*
X207677D01*
X204724Y540748D02*
Y546654D01*
X178150Y543307D02*
X184055D01*
X181102Y540354D02*
Y546260D01*
X298228Y539370D02*
X308071D01*
X303150Y534449D02*
Y544291D01*
X298228Y283465D02*
X308071D01*
X303150Y278543D02*
Y288386D01*
X644685Y283465D02*
X654528D01*
X649606Y278543D02*
Y288386D01*
X644685Y539370D02*
X654528D01*
X649606Y534449D02*
Y544291D01*
X356410Y283417D02*
X360347D01*
X358378Y281449D02*
Y285386D01*
X366409Y283417D02*
X370346D01*
X368378Y281449D02*
Y285386D01*
X376410Y283417D02*
X380346D01*
X378378Y281449D02*
Y285386D01*
X386409Y283417D02*
X390347D01*
X388378Y281449D02*
Y285386D01*
X396410Y283417D02*
X400347D01*
X398378Y281449D02*
Y285386D01*
X406410Y283417D02*
X410347D01*
X408378Y281449D02*
Y285386D01*
X416409Y283417D02*
X420346D01*
X418378Y281449D02*
Y285386D01*
X426409Y283417D02*
X430346D01*
X428378Y281449D02*
Y285386D01*
X436410Y283417D02*
X440346D01*
X438378Y281449D02*
Y285386D01*
X446410Y283417D02*
X450347D01*
X448378Y281449D02*
Y285386D01*
X456410Y283417D02*
X460347D01*
X458378Y281449D02*
Y285386D01*
X466409Y283417D02*
X470346D01*
X468378Y281449D02*
Y285386D01*
X476409Y283417D02*
X480346D01*
X478378Y281449D02*
Y285386D01*
X486410Y283417D02*
X490346D01*
X488378Y281449D02*
Y285386D01*
X496410Y283417D02*
X500347D01*
X498378Y281449D02*
Y285386D01*
X506410Y283417D02*
X510347D01*
X508378Y281449D02*
Y285386D01*
X516409Y283417D02*
X520346D01*
X518378Y281449D02*
Y285386D01*
X526409Y283417D02*
X530346D01*
X528378Y281449D02*
Y285386D01*
X536410Y283417D02*
X540346D01*
X538378Y281449D02*
Y285386D01*
X546410Y283417D02*
X550347D01*
X548378Y281449D02*
Y285386D01*
X788189Y518898D02*
X794488D01*
X791339Y515748D02*
Y522047D01*
X691339Y518898D02*
X696063D01*
X693701Y516536D02*
Y521260D01*
X57087Y187008D02*
X61024D01*
X59055Y185039D02*
Y188977D01*
X76772Y187008D02*
X80709D01*
X78740Y185039D02*
Y188977D01*
X66929Y187008D02*
X70866D01*
X68898Y185039D02*
Y188977D01*
X40158Y216536D02*
X47244D01*
X43701Y212992D02*
Y220079D01*
X90551Y216536D02*
X97638D01*
X94095Y212992D02*
Y220079D01*
X76772Y244095D02*
X80709D01*
X78740Y242126D02*
Y246063D01*
X57087Y244095D02*
X61024D01*
X59055Y242126D02*
Y246063D01*
X792323Y13386D02*
X795866D01*
X794095Y11614D02*
Y15158D01*
X782323Y13386D02*
X785866D01*
X784094Y11614D02*
Y15158D01*
X772323Y13386D02*
X775866D01*
X774094Y11614D02*
Y15158D01*
X762323Y13386D02*
X765866D01*
X764094Y11614D02*
Y15158D01*
X752323Y13386D02*
X755866D01*
X754095Y11614D02*
Y15158D01*
X742323Y13386D02*
X745866D01*
X744095Y11614D02*
Y15158D01*
X155512Y187008D02*
X159449D01*
X157480Y185039D02*
Y188977D01*
X175197Y187008D02*
X179134D01*
X177165Y185039D02*
Y188977D01*
X165354Y187008D02*
X169291D01*
X167323Y185039D02*
Y188977D01*
X138583Y216536D02*
X145669D01*
X142126Y212992D02*
Y220079D01*
X188976Y216536D02*
X196063D01*
X192520Y212992D02*
Y220079D01*
X175197Y244095D02*
X179134D01*
X177165Y242126D02*
Y246063D01*
X155512Y244095D02*
X159449D01*
X157480Y242126D02*
Y246063D01*
X253937Y187008D02*
X257874D01*
X255906Y185039D02*
Y188977D01*
X273622Y187008D02*
X277559D01*
X275591Y185039D02*
Y188977D01*
X263780Y187008D02*
X267717D01*
X265748Y185039D02*
Y188977D01*
X237008Y216536D02*
X244095D01*
X240551Y212992D02*
Y220079D01*
X287402Y216536D02*
X294488D01*
X290945Y212992D02*
Y220079D01*
X273622Y244095D02*
X277559D01*
X275591Y242126D02*
Y246063D01*
X253937Y244095D02*
X257874D01*
X255906Y242126D02*
Y246063D01*
X352362Y187008D02*
X356299D01*
X354331Y185039D02*
Y188977D01*
X372047Y187008D02*
X375984D01*
X374016Y185039D02*
Y188977D01*
X362205Y187008D02*
X366142D01*
X364173Y185039D02*
Y188977D01*
X335433Y216536D02*
X342520D01*
X338977Y212992D02*
Y220079D01*
X385827Y216536D02*
X392913D01*
X389370Y212992D02*
Y220079D01*
X372047Y244095D02*
X375984D01*
X374016Y242126D02*
Y246063D01*
X352362Y244095D02*
X356299D01*
X354331Y242126D02*
Y246063D01*
X450787Y187008D02*
X454724D01*
X452756Y185039D02*
Y188977D01*
X470473Y187008D02*
X474410D01*
X472441Y185039D02*
Y188977D01*
X460630Y187008D02*
X464567D01*
X462599Y185039D02*
Y188977D01*
X433858Y216536D02*
X440945D01*
X437402Y212992D02*
Y220079D01*
X484252Y216536D02*
X491339D01*
X487795Y212992D02*
Y220079D01*
X470473Y244095D02*
X474410D01*
X472441Y242126D02*
Y246063D01*
X450787Y244095D02*
X454724D01*
X452756Y242126D02*
Y246063D01*
X549213Y187008D02*
X553150D01*
X551181Y185039D02*
Y188977D01*
X568898Y187008D02*
X572835D01*
X570866Y185039D02*
Y188977D01*
X559055Y187008D02*
X562992D01*
X561024Y185039D02*
Y188977D01*
X532284Y216536D02*
X539370D01*
X535827Y212992D02*
Y220079D01*
X582677Y216536D02*
X589764D01*
X586221Y212992D02*
Y220079D01*
X568898Y244095D02*
X572835D01*
X570866Y242126D02*
Y246063D01*
X549213Y244095D02*
X553150D01*
X551181Y242126D02*
Y246063D01*
X647638Y187008D02*
X651575D01*
X649606Y185039D02*
Y188977D01*
X667323Y187008D02*
X671260D01*
X669291Y185039D02*
Y188977D01*
X657480Y187008D02*
X661417D01*
X659449Y185039D02*
Y188977D01*
X630709Y216536D02*
X637795D01*
X634252Y212992D02*
Y220079D01*
X681102Y216536D02*
X688189D01*
X684646Y212992D02*
Y220079D01*
X667323Y244095D02*
X671260D01*
X669291Y242126D02*
Y246063D01*
X647638Y244095D02*
X651575D01*
X649606Y242126D02*
Y246063D01*
X746063Y187008D02*
X750000D01*
X748032Y185039D02*
Y188977D01*
X765748Y187008D02*
X769685D01*
X767717Y185039D02*
Y188977D01*
X755906Y187008D02*
X759843D01*
X757874Y185039D02*
Y188977D01*
X729134Y216536D02*
X736221D01*
X732677Y212992D02*
Y220079D01*
X779528Y216536D02*
X786614D01*
X783071Y212992D02*
Y220079D01*
X765748Y244095D02*
X769685D01*
X767717Y242126D02*
Y246063D01*
X746063Y244095D02*
X750000D01*
X748032Y242126D02*
Y246063D01*
X710630Y364173D02*
X714567D01*
X712599Y362205D02*
Y366142D01*
X730315Y364173D02*
X734252D01*
X732283Y362205D02*
Y366142D01*
X720473Y364173D02*
X724410D01*
X722441Y362205D02*
Y366142D01*
X693701Y393701D02*
X700787D01*
X697244Y390158D02*
Y397244D01*
X744095Y393701D02*
X751181D01*
X747638Y390158D02*
Y397244D01*
X730315Y421260D02*
X734252D01*
X732283Y419291D02*
Y423229D01*
X710630Y421260D02*
X714567D01*
X712599Y419291D02*
Y423229D01*
X788189Y378898D02*
X792126D01*
X790158Y376929D02*
Y380866D01*
X788189Y368898D02*
X792126D01*
X790158Y366929D02*
Y370866D01*
X788189Y358898D02*
X792126D01*
X790158Y356929D02*
Y360866D01*
X788189Y339528D02*
X792126D01*
X790158Y337559D02*
Y341496D01*
X788189Y329528D02*
X792126D01*
X790158Y327559D02*
Y331496D01*
X788189Y319528D02*
X792126D01*
X790158Y317559D02*
Y321496D01*
X373425Y98819D02*
X374606D01*
X374016Y98228D02*
Y99410D01*
X373425Y138189D02*
X374606D01*
X374016Y137598D02*
Y138779D01*
X511221Y98425D02*
X512402D01*
X511811Y97835D02*
Y99016D01*
X511221Y137795D02*
X512402D01*
X511811Y137205D02*
Y138386D01*
X137205Y383858D02*
X138386D01*
X137795Y383268D02*
Y384449D01*
X137205Y344488D02*
X138386D01*
X137795Y343898D02*
Y345079D01*
X196260Y383858D02*
X197441D01*
X196850Y383268D02*
Y384449D01*
X196260Y344488D02*
X197441D01*
X196850Y343898D02*
Y345079D01*
X255315Y383858D02*
X256496D01*
X255906Y383268D02*
Y384449D01*
X255315Y344488D02*
X256496D01*
X255906Y343898D02*
Y345079D01*
X691142Y135039D02*
X692323D01*
X691732Y134449D02*
Y135630D01*
X697047Y122441D02*
X698228D01*
X697638Y121850D02*
Y123031D01*
X674606Y109843D02*
X675787D01*
X675197Y109252D02*
Y110433D01*
X80905Y144095D02*
X82087D01*
X81496Y143504D02*
Y144685D01*
X679331Y462992D02*
X680512D01*
X679921Y462402D02*
Y463583D01*
X746654Y275984D02*
X747835D01*
X747244Y275394D02*
Y276575D01*
X681693Y275984D02*
X682874D01*
X682283Y275394D02*
Y276575D01*
X663583Y275984D02*
X664764D01*
X664173Y275394D02*
Y276575D01*
X633169Y256792D02*
X634350D01*
X633760Y256201D02*
Y257382D01*
X17520Y331890D02*
X18701D01*
X18110Y331299D02*
Y332480D01*
X115157Y531890D02*
X117126D01*
X116142Y530905D02*
Y532874D01*
X674606Y122441D02*
X675787D01*
X675197Y121851D02*
Y123032D01*
X419095Y112205D02*
X420276D01*
X419685Y111614D02*
Y112795D01*
X426575Y137795D02*
X427756D01*
X427165Y137205D02*
Y138386D01*
X47047Y391732D02*
X48228D01*
X47638Y391142D02*
Y392323D01*
X496654Y139764D02*
X497835D01*
X497244Y139173D02*
Y140354D01*
X357677Y139764D02*
X358858D01*
X358268Y139173D02*
Y140354D01*
X215945Y139764D02*
X217126D01*
X216535Y139173D02*
Y140354D01*
X162795Y37402D02*
X163976D01*
X163386Y36811D02*
Y37992D01*
X215945Y37402D02*
X217126D01*
X216535Y36811D02*
Y37992D01*
X280906Y37402D02*
X282087D01*
X281496Y36811D02*
Y37992D01*
X334055Y37402D02*
X335236D01*
X334646Y36811D02*
Y37992D01*
X471850Y37402D02*
X473032D01*
X472441Y36811D02*
Y37992D01*
X413189Y37402D02*
X414370D01*
X413779Y36811D02*
Y37992D01*
X589961Y37402D02*
X591142D01*
X590551Y36811D02*
Y37992D01*
X14764Y137402D02*
X15945D01*
X15354Y136811D02*
Y137992D01*
X131299Y106103D02*
X132480D01*
X131890Y105512D02*
Y106693D01*
X82874Y107481D02*
X84055D01*
X83465Y106890D02*
Y108071D01*
X723032Y108268D02*
X724213D01*
X723622Y107677D02*
Y108859D01*
X662402Y111024D02*
X663583D01*
X662992Y110433D02*
Y111614D01*
X662402Y13386D02*
X663583D01*
X662992Y12796D02*
Y13977D01*
X536811Y137795D02*
X537992D01*
X537402Y137205D02*
Y138386D01*
X536713Y118012D02*
X537894D01*
X537303Y117421D02*
Y118603D01*
X478051Y118012D02*
X479233D01*
X478642Y117421D02*
Y118603D01*
X340256Y118012D02*
X341437D01*
X340846Y117421D02*
Y118603D01*
X280807Y137697D02*
X281988D01*
X281398Y137106D02*
Y138288D01*
X280807Y118110D02*
X281988D01*
X281398Y117520D02*
Y118701D01*
X222244Y118110D02*
X223425D01*
X222835Y117520D02*
Y118701D01*
X138780Y150788D02*
X139961D01*
X139370Y150197D02*
Y151378D01*
X141535Y141733D02*
X142717D01*
X142126Y141142D02*
Y142323D01*
X144291Y72835D02*
X145473D01*
X144882Y72244D02*
Y73425D01*
X147441Y147638D02*
X148622D01*
X148032Y147047D02*
Y148229D01*
X144291Y155906D02*
X145473D01*
X144882Y155315D02*
Y156496D01*
X105315Y65748D02*
X106496D01*
X105906Y65158D02*
Y66339D01*
X147441Y85433D02*
X148622D01*
X148032Y84843D02*
Y86024D01*
X155709Y65748D02*
X156890D01*
X156299Y65158D02*
Y66339D01*
X591929Y93701D02*
X593110D01*
X592520Y93110D02*
Y94292D01*
X68701Y21260D02*
X69882D01*
X69291Y20670D02*
Y21851D01*
X91929Y21260D02*
X93110D01*
X92520Y20670D02*
Y21851D01*
X765158Y83465D02*
X766339D01*
X765748Y82874D02*
Y84055D01*
X765158Y108268D02*
X766339D01*
X765748Y107677D02*
Y108859D01*
X780906Y108268D02*
X782087D01*
X781496Y107677D02*
Y108859D01*
X780906Y94488D02*
X782087D01*
X781496Y93898D02*
Y95079D01*
X780906Y56693D02*
X782087D01*
X781496Y56103D02*
Y57284D01*
X780906Y43307D02*
X782087D01*
X781496Y42717D02*
Y43898D01*
X765158Y43307D02*
X766339D01*
X765748Y42717D02*
Y43898D01*
X765158Y68898D02*
X766339D01*
X765748Y68307D02*
Y69488D01*
X706102Y497244D02*
X707283D01*
X706693Y496654D02*
Y497835D01*
X65551Y204725D02*
X66732D01*
X66142Y204134D02*
Y205315D01*
X65551Y231890D02*
X66732D01*
X66142Y231299D02*
Y232481D01*
X73425Y228347D02*
X74606D01*
X74016Y227756D02*
Y228937D01*
X10827Y204725D02*
X12008D01*
X11417Y204134D02*
Y205315D01*
X773032Y165355D02*
X774213D01*
X773622Y164764D02*
Y165945D01*
X104528Y25197D02*
X105709D01*
X105118Y24607D02*
Y25788D01*
X96654Y29134D02*
X97835D01*
X97244Y28543D02*
Y29725D01*
X52559Y299213D02*
X53740D01*
X53150Y298622D02*
Y299803D01*
X84055Y299213D02*
X85236D01*
X84646Y298622D02*
Y299803D01*
X119488Y312992D02*
X120669D01*
X120079Y312402D02*
Y313583D01*
X36811Y293701D02*
X37992D01*
X37402Y293110D02*
Y294291D01*
X36811Y245670D02*
X37992D01*
X37402Y245079D02*
Y246260D01*
X36811Y250000D02*
X37992D01*
X37402Y249410D02*
Y250591D01*
X36811Y253937D02*
X37992D01*
X37402Y253347D02*
Y254528D01*
X36811Y257874D02*
X37992D01*
X37402Y257284D02*
Y258465D01*
X36811Y277559D02*
X37992D01*
X37402Y276969D02*
Y278150D01*
X36811Y261811D02*
X37992D01*
X37402Y261221D02*
Y262402D01*
X36811Y269685D02*
X37992D01*
X37402Y269095D02*
Y270276D01*
X36811Y265748D02*
X37992D01*
X37402Y265158D02*
Y266339D01*
X82087Y37008D02*
X83268D01*
X82677Y36417D02*
Y37599D01*
X76181Y61024D02*
X77362D01*
X76772Y60433D02*
Y61614D01*
X74213Y55906D02*
X75394D01*
X74803Y55315D02*
Y56496D01*
X72244Y50788D02*
X73425D01*
X72835Y50197D02*
Y51378D01*
X70276Y46063D02*
X71457D01*
X70866Y45473D02*
Y46654D01*
X68307Y40945D02*
X69488D01*
X68898Y40354D02*
Y41536D01*
X73425Y221654D02*
X74606D01*
X74016Y221063D02*
Y222244D01*
X36811Y281496D02*
X37992D01*
X37402Y280906D02*
Y282087D01*
X36811Y285433D02*
X37992D01*
X37402Y284843D02*
Y286024D01*
X36811Y289370D02*
X37992D01*
X37402Y288780D02*
Y289961D01*
X62008Y75984D02*
X63189D01*
X62599Y75394D02*
Y76575D01*
X62008Y80709D02*
X63189D01*
X62599Y80118D02*
Y81299D01*
X10827Y111417D02*
X12008D01*
X11417Y110827D02*
Y112008D01*
X25000Y496457D02*
X26181D01*
X25591Y495866D02*
Y497047D01*
X6890Y105906D02*
X8071D01*
X7480Y105315D02*
Y106496D01*
X88386Y33071D02*
X89567D01*
X88976Y32480D02*
Y33662D01*
X780095Y163386D02*
X782895D01*
X781495Y161986D02*
Y164786D01*
X294685Y496851D02*
X295866D01*
X295276Y496260D02*
Y497441D01*
X294685Y312205D02*
X295866D01*
X295276Y311614D02*
Y312795D01*
X78543Y282284D02*
X79725D01*
X79134Y281693D02*
Y282874D01*
X179725Y312992D02*
X180906D01*
X180315Y312402D02*
Y313583D01*
X170669Y314961D02*
X171851D01*
X171260Y314370D02*
Y315551D01*
X116710Y172047D02*
X119510D01*
X118110Y170647D02*
Y173447D01*
X61575Y40906D02*
X62756D01*
X62165Y40315D02*
Y41496D01*
X61850Y65906D02*
X63032D01*
X62441Y65315D02*
Y66496D01*
X147441Y112205D02*
X148622D01*
X148032Y111615D02*
Y112796D01*
X218425Y319016D02*
X219606D01*
X219016Y318425D02*
Y319607D01*
X213425Y319134D02*
X214606D01*
X214016Y318544D02*
Y319725D01*
X208425Y318937D02*
X209607D01*
X209016Y318347D02*
Y319528D01*
X97835Y70866D02*
X99016D01*
X98425Y70276D02*
Y71457D01*
X62008Y50788D02*
X63189D01*
X62599Y50197D02*
Y51378D01*
X162697Y59154D02*
X163878D01*
X163287Y58563D02*
Y59744D01*
X61772Y45906D02*
X62953D01*
X62362Y45315D02*
Y46496D01*
X62008Y55906D02*
X63189D01*
X62598Y55315D02*
Y56496D01*
X62008Y61024D02*
X63189D01*
X62599Y60433D02*
Y61614D01*
X150591Y136221D02*
X151772D01*
X151181Y135630D02*
Y136811D01*
X228425Y283465D02*
X229607D01*
X229016Y282874D02*
Y284055D01*
X70394Y319016D02*
X71575D01*
X70984Y318425D02*
Y319606D01*
X65394Y318898D02*
X66575D01*
X65984Y318307D02*
Y319488D01*
X60394Y318937D02*
X61575D01*
X60984Y318347D02*
Y319528D01*
X340256Y59154D02*
X341437D01*
X340846Y58563D02*
Y59744D01*
X280807Y59154D02*
X281988D01*
X281398Y58563D02*
Y59744D01*
X222146Y59154D02*
X223327D01*
X222736Y58563D02*
Y59744D01*
X171851Y221654D02*
X173032D01*
X172441Y221063D02*
Y222244D01*
X270276Y221654D02*
X271457D01*
X270866Y221063D02*
Y222244D01*
X368701Y221654D02*
X369882D01*
X369291Y221063D02*
Y222244D01*
X467126Y221654D02*
X468307D01*
X467717Y221063D02*
Y222244D01*
X565551Y221260D02*
X566732D01*
X566142Y220670D02*
Y221851D01*
X663976Y221654D02*
X665158D01*
X664567Y221063D02*
Y222244D01*
X762402Y221260D02*
X763583D01*
X762992Y220670D02*
Y221851D01*
X540748Y35433D02*
X541929D01*
X541339Y34843D02*
Y36024D01*
X601772Y59055D02*
X602953D01*
X602362Y58465D02*
Y59646D01*
X540748Y59055D02*
X541929D01*
X541339Y58465D02*
Y59646D01*
X479724Y59055D02*
X480905D01*
X480315Y58465D02*
Y59646D01*
X413189Y59055D02*
X414370D01*
X413779Y58465D02*
Y59646D01*
X771063Y541339D02*
X772244D01*
X771654Y540748D02*
Y541929D01*
X702165Y541339D02*
X703346D01*
X702756Y540748D02*
Y541929D01*
X184449Y458957D02*
X185630D01*
X185039Y458366D02*
Y459547D01*
X135236Y457480D02*
X136417D01*
X135827Y456890D02*
Y458071D01*
X123425Y524016D02*
X124606D01*
X124016Y523425D02*
Y524607D01*
X115551Y496457D02*
X116732D01*
X116142Y495866D02*
Y497047D01*
X696654Y292126D02*
X697835D01*
X697244Y291536D02*
Y292717D01*
X84055Y165355D02*
X85236D01*
X84646Y164764D02*
Y165945D01*
X52559Y165355D02*
X53740D01*
X53150Y164764D02*
Y165945D01*
X150984Y165355D02*
X152165D01*
X151575Y164764D02*
Y165945D01*
X182480Y165355D02*
X183661D01*
X183071Y164764D02*
Y165945D01*
X280906Y165355D02*
X282087D01*
X281496Y164764D02*
Y165945D01*
X347835Y165355D02*
X349016D01*
X348425Y164764D02*
Y165945D01*
X379331Y165355D02*
X380512D01*
X379921Y164764D02*
Y165945D01*
X446260Y165355D02*
X447441D01*
X446850Y164764D02*
Y165945D01*
X477756Y165355D02*
X478937D01*
X478346Y164764D02*
Y165945D01*
X544685Y165355D02*
X545866D01*
X545276Y164764D02*
Y165945D01*
X576181Y165355D02*
X577362D01*
X576772Y164764D02*
Y165945D01*
X643110Y165355D02*
X644291D01*
X643701Y164764D02*
Y165945D01*
X674606Y165355D02*
X675787D01*
X675197Y164764D02*
Y165945D01*
X741536Y165355D02*
X742717D01*
X742126Y164764D02*
Y165945D01*
X215136Y172343D02*
X217935D01*
X216535Y170943D02*
Y173743D01*
X313561Y172441D02*
X316361D01*
X314961Y171041D02*
Y173841D01*
X411986Y172343D02*
X414786D01*
X413386Y170943D02*
Y173743D01*
X510411Y172343D02*
X513211D01*
X511811Y170943D02*
Y173743D01*
X608836Y172441D02*
X611636D01*
X610236Y171041D02*
Y173841D01*
X709230Y172343D02*
X712030D01*
X710630Y170943D02*
Y173743D01*
X249410Y165355D02*
X250591D01*
X250000Y164764D02*
Y165945D01*
X202559Y271654D02*
X203740D01*
X203150Y271063D02*
Y272244D01*
X193110Y273622D02*
X194291D01*
X193701Y273032D02*
Y274213D01*
X212008Y269685D02*
X213189D01*
X212598Y269095D02*
Y270276D01*
X183661Y275591D02*
X184843D01*
X184252Y275000D02*
Y276181D01*
X174213Y277559D02*
X175394D01*
X174803Y276969D02*
Y278150D01*
X164370Y279528D02*
X165551D01*
X164961Y278937D02*
Y280118D01*
X154528Y281496D02*
X155709D01*
X155118Y280906D02*
Y282087D01*
X159252Y318898D02*
X160433D01*
X159843Y318307D02*
Y319488D01*
X157677Y312992D02*
X158858D01*
X158268Y312402D02*
Y313583D01*
X148228Y314961D02*
X149409D01*
X148819Y314370D02*
Y315551D01*
X144685Y311024D02*
X145866D01*
X145276Y310433D02*
Y311614D01*
X131299Y316929D02*
X132480D01*
X131890Y316339D02*
Y317520D01*
X129331Y311024D02*
X130512D01*
X129921Y310433D02*
Y311614D01*
X43876Y163386D02*
X46676D01*
X45276Y161986D02*
Y164786D01*
X804921Y75985D02*
X806102D01*
X805512Y75394D02*
Y76575D01*
X735630Y149607D02*
X736811D01*
X736221Y149016D02*
Y150197D01*
X715945Y141733D02*
X717126D01*
X716536Y141142D02*
Y142323D01*
X719882Y130315D02*
X721063D01*
X720472Y129725D02*
Y130906D01*
X715945Y128347D02*
X717126D01*
X716536Y127756D02*
Y128937D01*
X727756Y145669D02*
X728937D01*
X728346Y145079D02*
Y146260D01*
X719882Y139764D02*
X721063D01*
X720472Y139173D02*
Y140355D01*
X731693Y147638D02*
X732874D01*
X732283Y147047D02*
Y148229D01*
X715945Y124016D02*
X717126D01*
X716536Y123425D02*
Y124607D01*
X715945Y145669D02*
X717126D01*
X716536Y145079D02*
Y146260D01*
X727756Y123885D02*
X728937D01*
X728346Y123294D02*
Y124475D01*
X723819Y143701D02*
X725000D01*
X724409Y143110D02*
Y144291D01*
X723819Y125984D02*
X725000D01*
X724409Y125394D02*
Y126575D01*
X731693Y121785D02*
X732874D01*
X732283Y121194D02*
Y122376D01*
X735630Y119685D02*
X736811D01*
X736221Y119095D02*
Y120276D01*
X712008Y108268D02*
X713189D01*
X712599Y107677D02*
Y108859D01*
X755709Y316536D02*
X756890D01*
X756299Y315945D02*
Y317126D01*
X755709Y307874D02*
X756890D01*
X756299Y307284D02*
Y308465D01*
X769095Y490551D02*
X770276D01*
X769685Y489961D02*
Y491142D01*
X700197Y462992D02*
X701378D01*
X700787Y462402D02*
Y463583D01*
X721850Y349606D02*
X723032D01*
X722441Y349016D02*
Y350197D01*
X760039Y488189D02*
X761221D01*
X760630Y487599D02*
Y488780D01*
X734449Y492126D02*
X735630D01*
X735039Y491536D02*
Y492717D01*
X714764Y484252D02*
X715945D01*
X715354Y483662D02*
Y484843D01*
X711221Y326477D02*
X712402D01*
X711811Y325886D02*
Y327067D01*
X714665Y39961D02*
X715846D01*
X715256Y39370D02*
Y40551D01*
X674606Y97244D02*
X675787D01*
X675197Y96654D02*
Y97835D01*
X759646Y306299D02*
X760827D01*
X760236Y305709D02*
Y306890D01*
X763189Y304725D02*
X764370D01*
X763780Y304134D02*
Y305315D01*
X763189Y298032D02*
X764370D01*
X763780Y297441D02*
Y298622D01*
X759646Y318110D02*
X760827D01*
X760236Y317520D02*
Y318701D01*
X201378Y85335D02*
X202559D01*
X201969Y84744D02*
Y85925D01*
X281299Y82677D02*
X282480D01*
X281890Y82087D02*
Y83268D01*
X418996Y85335D02*
X420177D01*
X419587Y84744D02*
Y85925D01*
X478150Y87402D02*
X479331D01*
X478740Y86811D02*
Y87992D01*
X378543Y93701D02*
X379725D01*
X379134Y93110D02*
Y94292D01*
X260433Y88189D02*
X261614D01*
X261024Y87599D02*
Y88780D01*
X319488Y90945D02*
X320669D01*
X320079Y90355D02*
Y91536D01*
X536811Y90945D02*
X537992D01*
X537402Y90355D02*
Y91536D01*
X6890Y64961D02*
X8071D01*
X7480Y64370D02*
Y65551D01*
X18307Y64961D02*
X19488D01*
X18898Y64370D02*
Y65551D01*
X741536Y326772D02*
X742717D01*
X742126Y326181D02*
Y327362D01*
X223425Y301181D02*
X224606D01*
X224016Y300591D02*
Y301772D01*
X205315Y302756D02*
X206496D01*
X205906Y302166D02*
Y303347D01*
X200984Y302756D02*
X202165D01*
X201575Y302166D02*
Y303347D01*
X204921Y307087D02*
X206102D01*
X205512Y306496D02*
Y307677D01*
X200984Y298819D02*
X202165D01*
X201575Y298229D02*
Y299410D01*
X751772Y314961D02*
X752953D01*
X752362Y314370D02*
Y315551D01*
X736024Y88504D02*
X737205D01*
X736614Y87914D02*
Y89095D01*
X736024Y93504D02*
X737205D01*
X736614Y92914D02*
Y94095D01*
X724016Y93504D02*
X725197D01*
X724607Y92914D02*
Y94095D01*
X721850Y88504D02*
X723032D01*
X722441Y87914D02*
Y89095D01*
X753307Y83504D02*
X754488D01*
X753898Y82914D02*
Y84095D01*
X696378Y73504D02*
X697559D01*
X696969Y72914D02*
Y74095D01*
X712008Y113386D02*
X713189D01*
X712599Y112795D02*
Y113977D01*
X704921Y385433D02*
X706102D01*
X705512Y384842D02*
Y386024D01*
X697441Y369291D02*
X698622D01*
X698032Y368701D02*
Y369882D01*
X746654Y369291D02*
X747835D01*
X747244Y368701D02*
Y369882D01*
X750197Y118504D02*
X751378D01*
X750787Y117913D02*
Y119095D01*
X763189Y316535D02*
X764370D01*
X763779Y315945D02*
Y317126D01*
M02*
