%FSLAX25Y25*%
%MOIN*%
G70*
G01*
G75*
G04 Layer_Color=8388736*
%ADD10C,0.01181*%
%ADD11C,0.00787*%
%ADD12C,0.01575*%
%ADD13C,0.01000*%
%ADD14C,0.01969*%
%ADD15C,0.03543*%
%ADD16C,0.01575*%
%ADD17C,0.11811*%
%ADD18C,0.15748*%
%ADD19C,0.06299*%
%ADD20C,0.04724*%
%ADD21R,0.09449X0.12598*%
%ADD22C,0.05906*%
%ADD23R,0.05906X0.05906*%
%ADD24C,0.07874*%
%ADD25C,0.02362*%
%ADD26C,0.03150*%
%ADD27C,0.05000*%
%ADD28R,0.06890X0.13386*%
%ADD29R,0.06693X0.04921*%
%ADD30R,0.04921X0.06693*%
%ADD31R,0.04803X0.03583*%
%ADD32R,0.03583X0.04803*%
%ADD33R,0.07874X0.02362*%
%ADD34O,0.07874X0.02362*%
%ADD35R,0.07874X0.21654*%
%ADD36R,0.02756X0.09843*%
%ADD37R,0.02559X0.13780*%
%ADD38R,0.04331X0.14921*%
%ADD39R,0.10630X0.11811*%
%ADD40R,0.03937X0.01181*%
%ADD41O,0.03937X0.01181*%
%ADD42R,0.06299X0.06299*%
%ADD43R,0.04331X0.06299*%
%ADD44O,0.02362X0.07874*%
%ADD45R,0.02362X0.07874*%
%ADD46R,0.13386X0.06890*%
%ADD47R,0.06575X0.06496*%
%ADD48R,0.06496X0.06575*%
%ADD49R,0.06299X0.12598*%
%ADD50R,0.33465X0.41732*%
%ADD51R,0.13386X0.03937*%
%ADD52C,0.02362*%
%ADD53C,0.11811*%
%ADD54C,0.04343*%
%ADD55C,0.02375*%
%ADD56C,0.12611*%
%ADD57C,0.16548*%
%ADD58C,0.07099*%
%ADD59C,0.05524*%
%ADD60R,0.10249X0.13398*%
%ADD61C,0.06706*%
%ADD62R,0.06706X0.06706*%
%ADD63C,0.08674*%
%ADD64C,0.03162*%
%ADD65C,0.03950*%
%ADD66C,0.05800*%
D14*
X-0Y551181D02*
X-0D01*
Y0D02*
Y551181D01*
Y0D02*
X826772D01*
Y551181D01*
X635827D02*
X826772D01*
X635827Y492126D02*
Y551181D01*
X316929Y310630D02*
X635827D01*
X316929D02*
X316929D01*
X316929D02*
Y551181D01*
X-0Y551181D02*
X316929D01*
X655512Y338583D02*
Y484252D01*
X635827Y492126D02*
X655512Y484252D01*
X635827Y310630D02*
Y330709D01*
X635827Y330709D02*
X655512Y338583D01*
D53*
X388189Y59055D02*
G03*
X388189Y59055I-14173J0D01*
G01*
X329134D02*
G03*
X329134Y59055I-14173J0D01*
G01*
X270079D02*
G03*
X270079Y59055I-14173J0D01*
G01*
X92913Y364173D02*
G03*
X92913Y364173I-14173J0D01*
G01*
X211024Y59055D02*
G03*
X211024Y59055I-14173J0D01*
G01*
X270079Y423228D02*
G03*
X270079Y423228I-14173J0D01*
G01*
X644095Y118110D02*
G03*
X644095Y118110I-14173J0D01*
G01*
X211024Y423228D02*
G03*
X211024Y423228I-14173J0D01*
G01*
X585039Y118110D02*
G03*
X585039Y118110I-14173J0D01*
G01*
X151969Y423228D02*
G03*
X151969Y423228I-14173J0D01*
G01*
X92913D02*
G03*
X92913Y423228I-14173J0D01*
G01*
X466929Y118110D02*
G03*
X466929Y118110I-14173J0D01*
G01*
X644095Y59055D02*
G03*
X644095Y59055I-14173J0D01*
G01*
X585039D02*
G03*
X585039Y59055I-14173J0D01*
G01*
X329134Y118110D02*
G03*
X329134Y118110I-14173J0D01*
G01*
X525984Y59055D02*
G03*
X525984Y59055I-14173J0D01*
G01*
X270079Y118110D02*
G03*
X270079Y118110I-14173J0D01*
G01*
X466929Y59055D02*
G03*
X466929Y59055I-14173J0D01*
G01*
X211024Y118110D02*
G03*
X211024Y118110I-14173J0D01*
G01*
X388189Y118504D02*
G03*
X388189Y118504I-14173J0D01*
G01*
X525984Y118110D02*
G03*
X525984Y118110I-14173J0D01*
G01*
X151969Y364173D02*
G03*
X151969Y364173I-14173J0D01*
G01*
X211024D02*
G03*
X211024Y364173I-14173J0D01*
G01*
X270079D02*
G03*
X270079Y364173I-14173J0D01*
G01*
D54*
X757874Y164292D02*
D03*
Y174292D02*
D03*
X255906Y369173D02*
D03*
Y359173D02*
D03*
X634921Y59055D02*
D03*
X624921D02*
D03*
X634921Y118110D02*
D03*
X624921D02*
D03*
X659449Y164292D02*
D03*
Y174292D02*
D03*
X196851Y369173D02*
D03*
Y359173D02*
D03*
X575866Y59055D02*
D03*
X565866D02*
D03*
X575866Y118110D02*
D03*
X565866D02*
D03*
X561024Y164292D02*
D03*
Y174292D02*
D03*
X137795Y369173D02*
D03*
Y359173D02*
D03*
X516811Y59055D02*
D03*
X506811D02*
D03*
X516811Y118110D02*
D03*
X506811D02*
D03*
X462599Y164292D02*
D03*
Y174292D02*
D03*
X78740Y369173D02*
D03*
Y359173D02*
D03*
X457756Y59055D02*
D03*
X447756D02*
D03*
X457756Y118110D02*
D03*
X447756D02*
D03*
X364173Y164292D02*
D03*
Y174292D02*
D03*
X260906Y423229D02*
D03*
X250906D02*
D03*
X379016Y59055D02*
D03*
X369016D02*
D03*
X379016Y118110D02*
D03*
X369016D02*
D03*
X265748Y164292D02*
D03*
Y174292D02*
D03*
X201851Y423229D02*
D03*
X191850D02*
D03*
X319961Y59055D02*
D03*
X309961D02*
D03*
X319961Y118110D02*
D03*
X309961D02*
D03*
X167323Y164292D02*
D03*
Y174292D02*
D03*
X142795Y423229D02*
D03*
X132795D02*
D03*
X260906Y59055D02*
D03*
X250906D02*
D03*
X260906Y118110D02*
D03*
X250906D02*
D03*
X68898Y164292D02*
D03*
Y174292D02*
D03*
X83740Y423229D02*
D03*
X73740D02*
D03*
X201851Y59055D02*
D03*
X191850D02*
D03*
X201851Y118110D02*
D03*
X191850D02*
D03*
D55*
X374016Y78740D02*
D03*
Y39370D02*
D03*
X314961Y78740D02*
D03*
Y39370D02*
D03*
X255906Y78740D02*
D03*
Y39370D02*
D03*
X78740Y383858D02*
D03*
Y344488D02*
D03*
X196850Y78740D02*
D03*
Y39370D02*
D03*
X255906Y403543D02*
D03*
Y442913D02*
D03*
X629921Y98425D02*
D03*
Y137795D02*
D03*
X196850Y403543D02*
D03*
Y442913D02*
D03*
X570866Y98425D02*
D03*
Y137795D02*
D03*
X137795Y403543D02*
D03*
Y442913D02*
D03*
X78740Y403543D02*
D03*
Y442913D02*
D03*
X452756Y98425D02*
D03*
Y137795D02*
D03*
X629921Y78740D02*
D03*
Y39370D02*
D03*
X570866Y78740D02*
D03*
Y39370D02*
D03*
X314961Y98425D02*
D03*
Y137795D02*
D03*
X511811Y78740D02*
D03*
Y39370D02*
D03*
X255906Y98425D02*
D03*
Y137795D02*
D03*
X452756Y78740D02*
D03*
Y39370D02*
D03*
X196850Y98425D02*
D03*
Y137795D02*
D03*
X374016Y98819D02*
D03*
Y138189D02*
D03*
X511811Y98425D02*
D03*
Y137795D02*
D03*
X137795Y383858D02*
D03*
Y344488D02*
D03*
X196850Y383858D02*
D03*
Y344488D02*
D03*
X255906Y383858D02*
D03*
Y344488D02*
D03*
D56*
X118110Y242126D02*
D03*
X600394Y139764D02*
D03*
Y37402D02*
D03*
X344488Y139764D02*
D03*
X669291Y55118D02*
D03*
X608268Y157480D02*
D03*
X413386Y120079D02*
D03*
X218504Y157480D02*
D03*
X137795Y55118D02*
D03*
X108268Y444882D02*
D03*
X226378D02*
D03*
Y344488D02*
D03*
X108268D02*
D03*
X482283Y139764D02*
D03*
Y37402D02*
D03*
X344488D02*
D03*
X226378D02*
D03*
Y139764D02*
D03*
X19685Y531496D02*
D03*
X11811Y11811D02*
D03*
X814961D02*
D03*
Y539370D02*
D03*
X204724Y543701D02*
D03*
X181102Y543307D02*
D03*
D57*
X303150Y539370D02*
D03*
Y283465D02*
D03*
X649606D02*
D03*
Y539370D02*
D03*
D58*
X358378Y283417D02*
D03*
X368378D02*
D03*
X378378D02*
D03*
X388378D02*
D03*
X398378D02*
D03*
X408378D02*
D03*
X418378D02*
D03*
X428378D02*
D03*
X438378D02*
D03*
X448378D02*
D03*
X458378D02*
D03*
X468378D02*
D03*
X478378D02*
D03*
X488378D02*
D03*
X498378D02*
D03*
X508378D02*
D03*
X518378D02*
D03*
X528378D02*
D03*
X538378D02*
D03*
X548378D02*
D03*
X791339Y518898D02*
D03*
X59055Y187008D02*
D03*
X78740D02*
D03*
X68898D02*
D03*
X78740Y244095D02*
D03*
X59055D02*
D03*
X157480Y187008D02*
D03*
X177165D02*
D03*
X167323D02*
D03*
X177165Y244095D02*
D03*
X157480D02*
D03*
X255906Y187008D02*
D03*
X275591D02*
D03*
X265748D02*
D03*
X275591Y244095D02*
D03*
X255906D02*
D03*
X354331Y187008D02*
D03*
X374016D02*
D03*
X364173D02*
D03*
X374016Y244095D02*
D03*
X354331D02*
D03*
X452756Y187008D02*
D03*
X472441D02*
D03*
X462599D02*
D03*
X472441Y244095D02*
D03*
X452756D02*
D03*
X551181Y187008D02*
D03*
X570866D02*
D03*
X561024D02*
D03*
X570866Y244095D02*
D03*
X551181D02*
D03*
X649606Y187008D02*
D03*
X669291D02*
D03*
X659449D02*
D03*
X669291Y244095D02*
D03*
X649606D02*
D03*
X748032Y187008D02*
D03*
X767717D02*
D03*
X757874D02*
D03*
X767717Y244095D02*
D03*
X748032D02*
D03*
X712599Y364173D02*
D03*
X732283D02*
D03*
X722441D02*
D03*
X732283Y421260D02*
D03*
X712599D02*
D03*
D59*
X693701Y518898D02*
D03*
D60*
X43701Y216536D02*
D03*
X94095D02*
D03*
X142126D02*
D03*
X192520D02*
D03*
X240551D02*
D03*
X290945D02*
D03*
X338977D02*
D03*
X389370D02*
D03*
X437402D02*
D03*
X487795D02*
D03*
X535827D02*
D03*
X586221D02*
D03*
X634252D02*
D03*
X684646D02*
D03*
X732677D02*
D03*
X783071D02*
D03*
X697244Y393701D02*
D03*
X747638D02*
D03*
D61*
X794095Y13386D02*
D03*
X784094D02*
D03*
X774094D02*
D03*
X764094D02*
D03*
X754095D02*
D03*
D62*
X744095D02*
D03*
D63*
X790158Y378898D02*
D03*
Y368898D02*
D03*
Y358898D02*
D03*
Y339528D02*
D03*
Y329528D02*
D03*
Y319528D02*
D03*
D64*
X691732Y135039D02*
D03*
X697638Y122441D02*
D03*
X675197Y109843D02*
D03*
X81496Y144095D02*
D03*
X679921Y462992D02*
D03*
X747244Y275984D02*
D03*
X682283D02*
D03*
X664173D02*
D03*
X633760Y256792D02*
D03*
X18110Y331890D02*
D03*
X675197Y122441D02*
D03*
X419685Y112205D02*
D03*
X427165Y137795D02*
D03*
X47638Y391732D02*
D03*
X497244Y139764D02*
D03*
X358268D02*
D03*
X216535D02*
D03*
X163386Y37402D02*
D03*
X216535D02*
D03*
X281496D02*
D03*
X334646D02*
D03*
X472441D02*
D03*
X413779D02*
D03*
X590551D02*
D03*
X15354Y137402D02*
D03*
X131890Y106103D02*
D03*
X83465Y107481D02*
D03*
X723622Y108268D02*
D03*
X662992Y111024D02*
D03*
Y13386D02*
D03*
X537402Y137795D02*
D03*
X537303Y118012D02*
D03*
X478642D02*
D03*
X340846D02*
D03*
X281398Y137697D02*
D03*
Y118110D02*
D03*
X222835D02*
D03*
X139370Y150788D02*
D03*
X142126Y141733D02*
D03*
X144882Y72835D02*
D03*
X148032Y147638D02*
D03*
X144882Y155906D02*
D03*
X105906Y65748D02*
D03*
X148032Y85433D02*
D03*
X156299Y65748D02*
D03*
X592520Y93701D02*
D03*
X69291Y21260D02*
D03*
X92520D02*
D03*
X765748Y83465D02*
D03*
Y108268D02*
D03*
X781496D02*
D03*
Y94488D02*
D03*
Y56693D02*
D03*
Y43307D02*
D03*
X765748D02*
D03*
Y68898D02*
D03*
X706693Y497244D02*
D03*
X66142Y204725D02*
D03*
Y231890D02*
D03*
X74016Y228347D02*
D03*
X11417Y204725D02*
D03*
X773622Y165355D02*
D03*
X105118Y25197D02*
D03*
X97244Y29134D02*
D03*
X53150Y299213D02*
D03*
X84646D02*
D03*
X120079Y312992D02*
D03*
X37402Y293701D02*
D03*
Y245670D02*
D03*
Y250000D02*
D03*
Y253937D02*
D03*
Y257874D02*
D03*
Y277559D02*
D03*
Y261811D02*
D03*
Y269685D02*
D03*
Y265748D02*
D03*
X82677Y37008D02*
D03*
X76772Y61024D02*
D03*
X74803Y55906D02*
D03*
X72835Y50788D02*
D03*
X70866Y46063D02*
D03*
X68898Y40945D02*
D03*
X74016Y221654D02*
D03*
X37402Y281496D02*
D03*
Y285433D02*
D03*
Y289370D02*
D03*
X62599Y75984D02*
D03*
Y80709D02*
D03*
X11417Y111417D02*
D03*
X25591Y496457D02*
D03*
X7480Y105906D02*
D03*
X88976Y33071D02*
D03*
X295276Y496851D02*
D03*
Y312205D02*
D03*
X79134Y282284D02*
D03*
X180315Y312992D02*
D03*
X171260Y314961D02*
D03*
X62165Y40906D02*
D03*
X62441Y65906D02*
D03*
X148032Y112205D02*
D03*
X219016Y319016D02*
D03*
X214016Y319134D02*
D03*
X209016Y318937D02*
D03*
X98425Y70866D02*
D03*
X62599Y50788D02*
D03*
X163287Y59154D02*
D03*
X62362Y45906D02*
D03*
X62598Y55906D02*
D03*
X62599Y61024D02*
D03*
X151181Y136221D02*
D03*
X229016Y283465D02*
D03*
X70984Y319016D02*
D03*
X65984Y318898D02*
D03*
X60984Y318937D02*
D03*
X340846Y59154D02*
D03*
X281398Y59154D02*
D03*
X222736Y59154D02*
D03*
X172441Y221654D02*
D03*
X270866D02*
D03*
X369291D02*
D03*
X467717D02*
D03*
X566142Y221260D02*
D03*
X664567Y221654D02*
D03*
X762992Y221260D02*
D03*
X541339Y35433D02*
D03*
X602362Y59055D02*
D03*
X541339D02*
D03*
X480315D02*
D03*
X413779D02*
D03*
X771654Y541339D02*
D03*
X702756D02*
D03*
X185039Y458957D02*
D03*
X135827Y457480D02*
D03*
X124016Y524016D02*
D03*
X116142Y496457D02*
D03*
X697244Y292126D02*
D03*
X84646Y165355D02*
D03*
X53150D02*
D03*
X151575D02*
D03*
X183071D02*
D03*
X281496D02*
D03*
X348425D02*
D03*
X379921D02*
D03*
X446850D02*
D03*
X478346D02*
D03*
X545276D02*
D03*
X576772D02*
D03*
X643701D02*
D03*
X675197D02*
D03*
X742126D02*
D03*
X250000D02*
D03*
X203150Y271654D02*
D03*
X193701Y273622D02*
D03*
X212598Y269685D02*
D03*
X184252Y275591D02*
D03*
X174803Y277559D02*
D03*
X164961Y279528D02*
D03*
X155118Y281496D02*
D03*
X159843Y318898D02*
D03*
X158268Y312992D02*
D03*
X148819Y314961D02*
D03*
X145276Y311024D02*
D03*
X131890Y316929D02*
D03*
X129921Y311024D02*
D03*
X805512Y75985D02*
D03*
X736221Y149607D02*
D03*
X716536Y141733D02*
D03*
X720472Y130315D02*
D03*
X716536Y128347D02*
D03*
X728346Y145669D02*
D03*
X720472Y139764D02*
D03*
X732283Y147638D02*
D03*
X716536Y124016D02*
D03*
Y145669D02*
D03*
X728346Y123885D02*
D03*
X724409Y143701D02*
D03*
Y125984D02*
D03*
X732283Y121785D02*
D03*
X736221Y119685D02*
D03*
X712599Y108268D02*
D03*
X756299Y316536D02*
D03*
Y307874D02*
D03*
X769685Y490551D02*
D03*
X700787Y462992D02*
D03*
X722441Y349606D02*
D03*
X760630Y488189D02*
D03*
X735039Y492126D02*
D03*
X715354Y484252D02*
D03*
X711811Y326477D02*
D03*
X715256Y39961D02*
D03*
X675197Y97244D02*
D03*
X760236Y306299D02*
D03*
X763780Y304725D02*
D03*
Y298032D02*
D03*
X760236Y318110D02*
D03*
X201969Y85335D02*
D03*
X281890Y82677D02*
D03*
X419587Y85335D02*
D03*
X478740Y87402D02*
D03*
X379134Y93701D02*
D03*
X261024Y88189D02*
D03*
X320079Y90945D02*
D03*
X537402D02*
D03*
X7480Y64961D02*
D03*
X18898D02*
D03*
X742126Y326772D02*
D03*
X224016Y301181D02*
D03*
X205906Y302756D02*
D03*
X201575D02*
D03*
X205512Y307087D02*
D03*
X201575Y298819D02*
D03*
X752362Y314961D02*
D03*
X736614Y88504D02*
D03*
Y93504D02*
D03*
X724607D02*
D03*
X722441Y88504D02*
D03*
X753898Y83504D02*
D03*
X696969Y73504D02*
D03*
X712599Y113386D02*
D03*
X705512Y385433D02*
D03*
X698032Y369291D02*
D03*
X747244D02*
D03*
X750787Y118504D02*
D03*
X763779Y316535D02*
D03*
D65*
X116142Y531890D02*
D03*
D66*
X781495Y163386D02*
D03*
X118110Y172047D02*
D03*
X216535Y172343D02*
D03*
X314961Y172441D02*
D03*
X413386Y172343D02*
D03*
X511811Y172343D02*
D03*
X610236Y172441D02*
D03*
X710630Y172343D02*
D03*
X45276Y163386D02*
D03*
M02*
