M48
;Layer_Color=9474304
;FILE_FORMAT=2:5
INCH,LZ
;TYPE=PLATED
T1F00S00C0.01181
T2F00S00C0.03000
T3F00S00C0.03543
T4F00S00C0.03937
T5F00S00C0.12795
%
T01
X0056693Y0062992
X0097244Y0066929
X0096457Y0106299
X0083465Y0107087
X0083071Y01
Y0093307
X0111024Y0113779
X0120079Y0106299
X0147638Y0112598
Y0145669
X0134646Y0142126
X0081496Y0153543
Y0159843
Y0169291
X0077559Y0177953
X0066535
X0089764Y0178347
X0073228Y0145276
Y0135039
X0058661Y0142913
X0131102Y0075984
X0049606Y0062992
Y0059055
X0017323Y0087008
X001063
X0011811Y0112205
X0006693Y0111417
X0022047Y0148031
X0016535Y0153543
Y0161417
Y0170079
Y0177953
X0025197
X0034252
X0042913
X0055118
Y0126378
X0031496Y0224016
X001378
X013189
X0149606
T02
X0061024Y0214567
X0080709
X0100394
T03
X0021732Y0034882
X0031732
X0041732
X0036732Y0044882
X0026732
X0016732
T04
X0101378Y0032283
X0115157Y0051968
X0152165
X0138386Y0032283
T05
X0009213Y0009843
X0049213
M30
