%FSLAX25Y25*%
%MOIN*%
G70*
G01*
G75*
G04 Layer_Color=16711935*
%ADD10R,0.03150X0.03543*%
%ADD11R,0.05118X0.04134*%
%ADD12R,0.07087X0.07165*%
%ADD13R,0.06102X0.05315*%
%ADD14R,0.22047X0.22047*%
%ADD15R,0.07874X0.04724*%
%ADD16R,0.03740X0.02756*%
%ADD17R,0.04331X0.04528*%
%ADD18R,0.05315X0.06102*%
%ADD19R,0.04528X0.04331*%
%ADD20R,0.05906X0.01181*%
%ADD21R,0.01181X0.05906*%
%ADD22R,0.03543X0.03150*%
%ADD23R,0.02835X0.02835*%
%ADD24R,0.21654X0.07874*%
%ADD25C,0.01000*%
%ADD26C,0.03937*%
%ADD27C,0.01969*%
%ADD28C,0.07874*%
%ADD29C,0.05118*%
%ADD30C,0.14961*%
%ADD31C,0.02756*%
%ADD32C,0.05906*%
%ADD33R,0.03950X0.04343*%
%ADD34R,0.05918X0.04934*%
%ADD35R,0.07887X0.07965*%
%ADD36R,0.06902X0.06115*%
%ADD37R,0.22847X0.22847*%
%ADD38R,0.08674X0.05524*%
%ADD39R,0.04540X0.03556*%
%ADD40R,0.05131X0.05328*%
%ADD41R,0.06115X0.06902*%
%ADD42R,0.05328X0.05131*%
%ADD43R,0.06706X0.01981*%
%ADD44R,0.01981X0.06706*%
%ADD45R,0.04343X0.03950*%
%ADD46R,0.03635X0.03635*%
%ADD47R,0.22453X0.08674*%
%ADD48C,0.08674*%
%ADD49C,0.05918*%
%ADD50C,0.15761*%
%ADD51C,0.03556*%
D48*
X138386Y32283D02*
D03*
X152165Y51968D02*
D03*
X101378Y32283D02*
D03*
X115157Y51968D02*
D03*
X61024Y214567D02*
D03*
X100394D02*
D03*
X80709D02*
D03*
D49*
X26732Y44882D02*
D03*
X36732D02*
D03*
X16732D02*
D03*
X21732Y34882D02*
D03*
X31732D02*
D03*
X41732D02*
D03*
D50*
X49213Y9843D02*
D03*
X9213D02*
D03*
D51*
X13780Y224016D02*
D03*
X31496D02*
D03*
X131890D02*
D03*
X149606D02*
D03*
X134646Y142126D02*
D03*
X147638Y145669D02*
D03*
Y112598D02*
D03*
X120079Y106299D02*
D03*
X96457D02*
D03*
X131102Y75984D02*
D03*
X97244Y66929D02*
D03*
X89764Y178347D02*
D03*
X83071Y100000D02*
D03*
Y93307D02*
D03*
X22047Y148031D02*
D03*
X16535Y153543D02*
D03*
Y161417D02*
D03*
Y170079D02*
D03*
Y177953D02*
D03*
X25197D02*
D03*
X34252D02*
D03*
X42913D02*
D03*
X55118D02*
D03*
X66535D02*
D03*
X77559D02*
D03*
X81496Y169291D02*
D03*
Y159843D02*
D03*
Y153543D02*
D03*
X73228Y145276D02*
D03*
Y135039D02*
D03*
X49606Y62992D02*
D03*
X6693Y111417D02*
D03*
X11811Y112205D02*
D03*
X10630Y87008D02*
D03*
X17323D02*
D03*
X56693Y62992D02*
D03*
X49606Y59055D02*
D03*
X58661Y142913D02*
D03*
X55118Y126378D02*
D03*
X111024Y113779D02*
D03*
X83465Y107087D02*
D03*
M02*
