%FSLAX25Y25*%
%MOIN*%
G70*
G01*
G75*
G04 Layer_Physical_Order=1*
G04 Layer_Color=255*
%ADD10R,0.03150X0.03543*%
%ADD11R,0.05118X0.04134*%
%ADD12R,0.07087X0.07165*%
%ADD13R,0.06102X0.05315*%
%ADD14R,0.22047X0.22047*%
%ADD15R,0.07874X0.04724*%
%ADD16R,0.03740X0.02756*%
%ADD17R,0.04331X0.04528*%
%ADD18R,0.05315X0.06102*%
%ADD19R,0.04528X0.04331*%
%ADD20R,0.05906X0.01181*%
%ADD21R,0.01181X0.05906*%
%ADD22R,0.03543X0.03150*%
%ADD23R,0.02835X0.02835*%
%ADD24R,0.21654X0.07874*%
%ADD25C,0.01000*%
%ADD26C,0.03937*%
%ADD27C,0.01969*%
%ADD28C,0.07874*%
%ADD29C,0.05118*%
%ADD30C,0.14961*%
%ADD31C,0.02756*%
D10*
X13780Y204331D02*
D03*
Y197244D02*
D03*
X31496Y204331D02*
D03*
Y197244D02*
D03*
X131890Y204331D02*
D03*
Y197244D02*
D03*
X149606Y204331D02*
D03*
Y197244D02*
D03*
X92520Y84646D02*
D03*
Y91732D02*
D03*
D11*
X13780Y219488D02*
D03*
Y210236D02*
D03*
X31496Y219488D02*
D03*
Y210236D02*
D03*
X131890Y219488D02*
D03*
Y210236D02*
D03*
X149606Y219488D02*
D03*
Y210236D02*
D03*
X92520Y67421D02*
D03*
Y76673D02*
D03*
D12*
X151969Y68996D02*
D03*
Y83760D02*
D03*
X114567Y68996D02*
D03*
Y83760D02*
D03*
D13*
X136221Y75984D02*
D03*
Y83858D02*
D03*
X147638Y150787D02*
D03*
Y158661D02*
D03*
X14173Y106299D02*
D03*
Y98425D02*
D03*
D14*
X106299Y155905D02*
D03*
D15*
X134646Y147047D02*
D03*
Y164764D02*
D03*
D16*
X104626Y118110D02*
D03*
X111122D02*
D03*
D03*
D17*
X96063Y111024D02*
D03*
Y118110D02*
D03*
X119685Y111024D02*
D03*
Y118110D02*
D03*
X79134Y93307D02*
D03*
Y86221D02*
D03*
Y100000D02*
D03*
Y107087D02*
D03*
X7087Y105512D02*
D03*
Y98425D02*
D03*
D18*
X147638Y118110D02*
D03*
X139764D02*
D03*
D19*
X10630Y91732D02*
D03*
X17717D02*
D03*
X65748Y138583D02*
D03*
X58661D02*
D03*
X65354Y130315D02*
D03*
X58268D02*
D03*
X49606Y67323D02*
D03*
X56693D02*
D03*
D20*
X24803Y83268D02*
D03*
Y85236D02*
D03*
Y87205D02*
D03*
Y89173D02*
D03*
Y91142D02*
D03*
Y93110D02*
D03*
Y95079D02*
D03*
Y97047D02*
D03*
Y99016D02*
D03*
Y100984D02*
D03*
Y102953D02*
D03*
Y104921D02*
D03*
Y106890D02*
D03*
Y108858D02*
D03*
Y110827D02*
D03*
Y112795D02*
D03*
X69685D02*
D03*
Y110827D02*
D03*
Y108858D02*
D03*
Y106890D02*
D03*
Y104921D02*
D03*
Y102953D02*
D03*
Y100984D02*
D03*
Y99016D02*
D03*
Y97047D02*
D03*
Y95079D02*
D03*
Y93110D02*
D03*
Y91142D02*
D03*
Y89173D02*
D03*
Y87205D02*
D03*
Y85236D02*
D03*
Y83268D02*
D03*
D21*
X32480Y120472D02*
D03*
X34449D02*
D03*
X36417D02*
D03*
X38386D02*
D03*
X40354D02*
D03*
X42323D02*
D03*
X44291D02*
D03*
X46260D02*
D03*
X48228D02*
D03*
X50197D02*
D03*
X52165D02*
D03*
X54134D02*
D03*
X56102D02*
D03*
X58071D02*
D03*
X60039D02*
D03*
X62008D02*
D03*
X62008Y75591D02*
D03*
X60039D02*
D03*
X58071D02*
D03*
X56102D02*
D03*
X54134D02*
D03*
X52165D02*
D03*
X50197D02*
D03*
X48228D02*
D03*
X46260D02*
D03*
X44291D02*
D03*
X42323D02*
D03*
X40354D02*
D03*
X38386D02*
D03*
X36417D02*
D03*
X34449D02*
D03*
X32480D02*
D03*
D22*
X37008Y59055D02*
D03*
X44094D02*
D03*
D23*
X55512Y151575D02*
D03*
X59449D02*
D03*
X42913D02*
D03*
X38976D02*
D03*
D24*
X67913Y165354D02*
D03*
X30512D02*
D03*
D25*
X13489Y189370D02*
X142126D01*
X12748Y191157D02*
X125803D01*
X20472Y115354D02*
X35433D01*
X12598Y123228D02*
X20472Y115354D01*
X12598Y123228D02*
Y188480D01*
X55165Y26984D02*
X64567Y36386D01*
X54425Y28772D02*
X62008Y36355D01*
X30370Y28772D02*
X54425D01*
X26732Y32410D02*
X30370Y28772D01*
X29630Y26984D02*
X55165D01*
X21732Y34882D02*
X29630Y26984D01*
X64567Y36386D02*
Y78740D01*
X62008Y36355D02*
Y75591D01*
X12598Y188480D02*
X13489Y189370D01*
X10811Y189220D02*
X12748Y191157D01*
X10811Y122260D02*
Y189220D01*
X12008Y192945D02*
X30346D01*
X9024Y189960D02*
X12008Y192945D01*
X9024Y121519D02*
Y189960D01*
X7236Y120779D02*
Y190701D01*
X13780Y197244D01*
X30346Y192945D02*
X31496Y194095D01*
Y197244D01*
X7236Y120779D02*
X19157Y108858D01*
X9024Y121519D02*
X19716Y110827D01*
X10811Y122260D02*
X20276Y112795D01*
X19157Y108858D02*
X24803D01*
X19716Y110827D02*
X24803D01*
X63173Y80134D02*
X64567Y78740D01*
X92520Y76673D02*
Y84646D01*
X41293Y34882D02*
X41732D01*
X32886Y43289D02*
X41293Y34882D01*
X32886Y43289D02*
Y46475D01*
X37008Y50597D01*
Y59055D01*
X60039Y80134D02*
X63173D01*
X60039Y75591D02*
Y80134D01*
Y75591D02*
X60130Y75500D01*
X26732Y32410D02*
Y44882D01*
X36417Y116339D02*
Y120472D01*
X35433Y115354D02*
X36417Y116339D01*
X20276Y112795D02*
X24803D01*
X114567Y52559D02*
X115157Y51968D01*
X37008Y59055D02*
Y64567D01*
X38189Y65748D01*
X42913D01*
X44291Y67126D01*
Y75591D01*
X7087Y99016D02*
X24803D01*
X142126Y189370D02*
X149803Y197047D01*
X125803Y191157D02*
X131890Y197244D01*
X13780Y204331D02*
Y210236D01*
X31496Y204331D02*
Y210236D01*
X131890Y204331D02*
Y210236D01*
X149606Y204331D02*
Y210236D01*
X69685Y99016D02*
X78150D01*
X73998Y93307D02*
X79134D01*
X73925Y93235D02*
X73998Y93307D01*
X73925Y89264D02*
Y93235D01*
X69776Y89264D02*
X73925D01*
X131102Y75984D02*
X136221D01*
X147638Y112598D02*
Y118110D01*
X119685Y106693D02*
Y111024D01*
X96063Y106693D02*
Y111024D01*
X13780Y219488D02*
Y224016D01*
X31496Y219488D02*
Y224016D01*
X131890Y219488D02*
Y224016D01*
X149606Y219488D02*
Y224016D01*
X134646Y142126D02*
Y147047D01*
X147638Y145669D02*
Y150787D01*
X42913Y151575D02*
X48228Y146260D01*
Y120472D02*
Y146260D01*
X50197D02*
X55512Y151575D01*
X50197Y120472D02*
Y146260D01*
X42913Y151575D02*
Y152953D01*
X30512Y165354D02*
X42913Y152953D01*
X55512Y151575D02*
Y152953D01*
X67913Y165354D01*
X92520Y67421D02*
X96752D01*
X69685Y87205D02*
X78150D01*
X92520Y91732D02*
X106595D01*
X114469Y83858D01*
X114567Y83760D01*
X79134Y100000D02*
X83071D01*
X79134Y93307D02*
X83071D01*
X68110Y227165D02*
X80709Y214567D01*
X12598Y227165D02*
X68110D01*
X3543Y218110D02*
X12598Y227165D01*
X3543Y90158D02*
Y218110D01*
Y90158D02*
X13000Y80701D01*
X30602D01*
X34063Y84161D01*
X52895D01*
X57980Y79077D01*
Y75591D02*
Y79077D01*
X65748Y138583D02*
X73228D01*
X65354Y130315D02*
X72441D01*
X59449Y151575D02*
X79527D01*
X35433Y148031D02*
X38976Y151575D01*
X55512Y138583D02*
X58661D01*
X52165Y135236D02*
X55512Y138583D01*
X52165Y120472D02*
Y135236D01*
X58161Y130209D02*
X58268Y130315D01*
X46260Y120472D02*
Y137205D01*
X35433Y148031D02*
X46260Y137205D01*
X48228Y68701D02*
Y75591D01*
Y68701D02*
X49606Y67323D01*
Y62992D02*
Y67323D01*
X7087Y105512D02*
Y111024D01*
X11811Y108661D02*
Y112205D01*
X10630Y87008D02*
Y91732D01*
X17323Y92962D02*
X21408Y97047D01*
X24803D01*
X56693Y62992D02*
Y67323D01*
X52665Y71350D02*
X56693Y67323D01*
X51042Y71350D02*
X52665D01*
X50287Y72105D02*
X51042Y71350D01*
X50287Y72105D02*
Y75500D01*
X50197Y75591D02*
X50287Y75500D01*
X44094Y59055D02*
X49606D01*
X58661Y138583D02*
Y142913D01*
X55118Y126378D02*
X58161Y129421D01*
Y120563D02*
Y129421D01*
Y130209D01*
X17323Y87008D02*
Y92962D01*
X69685Y100984D02*
X69776Y101075D01*
X73171D01*
X73925Y101829D01*
Y105224D01*
X75787Y107087D01*
X79134D01*
D26*
X151870Y83858D02*
Y112736D01*
X153445Y114311D01*
Y156201D01*
X150098D02*
X153445D01*
X114469Y83858D02*
X151870D01*
X141535Y164764D02*
X147638Y158661D01*
X150098Y156201D01*
X134646Y164764D02*
X141535D01*
X151969Y52165D02*
X152165Y51968D01*
X151969Y52165D02*
Y68996D01*
X115157Y51968D02*
Y68405D01*
X114567Y68996D02*
X115157Y68405D01*
X119685Y118110D02*
X139764D01*
X96063D02*
X104626D01*
X115010D02*
Y147195D01*
X106299Y155905D02*
X115010Y147195D01*
X111122Y118110D02*
X115010D01*
X118898D01*
X16535Y153543D02*
X22047Y148031D01*
X16535Y153543D02*
Y177953D01*
X81496D01*
X73228Y129528D02*
Y135039D01*
Y138583D01*
Y145276D01*
X81496Y153543D02*
Y159843D01*
Y169291D01*
Y177953D01*
X73228Y145276D02*
X79527Y151575D01*
X81496Y153543D01*
X22047Y148031D02*
X35433D01*
X79134Y107087D02*
X83465D01*
X111122Y113878D02*
Y118110D01*
D27*
X79134Y86221D02*
X82677D01*
X89764Y124409D02*
Y178347D01*
Y124409D02*
X96063Y118110D01*
X89764D02*
X96063D01*
X82677Y86221D02*
X87402Y90945D01*
Y115748D01*
X89764Y118110D01*
D28*
X138386Y32283D02*
D03*
X152165Y51968D02*
D03*
X101378Y32283D02*
D03*
X115157Y51968D02*
D03*
X61024Y214567D02*
D03*
X100394D02*
D03*
X80709D02*
D03*
D29*
X26732Y44882D02*
D03*
X36732D02*
D03*
X16732D02*
D03*
X21732Y34882D02*
D03*
X31732D02*
D03*
X41732D02*
D03*
D30*
X49213Y9843D02*
D03*
X9213D02*
D03*
D31*
X13780Y224016D02*
D03*
X31496D02*
D03*
X131890D02*
D03*
X149606D02*
D03*
X134646Y142126D02*
D03*
X147638Y145669D02*
D03*
Y112598D02*
D03*
X120079Y106299D02*
D03*
X96457D02*
D03*
X131102Y75984D02*
D03*
X97244Y66929D02*
D03*
X89764Y178347D02*
D03*
X83071Y100000D02*
D03*
Y93307D02*
D03*
X22047Y148031D02*
D03*
X16535Y153543D02*
D03*
Y161417D02*
D03*
Y170079D02*
D03*
Y177953D02*
D03*
X25197D02*
D03*
X34252D02*
D03*
X42913D02*
D03*
X55118D02*
D03*
X66535D02*
D03*
X77559D02*
D03*
X81496Y169291D02*
D03*
Y159843D02*
D03*
Y153543D02*
D03*
X73228Y145276D02*
D03*
Y135039D02*
D03*
X49606Y62992D02*
D03*
X6693Y111417D02*
D03*
X11811Y112205D02*
D03*
X10630Y87008D02*
D03*
X17323D02*
D03*
X56693Y62992D02*
D03*
X49606Y59055D02*
D03*
X58661Y142913D02*
D03*
X55118Y126378D02*
D03*
X111024Y113779D02*
D03*
X83465Y107087D02*
D03*
M02*
