%FSLAX25Y25*%
%MOIN*%
G70*
G01*
G75*
G04 Layer_Color=65535*
%ADD10R,0.03150X0.03543*%
%ADD11R,0.05118X0.04134*%
%ADD12R,0.07087X0.07165*%
%ADD13R,0.06102X0.05315*%
%ADD14R,0.22047X0.22047*%
%ADD15R,0.07874X0.04724*%
%ADD16R,0.03740X0.02756*%
%ADD17R,0.04331X0.04528*%
%ADD18R,0.05315X0.06102*%
%ADD19R,0.04528X0.04331*%
%ADD20R,0.05906X0.01181*%
%ADD21R,0.01181X0.05906*%
%ADD22R,0.03543X0.03150*%
%ADD23R,0.02835X0.02835*%
%ADD24R,0.21654X0.07874*%
%ADD25C,0.01000*%
%ADD26C,0.03937*%
%ADD27C,0.01969*%
%ADD28C,0.07874*%
%ADD29C,0.05118*%
%ADD30C,0.14961*%
%ADD31C,0.02756*%
%ADD32C,0.05906*%
D25*
X135138Y142421D02*
G03*
X135138Y142421I-295J0D01*
G01*
X15256Y200295D02*
Y201279D01*
X12303Y200295D02*
Y201279D01*
X11319Y222736D02*
X16240D01*
X32972Y200295D02*
Y201279D01*
X30020Y200295D02*
Y201279D01*
X29035Y222736D02*
X33957D01*
X133366Y200295D02*
Y201279D01*
X130413Y200295D02*
Y201279D01*
X129429Y222736D02*
X134350D01*
X151083Y200295D02*
Y201279D01*
X148130Y200295D02*
Y201279D01*
X147146Y222736D02*
X152067D01*
X146063Y80807D02*
X147047D01*
Y86221D01*
X146063D02*
X147047D01*
X146063Y66043D02*
Y86221D01*
X146309Y66043D02*
X146801D01*
X156890Y80807D02*
X157874D01*
X156890D02*
Y86221D01*
X157874D01*
Y66043D02*
Y86221D01*
X156890Y66043D02*
X157874D01*
X146801D02*
X147047D01*
X146063D02*
X146309D01*
X159055Y13780D02*
Y61024D01*
X131496Y13780D02*
Y61024D01*
X125591Y17717D02*
Y57087D01*
X131496D01*
X125591Y17717D02*
X131496D01*
Y61024D02*
X159055D01*
X131496Y13780D02*
X159055D01*
X91043Y87697D02*
Y88681D01*
X93996Y87697D02*
Y88681D01*
X108661Y80807D02*
X109646D01*
Y86221D01*
X108661D02*
X109646D01*
X108661Y66043D02*
Y86221D01*
X108907Y66043D02*
X109400D01*
X119488Y80807D02*
X120472D01*
X119488D02*
Y86221D01*
X120472D01*
Y66043D02*
Y86221D01*
X119488Y66043D02*
X120472D01*
X109400D02*
X109646D01*
X108661D02*
X108907D01*
X122047Y13780D02*
Y61024D01*
X94488Y13780D02*
Y61024D01*
X88583Y17717D02*
Y57087D01*
X94488D01*
X88583Y17717D02*
X94488D01*
Y61024D02*
X122047D01*
X94488Y13780D02*
X122047D01*
X90059Y64173D02*
X94980D01*
X118110Y142323D02*
X119882D01*
X119980Y142421D01*
Y169291D01*
X118110D02*
X119980D01*
X27116Y77854D02*
Y81299D01*
Y77854D02*
X30561D01*
Y72933D02*
Y77854D01*
X63976D02*
X67421D01*
Y81299D01*
Y114764D02*
Y118209D01*
X63976D02*
X67421D01*
X27067Y114764D02*
Y118209D01*
X30512D01*
X40059Y60532D02*
X41043D01*
X40059Y57579D02*
X41043D01*
X3228Y-21260D02*
Y50000D01*
X55197Y-21260D02*
Y50000D01*
X3228D02*
X55197D01*
X3228Y-21260D02*
X55197D01*
X21850Y175197D02*
X76575D01*
Y170768D02*
Y175197D01*
X21850Y170768D02*
Y175197D01*
X76575Y155512D02*
Y159941D01*
X21850Y155512D02*
Y159941D01*
Y155512D02*
X76575D01*
X68898Y287795D02*
X92716D01*
X92815Y254331D02*
Y287795D01*
X68898Y254331D02*
Y287795D01*
X62992Y254331D02*
X98425D01*
Y228740D02*
Y254331D01*
X62992Y228740D02*
Y254331D01*
X47244Y228740D02*
X114173D01*
X47244Y191339D02*
X114173D01*
Y228740D01*
X47244Y191339D02*
Y228740D01*
X44882Y172927D02*
Y171927D01*
X46881Y169928D01*
X48881Y171927D01*
Y172927D01*
X46881Y169928D02*
Y166929D01*
X50880D02*
X52879D01*
X51880D01*
Y172927D01*
X50880Y171927D01*
X95276Y175683D02*
Y170685D01*
X96275Y169685D01*
X98275D01*
X99274Y170685D01*
Y175683D01*
X105272Y169685D02*
X101274D01*
X105272Y173684D01*
Y174683D01*
X104273Y175683D01*
X102273D01*
X101274Y174683D01*
X65354Y126470D02*
Y121472D01*
X66354Y120472D01*
X68353D01*
X69353Y121472D01*
Y126470D01*
X71352Y120472D02*
X73352D01*
X72352D01*
Y126470D01*
X71352Y125471D01*
X102362Y80709D02*
X96364D01*
Y83708D01*
X97364Y84707D01*
X99363D01*
X100363Y83708D01*
Y80709D01*
Y82708D02*
X102362Y84707D01*
Y89706D02*
X96364D01*
X99363Y86707D01*
Y90705D01*
X22835Y56693D02*
Y62691D01*
X25834D01*
X26833Y61691D01*
Y59692D01*
X25834Y58692D01*
X22835D01*
X24834D02*
X26833Y56693D01*
X28833Y61691D02*
X29832Y62691D01*
X31832D01*
X32831Y61691D01*
Y60692D01*
X31832Y59692D01*
X30832D01*
X31832D01*
X32831Y58692D01*
Y57693D01*
X31832Y56693D01*
X29832D01*
X28833Y57693D01*
X7874Y198819D02*
X1876D01*
Y201818D01*
X2876Y202818D01*
X4875D01*
X5875Y201818D01*
Y198819D01*
Y200818D02*
X7874Y202818D01*
Y204817D02*
Y206816D01*
Y205817D01*
X1876D01*
X2876Y204817D01*
X25591Y198819D02*
X19592D01*
Y201818D01*
X20592Y202818D01*
X22591D01*
X23591Y201818D01*
Y198819D01*
Y200818D02*
X25591Y202818D01*
Y204817D02*
Y206816D01*
Y205817D01*
X19592D01*
X20592Y204817D01*
X125984Y196850D02*
X119986D01*
Y199849D01*
X120986Y200849D01*
X122985D01*
X123985Y199849D01*
Y196850D01*
Y198850D02*
X125984Y200849D01*
Y202849D02*
Y204848D01*
Y203848D01*
X119986D01*
X120986Y202849D01*
X144095Y196850D02*
X138096D01*
Y199849D01*
X139096Y200849D01*
X141095D01*
X142095Y199849D01*
Y196850D01*
Y198850D02*
X144095Y200849D01*
Y202849D02*
Y204848D01*
Y203848D01*
X138096D01*
X139096Y202849D01*
X106299Y63386D02*
X100301D01*
Y66385D01*
X101301Y67384D01*
X103300D01*
X104300Y66385D01*
Y63386D01*
X106299Y73383D02*
Y69384D01*
X102301Y73383D01*
X101301D01*
X100301Y72383D01*
Y70384D01*
X101301Y69384D01*
X143701Y63386D02*
X137703D01*
Y66385D01*
X138702Y67384D01*
X140702D01*
X141701Y66385D01*
Y63386D01*
X143701Y69384D02*
Y71383D01*
Y70384D01*
X137703D01*
X138702Y69384D01*
X62660Y11510D02*
X60661D01*
X61660D01*
Y6511D01*
X60661Y5512D01*
X59661D01*
X58661Y6511D01*
X64660Y5512D02*
X66659D01*
X65659D01*
Y11510D01*
X64660Y10510D01*
X105967Y128439D02*
X101969D01*
Y125440D01*
X103968D01*
X101969D01*
Y122441D01*
X107967Y128439D02*
Y122441D01*
X110966D01*
X111965Y123441D01*
Y124440D01*
X110966Y125440D01*
X107967D01*
X110966D01*
X111965Y126440D01*
Y127439D01*
X110966Y128439D01*
X107967D01*
X113965Y122441D02*
X115964D01*
X114964D01*
Y128439D01*
X113965Y127439D01*
X82978Y65748D02*
X88976D01*
Y68747D01*
X87977Y69747D01*
X83978D01*
X82978Y68747D01*
Y65748D01*
X88976Y74745D02*
X82978D01*
X85977Y71746D01*
Y75745D01*
X109449Y95762D02*
Y89764D01*
X112448D01*
X113447Y90763D01*
Y94762D01*
X112448Y95762D01*
X109449D01*
X115447Y94762D02*
X116447Y95762D01*
X118446D01*
X119446Y94762D01*
Y93762D01*
X118446Y92763D01*
X117446D01*
X118446D01*
X119446Y91763D01*
Y90763D01*
X118446Y89764D01*
X116447D01*
X115447Y90763D01*
X147638Y95762D02*
Y89764D01*
X150637D01*
X151637Y90763D01*
Y94762D01*
X150637Y95762D01*
X147638D01*
X157635Y89764D02*
X153636D01*
X157635Y93762D01*
Y94762D01*
X156635Y95762D01*
X154636D01*
X153636Y94762D01*
X1876Y212894D02*
X7874D01*
Y215893D01*
X6874Y216892D01*
X2876D01*
X1876Y215893D01*
Y212894D01*
X7874Y218892D02*
Y220891D01*
Y219891D01*
X1876D01*
X2876Y218892D01*
X19592Y212894D02*
X25591D01*
Y215893D01*
X24591Y216892D01*
X20592D01*
X19592Y215893D01*
Y212894D01*
X25591Y218892D02*
Y220891D01*
Y219891D01*
X19592D01*
X20592Y218892D01*
X119986Y212894D02*
X125984D01*
Y215893D01*
X124985Y216892D01*
X120986D01*
X119986Y215893D01*
Y212894D01*
X125984Y218892D02*
Y220891D01*
Y219891D01*
X119986D01*
X120986Y218892D01*
X137703Y212894D02*
X143701D01*
Y215893D01*
X142701Y216892D01*
X138702D01*
X137703Y215893D01*
Y212894D01*
X143701Y218892D02*
Y220891D01*
Y219891D01*
X137703D01*
X138702Y218892D01*
X92975Y106179D02*
X91975Y107179D01*
X89976D01*
X88976Y106179D01*
Y102181D01*
X89976Y101181D01*
X91975D01*
X92975Y102181D01*
X94974Y101181D02*
X96974D01*
X95974D01*
Y107179D01*
X94974Y106179D01*
X103972Y107179D02*
X99973D01*
Y104180D01*
X101972Y105180D01*
X102972D01*
X103972Y104180D01*
Y102181D01*
X102972Y101181D01*
X100972D01*
X99973Y102181D01*
X116991Y105786D02*
X115991Y106786D01*
X113992D01*
X112992Y105786D01*
Y101787D01*
X113992Y100787D01*
X115991D01*
X116991Y101787D01*
X118990Y100787D02*
X120990D01*
X119990D01*
Y106786D01*
X118990Y105786D01*
X126988Y100787D02*
Y106786D01*
X123989Y103786D01*
X127987D01*
X140219Y128227D02*
X139219Y129226D01*
X137220D01*
X136221Y128227D01*
Y124228D01*
X137220Y123228D01*
X139219D01*
X140219Y124228D01*
X142218Y123228D02*
X144218D01*
X143218D01*
Y129226D01*
X142218Y128227D01*
X147217D02*
X148217Y129226D01*
X150216D01*
X151216Y128227D01*
Y127227D01*
X150216Y126227D01*
X149216D01*
X150216D01*
X151216Y125228D01*
Y124228D01*
X150216Y123228D01*
X148217D01*
X147217Y124228D01*
X147364Y167778D02*
X146364Y166779D01*
Y164779D01*
X147364Y163779D01*
X151363D01*
X152362Y164779D01*
Y166779D01*
X151363Y167778D01*
X152362Y169778D02*
Y171777D01*
Y170777D01*
X146364D01*
X147364Y169778D01*
X152362Y178775D02*
Y174776D01*
X148363Y178775D01*
X147364D01*
X146364Y177775D01*
Y175776D01*
X147364Y174776D01*
X133133Y93187D02*
X132133Y94187D01*
X130133D01*
X129134Y93187D01*
Y89189D01*
X130133Y88189D01*
X132133D01*
X133133Y89189D01*
X135132Y88189D02*
X137131D01*
X136132D01*
Y94187D01*
X135132Y93187D01*
X140130Y88189D02*
X142130D01*
X141130D01*
Y94187D01*
X140130Y93187D01*
X4450Y113447D02*
X3451Y112448D01*
Y110449D01*
X4450Y109449D01*
X8449D01*
X9449Y110449D01*
Y112448D01*
X8449Y113447D01*
X9449Y115447D02*
Y117446D01*
Y116447D01*
X3451D01*
X4450Y115447D01*
Y120445D02*
X3451Y121445D01*
Y123444D01*
X4450Y124444D01*
X8449D01*
X9449Y123444D01*
Y121445D01*
X8449Y120445D01*
X4450D01*
X14687Y113447D02*
X13687Y112448D01*
Y110449D01*
X14687Y109449D01*
X18685D01*
X19685Y110449D01*
Y112448D01*
X18685Y113447D01*
Y115447D02*
X19685Y116447D01*
Y118446D01*
X18685Y119446D01*
X14687D01*
X13687Y118446D01*
Y116447D01*
X14687Y115447D01*
X15686D01*
X16686Y116447D01*
Y119446D01*
X29983Y152636D02*
X28983Y153636D01*
X26984D01*
X25984Y152636D01*
Y148637D01*
X26984Y147638D01*
X28983D01*
X29983Y148637D01*
X31982Y152636D02*
X32982Y153636D01*
X34981D01*
X35981Y152636D01*
Y151637D01*
X34981Y150637D01*
X35981Y149637D01*
Y148637D01*
X34981Y147638D01*
X32982D01*
X31982Y148637D01*
Y149637D01*
X32982Y150637D01*
X31982Y151637D01*
Y152636D01*
X32982Y150637D02*
X34981D01*
X66203Y152243D02*
X65204Y153242D01*
X63204D01*
X62205Y152243D01*
Y148244D01*
X63204Y147244D01*
X65204D01*
X66203Y148244D01*
X68203Y153242D02*
X72202D01*
Y152243D01*
X68203Y148244D01*
Y147244D01*
X76498Y75652D02*
X75498Y74653D01*
Y72653D01*
X76498Y71653D01*
X80496D01*
X81496Y72653D01*
Y74653D01*
X80496Y75652D01*
X75498Y81650D02*
X76498Y79651D01*
X78497Y77652D01*
X80496D01*
X81496Y78651D01*
Y80651D01*
X80496Y81650D01*
X79497D01*
X78497Y80651D01*
Y77652D01*
X13054Y83345D02*
X12054Y84345D01*
X10055D01*
X9055Y83345D01*
Y79346D01*
X10055Y78347D01*
X12054D01*
X13054Y79346D01*
X19052Y84345D02*
X15053D01*
Y81345D01*
X17052Y82345D01*
X18052D01*
X19052Y81345D01*
Y79346D01*
X18052Y78347D01*
X16053D01*
X15053Y79346D01*
X74471Y142006D02*
X73471Y143006D01*
X71472D01*
X70472Y142006D01*
Y138007D01*
X71472Y137008D01*
X73471D01*
X74471Y138007D01*
X79470Y137008D02*
Y143006D01*
X76471Y140007D01*
X80469D01*
X74865Y132164D02*
X73865Y133163D01*
X71866D01*
X70866Y132164D01*
Y128165D01*
X71866Y127165D01*
X73865D01*
X74865Y128165D01*
X76864Y132164D02*
X77864Y133163D01*
X79863D01*
X80863Y132164D01*
Y131164D01*
X79863Y130164D01*
X78864D01*
X79863D01*
X80863Y129165D01*
Y128165D01*
X79863Y127165D01*
X77864D01*
X76864Y128165D01*
X76104Y115022D02*
X75104Y114023D01*
Y112023D01*
X76104Y111024D01*
X80103D01*
X81102Y112023D01*
Y114023D01*
X80103Y115022D01*
X81102Y121020D02*
Y117022D01*
X77104Y121020D01*
X76104D01*
X75104Y120021D01*
Y118021D01*
X76104Y117022D01*
X64629Y69172D02*
X63629Y70171D01*
X61630D01*
X60630Y69172D01*
Y65173D01*
X61630Y64173D01*
X63629D01*
X64629Y65173D01*
X66628Y64173D02*
X68627D01*
X67628D01*
Y70171D01*
X66628Y69172D01*
X47759Y291317D02*
Y297315D01*
X50758D01*
X51757Y296315D01*
Y294316D01*
X50758Y293316D01*
X47759D01*
X49758D02*
X51757Y291317D01*
X57755D02*
X53757D01*
X57755Y295316D01*
Y296315D01*
X56756Y297315D01*
X54756D01*
X53757Y296315D01*
M02*
