%FSLAX25Y25*%
%MOIN*%
G70*
G01*
G75*
G04 Layer_Physical_Order=2*
G04 Layer_Color=16711680*
%ADD10R,0.03150X0.03543*%
%ADD11R,0.05118X0.04134*%
%ADD12R,0.07087X0.07165*%
%ADD13R,0.06102X0.05315*%
%ADD14R,0.22047X0.22047*%
%ADD15R,0.07874X0.04724*%
%ADD16R,0.03740X0.02756*%
%ADD17R,0.04331X0.04528*%
%ADD18R,0.05315X0.06102*%
%ADD19R,0.04528X0.04331*%
%ADD20R,0.05906X0.01181*%
%ADD21R,0.01181X0.05906*%
%ADD22R,0.03543X0.03150*%
%ADD23R,0.02835X0.02835*%
%ADD24R,0.21654X0.07874*%
%ADD25C,0.01000*%
%ADD26C,0.03937*%
%ADD27C,0.01969*%
%ADD28C,0.07874*%
%ADD29C,0.05118*%
%ADD30C,0.14961*%
%ADD31C,0.02756*%
%ADD32C,0.05906*%
G36*
X161417Y-0D02*
X-0D01*
X-0Y229815D01*
X500Y230315D01*
X161417D01*
Y-0D01*
D02*
G37*
%LPC*%
G36*
X41732Y38257D02*
X40859Y38142D01*
X40045Y37805D01*
X39346Y37269D01*
X38809Y36570D01*
X38472Y35756D01*
X38357Y34882D01*
X38472Y34008D01*
X38809Y33194D01*
X39346Y32495D01*
X40045Y31959D01*
X40859Y31622D01*
X41732Y31507D01*
X42606Y31622D01*
X43420Y31959D01*
X44119Y32495D01*
X44655Y33194D01*
X44993Y34008D01*
X45108Y34882D01*
X44993Y35756D01*
X44655Y36570D01*
X44119Y37269D01*
X43420Y37805D01*
X42606Y38142D01*
X41732Y38257D01*
D02*
G37*
G36*
X21732D02*
X20859Y38142D01*
X20045Y37805D01*
X19346Y37269D01*
X18809Y36570D01*
X18472Y35756D01*
X18357Y34882D01*
X18472Y34008D01*
X18809Y33194D01*
X19346Y32495D01*
X20045Y31959D01*
X20859Y31622D01*
X21732Y31507D01*
X22606Y31622D01*
X23420Y31959D01*
X24119Y32495D01*
X24655Y33194D01*
X24993Y34008D01*
X25108Y34882D01*
X24993Y35756D01*
X24655Y36570D01*
X24119Y37269D01*
X23420Y37805D01*
X22606Y38142D01*
X21732Y38257D01*
D02*
G37*
G36*
X35256Y34382D02*
X32232D01*
Y31358D01*
X32661Y31414D01*
X33527Y31773D01*
X34271Y32344D01*
X34841Y33087D01*
X35200Y33953D01*
X35256Y34382D01*
D02*
G37*
G36*
X137886Y37197D02*
X137097Y37093D01*
X135896Y36596D01*
X134865Y35805D01*
X134073Y34773D01*
X133576Y33572D01*
X133472Y32783D01*
X137886D01*
Y37197D01*
D02*
G37*
G36*
X101878D02*
Y32783D01*
X106292D01*
X106188Y33572D01*
X105690Y34773D01*
X104899Y35805D01*
X103868Y36596D01*
X102667Y37093D01*
X101878Y37197D01*
D02*
G37*
G36*
X100878D02*
X100089Y37093D01*
X98888Y36596D01*
X97857Y35805D01*
X97066Y34773D01*
X96568Y33572D01*
X96464Y32783D01*
X100878D01*
Y37197D01*
D02*
G37*
G36*
X31232Y34382D02*
X28208D01*
X28265Y33953D01*
X28624Y33087D01*
X29194Y32344D01*
X29937Y31773D01*
X30803Y31414D01*
X31232Y31358D01*
Y34382D01*
D02*
G37*
G36*
X100878Y31784D02*
X96464D01*
X96568Y30995D01*
X97066Y29794D01*
X97857Y28762D01*
X98888Y27971D01*
X100089Y27474D01*
X100878Y27370D01*
Y31784D01*
D02*
G37*
G36*
X49213Y18150D02*
X47592Y17991D01*
X46033Y17518D01*
X44597Y16750D01*
X43338Y15717D01*
X42305Y14458D01*
X41537Y13022D01*
X41065Y11463D01*
X40905Y9843D01*
X41065Y8222D01*
X41537Y6663D01*
X42305Y5227D01*
X43338Y3968D01*
X44597Y2935D01*
X46033Y2167D01*
X47592Y1694D01*
X49213Y1535D01*
X50833Y1694D01*
X52392Y2167D01*
X53828Y2935D01*
X55087Y3968D01*
X56120Y5227D01*
X56888Y6663D01*
X57361Y8222D01*
X57520Y9843D01*
X57361Y11463D01*
X56888Y13022D01*
X56120Y14458D01*
X55087Y15717D01*
X53828Y16750D01*
X52392Y17518D01*
X50833Y17991D01*
X49213Y18150D01*
D02*
G37*
G36*
X9213D02*
X7592Y17991D01*
X6033Y17518D01*
X4597Y16750D01*
X3338Y15717D01*
X2305Y14458D01*
X1537Y13022D01*
X1065Y11463D01*
X905Y9843D01*
X1065Y8222D01*
X1537Y6663D01*
X2305Y5227D01*
X3338Y3968D01*
X4597Y2935D01*
X6033Y2167D01*
X7592Y1694D01*
X9213Y1535D01*
X10833Y1694D01*
X12392Y2167D01*
X13828Y2935D01*
X15087Y3968D01*
X16120Y5227D01*
X16888Y6663D01*
X17361Y8222D01*
X17520Y9843D01*
X17361Y11463D01*
X16888Y13022D01*
X16120Y14458D01*
X15087Y15717D01*
X13828Y16750D01*
X12392Y17518D01*
X10833Y17991D01*
X9213Y18150D01*
D02*
G37*
G36*
X143300Y31784D02*
X138886D01*
Y27370D01*
X139675Y27474D01*
X140876Y27971D01*
X141907Y28762D01*
X142698Y29794D01*
X143196Y30995D01*
X143300Y31784D01*
D02*
G37*
G36*
X137886D02*
X133472D01*
X133576Y30995D01*
X134073Y29794D01*
X134865Y28762D01*
X135896Y27971D01*
X137097Y27474D01*
X137886Y27370D01*
Y31784D01*
D02*
G37*
G36*
X106292D02*
X101878D01*
Y27370D01*
X102667Y27474D01*
X103868Y27971D01*
X104899Y28762D01*
X105690Y29794D01*
X106188Y30995D01*
X106292Y31784D01*
D02*
G37*
G36*
X99894Y214067D02*
X95480D01*
X95584Y213278D01*
X96081Y212077D01*
X96873Y211046D01*
X97904Y210255D01*
X99105Y209757D01*
X99894Y209653D01*
Y214067D01*
D02*
G37*
G36*
X61024Y219332D02*
X59790Y219170D01*
X58641Y218694D01*
X57654Y217936D01*
X56897Y216950D01*
X56421Y215800D01*
X56258Y214567D01*
X56421Y213334D01*
X56897Y212184D01*
X57654Y211197D01*
X58641Y210440D01*
X59790Y209964D01*
X61024Y209802D01*
X62257Y209964D01*
X62833Y210203D01*
X87957Y185079D01*
Y179541D01*
X87724Y179191D01*
X87556Y178347D01*
X87724Y177502D01*
X88203Y176785D01*
X88919Y176307D01*
X89764Y176139D01*
X90609Y176307D01*
X91325Y176785D01*
X91803Y177502D01*
X91972Y178347D01*
X91803Y179191D01*
X91570Y179541D01*
Y185827D01*
X91433Y186518D01*
X91041Y187104D01*
X65388Y212757D01*
X65626Y213334D01*
X65789Y214567D01*
X65626Y215800D01*
X65150Y216950D01*
X64393Y217936D01*
X63406Y218694D01*
X62257Y219170D01*
X61024Y219332D01*
D02*
G37*
G36*
X152165Y56734D02*
X150932Y56571D01*
X149783Y56095D01*
X148796Y55338D01*
X148039Y54351D01*
X147563Y53202D01*
X147400Y51968D01*
X147563Y50735D01*
X148039Y49586D01*
X148796Y48599D01*
X149783Y47842D01*
X150932Y47366D01*
X152165Y47203D01*
X153399Y47366D01*
X154548Y47842D01*
X155535Y48599D01*
X156292Y49586D01*
X156768Y50735D01*
X156930Y51968D01*
X156768Y53202D01*
X156292Y54351D01*
X155535Y55338D01*
X154548Y56095D01*
X153399Y56571D01*
X152165Y56734D01*
D02*
G37*
G36*
X105307Y214067D02*
X100894D01*
Y209653D01*
X101682Y209757D01*
X102884Y210255D01*
X103915Y211046D01*
X104706Y212077D01*
X105204Y213278D01*
X105307Y214067D01*
D02*
G37*
G36*
X100894Y219481D02*
Y215067D01*
X105307D01*
X105204Y215856D01*
X104706Y217057D01*
X103915Y218088D01*
X102884Y218879D01*
X101682Y219377D01*
X100894Y219481D01*
D02*
G37*
G36*
X99894D02*
X99105Y219377D01*
X97904Y218879D01*
X96873Y218088D01*
X96081Y217057D01*
X95584Y215856D01*
X95480Y215067D01*
X99894D01*
Y219481D01*
D02*
G37*
G36*
X80709Y219332D02*
X79475Y219170D01*
X78326Y218694D01*
X77339Y217936D01*
X76582Y216950D01*
X76106Y215800D01*
X75943Y214567D01*
X76106Y213334D01*
X76582Y212184D01*
X77339Y211197D01*
X78326Y210440D01*
X79475Y209964D01*
X80709Y209802D01*
X81942Y209964D01*
X83091Y210440D01*
X84078Y211197D01*
X84835Y212184D01*
X85312Y213334D01*
X85474Y214567D01*
X85312Y215800D01*
X84835Y216950D01*
X84078Y217936D01*
X83091Y218694D01*
X81942Y219170D01*
X80709Y219332D01*
D02*
G37*
G36*
X32232Y38406D02*
Y35382D01*
X35256D01*
X35200Y35811D01*
X34841Y36677D01*
X34271Y37420D01*
X33527Y37991D01*
X32661Y38349D01*
X32232Y38406D01*
D02*
G37*
G36*
X31232D02*
X30803Y38349D01*
X29937Y37991D01*
X29194Y37420D01*
X28624Y36677D01*
X28265Y35811D01*
X28208Y35382D01*
X31232D01*
Y38406D01*
D02*
G37*
G36*
X138886Y37197D02*
Y32783D01*
X143300D01*
X143196Y33572D01*
X142698Y34773D01*
X141907Y35805D01*
X140876Y36596D01*
X139675Y37093D01*
X138886Y37197D01*
D02*
G37*
G36*
X16732Y48257D02*
X15859Y48142D01*
X15045Y47805D01*
X14346Y47269D01*
X13809Y46570D01*
X13472Y45755D01*
X13357Y44882D01*
X13472Y44008D01*
X13809Y43194D01*
X14346Y42495D01*
X15045Y41959D01*
X15859Y41622D01*
X16732Y41507D01*
X17606Y41622D01*
X18420Y41959D01*
X19119Y42495D01*
X19655Y43194D01*
X19993Y44008D01*
X20108Y44882D01*
X19993Y45755D01*
X19655Y46570D01*
X19119Y47269D01*
X18420Y47805D01*
X17606Y48142D01*
X16732Y48257D01*
D02*
G37*
G36*
X115157Y56734D02*
X113924Y56571D01*
X112775Y56095D01*
X111788Y55338D01*
X111031Y54351D01*
X110555Y53202D01*
X110392Y51968D01*
X110555Y50735D01*
X111031Y49586D01*
X111788Y48599D01*
X112775Y47842D01*
X113924Y47366D01*
X115157Y47203D01*
X116391Y47366D01*
X117540Y47842D01*
X118527Y48599D01*
X119284Y49586D01*
X119760Y50735D01*
X119923Y51968D01*
X119760Y53202D01*
X119284Y54351D01*
X118527Y55338D01*
X117540Y56095D01*
X116391Y56571D01*
X115157Y56734D01*
D02*
G37*
G36*
X58661Y146686D02*
X57685Y146557D01*
X56775Y146180D01*
X55994Y145581D01*
X52451Y142038D01*
X51851Y141256D01*
X51474Y140347D01*
X51346Y139370D01*
Y126378D01*
Y126366D01*
X14655Y89675D01*
X14056Y88894D01*
X13679Y87984D01*
X13550Y87008D01*
X13679Y86032D01*
X14056Y85122D01*
X14655Y84340D01*
X43457Y55538D01*
X36092Y48173D01*
X35859Y48142D01*
X35045Y47805D01*
X34346Y47269D01*
X33809Y46570D01*
X33472Y45755D01*
X33357Y44882D01*
X33472Y44008D01*
X33809Y43194D01*
X34346Y42495D01*
X35045Y41959D01*
X35859Y41622D01*
X36732Y41507D01*
X37606Y41622D01*
X38420Y41959D01*
X39119Y42495D01*
X39655Y43194D01*
X39993Y44008D01*
X40023Y44242D01*
X49883Y54102D01*
X51726D01*
X52703Y54230D01*
X53613Y54607D01*
X54394Y55207D01*
X59360Y60173D01*
X59960Y60954D01*
X60337Y61864D01*
X60465Y62841D01*
Y62992D01*
Y79298D01*
X84730Y103563D01*
X85351Y103820D01*
X86132Y104419D01*
X91720Y110007D01*
X111024D01*
X112000Y110136D01*
X112910Y110512D01*
X113691Y111112D01*
X114291Y111893D01*
X114667Y112803D01*
X114796Y113779D01*
X114667Y114756D01*
X114291Y115666D01*
X113691Y116447D01*
X112910Y117046D01*
X112000Y117423D01*
X111024Y117552D01*
X90158D01*
X89181Y117423D01*
X88271Y117046D01*
X87490Y116447D01*
X81653Y110611D01*
X81033Y110354D01*
X80252Y109754D01*
X54025Y83528D01*
X53426Y82746D01*
X53049Y81836D01*
X52921Y80860D01*
Y64403D01*
X50164Y61646D01*
X48019D01*
X22908Y86758D01*
Y87258D01*
X57786Y122136D01*
X58385Y122917D01*
X58762Y123827D01*
X58890Y124803D01*
Y126378D01*
Y137808D01*
X61329Y140246D01*
X61928Y141027D01*
X62305Y141937D01*
X62434Y142913D01*
X62305Y143890D01*
X61928Y144800D01*
X61329Y145581D01*
X60548Y146180D01*
X59638Y146557D01*
X58661Y146686D01*
D02*
G37*
G36*
X26732Y48257D02*
X25859Y48142D01*
X25045Y47805D01*
X24346Y47269D01*
X23809Y46570D01*
X23472Y45755D01*
X23357Y44882D01*
X23472Y44008D01*
X23809Y43194D01*
X24346Y42495D01*
X25045Y41959D01*
X25859Y41622D01*
X26732Y41507D01*
X27606Y41622D01*
X28420Y41959D01*
X29119Y42495D01*
X29655Y43194D01*
X29993Y44008D01*
X30108Y44882D01*
X29993Y45755D01*
X29655Y46570D01*
X29119Y47269D01*
X28420Y47805D01*
X27606Y48142D01*
X26732Y48257D01*
D02*
G37*
%LPD*%
D26*
X36732Y44882D02*
X49724Y57874D01*
D27*
X89764Y178347D02*
Y185827D01*
X61024Y214567D02*
X89764Y185827D01*
D28*
X138386Y32283D02*
D03*
X152165Y51968D02*
D03*
X101378Y32283D02*
D03*
X115157Y51968D02*
D03*
X61024Y214567D02*
D03*
X100394D02*
D03*
X80709D02*
D03*
D29*
X26732Y44882D02*
D03*
X36732D02*
D03*
X16732D02*
D03*
X21732Y34882D02*
D03*
X31732D02*
D03*
X41732D02*
D03*
D30*
X49213Y9843D02*
D03*
X9213D02*
D03*
D31*
X13780Y224016D02*
D03*
X31496D02*
D03*
X131890D02*
D03*
X149606D02*
D03*
X134646Y142126D02*
D03*
X147638Y145669D02*
D03*
Y112598D02*
D03*
X120079Y106299D02*
D03*
X96457D02*
D03*
X131102Y75984D02*
D03*
X97244Y66929D02*
D03*
X89764Y178347D02*
D03*
X83071Y100000D02*
D03*
Y93307D02*
D03*
X22047Y148031D02*
D03*
X16535Y153543D02*
D03*
Y161417D02*
D03*
Y170079D02*
D03*
Y177953D02*
D03*
X25197D02*
D03*
X34252D02*
D03*
X42913D02*
D03*
X55118D02*
D03*
X66535D02*
D03*
X77559D02*
D03*
X81496Y169291D02*
D03*
Y159843D02*
D03*
Y153543D02*
D03*
X73228Y145276D02*
D03*
Y135039D02*
D03*
X49606Y62992D02*
D03*
X6693Y111417D02*
D03*
X11811Y112205D02*
D03*
X10630Y87008D02*
D03*
X17323D02*
D03*
X56693Y62992D02*
D03*
X49606Y59055D02*
D03*
X58661Y142913D02*
D03*
X55118Y126378D02*
D03*
X111024Y113779D02*
D03*
X83465Y107087D02*
D03*
D32*
X90158Y113779D02*
X111024D01*
X83465Y107087D02*
X90158Y113779D01*
X82919Y107087D02*
X83465D01*
X56693Y80860D02*
X82919Y107087D01*
X56693Y62992D02*
Y80860D01*
Y62841D02*
Y62992D01*
X51726Y57874D02*
X56693Y62841D01*
X17323Y87008D02*
X46457Y57874D01*
X17323Y87008D02*
X55118Y124803D01*
Y139370D02*
X58661Y142913D01*
X55118Y124803D02*
Y126378D01*
Y139370D01*
X46457Y57874D02*
X49724D01*
X51726D01*
M02*
