%FSLAX25Y25*%
%MOIN*%
G70*
G01*
G75*
G04 Layer_Color=8421504*
%ADD10R,0.03150X0.03543*%
%ADD11R,0.05118X0.04134*%
%ADD12R,0.07087X0.07165*%
%ADD13R,0.06102X0.05315*%
%ADD14R,0.22047X0.22047*%
%ADD15R,0.07874X0.04724*%
%ADD16R,0.03740X0.02756*%
%ADD17R,0.04331X0.04528*%
%ADD18R,0.05315X0.06102*%
%ADD19R,0.04528X0.04331*%
%ADD20R,0.05906X0.01181*%
%ADD21R,0.01181X0.05906*%
%ADD22R,0.03543X0.03150*%
%ADD23R,0.02835X0.02835*%
%ADD24R,0.21654X0.07874*%
%ADD25C,0.01000*%
%ADD26C,0.03937*%
%ADD27C,0.01969*%
%ADD28C,0.07874*%
%ADD29C,0.05118*%
%ADD30C,0.14961*%
%ADD31C,0.02756*%
%ADD32C,0.05906*%
D10*
X13780Y204331D02*
D03*
Y197244D02*
D03*
X31496Y204331D02*
D03*
Y197244D02*
D03*
X131890Y204331D02*
D03*
Y197244D02*
D03*
X149606Y204331D02*
D03*
Y197244D02*
D03*
X92520Y84646D02*
D03*
Y91732D02*
D03*
D11*
X13780Y219488D02*
D03*
Y210236D02*
D03*
X31496Y219488D02*
D03*
Y210236D02*
D03*
X131890Y219488D02*
D03*
Y210236D02*
D03*
X149606Y219488D02*
D03*
Y210236D02*
D03*
X92520Y67421D02*
D03*
Y76673D02*
D03*
D12*
X151969Y68996D02*
D03*
Y83760D02*
D03*
X114567Y68996D02*
D03*
Y83760D02*
D03*
D13*
X136221Y75984D02*
D03*
Y83858D02*
D03*
X147638Y150787D02*
D03*
Y158661D02*
D03*
X14173Y106299D02*
D03*
Y98425D02*
D03*
D14*
X106299Y155905D02*
D03*
D15*
X134646Y147047D02*
D03*
Y164764D02*
D03*
D16*
X104626Y118110D02*
D03*
X111122D02*
D03*
D03*
D17*
X96063Y111024D02*
D03*
Y118110D02*
D03*
X119685Y111024D02*
D03*
Y118110D02*
D03*
X79134Y93307D02*
D03*
Y86221D02*
D03*
Y100000D02*
D03*
Y107087D02*
D03*
X7087Y105512D02*
D03*
Y98425D02*
D03*
D18*
X147638Y118110D02*
D03*
X139764D02*
D03*
D19*
X10630Y91732D02*
D03*
X17717D02*
D03*
X65748Y138583D02*
D03*
X58661D02*
D03*
X65354Y130315D02*
D03*
X58268D02*
D03*
X49606Y67323D02*
D03*
X56693D02*
D03*
D20*
X24803Y83268D02*
D03*
Y85236D02*
D03*
Y87205D02*
D03*
Y89173D02*
D03*
Y91142D02*
D03*
Y93110D02*
D03*
Y95079D02*
D03*
Y97047D02*
D03*
Y99016D02*
D03*
Y100984D02*
D03*
Y102953D02*
D03*
Y104921D02*
D03*
Y106890D02*
D03*
Y108858D02*
D03*
Y110827D02*
D03*
Y112795D02*
D03*
X69685D02*
D03*
Y110827D02*
D03*
Y108858D02*
D03*
Y106890D02*
D03*
Y104921D02*
D03*
Y102953D02*
D03*
Y100984D02*
D03*
Y99016D02*
D03*
Y97047D02*
D03*
Y95079D02*
D03*
Y93110D02*
D03*
Y91142D02*
D03*
Y89173D02*
D03*
Y87205D02*
D03*
Y85236D02*
D03*
Y83268D02*
D03*
D21*
X32480Y120472D02*
D03*
X34449D02*
D03*
X36417D02*
D03*
X38386D02*
D03*
X40354D02*
D03*
X42323D02*
D03*
X44291D02*
D03*
X46260D02*
D03*
X48228D02*
D03*
X50197D02*
D03*
X52165D02*
D03*
X54134D02*
D03*
X56102D02*
D03*
X58071D02*
D03*
X60039D02*
D03*
X62008D02*
D03*
X62008Y75591D02*
D03*
X60039D02*
D03*
X58071D02*
D03*
X56102D02*
D03*
X54134D02*
D03*
X52165D02*
D03*
X50197D02*
D03*
X48228D02*
D03*
X46260D02*
D03*
X44291D02*
D03*
X42323D02*
D03*
X40354D02*
D03*
X38386D02*
D03*
X36417D02*
D03*
X34449D02*
D03*
X32480D02*
D03*
D22*
X37008Y59055D02*
D03*
X44094D02*
D03*
D23*
X55512Y151575D02*
D03*
X59449D02*
D03*
X42913D02*
D03*
X38976D02*
D03*
D24*
X67913Y165354D02*
D03*
X30512D02*
D03*
M02*
